<?xml version="1.0" encoding="utf-8"?>
<!-- Generator: Adobe Illustrator 25.0.1, SVG Export Plug-In . SVG Version: 6.00 Build 0)  -->
<svg version="1.1" id="Capa_1" xmlns="http://www.w3.org/2000/svg" xmlns:xlink="http://www.w3.org/1999/xlink" x="0px" y="0px"
	 width="1424px" height="1620px" viewBox="0 0 1424 1620" style="enable-background:new 0 0 1424 1620;" xml:space="preserve">
<style type="text/css">
	.st0{fill:#2F6399;}
	.st1{fill:#E27770;}
</style>
<g>
	<path class="st0" d="M711.5,1605c-232.9,0-465.9,0-698.8,0c-2,0-4,0-6-0.1c-1.8,0-2.7-0.9-2.7-2.8c-0.1-5.1-0.7-10.3-0.4-15.4
		c0.9-14.4-1-28.8,0-43.1c1.9-29.5,1.9-59.1,3.2-88.6c0.5-11.7,1.3-23.5,3-35.1c1.8-12.1,3.4-24.3,4.9-36.4
		c2.4-18.8,6.9-37.1,10.9-55.5c3.4-15.7,8.9-31,14.5-46.1c7.1-19.2,15-38.1,24.8-56c9.3-17,19.4-33.6,32.2-48.4
		c13.4-15.6,28.3-29.3,44.5-41.9c14.4-11.2,30.5-19.5,46.2-28.4c11-6.2,22.4-11.7,34.1-16.4c17.5-7.1,35.8-10.8,54.6-11.7
		c12.4-0.6,24.6-2.9,36.9-4.8c11.3-1.8,22.5-4.1,33.6-6.5c8.1-1.8,16-4.2,24-6.3c17.5-4.6,34.8-9.7,52.5-13.4
		c13.8-2.9,26.7-7.6,39.2-13.8c15.3-7.6,31-14.4,45.3-24c9.4-6.2,16.2-14.7,22.6-23.6c1.5-2.1,1.8-4.6,1.8-7.1
		c0-16.8,0.2-33.7-0.1-50.5c-0.1-5.7-1.2-11.5-2.2-17.2c-1.9-11.3-3.8-22.5-6.2-33.7c-1.8-8.3-3.8-16.5-6.6-24.5
		c-3.9-11.3-8-22.5-13.2-33.3c-4.4-9.1-9.6-17.8-14.2-26.8c-8.9-17-20.8-32-31.1-48c-9.1-14.1-18.6-28-26.1-43
		c-7.1-14.2-14.6-28.3-18.5-43.9c-0.3-1.3-0.6-2.6-0.8-3.9c-0.9-5.7-2.1-10.5-7.1-14.9c-12.5-10.8-21.3-24.8-29.1-39.4
		c-5.1-9.6-9.4-19.5-12.1-29.9c-1.9-7.6-3.4-15.5-4.6-23.4c-1.8-12-3.7-24-3-36.2c0.5-9.7,1.3-19.6,4.2-29c2.5-8.1,7.2-14.3,17-14
		c3.2,0.1,4.8-1.5,4.6-4.9c-0.9-12.4-1.6-24.8-2.6-37.2c-0.2-2.8-0.1-5.7,0.3-8.3c0.7-5.2,0.8-10.3,0.5-15.4
		c-1.1-16.1,1.6-31.8,3.3-47.6c1.6-15.2,3.8-30.6,7.6-45.4c4.5-17.4,8.8-34.9,15.4-51.9c6.2-15.9,12.7-31.7,20-47.1
		c5.3-11.1,11.8-21.6,18.1-32.1c9.6-16.2,20.9-31.3,33.1-45.4c14.9-17.2,31.2-33.2,49.2-47.5c18.5-14.8,38.2-27.7,59.3-38.1
		c20.1-9.9,40.9-18.1,63-23.2c12.8-3,25.9-3.9,38.5-7.7c1.5-0.5,3.3-0.3,5-0.3c12,0,24,0.3,36-0.1c11.6-0.4,22.7,2,34,3.7
		c9.3,1.4,18.7,3.1,27.7,5.5c10,2.6,19.9,6.2,29.7,9.8c17.7,6.5,34.6,14.8,50.7,24.4c18.8,11.2,36.7,24,52.9,38.8
		c11.7,10.7,23.5,21.5,33.5,33.9c12.7,15.7,25.2,31.6,35.7,48.9c11.6,19.1,22.2,38.6,30.6,59.3c6.9,17.2,13.8,34.6,17.9,52.8
		c4,17.4,8.4,34.7,10.5,52.5c1.8,15.5,3.9,30.9,4.5,46.5c0.5,13.9,0.7,27.7,0.8,41.6c0.1,10.1-1.5,20.2-2.4,30.2
		c-0.3,3.4,1.1,4.9,4.6,4.7c8.9-0.7,13.7,4.6,16.2,12.1c5.4,16.2,5.5,32.8,3.9,49.6c-0.9,9.1-1.5,18.2-3.4,27.1
		c-3.6,16.9-8.2,33.4-16.9,48.6c-6.2,10.7-13.3,20.6-20.7,30.3c-0.7,0.9-1.4,2.1-2.4,2.5c-10.9,4.6-10.9,14.9-12.8,24.2
		c-1.2,6.1-3.7,11.7-6.2,17.3c-9,20.2-18.8,40.1-31.4,58.3c-7.6,11-14.5,22.6-23,33.1c-3.6,4.5-7.1,9.5-9.2,15.3
		c-2,5.6-6.3,10.1-9.2,15.3c-6.6,12-12.7,24.1-17.7,36.8c-4.9,12.5-9.3,25.4-11.9,38.4c-3.1,15.3-7.5,30.5-8.4,46.4
		c-0.9,16.2-2.1,32.4-2.5,48.7s7.5,27.9,19.6,37.1c16.9,12.8,36,21.9,54.8,31.5c20.9,10.6,43.7,14.5,65.6,21.2
		c13.3,4.1,26.6,8.1,40,12c11.4,3.3,23,6.1,34.8,8c7.2,1.2,14.4,2.4,21.4,4.5c6.7,2,13.5,1.2,20.2,2.4c20.2,3.4,39.8,8,58.2,17.7
		c13.1,6.9,26,14,38.5,21.9c23,14.6,44.1,31.6,62,52.1c14,16,25.6,33.8,35.7,52.7c11.5,21.3,20.9,43.5,28.8,66.2
		c6.6,18.7,12.5,37.8,16,57.4c2.4,13.3,6.1,26.5,8.1,39.8c1.4,9.5,2.5,19,3.6,28.6c1.3,11.5,2.2,23.1,3.7,34.6
		c1,7.5,1.4,15.3,1.5,22.8c0.4,22.6,1.8,45.2,2,67.9c0.1,13.6,1.4,27.2,1.4,40.8c0,3.9-1.1,7.5-1.6,11.3c-0.2,1.8-1.3,2.1-2.8,2.2
		c-2,0-4,0-6,0C1177.4,1605,944.5,1605,711.5,1605z M738.9,181c-35.9,0.1-62.4,4.4-88.1,14c-21.4,8.1-41.1,19-58.2,34.2
		c-19.2,16.9-33.9,37.1-44.7,60.5c-8.7,18.8-13.4,37.9-11.8,58.4c1.3,17.1,7.4,32.8,18.1,46.2c10.9,13.6,29,11.5,37.8-3.6
		c6.5-11,7.6-23.1,7.3-35.2c-0.2-9.6-1.2-19.4-0.2-28.9c1.4-13.4,4.1-26.7,13.3-37.5c5.4-6.3,11-12.4,17.5-17.7
		c21.3-17.5,44.7-28.5,73.3-24.6c21.3,2.8,39.9,11.5,55.7,25.7c22.4,20.3,36.7,45.8,46.3,74.1c12.1,35.3,15.9,71.6,12.7,108.6
		c-1.2,13.2-2.2,26.4-6.7,39.1c-3.1,8.6-5.9,17.3-8.8,26c-12.2,35.9-28.2,69.9-48.8,101.9c-14.6,22.6-28.3,45.8-42,69
		c-14.8,25.2-24.9,51.8-29.8,80.4c-2.8,16.4,5.6,28.2,22.6,32.8c15.1,4.1,29.5-3,35.5-17.4c3.6-8.6,5.5-17.5,5.8-26.7
		c0.4-13.4,4.1-25.4,11.4-36.6c11.5-17.6,25.3-33.3,39.7-48.6c8.5-9,17.1-17.7,25.5-26.8c14-14.9,27.6-30.1,41.1-45.6
		c8.9-10.2,17.6-20.4,25.5-31.3c10.3-14.3,19.9-29.1,28.2-44.7c15.6-29.5,28.7-59.9,33.1-93.5c2.8-21.2,1.4-42.2-1.9-63
		c-4.9-31-17.5-59.2-34.5-85.5c-15.9-24.7-35-46.4-59-63.6c-13.2-9.5-27.8-16.3-42.6-22.7C786,187.5,758.9,181.1,738.9,181z
		 M711.8,938.9c27-0.1,48.1-20.7,48-47c-0.1-27-20.7-47.9-47.2-47.8c-27,0.1-48.4,20.8-48.4,46.7C664.2,917.8,685.2,939,711.8,938.9
		z"/>
	<path class="st1" d="M738.9,181c20,0.1,47.1,6.5,73.2,17.7c14.8,6.4,29.4,13.2,42.6,22.7c24,17.2,43.1,39,59,63.6
		c16.9,26.3,29.6,54.5,34.5,85.5c3.3,20.8,4.7,41.8,1.9,63c-4.4,33.6-17.5,64-33.1,93.5c-8.2,15.6-17.8,30.4-28.2,44.7
		c-7.9,10.9-16.6,21.1-25.5,31.3c-13.4,15.4-27.1,30.6-41.1,45.6c-8.4,9-17,17.8-25.5,26.8c-14.4,15.2-28.2,30.9-39.7,48.6
		c-7.3,11.2-11,23.2-11.4,36.6c-0.3,9.2-2.2,18.1-5.8,26.7c-6,14.4-20.3,21.5-35.5,17.4c-17-4.7-25.4-16.4-22.6-32.8
		c4.8-28.6,14.9-55.2,29.8-80.4c13.7-23.2,27.4-46.4,42-69c20.6-32,36.6-66,48.8-101.9c2.9-8.7,5.8-17.4,8.8-26
		c4.5-12.7,5.5-25.9,6.7-39.1c3.2-37.1-0.6-73.4-12.7-108.6c-9.7-28.3-23.9-53.9-46.3-74.1c-15.8-14.3-34.4-22.9-55.7-25.7
		c-28.6-3.8-52,7.1-73.3,24.6c-6.4,5.3-12.1,11.4-17.5,17.7c-9.2,10.8-11.9,24.1-13.3,37.5c-1,9.5,0,19.3,0.2,28.9
		c0.2,12.1-0.9,24.2-7.3,35.2c-8.9,15.1-26.9,17.2-37.8,3.6c-10.7-13.4-16.8-29.1-18.1-46.2c-1.6-20.5,3.1-39.6,11.8-58.4
		c10.8-23.5,25.5-43.6,44.7-60.5c17.1-15.1,36.8-26.1,58.2-34.2C676.5,185.4,703.1,181.2,738.9,181z"/>
	<path class="st1" d="M711.8,938.9c-26.6,0.1-47.6-21.1-47.6-48c0-26,21.4-46.7,48.4-46.7c26.6-0.1,47.2,20.8,47.2,47.8
		C759.9,918.2,738.8,938.9,711.8,938.9z"/>
</g>
</svg>
