<?xml version="1.0" encoding="utf-8"?>
<!-- Generator: Adobe Illustrator 25.0.1, SVG Export Plug-In . SVG Version: 6.00 Build 0)  -->
<svg version="1.1" id="Capa_1" xmlns="http://www.w3.org/2000/svg" xmlns:xlink="http://www.w3.org/1999/xlink" x="0px" y="0px"
	 width="1602px" height="1620px" viewBox="0 0 1602 1620" style="enable-background:new 0 0 1602 1620;" xml:space="preserve">
<style type="text/css">
	.st0{fill:#36679A;}
	.st1{fill:#E47870;}
</style>
<g>
	<path class="st0" d="M201.3,377.4c5.3,0,10.6-0.2,15.8,0.1c12.1,0.7,24.3,1.3,36.3,3.3c3.1,0.5,6.3,0.7,9.5,1.3
		c6.3,1.2,12.6,1.9,18.9,3.3c8.3,1.7,16.5,3.7,24.7,5.8c21.4,5.6,42.3,12.6,62.7,21c15.1,6.2,30,12.9,44.3,20.8
		c6.3,3.5,12.6,7,18.9,10.4c0.1,0.1,0.3,0.2,0.4,0.2c1.8,1,3.2,1.1,3.5,0.3c0.5-1.3-0.4-2.1-1-3c-6.6-11.5-12.9-23.2-18.6-35.2
		c-7.5-15.6-14.2-31.5-20.1-47.7c-6.4-17.6-11.7-35.5-16.2-53.7c-2-8.2-3.7-16.5-5-24.9c-1.1-7.4-2.4-14.8-3.5-22.2
		c-0.5-3.8-0.9-7.6-1.2-11.4c-0.9-11.5-1.9-23-1.8-34.5c0.1-16,1-31.9,3.4-47.8c2.2-14.8,5.3-29.3,10-43.4
		c5.7-17.2,13.2-33.6,23.6-48.6c11.8-17.1,26.2-31.4,44.2-41.8c12-6.9,24.8-11.8,38.4-14.6c12.3-2.5,24.8-3.1,37.2-2.2
		c16.5,1.2,32.5,5,48.1,10.7c21.1,7.6,40.4,18.4,58.5,31.5c8.3,6,16.2,12.5,23.9,19.3c9.1,8,17.7,16.6,26.2,25.4
		c8.3,8.7,16,17.9,23.4,27.3c6.6,8.4,12.8,17.1,18.8,26.1c9.3,14,17.9,28.4,25.7,43.3c13.4,25.6,24.5,52.1,33.3,79.5
		c4.3,13.4,8,27,11,40.7c2.3,10.8,4.3,21.6,5.7,32.5c0.2,1.6,0.5,3.2,1.4,4.5c0.1,0.2,0.5,0.3,0.8,0.3s0.7-0.2,0.7-0.5
		c0.5-1.8,1.1-3.7,1.3-5.6c2.4-19.5,6.7-38.7,12.1-57.6c5.8-20.3,12.8-40.2,21.2-59.6c6.7-15.4,14.1-30.5,22.3-45.1
		c10.6-19.1,22.4-37.2,35.6-54.6c7.3-9.7,15.1-19,23.3-27.9c5-5.4,10-10.8,15.3-15.9c15.6-15,32-28.9,50.3-40.6
		c21-13.5,43.5-23.7,67.9-29.6c15.5-3.7,31.2-5.3,47.1-4.1c14.6,1.1,28.7,4.5,42.1,10.4c16.2,7.1,30.2,17.3,42.3,30.1
		c8,8.4,14.6,17.8,20.6,27.7c10.1,16.9,16.9,35.1,21.9,54.1c3.4,12.9,5.5,25.9,7,39.1c2,17.5,2.3,35.1,1.5,52.7
		c-0.5,11.6-1.6,23.2-3.2,34.8c-1.3,9.2-2.8,18.3-4.5,27.4c-1.9,10-4.4,20-7.1,29.8c-3.9,14.2-8.4,28.2-13.5,42
		c-4,11-8.5,21.8-13.3,32.4c-4,8.9-8.2,17.7-12.8,26.3c-3.8,7-7.7,14-11.6,21c-0.6,1.1-1.8,2.3-0.5,3.4c1,0.9,2.1-0.1,3-0.7
		c7.5-4,14.8-8.2,22.3-12.1c20-10.4,40.7-19.4,61.9-27.1c17.5-6.3,35.3-11.5,53.3-15.9c7.6-1.9,15.3-3.4,23-4.6
		c3.6-0.5,7.2-1.4,10.9-1.9c8.6-1,17.1-2.6,25.7-3.3c13.4-1.1,26.8-1.6,40.3-1.4c8.3,0.1,16.6,0.5,24.9,1.3
		c18.5,1.8,36.7,5.1,54.5,10.6c12.9,4,25.3,9,37.2,15.4c13.7,7.4,26.4,16.4,37.3,27.5c16.9,17.2,28.3,37.4,33.8,60.8
		c3.5,14.7,4.1,29.7,2.6,44.8c-1.5,16-5.4,31.5-11.1,46.5c-4.9,12.9-10.9,25.2-18,37.1c-9.3,15.6-20.3,29.9-32.3,43.4
		c-8.9,10.1-18.2,19.7-28.2,28.7c-12.8,11.6-26.3,22.4-40.4,32.4c-24.3,17.3-50.2,31.9-77.3,44.3c-22.4,10.3-45.5,18.8-69.2,25.5
		c-9.9,2.8-19.7,5.4-29.8,7.5c-6.6,1.4-13.2,2.4-19.8,3.6c-4.2,0.7-8.5,1.3-12.8,2c-0.6,0.1-1.2,0.4-1.7,0.7c-0.3,0.3-0.5,0.9,0,1.2
		c1.5,1.1,3.2,1.3,5,1.5c9.8,1.1,19.6,3,29.3,4.9c8.5,1.7,16.8,4,25.1,6.2c15.2,4.1,30,9,44.7,14.6c10.2,3.9,20.2,8.1,30.1,12.7
		c18.3,8.4,36.1,18,53.2,28.6c12.9,8,25.4,16.7,37.5,25.9c16.2,12.4,31.2,26,45.2,40.7c16.3,17,30.9,35.4,42.9,55.8
		c6.7,11.5,12.4,23.4,17,35.9c3.8,10.2,6.7,20.7,8.7,31.4c2.4,12.8,3.4,25.7,2.3,38.7c-1.7,21.1-7.9,40.7-19.3,58.6
		c-9.2,14.5-20.8,26.7-34.6,36.8c-14.1,10.4-29.6,18.3-46.1,24.4c-16.3,6-33,9.9-50.2,12.5c-11.1,1.7-22.2,2.6-33.4,3.1
		c-6.1,0.3-12.1,0.6-18.2,0.4c-7.7-0.3-15.3-1-23-1.2c-5.8-0.2-11.5-1-17.2-1.5c-4.9-0.4-9.8-1.2-14.7-2c-8.7-1.5-17.3-3-25.9-4.7
		c-6.9-1.4-13.7-3.1-20.5-5c-11.6-3.1-23.1-6.5-34.4-10.5c-16.6-5.8-32.9-12.3-48.9-19.7c-11.2-5.2-22.1-10.9-32.9-16.7
		c-2.7-1.4-5.3-3-7.9-4.6c-0.8-0.5-1.7-1-2.5-1.4c-0.6-0.3-1.3-0.4-1.7,0.2c-0.2,0.4-0.3,0.9-0.2,1.3c0.3,0.9,0.7,1.8,1.2,2.6
		c8.1,14,15.6,28.3,22.3,43c5.7,12.5,11,25.2,15.7,38.1c6.6,18,12.2,36.4,16.6,55.1c1.9,7.9,3.7,15.8,4.9,23.9
		c0.5,3.5,1.4,6.9,1.8,10.4c0.6,5.9,1.7,11.7,2.4,17.6c1.9,16.5,2.6,33.1,2.3,49.8c-0.3,13.6-1.4,27.1-3.5,40.6
		c-2,12.5-4.6,24.8-8.2,36.9c-6.3,20.7-15.2,40-28,57.5c-14.5,19.9-32.9,35.2-55.7,44.9c-10.6,4.5-21.7,7.5-33.3,8.8
		c-5.4,0.6-10.8,1.2-16.2,1.2c-8,0-16-0.5-23.9-1.8c-10.6-1.7-21-4.2-31.2-7.6c-12.3-4.1-24.1-9.4-35.5-15.6
		c-11-6-21.4-12.8-31.4-20.3c-7.3-5.5-14.3-11.3-21.1-17.3c-8-7-15.5-14.4-22.8-22c-11.7-12.1-22.4-25-32.4-38.5
		c-13.2-17.9-25-36.7-35.6-56.3c-11.7-21.7-21.6-44.2-30-67.4c-5.7-15.7-10.4-31.6-14.4-47.7c-1.9-7.6-3.7-15.2-4.8-23
		c-0.5-3.8-1.2-7.6-2-11.3c-0.4-1.9-0.7-3.8-0.8-5.7c-0.1-2.1-0.5-4.1-1.4-6c-0.2-0.5-1.2-0.6-1.6-0.2c-1,1.2-1.2,2.6-1.3,4
		c-4,31.7-12.3,62.4-23.2,92.4c-7.3,20.3-16.1,40.1-26.1,59.2c-7.6,14.6-16,28.8-25,42.6c-9.2,14-19.3,27.4-30.1,40.4
		c-3.2,3.8-6.5,7.5-9.9,11.1c-4.7,5-9.3,10.1-14.2,14.9c-17.3,16.7-35.5,32.2-56.1,44.8c-12,7.4-24.6,13.7-37.7,18.8
		c-10.6,4.1-21.4,7.5-32.6,9.5c-6.9,1.2-13.8,2.5-20.9,2.7c-5.6,0.2-11.1,0.5-16.8,0.1c-26.5-1.5-50.3-10.1-71.3-26.3
		c-13.6-10.5-24.7-23.1-33.8-37.6c-13.5-21.6-22-45-27.2-69.8c-2.5-11.8-4-23.6-5.3-35.5c0-0.3-0.1-0.6-0.1-1
		c-0.5-12.1-1.5-24.3-0.9-36.4c0.4-8.9,0.8-17.9,1.8-26.8c1.1-10.8,2.6-21.5,4.5-32.3c3.5-20.4,8.5-40.3,14.8-60
		c6.3-19.8,13.7-39.2,22.4-58.2c7-15.1,14.6-29.9,23-44.3c0.5-0.8,0.8-1.7,1.1-2.6c0.2-0.6-0.6-1.4-1.1-1.1
		c-1.3,0.5-2.7,1.1-3.9,1.8c-13.5,8-27.5,15-41.7,21.7c-17.8,8.3-36.2,15.4-54.9,21.5c-12.8,4.2-25.7,8-38.7,11
		c-8.2,1.9-16.6,3.5-24.9,5c-7.5,1.4-15.1,2.5-22.7,3.6c-4.1,0.6-8.3,0.9-12.4,1.3c-3.5,0.3-7,0.6-10.5,0.7
		c-8.1,0.3-16.3,1.1-24.4,0.9c-15.2-0.4-30.3-1.1-45.4-3.4c-17.1-2.5-33.9-6.4-50.2-12.3c-18.9-6.8-36.7-16-52.3-28.8
		c-23.4-19.1-39.2-43.2-45.9-72.9c-2.4-11-3.6-22.1-3.1-33.3c0.7-17.2,4-33.9,9.6-50.2c7.9-23,19.3-44.2,33.9-63.7
		c7.6-10.3,15.9-20,24.5-29.5c8.7-9.6,18.1-18.6,27.8-27.2c11.4-10.1,23.4-19.4,35.8-28.1c22.7-16,46.7-29.7,71.7-41.5
		c13.5-6.4,27.2-12.1,41.2-17.2c18.1-6.6,36.4-12.1,55.1-16.4c12.1-2.8,24.4-5.1,36.8-6.6c1.6-0.2,3.2-0.3,4.5-1.4
		c0.2-0.2,0.3-0.5,0.3-0.8s-0.2-0.7-0.4-0.8c-1.8-0.8-3.6-1.1-5.5-1.4c-3.8-0.5-7.6-0.9-11.4-1.6c-14-2.4-27.9-5.4-41.6-9.2
		c-22.1-6.1-43.6-13.7-64.6-22.8c-9.8-4.3-19.5-8.8-29.1-13.7c-26-13.3-50.6-28.7-73.7-46.6c-7.7-6-15.1-12.3-22.4-18.8
		c-7.6-6.9-14.9-14-22-21.5c-12.3-13-23.8-26.8-33.8-41.7c-10.5-15.8-19.2-32.5-25.7-50.3c-4.8-13.3-8.3-26.9-10-40.9
		c-1.4-11.6-1.5-23.2,0.1-34.9c1.8-13.8,5.7-26.9,11.6-39.4c4.2-8.8,9.5-17,15.7-24.6c13.7-16.9,30.8-29.6,50.1-39.5
		c17.8-9.1,36.6-15.2,56.1-19.2c10.3-2.1,20.8-3.8,31.3-4.7C180.5,377.6,190.9,377,201.3,377.4z M1209.8,209.6L1209.8,209.6
		c0-5.9,0-11.8,0-17.8c0-1.3-0.1-2.6-0.2-3.8c-0.5-5.1-1.1-10.1-1.6-15.2c-0.4-3.6-0.6-7.3-1.3-10.9c-1.3-6.7-2.6-13.4-4.2-20.1
		c-3.1-13-7.4-25.4-13.3-37.4c-2.5-5.2-5.3-10.1-8.3-15c-4.6-7.5-10-14.4-16-20.8c-3.5-3.7-7.2-7.2-11.3-10.3
		c-4.6-3.5-9.2-7-14.3-9.6c-6.2-3.3-12.7-6-19.4-8.1c-8.3-2.5-16.7-4.2-25.4-4.4c-7.3-0.2-14.7-0.3-22,0.8
		c-6.2,0.9-12.3,1.9-18.3,3.5c-11.6,3.2-22.8,7.3-33.6,12.7c-8.6,4.3-17,9-25,14.2c-6.9,4.5-13.7,9.3-20.2,14.5
		c-8.7,6.8-16.9,14.1-24.9,21.7c-8.3,7.8-15.9,16.2-23.1,24.9c-3.8,4.5-7.8,8.9-11.4,13.6c-10.1,13.2-19.8,26.6-28.5,40.8
		c-5.9,9.5-11.6,19.1-16.7,29.1c-5.2,10.1-10.3,20.2-14.8,30.6c-3,6.9-6,13.8-8.7,20.8c-3.6,9.6-6.9,19.3-10,29
		c-2.6,8-5.2,16.1-7.1,24.4c-2.6,11.3-6,22.5-7.5,34.1c-0.6,4.4-1.7,8.8-2.5,13.1c-0.7,3.9-0.7,7.9-2.4,11.6
		c-0.3,0.6-0.3,1.2-0.4,1.9c-0.9,8-3.2,15.6-5.6,23.2c-2.1,6.9-4.3,13.7-6.4,20.5c-0.6,1.8-1.2,3.7-1.8,5.5c-0.4,1-1.6,1.1-2.4,0.3
		c-0.7-0.7-1-1.6-1.4-2.5c-1-2.7-0.9-5.7-2.6-8.1c-2.8-9.8-6.3-19.4-8.6-29.3c-1.5-6.5-2.8-13.1-4-19.7c-1.5-8-2.6-16-4.2-24
		c-1.3-6.4-2.9-12.7-4.5-19.1c-3.4-14.5-7.5-28.7-12.3-42.8c-1.8-5.3-3.9-10.5-5.8-15.7c-4.2-11.6-9.2-22.8-14.4-34
		c-6.4-13.8-13.6-27.2-21.3-40.2c-5.8-9.7-11.8-19.4-18.3-28.6c-2.7-3.8-5.2-7.6-8.1-11.2c-2.5-3.1-4.6-6.5-7.2-9.5
		c-3.8-4.3-7.2-8.9-11.1-13.2c-3.1-3.4-5.9-7.2-9.1-10.5c-7.5-7.7-15.1-15.2-22.7-22.7c-0.8-0.8-1.6-1.6-2.5-2.3
		c-4.7-3.8-9.3-7.7-14.1-11.4c-5.3-4.1-10.6-8.2-16.2-11.9c-5.3-3.6-10.8-6.8-16.3-10c-7.8-4.6-16-8.7-24.4-12.2
		c-9.9-4.1-20.1-7.3-30.7-9.3c-6.7-1.3-13.5-2.5-20.4-2.4c-3.7,0-7.4-0.2-11,0.1c-4.1,0.2-8.3,0.5-12.4,1.3c-8,1.5-15.8,3.6-23.3,7
		c-10.8,4.8-20.6,10.9-29.1,19c-4.1,4-8.4,8-12,12.4c-8.1,9.9-14.7,20.9-19.9,32.6c-2.7,6.1-5.3,12.4-7.3,18.7
		c-2.7,8.8-5.4,17.7-6.9,26.9c-0.8,5-1.5,10.1-2.3,15.1c-0.6,3.5-0.5,7-1.1,10.4c-1.3,6.8-0.7,13.7-1.4,20.5
		c-1.1,11.1,0.8,22.3,0.7,33.5c0,0.5,0,1,0.1,1.4c0.9,2.6,0.7,5.4,0.8,8.1c0,1,0,1.9,0.1,2.9c1.2,7.9,2.4,15.7,3.6,23.6
		c1.7,11,4,22,6.7,32.8c1.5,5.9,3.2,11.7,4.8,17.6c3.4,13.2,8,25.9,12.9,38.6c3.5,8.9,7.4,17.7,11.1,26.5c4.1,9.7,8.9,19.2,14,28.4
		c4.5,8.1,9,16.2,14,24c6.1,9.4,12.1,18.8,18.8,27.7c3.5,4.7,7.2,9.4,10.4,14.4c3.8,6.1,7.8,12,12.1,17.7c1.6,2.2,3.1,4.4,4.8,6.6
		c4.1,5.1,9,9.5,12.3,15.2c4.3,3.8,7.6,8.6,11.6,12.7c3.7,3.8,7.5,7.5,11.2,11.2c0.8,0.8,1.7,1.5,2.3,2.4c1.7,2.8,4,5,6.3,7.2
		c3.1,2.8,5.6,6.1,7.7,9.7c1,1.8,2,3.7,2.8,5.6c1,2.4-0.4,4-3.1,4c-1.2,0-2.2-0.4-3.2-0.9c-2.8-1.3-5.2-3-7.7-4.9
		c-4.9-3.7-9-8.1-13.6-12.1c-7.1-6.2-13.3-13.3-20.6-19.4c-2.8-2.3-5.3-5.1-8.5-7c-1.1-0.6-1.9-1.7-2.9-2.5c-3-2.6-6-5.3-9.1-7.7
		c-3.6-2.9-7.6-5.2-11.1-8.3c-1.4-1.3-3-2.4-4.7-3.3c-5.9-3.5-11.7-7.2-17.1-11.4c-9.3-7.2-19.1-13.9-29-20.3
		c-5.4-3.4-11-6.4-16.4-9.9c-9.5-6-19.5-10.9-29.5-15.8c-8.1-4.1-16.4-8-24.9-11.2c-8.9-3.4-17.8-7.1-26.8-10.3
		c-17.3-6.1-35-11-53-14.9c-8.1-1.7-16.2-3.3-24.4-4.6c-4.6-0.7-9.1-1.4-13.7-2c-4.9-0.7-9.9-0.4-14.7-1.5c-2.9-0.7-6-0.9-9-0.9
		c-18.4-0.2-36.8-1-55,1.7c-5.2,0.8-10.4,1.3-15.6,2.1c-8.4,1.3-16.6,3.3-24.7,5.7c-13.9,4.2-27.5,9.4-40.1,16.8
		c-7,4.2-13.7,8.8-19.8,14.2c-8.1,7.3-15.7,15-21.5,24.3c-2.4,3.9-5,7.8-6.7,12.1c-3,7.7-6,15.4-7.4,23.7
		c-1.2,7.4-2.2,14.8-2.2,22.3c0,2.4,0.7,4.8,0.7,7.1c0,8.4,1.8,16.5,3.8,24.5c3.8,15.5,10,30,17.8,43.9c6,10.7,12.6,21.1,20.1,30.9
		c5.5,7.2,11,14.5,17.3,21.1c8.9,9.4,18,18.6,27.7,27.2c6.9,6.1,14.1,12,21.3,17.8s14.8,11,22.4,16.3c7.5,5.2,15.3,9.8,23,14.7
		c9,5.6,18.4,10.3,27.6,15.4c8.1,4.5,16.7,8.1,25.2,11.8c13.6,6,27.4,11.4,41.5,16.1c10.6,3.5,21.3,6.7,32.1,9.6
		c11.9,3.2,23.9,5.8,36,8c8.9,1.6,18,2.5,26.7,5c2.3,0.6,4.7,0.7,7,1.3c8.4,2.4,16.9,4.9,25.2,7.5c3.2,1,6.3,2.2,9.6,2.9
		c1.9,0.4,3.6,1.2,5.4,1.9c0.6,0.2,1,0.8,1,1.5c0,0.9-0.4,1.5-1.2,1.9c-0.4,0.2-0.9,0.2-1.4,0.3c-4.4,1.3-8.9,2.5-13.3,4
		c-7.7,2.7-15.5,4.8-23.3,6.9c-10.2,2.7-20.6,4.3-30.9,6.2c-9.7,1.8-19.4,3.6-29.1,5.9c-11.2,2.7-22.3,5.5-33.3,9
		c-12.5,4-24.9,8.2-37,13.2c-11.4,4.7-22.6,9.6-33.7,15c-4.9,2.3-9.6,5.1-14.4,7.6c-10.3,5.2-20.1,11.1-29.8,17.3
		c-14.3,9.1-28,18.9-41.2,29.5c-8.4,6.7-16.3,13.9-24.3,20.9c-8.1,7.2-15.2,15.6-22.6,23.5c-2.3,2.4-4.5,5-6.5,7.7
		c-3.4,4.4-6.7,8.9-10,13.4c-9.4,12.8-17.4,26.4-24.1,40.7c-5.5,11.6-9.6,23.6-12.2,36.2c-1.8,8.3-2.6,16.7-3,25.1
		c-0.4,9.4,1.2,18.7,3.3,27.9c1.3,5.5,3,10.8,5.2,15.9c4.6,10.7,11,20.2,18.7,28.8c6.1,6.8,13.1,12.6,20.5,17.9
		c4.4,3.2,9.2,5.8,13.9,8.5c7.5,4.3,15.5,7.5,23.6,10.6c8.3,3.2,17,5.4,25.7,7.5c6.5,1.6,13.1,2.6,19.8,3.6
		c4.6,0.6,9.2,0.9,13.8,1.5c6.8,0.9,13.7,0.7,20.5,1.3c10.8,1,21.7-0.9,32.6-0.8c0.5,0,1,0,1.4-0.1c2.6-0.9,5.4-0.7,8.1-0.8
		c1.3-0.1,2.6,0,3.8-0.2c6.8-0.9,13.6-1.7,20.4-2.9c9.1-1.6,18.2-3.4,27.2-5.5c11-2.5,22.1-5.1,32.9-8.7c12.4-4.1,24.9-8,37-13.1
		c10.5-4.4,20.9-8.7,31.1-13.8c9.6-4.8,19.2-9.5,28.5-14.9c11-6.5,21.7-13.4,32.3-20.6c10.7-7.2,20.6-15.6,31.7-22.3
		c8.1-4.9,15.1-11.7,23-17.1c0.5-0.4,0.9-0.9,1.4-1.3c1.9-1.9,4.1-3.5,6.1-5.3c4.4-4,8.6-8.1,13.5-11.5c7.6-8.3,16.3-15.3,24.2-23.2
		c3.2-3.2,7.1-5.4,11.2-7.3c1.4-0.7,2.7-0.7,4,0.5c1.2,1.2,1.4,2.5,0.7,3.9c-1.9,4.1-4,8-7.2,11.2c-2.4,2.4-5,4.6-7,7.2
		c-1.9,2.6-4.1,4.9-6.4,7.2c-2.9,3-5.9,5.9-8.8,8.8c-1,1-2.1,2.1-2.8,3.2c-2.2,3.4-4.9,6.3-7.8,9.1c-1.1,1.1-2,2.4-3.1,3.6
		c-3.2,3.7-6.4,7.5-9.3,11.5c-2.1,3-4.6,5.7-6.8,8.6c-4.5,5.8-8.4,12-12.5,18.1c-4.3,6.5-9.2,12.6-13.7,19
		c-5.4,7.5-10.6,15.2-15.4,23.1c-3.7,6-7.2,12.1-10.7,18.2c-3.6,6.4-7.2,12.8-10.4,19.4c-3.3,6.7-6.4,13.6-9.4,20.5
		c-3.5,8.2-7.1,16.4-10.2,24.8c-4.5,12.3-8.6,24.8-12.2,37.3c-1.1,4-2.3,8-3.2,12c-1.6,6.8-3.1,13.7-4.5,20.6
		c-1.6,8.1-3.1,16.3-4.3,24.5c-1.2,8.5-2.2,17.1-2.8,25.7c-0.4,6.8-0.7,13.7-0.9,20.6c-0.2,6-0.2,12.1,0.5,18.2
		c0.6,5,0.4,10.2,1,15.3c0.7,5.7,1.3,11.4,2,17.1c1.4,10.1,3.7,20.1,6.6,29.9c3.8,13.2,9.3,25.8,16,37.9c5.5,10,12.4,18.9,20.3,27.1
		c2.5,2.7,5.4,5,8.1,7.4c5,4.3,10.4,8,16.1,11.2c14.9,8.5,31.2,12,48.1,13.2c6.2,0.4,12.5-0.3,18.6-1.1c12.5-1.6,24.8-4.6,36.6-9.3
		c6.8-2.7,13.6-5.6,20.1-9c5.9-3.2,11.7-6.6,17.4-10.1c7-4.2,13.7-8.9,20.1-13.8c4.3-3.3,8.6-6.6,12.6-10.3
		c6.2-5.5,12.5-10.9,18.4-16.8c3.6-3.6,7-7.4,10.5-11.1c6.5-7,12.7-14.3,18.8-21.7c6.7-8.2,13-16.6,18.9-25.3
		c7.9-11.6,15.6-23.4,22.4-35.7c2.2-4.1,4.2-8.3,6.6-12.3c5.5-9.1,9.5-18.8,13.9-28.4c3.8-8.2,7-16.8,10.4-25.3
		c4.3-10.7,7.9-21.6,11.1-32.7c2.7-9.2,4.9-18.5,7.4-27.7c3-11.1,4.8-22.4,7-33.7c1.6-8.3,2.9-16.6,4.8-24.9
		c0.9-3.7,1.7-7.5,2.7-11.1c1.6-5.5,3.5-10.9,5.1-16.4c1.4-4.4,3.3-8.7,4-13.3c0-0.3,0.3-0.6,0.5-0.8c0.5-0.7,2-0.9,2.5-0.1
		c0.4,0.5,0.7,1.1,0.8,1.7c1,3.2,2,6.4,3,9.6c2,6.4,4.2,12.7,6.1,19.2c0.9,3.2,2.1,6.3,2.7,9.6c0.4,1.9,0.4,3.8,0.8,5.7
		c1,4.3,2.5,8.5,3,13c0.2,1.9,0.3,3.8,0.7,5.7c1.8,7.5,2.8,15,4.3,22.5c3.8,18.2,8.8,36,14.4,53.6c2.1,6.5,4.6,12.9,7,19.4
		c5.2,14.3,11.4,28.1,17.9,41.8c3,6.3,6.4,12.5,9.8,18.7c2.3,4.4,4.8,8.7,7.3,12.9c2.4,4,5,7.8,7.3,11.8c5.2,9,11.2,17.4,17.3,25.9
		c6.2,8.7,13.1,16.9,19.9,25.1c7.5,9.2,15.8,17.6,24.1,26c7.8,7.8,16.1,15,24.7,21.9c11.7,9.2,24,17.5,37,24.7
		c14.6,8.1,29.9,14.4,46.2,18.3c10.5,2.5,21.1,3.4,31.8,3.9c2.9,0.1,5.7-0.8,8.6-0.8c5.5,0.1,10.8-1.1,16-2.5
		c8.5-2.2,16.8-4.9,24.5-9.4c6.4-3.7,12.6-7.6,18.1-12.5c8.8-7.8,16.6-16.4,23-26.2c6.5-9.9,11.6-20.6,15.8-31.6
		c7.3-19.2,11.4-39.2,13.3-59.6c0.7-7.6,1.5-15.3,1.2-22.9c-0.2-8.2-0.1-16.3-0.2-24.5c0-1.4,0.1-2.9-0.2-4.3c-1-4.2-1-8.6-1.3-12.8
		c-0.6-6.5-1.3-13-2.3-19.5c-0.9-6.3-1.9-12.6-3.1-18.9c-1.5-7.3-3.3-14.6-5-21.9c-2-8.4-4.4-16.7-6.9-24.9c-2.9-9.8-6.3-19.5-10-29
		c-2.9-7.6-6-15.1-9.2-22.6c-3.3-7.6-7-15-10.7-22.5c-4.3-8.7-8.9-17.3-14-25.7c-3-4.9-5.9-9.9-9-14.7c-2.5-3.9-5.3-7.6-7.8-11.5
		c-4-6.3-8.7-12.2-13.2-18.2c-2.3-3.1-4.5-6.2-6.5-9.5c-1.8-2.8-3.3-5.8-5.4-8.4c-1.2-1.5-2.4-3-3.5-4.5c-4.9-6.9-10-13.6-15.9-19.7
		c-0.2-0.2-0.4-0.5-0.6-0.8c-1.8-3.3-4.4-5.8-7-8.5c-2.5-2.6-4.6-5.7-7.3-8.2c-7.5-7-14-14.9-21.1-22.3c-1.4-1.5-2.8-3.1-4-4.8
		c-1.5-2.2-2.8-4.6-4.2-6.9c-0.8-1.3-0.9-2.7-0.7-4.2c0.2-1.4,1.4-2.3,2.7-2.1c0.8,0.1,1.5,0.4,2.3,0.7c3.2,1.4,6.2,3.3,9,5.4
		c5,3.7,9.2,8.4,13.9,12.4c7.1,6.1,13.3,13.3,20.6,19.3c2.6,2.1,4.6,4.9,7.8,6.3c0.7,0.3,1.3,1,1.8,1.5c5.4,5.5,11.8,9.7,17.8,14.4
		c1.8,1.4,3.5,2.8,5.3,4c3.9,2.5,7.5,5.4,11.7,7.4c0.8,0.4,1.6,1.1,2.4,1.6c10.9,8.3,22,16.4,33.6,23.8c12.4,8,25.1,15.3,38.2,22
		c7.5,3.9,15.1,7.7,22.9,11c5.6,2.4,11.1,4.8,16.8,7.1c5.5,2.2,11,4.2,16.6,6.3c8.5,3.2,17.2,6.1,25.9,8.6c12.8,3.5,25.5,7,38.6,9.5
		c8.1,1.6,16.3,3.1,24.5,4.3c8.5,1.3,17.1,2.3,25.7,2.8c7,0.4,14,0.8,21,1c5.9,0.1,11.8,0.1,17.7-0.6c5.4-0.6,10.8-0.3,16.2-1
		c5.5-0.7,11.1-1.2,16.6-2c8.9-1.3,17.6-3.1,26.2-5.6c8.1-2.3,16.2-5,24-8.3c9.1-3.9,17.9-8.5,26.2-13.9
		c7.9-5.2,14.8-11.6,21.5-18.3c10.4-10.5,17.6-23,22.7-36.8c1.7-4.7,2.6-9.5,3.8-14.3c1.1-4.4,1.6-8.8,1.8-13.2
		c0.3-7.5,0.4-15-0.6-22.5c-1.3-10.2-3.5-20.1-6.8-29.8c-3.8-11.2-8.4-22.1-14.4-32.3c-1.1-1.9-2.2-3.9-3.4-5.8
		c-3.3-5.6-6.8-11.2-10.5-16.6c-4-5.9-8.4-11.6-12.9-17.3c-3.9-4.9-7.9-9.7-12.2-14.2c-7-7.3-14.2-14.3-21.3-21.4
		c-1-1-2.1-2-3.2-2.9c-3.3-2.8-6.5-5.6-9.9-8.4c-4.8-4-9.5-8.1-14.4-11.9c-4.4-3.4-9-6.5-13.6-9.8c-3.5-2.5-6.9-5.3-10.5-7.5
		c-7.5-4.6-14.8-9.5-22.4-13.9c-8.4-4.9-16.9-9.7-25.6-14.1c-6.7-3.4-13.4-6.9-20.3-9.7c-6.3-2.6-12.5-5.7-18.9-8.2
		c-13.9-5.6-28.1-10.6-42.5-14.8c-6.4-1.9-12.9-3.8-19.4-5.4c-7-1.8-14-3.3-21-4.8c-6.7-1.4-13.4-2.9-20.2-3.9
		c-9.3-1.3-18.5-3.4-27.6-5.4c-2.5-0.6-5-1-7.4-1.9c-2.1-0.8-4.2-1.4-6.4-2c-3.1-0.9-6.1-1.9-9.2-2.8c-4.3-1.3-8.3-3.2-12.8-4
		c-1.1-0.2-2.2-0.4-3.1-1.2c-0.5-0.4-0.9-0.9-0.9-1.6c0-0.7,0.5-1.2,1.1-1.4c1.7-0.6,3.3-1.1,5-1.6c7-2.2,13.9-4.6,21-6.6
		c6-1.7,11.8-4,18-4.7c2.2-0.2,4.6-0.3,6.5-1.3c3.1-1.5,6.5-1.5,9.8-2.2c6.9-1.4,13.8-2.4,20.7-3.6c7.9-1.4,15.6-3.2,23.3-5.3
		c8.5-2.3,17-4.3,25.4-6.9c21.1-6.5,41.7-14.3,61.7-23.6c12.3-5.7,24.5-11.9,36.3-18.6c11.3-6.5,22.4-13.4,33.2-20.9
		c8-5.6,15.8-11.3,23.6-17.2c5.2-4,10.1-8.4,15-12.7c5.4-4.7,10.8-9.4,16-14.4c7.9-7.5,15.1-15.6,22.2-23.9c3.6-4.2,7-8.7,10.4-13.1
		c6-7.9,11.4-16.1,16.5-24.6c4.8-8,9-16.2,12.7-24.7c3.3-7.6,6-15.5,8.2-23.5c2.6-9.4,4.2-19,4.5-28.8c0.2-6.5,0.1-13-0.7-19.6
		c-0.8-6.9-2.3-13.5-4.3-20.1c-1.9-5.9-4.4-11.6-7.4-17.1c-4.5-8.2-10-15.5-16.3-22.4c-4.2-4.6-9.1-8.4-14-12.3
		c-9.7-7.8-20.5-13.7-31.7-18.7c-13-5.8-26.7-9.9-40.6-12.6c-5.1-1-10.3-2.2-15.6-2.6c-3-0.2-6-0.7-9-1c-5.7-0.5-11.4-1.4-17.1-1.5
		c-10.6-0.2-21.1-0.2-31.7,0c-5.1,0.1-10.2,0.4-15.3,1.1c-3,0.4-6.1,0.4-9.1,0.8c-6.2,0.8-12.3,1.9-18.4,2.7
		c-8.1,1.1-16,2.9-23.9,4.6c-6.7,1.4-13.3,3.4-20,4.9c-8.8,1.9-17.2,4.8-25.7,7.6c-10.2,3.3-20.3,6.8-30.1,11.1
		c-8.5,3.7-17,7.3-25.4,11.2c-8.7,4.1-17.2,8.4-25.6,13.2c-5.3,3-10.6,6-15.7,9.1c-9.9,6.1-19.6,12.6-29.1,19.4
		c-2.7,1.9-5.3,4.1-8,6c-3.6,2.6-7,5.6-11.1,7.5c-1,0.5-1.9,1.1-2.8,1.8c-5.8,4.2-11.7,8.3-17.3,12.7c-3,2.4-6.3,4.4-9.1,7
		c-4.4,4.2-9.5,7.6-13.5,12.2c-0.3,0.4-0.7,0.7-1.1,0.9c-4.6,2.5-7.9,6.4-11.6,10c-3.2,3.1-6.2,6.5-9.7,9.3
		c-2.9,2.3-5.6,4.8-8.1,7.4c-3.1,3.3-7.1,5.3-11,7.5c-1,0.6-2.1,0.9-3.2,0.8c-1.4-0.1-2.4-1.1-2.5-2.4c-0.1-1.2,0.2-2.2,0.7-3.2
		c2.2-3.9,4.1-8,7.5-11.1c1.8-1.6,3.6-3.2,5-5.1c4.2-5.7,9.6-10.3,14.4-15.4c1.9-2,3.9-3.8,5.3-6.1c2-3.1,4.7-5.6,7.3-8.3
		c0.7-0.7,1.5-1.3,2-2.1c3-4.7,7.5-8.2,10.5-13c1.7-2.8,4.4-5.1,6.3-7.8c4.2-6,8.8-11.7,12.2-18.3c0.9-1.7,2.2-3.1,3.3-4.7
		c3.2-4.3,6.7-8.6,9.7-13c4.9-7.3,10-14.4,14.7-21.8c7-11.1,13.5-22.5,19.5-34.1c3.7-7.1,7.3-14.2,10.4-21.6
		c3.3-7.8,6.9-15.5,10-23.4c3.5-9.1,6.5-18.4,9.7-27.6c4.4-13,7.8-26.3,10.8-39.7c2.2-9.8,3.9-19.7,5.7-29.6c0.5-2.7,0.9-5.4,1.1-8
		c0.3-4.5,0.9-8.9,1.3-13.3c0.6-6.8,1.6-13.6,1.6-20.5C1209.8,217.6,1209.8,213.6,1209.8,209.6z"/>
	<path class="st1" d="M1209.8,209.6c0,4,0,8,0,12c0,6.9-1,13.7-1.6,20.5c-0.4,4.4-1,8.9-1.3,13.3c-0.2,2.7-0.6,5.4-1.1,8
		c-1.8,9.9-3.6,19.8-5.7,29.6c-2.9,13.4-6.3,26.7-10.8,39.7c-3.1,9.2-6.2,18.5-9.7,27.6c-3,7.9-6.7,15.6-10,23.4
		c-3.1,7.4-6.8,14.5-10.4,21.6c-6,11.6-12.5,23-19.5,34.1c-4.7,7.4-9.8,14.6-14.7,21.8c-3,4.5-6.5,8.7-9.7,13
		c-1.1,1.5-2.5,3-3.3,4.7c-3.4,6.6-8.1,12.3-12.2,18.3c-1.9,2.7-4.6,5-6.3,7.8c-3,4.8-7.4,8.3-10.5,13c-0.5,0.8-1.3,1.4-2,2.1
		c-2.6,2.6-5.3,5.1-7.3,8.3c-1.5,2.3-3.5,4.2-5.3,6.1c-4.9,5.1-10.3,9.6-14.4,15.4c-1.4,1.9-3.3,3.5-5,5.1
		c-3.4,3.1-5.3,7.1-7.5,11.1c-0.6,1-0.8,2.1-0.7,3.2c0.1,1.4,1.1,2.3,2.5,2.4c1.2,0.1,2.2-0.2,3.2-0.8c3.9-2.2,7.9-4.1,11-7.5
		c2.5-2.7,5.3-5.1,8.1-7.4c3.5-2.8,6.5-6.2,9.7-9.3c3.7-3.6,7-7.5,11.6-10c0.4-0.2,0.8-0.6,1.1-0.9c4-4.6,9.1-8,13.5-12.2
		c2.7-2.6,6.1-4.6,9.1-7c5.6-4.4,11.5-8.5,17.3-12.7c0.9-0.7,1.8-1.3,2.8-1.8c4.1-1.9,7.5-4.9,11.1-7.5c2.7-2,5.3-4.1,8-6
		c9.5-6.8,19.1-13.3,29.1-19.4c5.2-3.2,10.5-6.1,15.7-9.1c8.3-4.8,16.9-9.1,25.6-13.2c8.4-3.9,16.9-7.5,25.4-11.2
		c9.8-4.3,19.9-7.8,30.1-11.1c8.5-2.8,16.9-5.7,25.7-7.6c6.7-1.4,13.3-3.4,20-4.9c7.9-1.7,15.9-3.5,23.9-4.6
		c6.2-0.8,12.3-1.9,18.4-2.7c3-0.4,6-0.3,9.1-0.8c5-0.7,10.2-1.1,15.3-1.1c10.6-0.2,21.1-0.2,31.7,0c5.7,0.1,11.4,1,17.1,1.5
		c3,0.3,6,0.8,9,1c5.3,0.4,10.4,1.6,15.6,2.6c14,2.7,27.6,6.8,40.6,12.6c11.3,5,22,10.9,31.7,18.7c4.8,3.9,9.8,7.8,14,12.3
		c6.3,6.8,11.8,14.2,16.3,22.4c3,5.5,5.5,11.2,7.4,17.1c2.1,6.5,3.5,13.2,4.3,20.1c0.8,6.6,0.9,13.1,0.7,19.6
		c-0.4,9.7-1.9,19.3-4.5,28.8c-2.2,8-4.9,15.9-8.2,23.5c-3.7,8.5-8,16.7-12.7,24.7c-5.1,8.5-10.5,16.8-16.5,24.6
		c-3.4,4.4-6.7,8.9-10.4,13.1c-7.1,8.3-14.3,16.4-22.2,23.9c-5.2,4.9-10.6,9.6-16,14.4c-4.9,4.3-9.8,8.7-15,12.7
		c-7.7,5.9-15.6,11.7-23.6,17.2c-10.8,7.5-21.9,14.4-33.2,20.9c-11.8,6.8-23.9,12.9-36.3,18.6c-20,9.2-40.6,17.1-61.7,23.6
		c-8.4,2.6-16.9,4.6-25.4,6.9c-7.7,2.1-15.5,3.9-23.3,5.3c-6.9,1.2-13.9,2.2-20.7,3.6c-3.2,0.7-6.6,0.7-9.8,2.2
		c-2,0.9-4.4,1-6.5,1.3c-6.3,0.7-12.1,3-18,4.7c-7.1,2-14,4.4-21,6.6c-1.7,0.5-3.4,1-5,1.6c-0.6,0.2-1.1,0.7-1.1,1.4
		s0.5,1.1,0.9,1.6c0.9,0.8,2,1,3.1,1.2c4.4,0.8,8.5,2.7,12.8,4c3.1,0.9,6.1,1.9,9.2,2.8c2.1,0.6,4.3,1.2,6.4,2
		c2.4,0.9,4.9,1.3,7.4,1.9c9.2,2.1,18.3,4.1,27.6,5.4c6.8,1,13.5,2.4,20.2,3.9c7,1.5,14,3.1,21,4.8c6.5,1.6,12.9,3.5,19.4,5.4
		c14.4,4.2,28.6,9.2,42.5,14.8c6.4,2.6,12.5,5.6,18.9,8.2c7,2.9,13.6,6.4,20.3,9.7c8.7,4.4,17.2,9.2,25.6,14.1
		c7.6,4.4,14.9,9.3,22.4,13.9c3.7,2.3,7,5,10.5,7.5c4.5,3.3,9.2,6.4,13.6,9.8c4.9,3.8,9.6,7.9,14.4,11.9c3.3,2.8,6.6,5.6,9.9,8.4
		c1.1,0.9,2.2,1.9,3.2,2.9c7.1,7.1,14.4,14.1,21.3,21.4c4.3,4.5,8.3,9.3,12.2,14.2c4.5,5.6,8.8,11.3,12.9,17.3
		c3.7,5.4,7.1,11,10.5,16.6c1.1,1.9,2.2,3.9,3.4,5.8c6,10.2,10.6,21.1,14.4,32.3c3.3,9.7,5.5,19.6,6.8,29.8c1,7.5,0.9,15,0.6,22.5
		c-0.2,4.4-0.7,8.9-1.8,13.2c-1.2,4.8-2,9.7-3.8,14.3c-5.1,13.8-12.3,26.3-22.7,36.8c-6.6,6.7-13.5,13.1-21.5,18.3
		c-8.3,5.4-17.1,10-26.2,13.9c-7.8,3.4-15.8,6-24,8.3c-8.6,2.5-17.3,4.3-26.2,5.6c-5.5,0.8-11.1,1.4-16.6,2
		c-5.4,0.6-10.9,0.4-16.2,1c-5.9,0.7-11.8,0.7-17.7,0.6c-7-0.2-14-0.6-21-1c-8.6-0.5-17.1-1.6-25.7-2.8c-8.2-1.2-16.3-2.8-24.5-4.3
		c-13-2.5-25.8-5.9-38.6-9.5c-8.8-2.4-17.4-5.3-25.9-8.6c-5.5-2.1-11.1-4.1-16.6-6.3c-5.6-2.3-11.2-4.7-16.8-7.1
		c-7.8-3.3-15.4-7.2-22.9-11c-13.1-6.7-25.8-14.1-38.2-22c-11.5-7.5-22.6-15.5-33.6-23.8c-0.8-0.6-1.5-1.2-2.4-1.6
		c-4.2-2.1-7.8-4.9-11.7-7.4c-1.9-1.2-3.6-2.7-5.3-4c-6-4.7-12.5-8.9-17.8-14.4c-0.6-0.6-1.1-1.2-1.8-1.5c-3.2-1.4-5.2-4.2-7.8-6.3
		c-7.3-6-13.5-13.2-20.6-19.3c-4.7-4.1-8.9-8.7-13.9-12.4c-2.8-2.1-5.8-4-9-5.4c-0.7-0.3-1.5-0.6-2.3-0.7c-1.3-0.2-2.5,0.8-2.7,2.1
		c-0.2,1.5-0.1,2.9,0.7,4.2c1.4,2.3,2.7,4.7,4.2,6.9c1.2,1.7,2.5,3.3,4,4.8c7.1,7.3,13.6,15.3,21.1,22.3c2.7,2.5,4.7,5.6,7.3,8.2
		c2.6,2.7,5.2,5.2,7,8.5c0.2,0.3,0.3,0.5,0.6,0.8c5.9,6.1,11,12.8,15.9,19.7c1.1,1.6,2.3,3,3.5,4.5c2.1,2.6,3.7,5.6,5.4,8.4
		c2,3.2,4.2,6.4,6.5,9.5c4.4,6,9.1,11.9,13.2,18.2c2.5,3.9,5.3,7.6,7.8,11.5c3.1,4.8,6,9.8,9,14.7c5.1,8.3,9.7,16.9,14,25.7
		c3.7,7.4,7.4,14.9,10.7,22.5c3.2,7.5,6.3,15,9.2,22.6c3.7,9.5,7,19.2,10,29c2.5,8.3,4.9,16.5,6.9,24.9c1.7,7.3,3.5,14.6,5,21.9
		c1.3,6.2,2.2,12.5,3.1,18.9c0.9,6.5,1.7,12.9,2.3,19.5c0.4,4.3,0.3,8.6,1.3,12.8c0.3,1.4,0.2,2.9,0.2,4.3c0,8.2-0.1,16.3,0.2,24.5
		c0.2,7.7-0.5,15.3-1.2,22.9c-1.9,20.4-6.1,40.4-13.3,59.6c-4.2,11.1-9.3,21.7-15.8,31.6c-6.4,9.8-14.3,18.4-23,26.2
		c-5.5,4.9-11.7,8.8-18.1,12.5c-7.7,4.5-16,7.2-24.5,9.4c-5.2,1.4-10.5,2.6-16,2.5c-2.9,0-5.7,0.9-8.6,0.8
		c-10.7-0.5-21.3-1.4-31.8-3.9c-16.3-3.9-31.6-10.2-46.2-18.3c-13-7.2-25.3-15.5-37-24.7c-8.7-6.8-17-14.1-24.7-21.9
		c-8.3-8.4-16.6-16.8-24.1-26c-6.8-8.3-13.7-16.4-19.9-25.1c-6-8.5-12.1-16.9-17.3-25.9c-2.3-4-5-7.8-7.3-11.8
		c-2.5-4.3-5-8.6-7.3-12.9c-3.3-6.2-6.7-12.4-9.8-18.7c-6.5-13.7-12.8-27.5-17.9-41.8c-2.3-6.5-4.9-12.8-7-19.4
		c-5.6-17.6-10.6-35.5-14.4-53.6c-1.6-7.5-2.5-15.1-4.3-22.5c-0.4-1.9-0.5-3.8-0.7-5.7c-0.5-4.4-2-8.6-3-13
		c-0.4-1.9-0.5-3.8-0.8-5.7c-0.6-3.3-1.8-6.4-2.7-9.6c-1.8-6.4-4-12.8-6.1-19.2c-1-3.2-2-6.4-3-9.6c-0.2-0.6-0.5-1.2-0.8-1.7
		c-0.5-0.7-2-0.6-2.5,0.1c-0.2,0.3-0.4,0.5-0.5,0.8c-0.7,4.6-2.7,8.8-4,13.3c-1.7,5.5-3.5,10.9-5.1,16.4c-1.1,3.7-1.9,7.4-2.7,11.1
		c-1.9,8.2-3.2,16.6-4.8,24.9c-2.1,11.3-4,22.6-7,33.7c-2.5,9.2-4.6,18.6-7.4,27.7c-3.3,11-6.9,22-11.1,32.7
		c-3.4,8.5-6.6,17-10.4,25.3c-4.4,9.6-8.4,19.3-13.9,28.4c-2.4,4-4.3,8.2-6.6,12.3c-6.8,12.4-14.4,24.1-22.4,35.7
		c-5.9,8.7-12.3,17.1-18.9,25.3c-6.1,7.4-12.2,14.7-18.8,21.7c-3.5,3.7-6.9,7.6-10.5,11.1c-5.9,5.8-12.2,11.2-18.4,16.8
		c-4.1,3.6-8.3,7-12.6,10.3c-6.4,5-13.1,9.6-20.1,13.8c-5.8,3.5-11.5,6.9-17.4,10.1c-6.5,3.4-13.3,6.3-20.1,9
		c-11.8,4.8-24,7.7-36.6,9.3c-6.1,0.8-12.4,1.6-18.6,1.1c-16.9-1.2-33.2-4.6-48.1-13.2c-5.7-3.3-11.1-6.9-16.1-11.2
		c-2.8-2.4-5.6-4.8-8.1-7.4c-7.9-8.2-14.8-17.2-20.3-27.1c-6.7-12-12.1-24.6-16-37.9c-2.8-9.8-5.2-19.7-6.6-29.9
		c-0.8-5.7-1.4-11.4-2-17.1c-0.6-5.1-0.3-10.2-1-15.3c-0.8-6.1-0.8-12.1-0.5-18.2c0.2-6.9,0.5-13.7,0.9-20.6
		c0.6-8.6,1.6-17.1,2.8-25.7c1.2-8.2,2.7-16.3,4.3-24.5c1.3-6.9,2.9-13.7,4.5-20.6c0.9-4,2-8,3.2-12c3.6-12.6,7.7-25,12.2-37.3
		c3.1-8.4,6.7-16.6,10.2-24.8c3-6.9,6.1-13.7,9.4-20.5c3.3-6.6,6.8-13,10.4-19.4c3.4-6.1,7-12.2,10.7-18.2
		c4.8-7.9,10-15.6,15.4-23.1c4.6-6.4,9.5-12.5,13.7-19c4-6.1,8-12.3,12.5-18.1c2.2-2.9,4.7-5.6,6.8-8.6c2.9-4,6.1-7.7,9.3-11.5
		c1-1.2,1.9-2.5,3.1-3.6c2.9-2.8,5.6-5.7,7.8-9.1c0.8-1.2,1.8-2.2,2.8-3.2c2.9-3,5.9-5.9,8.8-8.8c2.2-2.3,4.4-4.6,6.4-7.2
		c2-2.7,4.6-4.9,7-7.2c3.3-3.2,5.3-7.2,7.2-11.2c0.7-1.5,0.5-2.8-0.7-3.9c-1.2-1.2-2.5-1.2-4-0.5c-4.1,1.9-7.9,4-11.2,7.3
		c-7.9,7.9-16.7,14.9-24.2,23.2c-4.9,3.4-9.1,7.5-13.5,11.5c-2,1.8-4.2,3.4-6.1,5.3c-0.5,0.4-0.9,1-1.4,1.3
		c-7.9,5.4-14.8,12.2-23,17.1c-11.1,6.7-21,15-31.7,22.3c-10.6,7.2-21.3,14.1-32.3,20.6c-9.3,5.4-18.9,10.1-28.5,14.9
		c-10.2,5.1-20.6,9.4-31.1,13.8c-12.1,5.1-24.6,9-37,13.1c-10.8,3.5-21.8,6.1-32.9,8.7c-9,2.1-18.1,3.9-27.2,5.5
		c-6.7,1.2-13.6,2-20.4,2.9c-1.3,0.2-2.6,0.1-3.8,0.2c-2.7,0.1-5.4-0.1-8.1,0.8c-0.4,0.2-0.9,0.2-1.4,0.1
		c-10.9-0.1-21.7,1.8-32.6,0.8c-6.8-0.6-13.7-0.4-20.5-1.3c-4.5-0.6-9.2-0.8-13.8-1.5c-6.6-0.9-13.2-2-19.8-3.6
		c-8.7-2.1-17.4-4.3-25.7-7.5c-8-3.1-16-6.3-23.6-10.6c-4.7-2.7-9.5-5.3-13.9-8.5c-7.4-5.4-14.5-11.1-20.5-17.9
		c-7.7-8.6-14.1-18.1-18.7-28.8c-2.2-5.1-4-10.5-5.2-15.9c-2.1-9.2-3.7-18.5-3.3-27.9c0.4-8.4,1.2-16.8,3-25.1
		c2.7-12.6,6.8-24.6,12.2-36.2c6.7-14.3,14.7-27.9,24.1-40.7c3.3-4.5,6.6-9,10-13.4c2-2.7,4.2-5.2,6.5-7.7
		c7.4-7.9,14.4-16.3,22.6-23.5c8-7.1,15.9-14.2,24.3-20.9c13.2-10.6,27-20.4,41.2-29.5c9.7-6.2,19.6-12.1,29.8-17.3
		c4.8-2.5,9.5-5.2,14.4-7.6c11.1-5.3,22.3-10.3,33.7-15c12.1-5,24.5-9.2,37-13.2c11-3.5,22.1-6.3,33.3-9c9.6-2.3,19.3-4.1,29.1-5.9
		c10.3-1.9,20.7-3.5,30.9-6.2c7.9-2.1,15.7-4.2,23.3-6.9c4.3-1.5,8.8-2.7,13.3-4c0.5-0.1,1-0.1,1.4-0.3c0.8-0.4,1.2-1,1.2-1.9
		c0-0.7-0.4-1.2-1-1.5c-1.8-0.7-3.5-1.5-5.4-1.9c-3.3-0.7-6.4-1.9-9.6-2.9c-8.4-2.6-16.8-5.1-25.2-7.5c-2.3-0.7-4.7-0.7-7-1.3
		c-8.8-2.4-17.8-3.3-26.7-5c-12.1-2.2-24.1-4.9-36-8c-10.8-2.9-21.5-6.1-32.1-9.6c-14.1-4.6-27.9-10.1-41.5-16.1
		c-8.5-3.7-17-7.3-25.2-11.8c-9.2-5.1-18.7-9.8-27.6-15.4c-7.7-4.8-15.6-9.5-23-14.7c-7.6-5.3-15.3-10.5-22.4-16.3
		c-7.2-5.8-14.3-11.7-21.3-17.8c-9.7-8.6-18.8-17.9-27.7-27.2C81,647.5,75.6,640.2,70,633c-7.5-9.8-14.1-20.2-20.1-30.9
		c-7.8-13.8-14-28.4-17.8-43.9c-2-8-3.8-16.2-3.8-24.5c0-2.4-0.7-4.8-0.7-7.1c0-7.5,1-14.9,2.2-22.3c1.4-8.3,4.4-16,7.4-23.7
		c1.7-4.3,4.3-8.2,6.7-12.1c5.8-9.3,13.4-17.1,21.5-24.3c6.1-5.4,12.8-10,19.8-14.2c12.6-7.5,26.2-12.6,40.1-16.8
		c8.1-2.4,16.3-4.4,24.7-5.7c5.2-0.8,10.4-1.3,15.6-2.1c18.3-2.6,36.7-1.8,55-1.7c3,0,6.1,0.3,9,0.9c4.9,1.1,9.8,0.8,14.7,1.5
		c4.6,0.7,9.1,1.4,13.7,2c8.2,1.2,16.3,2.8,24.4,4.6c18,3.9,35.7,8.7,53,14.9c9,3.2,17.9,6.8,26.8,10.3c8.5,3.3,16.8,7.2,24.9,11.2
		c10,5,20,9.9,29.5,15.8c5.4,3.4,11.1,6.4,16.4,9.9c9.9,6.4,19.7,13.1,29,20.3c5.5,4.2,11.2,7.9,17.1,11.4c1.6,1,3.2,2.1,4.7,3.3
		c3.5,3.1,7.5,5.5,11.1,8.3c3.1,2.5,6.1,5.2,9.1,7.7c1,0.8,1.8,1.8,2.9,2.5c3.2,1.9,5.6,4.7,8.5,7c7.3,6,13.5,13.2,20.6,19.4
		c4.6,4,8.7,8.4,13.6,12.1c2.4,1.8,4.9,3.6,7.7,4.9c1,0.5,2.1,0.8,3.2,0.9c2.6,0.1,4-1.6,3.1-4c-0.8-1.9-1.7-3.8-2.8-5.6
		c-2.1-3.6-4.5-6.9-7.7-9.7c-2.4-2.1-4.6-4.4-6.3-7.2c-0.6-0.9-1.5-1.6-2.3-2.4c-3.7-3.7-7.5-7.4-11.2-11.2
		c-4-4.1-7.3-8.9-11.6-12.7c-3.4-5.7-8.3-10.1-12.3-15.2c-1.7-2.1-3.2-4.4-4.8-6.6c-4.3-5.7-8.3-11.6-12.1-17.7
		c-3.1-5-6.8-9.6-10.4-14.4c-6.7-8.9-12.8-18.3-18.8-27.7c-5.1-7.8-9.5-15.9-14-24c-5.1-9.2-9.9-18.6-14-28.4
		c-3.8-8.8-7.7-17.6-11.1-26.5c-4.9-12.7-9.5-25.4-12.9-38.6c-1.5-5.9-3.3-11.7-4.8-17.6c-2.7-10.8-5-21.7-6.7-32.8
		c-1.2-7.9-2.4-15.7-3.6-23.6c-0.1-0.9-0.1-1.9-0.1-2.9c-0.1-2.7,0.1-5.4-0.8-8.1c-0.1-0.4-0.1-1-0.1-1.4
		c0.1-11.2-1.8-22.4-0.7-33.5c0.7-6.8,0.1-13.7,1.4-20.5c0.6-3.4,0.5-7,1.1-10.4c0.8-5,1.5-10.1,2.3-15.1c1.5-9.2,4.1-18,6.9-26.9
		c2-6.4,4.6-12.6,7.3-18.7c5.2-11.7,11.7-22.7,19.9-32.6c3.6-4.4,7.9-8.4,12-12.4c8.5-8.2,18.3-14.3,29.1-19
		c7.5-3.3,15.3-5.4,23.3-7c4.1-0.8,8.2-1.1,12.4-1.3c3.7-0.2,7.4,0,11-0.1c6.9-0.1,13.7,1.2,20.4,2.4c10.6,2,20.8,5.2,30.7,9.3
		c8.4,3.5,16.6,7.5,24.4,12.2c5.5,3.3,11,6.5,16.3,10c5.6,3.7,10.9,7.8,16.2,11.9c4.8,3.7,9.4,7.6,14.1,11.4
		c0.9,0.7,1.7,1.5,2.5,2.3c7.6,7.6,15.2,15.1,22.7,22.7c3.2,3.3,6,7.1,9.1,10.5c3.9,4.3,7.3,8.9,11.1,13.2c2.6,3,4.7,6.4,7.2,9.5
		c2.9,3.6,5.5,7.5,8.1,11.2c6.5,9.3,12.5,18.9,18.3,28.6c7.8,13,14.9,26.5,21.3,40.2c5.2,11.1,10.2,22.4,14.4,34
		c1.9,5.3,4,10.5,5.8,15.7c4.8,14.1,8.9,28.3,12.3,42.8c1.5,6.4,3.2,12.7,4.5,19.1c1.6,8,2.7,16,4.2,24c1.2,6.6,2.6,13.1,4,19.7
		c2.3,10,5.8,19.5,8.6,29.3c1.7,2.4,1.6,5.5,2.6,8.1c0.3,0.9,0.6,1.8,1.4,2.5c0.8,0.7,2,0.6,2.4-0.3c0.7-1.8,1.2-3.6,1.8-5.5
		c2.2-6.8,4.3-13.7,6.4-20.5c2.4-7.6,4.7-15.2,5.6-23.2c0.1-0.6,0.1-1.3,0.4-1.9c1.7-3.7,1.7-7.7,2.4-11.6c0.8-4.4,1.9-8.7,2.5-13.1
		c1.5-11.6,4.9-22.8,7.5-34.1c1.9-8.2,4.5-16.3,7.1-24.4c3.1-9.7,6.5-19.4,10-29c2.6-7,5.7-13.9,8.7-20.8
		c4.5-10.4,9.6-20.5,14.8-30.6c5.1-9.9,10.8-19.5,16.7-29.1c8.7-14.1,18.4-27.6,28.5-40.8c3.6-4.7,7.6-9.1,11.4-13.6
		c7.3-8.7,14.9-17.1,23.1-24.9c8-7.5,16.2-14.9,24.9-21.7c6.6-5.1,13.3-9.9,20.2-14.5c8-5.3,16.4-9.9,25-14.2
		c10.8-5.4,22-9.5,33.6-12.7c6-1.6,12.1-2.6,18.3-3.5c7.3-1,14.7-1,22-0.8c8.6,0.3,17.1,2,25.4,4.4c6.8,2,13.2,4.8,19.4,8.1
		c5.1,2.7,9.7,6.2,14.3,9.6c4.1,3.1,7.8,6.6,11.3,10.3c6,6.4,11.4,13.3,16,20.8c3,4.9,5.8,9.9,8.3,15c5.8,12,10.2,24.4,13.3,37.4
		c1.6,6.7,2.9,13.4,4.2,20.1c0.7,3.6,0.9,7.3,1.3,10.9c0.6,5.1,1.1,10.1,1.6,15.2c0.1,1.3,0.2,2.6,0.2,3.8
		C1209.8,197.7,1209.8,203.6,1209.8,209.6L1209.8,209.6z M1033.7,797.1C1033.6,797.1,1033.6,797.1,1033.7,797.1
		c-0.1-4.8-0.1-9.6-0.1-14.4c0-1.1,0.1-2.3-0.1-3.4c-1.2-6.3-1.4-12.7-2.5-18.9c-1.5-8.5-3.1-16.9-5.6-25.2
		c-4.5-15.3-10.2-30.2-18.1-44.2c-4.1-7.2-8.3-14.4-13.1-21.1c-7.2-10-15-19.5-23.8-28.1c-5-4.9-10.1-9.8-15.6-14.2
		c-7.1-5.7-14.4-11.1-22.2-15.9c-8.2-5-16.5-9.7-25.3-13.6c-10.5-4.6-21.3-8.8-32.4-11.7c-6.8-1.8-13.6-3.6-20.5-4.7
		c-4.7-0.7-9.4-1.6-14.2-2.1c-7-0.7-14-1.5-21-1.6c-10.9-0.3-21.7,0.5-32.5,1.7c-7.3,0.8-14.5,2-21.7,3.5c-10.6,2.3-21,5.3-31.3,9
		c-9.8,3.5-19.2,7.8-28.5,12.4c-5.7,2.8-11.2,6.2-16.6,9.5c-6.3,3.8-12.4,7.8-18.1,12.4c-3.5,2.8-7.1,5.4-10.5,8.4
		c-4.1,3.5-8.4,6.9-12.3,10.7c-6.5,6.4-12.5,13.2-18.5,20.1c-3.6,4.1-6.8,8.5-10,12.8c-3.8,5.1-7.2,10.5-10.7,15.9
		c-6.2,9.7-11.3,20.1-15.9,30.6c-4.7,10.5-8.7,21.3-11.5,32.5c-1.7,6.6-3.3,13.3-4.5,20.1c-0.8,4.6-1.6,9.1-2.1,13.7
		c-0.6,5.1-1.4,10.1-1.5,15.2c-0.1,5.9,0.1,11.8-0.1,17.8c-0.2,6.7,1,13.4,1.1,20.1c0,0.5,0.1,1,0.2,1.4c1,5,1.6,10.1,2.4,15.1
		c1.6,10.1,4.3,20,7.5,29.7c4,12.3,9.1,24.2,15.3,35.6c2.8,5.2,5.6,10.4,8.9,15.3c4.1,6.1,8.2,12.2,13,17.8
		c4.7,5.5,9.3,11,14.2,16.2c5.3,5.7,11.4,10.7,17.4,15.7c5.6,4.8,11.4,9.3,17.6,13.2c9.9,6.4,20,12.5,31,17.2c5.7,2.4,11.4,5,17.3,7
		c9.8,3.4,19.7,6.5,29.9,8.4c6.4,1.2,12.8,2.5,19.3,3.2c5.5,0.6,11.1,1.5,16.7,1.2c0.6,0,1.3,0.1,1.9,0.2c5.1,0.9,10.3,0.9,15.3,0.2
		c5.7-0.7,11.5-0.6,17.2-1.4c5.9-0.7,11.7-1.6,17.5-2.6c7.9-1.3,15.6-3.2,23.3-5.5c4.6-1.3,9.2-2.7,13.7-4.3
		c6.1-2.3,12.2-4.7,18.2-7.4c10.9-4.8,21.2-10.4,31.2-16.8c6.9-4.4,13.5-9.1,19.9-14.1c6.3-4.9,12.3-10.2,18.1-15.7
		c5.2-4.9,10.2-10.2,14.9-15.6c5.2-6,10.3-12.2,14.9-18.7c5.9-8.4,11.2-17,16.1-26c4-7.3,7.6-14.8,10.8-22.4
		c4.3-10.1,8-20.5,10.8-31.2c1.5-5.7,3.2-11.4,1.6-17.4c-0.1-0.4,0-1,0-1.4c0.6-4.9,1.1-9.8,1.8-14.7c1.1-7.1,1.9-14.2,1.8-21.4
		C1033.6,802.5,1033.7,799.8,1033.7,797.1z M1458.3,1125.4c11.8,0.2,23.6-0.2,35.3-1.7c4-0.5,7.9-1.1,11.8-1.9
		c3.6-0.7,7.1-2,10.5-3.3c2-0.8,3.7-1.9,4.8-3.8c0.3-0.6,0.3-1.2-0.1-1.8c-0.4-0.6-1-0.8-1.7-0.6c-0.8,0.3-1.5,0.7-2.2,1
		c-4.7,2-9.5,3.8-14.8,3.5c-0.6,0-1.3,0-1.9,0.3c-2.2,0.8-4.4,0.8-6.6,0.7c-7.3-0.1-14.7,0.3-22,0.1c-10.4-0.3-20.7,0-31.1-0.9
		c-7.9-0.7-15.9-1.1-23.8-2.1c-1.9-0.2-3.8-0.8-5.7-0.9c-3.7,0-7.3-0.8-10.9-1.5c-8.9-1.6-17.9-3.2-26.8-5.1
		c-14.2-3-28.4-6-42.5-9.5c-13.3-3.3-26.6-6.8-39.8-10.6c-9.7-2.7-19.3-5.5-28.9-8.6c-14.9-4.7-29.7-9.9-44.3-15.6
		c-11.6-4.5-23.1-9.2-34.4-14.6c-12.1-5.8-23.9-12.2-35.4-19.1c-8.5-5.1-16.8-10.5-24.7-16.4c-10.4-7.7-20.8-15.4-31.2-23.1
		c-6.9-5.1-13.8-10.2-20.7-15.5c-6.8-5.2-13.4-10.8-20.3-15.9c-6.5-4.9-12.8-10-18.4-16c-1-1-2-2-3.1-3.1c-0.6-0.6-1.1-1.1-1.8-1.6
		c-0.7-0.5-1.5-0.7-2.2-0.2s-1.1,1.2-0.9,2c0.2,0.9,0.5,1.9,0.9,2.7c1.3,2.2,2.7,4.3,4.6,6.1c5.3,5.1,10.3,10.5,16,15.1
		c5.9,4.8,11.5,10.1,17.3,15.1c3.1,2.7,6.4,5.3,9.6,8c4.8,4,9.6,7.9,14.6,11.6c4.5,3.3,8.7,6.9,13.2,10.3c5.7,4.4,11.4,8.7,17.1,13
		c11.4,8.5,23.4,16.2,35.8,23.1c5.6,3.1,11.4,5.9,16.9,9c6,3.4,12.3,6.2,18.5,9c7.9,3.5,15.9,6.6,23.9,9.8c8.6,3.4,17.3,6.7,26,9.8
		c16.9,5.9,34,11,51.2,16c17.5,5.1,35.1,9.6,52.9,13.5c19.5,4.2,39,8.1,58.9,10.2c6,0.6,12,1.7,18.1,1.7c0.8,0,1.6,0,2.4,0.2
		c6.6,1.5,13.4,0.7,20,1.5C1447.7,1125.9,1453,1125.4,1458.3,1125.4z M487,1466.3c-0.3,12,0.3,23.9,1.7,35.8
		c0.7,6.2,1.9,12.3,3.9,18.2c0.6,1.7,1.3,3.3,2.1,4.8c0.8,1.6,2.1,2.8,3.6,3.8c0.6,0.4,1.3-0.1,1.4-0.7c0.2-1.2-0.2-2.2-0.5-3.3
		c-0.7-2.3-1.8-4.4-2.5-6.7c-0.8-3-0.6-6-1.1-9c-1.2-6.3-1.6-12.6-1.5-19c0.1-6.9,0-13.8,0-20.6c0-1.1-0.2-2.3,0.1-3.3
		c1.4-5.8,0.4-11.8,1.4-17.6c0.9-5.3,0.5-10.8,1.1-16.2c0.7-6.2,1.6-12.3,2.4-18.5c1.4-10.7,3.5-21.4,5.7-32
		c2.8-13.3,5.9-26.5,9-39.7c2.9-12.3,6.1-24.5,9.5-36.6c4-14.3,8.1-28.6,12.7-42.7c5.1-15.6,10.7-31.1,16.9-46.3
		c3.9-9.6,8-19.2,12.5-28.5c4.2-8.8,9-17.3,13.9-25.7c4.1-7,8.4-14,12.8-20.8c3.9-5.8,8.1-11.4,12.3-17.1
		c5.7-7.7,11.3-15.4,17.1-23.1c5.7-7.5,11.4-15,17.1-22.4c5.2-6.7,10.3-13.4,15.5-20c2.1-2.6,4.2-5.2,6.2-7.9
		c1.8-2.5,3.7-4.8,5.9-6.9c2.7-2.7,5.4-5.4,8.1-8.2c0.8-0.8,0.9-1.7,0.1-2.5c-0.7-0.7-1.5-1.2-2.5-0.7c-0.3,0.1-0.6,0.2-0.9,0.4
		c-3.2,2.1-6.6,4-9.2,6.8c-4.2,4.6-8.6,9-12.6,13.8c-2.5,2.9-5.2,5.6-7.7,8.5c-5,5.8-9.9,11.7-14.8,17.6c-3.8,4.5-7.4,9.2-11,13.8
		c-4.3,5.5-8.4,11.2-12.9,16.6c-6.1,7.4-11.6,15.3-17.2,23c-4.4,6.1-8.2,12.5-12.2,18.9c-5,8.2-9.7,16.6-14.1,25
		c-4.3,8.2-8.1,16.7-11.7,25.2c-6,14.1-11.7,28.3-16.6,42.9c-3.5,10.4-6.9,20.9-10.3,31.4c-4.5,14-8.4,28.1-12.1,42.4
		c-3.1,11.7-6.1,23.5-8.4,35.4c-1.8,9.4-3.7,18.8-5.5,28.2c-0.7,3.6-1.3,7.2-1.9,10.8c-0.8,5.8-1.4,11.7-2.3,17.5
		s-1.7,11.7-1.7,17.6c0,1.1,0.1,2.3-0.2,3.3c-1.5,6.1-0.6,12.4-1.4,18.6C486.5,1455.7,487,1461,487,1466.3z M498.6,91.6
		c-1.2-0.1-2,0.8-2.6,1.7c-1.7,2.9-3.4,5.8-4.3,9.1c-1.9,6.9-3,14-3.8,21.1c-0.5,4.7-0.7,9.5-0.9,14.3c-0.6,15.5-0.1,31,0.8,46.5
		c0,0.3,0,0.7,0.1,1c1.6,6.1,0.4,12.4,1.8,18.5c0.8,3.9,0.6,8,1.3,11.9c1.6,8.5,2.7,17,4.2,25.5c1.8,10.2,3.8,20.4,6.1,30.5
		c3,13.7,6.3,27.4,10.2,40.8c2.7,9.2,5.2,18.4,7.9,27.6c3.3,10.8,6.7,21.7,10.3,32.4c3.4,9.8,7.1,19.5,10.9,29.2
		c3.6,9.4,7.5,18.7,11.8,27.8c6.6,13.9,13.7,27.5,21.7,40.5c3.4,5.4,7,10.7,10.5,16c5.4,8.3,11.7,16,17.6,23.9
		c3.3,4.5,6.8,8.9,10.2,13.3c2.3,2.9,4.7,5.7,6.9,8.6c5.1,6.6,10.4,12.9,15.9,19.1c2.6,3,5.3,5.9,7.9,9c6.3,7.4,12.8,14.7,19.7,21.5
		c2.4,2.4,5.3,4.1,8.1,5.9c0.4,0.3,0.9,0.5,1.3,0.5c1,0.1,1.9,0,2.5-1c0.5-0.8,0.3-1.6-0.3-2.2c-0.9-1.1-1.9-2.1-3-3.1
		c-6-5.8-11.5-11.9-16.6-18.5c-8-10.5-16.4-20.8-24.3-31.4c-9.4-12.7-19-25.2-28.2-38c-5.7-7.9-11.4-15.7-16.5-24.1
		c-5.1-8.3-10.1-16.6-14.6-25.3c-7.2-14.1-14-28.4-19.8-43.1c-5.1-13.1-9.9-26.3-14.5-39.6c-4.2-12.4-7.7-25-11.4-37.6
		c-4.2-14.1-7.9-28.3-11.4-42.5s-6.5-28.6-9.6-42.9c-2.1-9.5-3.7-19.1-5.3-28.7c-0.5-3.2-0.4-6.4-1.1-9.5
		c-1.4-5.8-1.5-11.7-2.3-17.5c-0.7-5.2,0.1-10.5-1.2-15.7c0.1-8.5-1.2-16.9-0.9-25.4c0.2-5.4,0-10.9,0.1-16.3c0-2.6,0-5.1,0.5-7.6
		c0.4-2.3,0.8-4.7,1-7.1c0.4-5.3,1.2-10.4,3.7-15.2c0.5-0.9,0.6-1.8,0.4-2.8C499.5,92.1,499.2,91.7,498.6,91.6z M144.8,495.5
		c-8.1,0.1-16.3-0.2-24.4,0.6c-6.5,0.6-13,1.2-19.4,2.3c-5.2,0.9-10.2,2.5-14.8,5.2c-0.8,0.5-1.7,0.9-2.2,1.8
		c-0.4,0.7-0.5,1.5,0.1,2.2c0.5,0.6,1.2,0.5,1.8,0.2c2.8-1.3,5.5-2.6,8.5-3.3c5-1.2,10.1-1.7,15.1-2c8.9-0.4,17.9-0.3,26.9-0.2
		c8.9,0.1,17.9-0.6,26.8,1c5.6-0.3,11.2,0.6,16.7,1.1c6,0.5,12.1,1.1,18,2.1c12.1,2,24.2,4.2,36.2,6.6c10.5,2.1,20.9,4.6,31.3,7.1
		c11.8,2.9,23.6,5.8,35.3,9c13.8,3.8,27.7,7.8,41.4,12.1c17.7,5.5,35.2,11.7,52.4,18.6c10.7,4.3,21.3,8.8,31.5,14
		c10.8,5.4,21.5,11.3,31.9,17.6c8.4,5.2,16.7,10.6,24.7,16.5c9.6,7.1,19.2,14.2,28.8,21.4c8.1,6,16.1,12,24.1,18.2
		c8.5,6.5,16.8,13.2,25.2,19.8c3.5,2.8,7,5.6,10.1,8.8c1.7,1.7,3.4,3.4,5.1,5.1c1.4,1.4,2.7,1.7,3.3,1c0.9-1.2,0.6-2.5-0.1-3.6
		c-1.6-2.4-3.1-4.9-5-7c-5.4-6.2-11.8-11.2-17.8-16.7c-5.8-5.3-11.9-10.1-17.8-15.3c-6.2-5.5-12.8-10.6-19.3-15.8
		c-7.1-5.7-14.4-11.1-21.6-16.6c-3.9-3-7.6-6.3-11.7-9.1c-14.3-10-28.9-19.4-44.3-27.5c-12-6.3-24.3-12.2-36.8-17.4
		c-19.1-7.8-38.4-15-58-21.2c-14.9-4.7-29.9-9.2-45-13.3c-21.6-5.8-43.3-10.9-65.3-14.9c-7.4-1.3-14.8-2.6-22.2-3.8
		c-4.2-0.7-8.5-1.6-12.8-1.8c-5.3-0.2-10.4-1.5-15.7-1.3c-0.3,0-0.6,0-1-0.1c-7.2-1.4-14.6-0.8-22-1.6
		C156.7,495.1,150.7,495.5,144.8,495.5z M1459.2,495.6C1459.2,495.5,1459.2,495.5,1459.2,495.6c-4-0.1-8-0.1-12-0.1
		c-3.2,0-6.4-0.2-9.6,0.2c-6.5,0.9-13.1,0.7-19.6,1.5s-13,1.2-19.5,2c-8.5,1.1-17,2.4-25.5,3.9c-12.6,2.2-25.1,4.7-37.5,7.6
		c-7.9,1.9-15.8,3.8-23.7,5.8c-14.7,3.8-29.3,7.9-43.8,12.4c-9.5,2.9-18.8,6.1-28.2,9.3c-7.2,2.5-14.5,5.1-21.6,7.9
		c-7,2.7-13.9,5.8-20.9,8.4c-8.2,3.1-16.1,7-24,10.8c-8.3,4.1-16.3,8.8-24.4,13.3c-13.7,7.7-26.5,16.6-38.9,26.1
		c-6.6,5-13.2,10-19.7,15.1c-7.5,6-15.1,11.8-22.3,18.1c-2.9,2.5-5.7,5.1-8.7,7.5c-4.3,3.6-8.7,7-12.6,11c-0.8,0.8-1.6,1.6-2.5,2.3
		c-5.8,4.4-10.5,9.8-15.6,14.9c-1.8,1.8-2.7,4.3-4.1,6.5c-0.4,0.7-0.2,1.6,0.5,2.1s1.5,0.6,2.2,0.1c0.8-0.5,1.5-1.2,2.2-1.9
		c5.8-6.2,12.1-11.8,18.9-17c8.1-6.2,16.1-12.6,24.1-18.8c5.9-4.6,11.9-9,18-13.5c12.4-9.2,24.8-18.6,37.4-27.5
		c13.3-9.5,27.4-17.7,41.8-25.3c9.2-4.9,18.6-9.2,28.2-13.3c16.3-7.1,32.9-13.3,49.7-18.9c12.6-4.2,25.3-8,38-11.8
		c15.3-4.5,30.7-8.7,46.3-12.3c12.6-2.9,25.2-5.9,37.8-8.7c7-1.6,14-3.2,21.1-4.2c7.3-1,14.4-2.7,21.7-3.3
		c5.2-0.5,10.4-1.3,15.7-1.8c4.1-0.4,8.3-0.8,12.4-0.8c0.9,0,1.9-0.1,2.8-0.4c1.4-0.4,2.8-0.5,4.3-0.5c9.1-0.1,18.2-0.2,27.3-0.1
		c9.2,0.1,18.5-0.5,27.7,1c4,0.6,7.9,1,11.6,2.6c1.5,0.7,2.9,1.2,4.4,1.8c0.6,0.2,1.3,0.2,1.7-0.4c0.5-0.6,0.4-1.2,0-1.7
		c-1.2-1.6-2.8-2.7-4.6-3.4c-4.3-1.7-8.6-3.4-13.2-4c-3-0.4-6-0.6-9-1.2c-5.2-1.1-10.5-1.1-15.7-1.5
		C1471.7,495.2,1465.5,495.6,1459.2,495.6z M1116.9,1466.5c0.5-11.4-0.5-22.7-1-34c-0.1-2.7-0.6-5.4-0.8-8.1
		c-0.4-4.8-0.6-9.6-1.3-14.3c-1.3-9.3-2.9-18.6-4.5-27.8c-1.6-9.4-3.3-18.8-5.2-28.2c-1.4-7-3.3-14-5-20.9
		c-3.4-14.1-7.1-28.2-11.4-42.1c-3.6-11.6-7-23.2-10.8-34.8c-5.2-15.6-10.8-31.1-17.2-46.2c-3.5-8.4-7-16.8-11.1-25
		c-3.7-7.3-7.3-14.6-11.4-21.6c-3-5.1-5.8-10.3-9-15.3c-6.5-10.1-12.9-20.2-20.5-29.5c-3.8-4.7-7.3-9.7-11.1-14.4
		c-5.8-7.4-11.6-14.8-17.5-22.1c-3.6-4.5-7.3-8.9-11.1-13.2c-3.3-3.9-6.8-7.6-10.2-11.4c-2.6-3-5.3-5.9-7.8-9.1
		c-3.1-3.9-6.7-7.3-10.4-10.6c-1.7-1.6-3.9-2.7-5.9-4.1c-0.8-0.6-1.7-0.8-2.7-0.8c-0.7,0-1.3,0.1-1.5,0.9c-0.1,0.4-0.1,1.1,0.1,1.4
		c1,1.2,2.1,2.4,3.2,3.5c6.2,6,11.6,12.7,16.9,19.5c2.2,2.9,4.5,5.8,6.7,8.7c5.3,6.8,10.7,13.5,15.9,20.4c6.8,9,13.5,18.2,20.3,27.3
		c9.4,12.5,18.7,25,26.9,38.4c6.7,11.1,13,22.4,18.8,33.9c3.9,7.8,7.6,15.8,10.9,24c5,12.5,10,24.9,14.3,37.6
		c4.4,12.9,8.7,25.7,12.3,38.8c3,10.4,6.1,20.8,8.8,31.3c3.4,13.1,6.6,26.3,9.7,39.5c3,12.6,5.5,25.2,7.9,37.9
		c1.8,9.4,3.4,18.8,4.5,28.3c1,8.1,2,16.2,2,24.3c0,0.9,0.1,1.9,0.4,2.8c0.5,1.6,0.5,3.1,0.5,4.7c-0.2,18,1.2,36.1-0.9,54.1
		c-0.6,5-1.5,9.8-3.7,14.3c-0.3,0.7-0.7,1.4-0.9,2.2c-0.1,0.4,0.1,1,0.4,1.3s0.9,0.4,1.3,0.3c0.6-0.1,1.2-0.5,1.6-0.9
		c0.5-0.6,0.9-1.3,1.3-2c2.6-4.5,3.9-9.4,5-14.4c0.7-3.3,0.7-6.7,1.3-9.9c1.1-5.5,1-11.1,1.4-16.7
		C1117.3,1478.7,1116.9,1472.6,1116.9,1466.5z M1116.9,153.3c0.5-10.1-0.3-20.1-0.9-30.2c0-0.5-0.1-1-0.1-1.4
		c-0.6-4.4-1.1-8.8-2-13.2c-0.9-4.5-2.3-9-4.5-13.1c-0.8-1.4-1.7-2.7-3.2-3.5c-0.3-0.2-1-0.1-1.3,0.2c-0.3,0.2-0.6,0.9-0.5,1.2
		c0.2,0.9,0.7,1.8,1,2.7c1.9,4.6,3.6,9.2,3.4,14.3c0,0.6,0,1.3,0.2,1.9c1,2.8,0.8,5.7,0.8,8.6c0,14.6-0.1,29.1-0.1,43.7
		c0,1.3,0.1,2.6-0.3,3.8c-0.6,2.2-0.6,4.4-0.7,6.7c0,1.4,0.1,2.9-0.2,4.3c-1.2,7.2-1.6,14.6-2.5,21.8c-0.9,7.3-2.1,14.5-3.4,21.7
		c-2.6,14.1-5.6,28.1-8.9,42.1c-2.2,9.5-4.4,18.9-6.8,28.4c-3.2,12.5-6.6,25-10.4,37.4c-4.3,14.4-8.6,28.8-13.7,42.9
		c-5,14-10.3,27.8-16.1,41.5c-5.8,13.9-12.7,27.2-20,40.4c-6.6,11.7-13.9,23-21.8,33.8c-7.1,9.8-14.4,19.5-21.6,29.2
		c-5.5,7.4-11,14.9-16.6,22.2c-5.9,7.7-12,15.3-18,23c-4.3,5.5-8.8,11-13.9,15.8c-1.4,1.3-2.7,2.7-4.1,4.1c-0.4,0.5-0.9,0.9-1.2,1.5
		c-0.4,0.8-0.3,1.5,0.3,2.2c0.5,0.5,1.1,0.6,1.7,0.4c2.9-1.3,5.8-2.7,8.1-5.1c4.8-4.9,9.7-9.7,14.2-14.9c4.6-5.3,9.2-10.6,13.9-15.8
		c6.1-6.8,11.8-13.8,17.5-20.9c7-8.7,13.9-17.5,20.6-26.4c6.9-9.2,13.7-18.4,19.9-28.2c6.9-10.9,13.3-22.2,19.3-33.7
		c4.9-9.3,9.1-19,13.2-28.8c5.1-12.2,10-24.6,14.3-37.1c4.2-12.1,8.2-24.2,11.9-36.5c3.2-10.9,6.5-21.7,9.3-32.7
		c3.2-12.7,6.4-25.4,9.4-38.1c1.9-8.1,3.4-16.2,4.9-24.4c1.3-7,2.5-14.1,3.6-21.2c0.8-5.2,1.8-10.4,2.1-15.6
		c0.3-4.9,0.8-9.9,1.4-14.8c0.9-7.3,0.7-14.7,1.4-22C1117.4,165.5,1116.9,159.4,1116.9,153.3z M143.5,1125.6
		c7.3-0.3,15.3-0.7,23.3-1c3.4-0.1,6.8,0.2,10.1-0.3c5.5-0.8,11.1-1.3,16.7-1.6c6.5-0.4,13-1.5,19.5-2.4c8.2-1,16.3-2.9,24.5-4.3
		c11.7-1.9,23.2-4.4,34.7-7.1c12.9-3,25.7-6.3,38.4-10.1c9.5-2.8,19.1-5.3,28.5-8.3c18.3-5.8,36.4-12,54.3-19
		c10-3.9,19.9-8,29.5-12.6c13.3-6.4,26.3-13.2,38.8-20.9c6.9-4.3,13.8-8.6,20.4-13.4c12.7-9.4,25.2-19.1,37.6-28.8
		c6-4.7,12-9.5,17.8-14.5c6.7-5.9,13.7-11.5,20.2-17.6c0.9-0.9,1.8-1.8,2.8-2.6c5.4-4,9.8-9.1,14.5-13.9c1.7-1.7,2.9-3.8,4-6
		c0.6-1.3,0.5-2.7-0.3-3c-1.2-0.5-2.2-0.2-3.1,0.7c-1,1-2,2-3.1,3c-3.8,3.6-7.4,7.5-11.6,10.7c-9.5,7.3-18.7,14.9-28.2,22.1
		c-9.4,7.2-18.9,14.1-28.4,21.2c-5.1,3.8-10.3,7.5-15.4,11.4c-7.3,5.7-14.9,11-22.7,16c-7,4.5-14.1,8.7-21.3,12.8
		c-6.8,3.9-13.8,7.4-20.8,10.9s-14.2,6.6-21.4,9.7c-12.7,5.4-25.5,10.2-38.5,14.8c-13.2,4.7-26.7,8.9-40.2,12.8
		c-12.6,3.7-25.2,7.1-37.9,10.4c-9.9,2.6-19.8,4.9-29.8,7.3c-10.7,2.6-21.5,4.8-32.3,6.9c-7.7,1.5-15.4,2.8-23.1,4.1
		c-8.8,1.6-17.7,2.3-26.6,3.3c-4.6,0.5-9.2,0.6-13.8,0.9c-8.1,0.5-16.2,1.3-24.4,1.1c-6.6-0.2-13.1-0.2-19.7,0
		c-4.3,0.1-8.6-0.5-12.9-1.1c-0.9-0.1-1.9-0.6-2.8-0.6c-4.9,0-9.5-1.2-13.8-3.5c-1.8-0.9-3.1-0.7-3.4,0.3c-0.3,1.4,0.7,2,1.5,2.7
		c0.5,0.4,1.1,0.7,1.6,1c3.5,2.4,7.6,3.6,11.6,4.3c9.7,1.7,19.5,3.6,29.4,3.1c0.6,0,1.3-0.1,1.9,0.1
		C134.1,1125.8,138.5,1125.4,143.5,1125.6z M452.2,877.1c-0.3-0.9-0.8-1.7-1.6-1.8c-2.8-0.6-5.6-1.8-8.4-1.3c-3,0.6-6,0.7-9,1.1
		c-8.1,1.1-16,3.1-23.8,5.1c-9.4,2.4-18.8,5.1-28.1,8c-9.7,3.1-19.5,6.1-29.2,9.2c-8.3,2.7-16.6,5.6-24.9,8.5
		c-8,2.8-16,5.6-23.9,8.7c-17.2,6.6-33.9,14.1-50.2,22.6c-9.9,5.2-19.9,10.3-29.8,15.5c-3.7,1.9-7.3,4-10.9,6
		c-7,3.9-13.9,7.8-20.9,11.8c-7.3,4.2-14.7,8.4-22,12.7c-5,2.9-9.8,6-14.7,9c-9,5.5-17.9,11.1-26.5,17.2c-2.6,1.8-5.3,3.6-7.4,6.1
		c-0.7,0.8-0.8,1.7-0.1,2.6c0.6,0.7,1.8,1,2.6,0.2c2-2,4.5-3.1,6.7-4.6c5.2-3.4,10.5-6.7,15.8-9.9c7.1-4.2,14.4-8.3,21.6-12.4
		c9.2-5.2,18.3-10.4,27.5-15.5c4.9-2.7,9.8-5.3,14.8-7.9c10-5.3,20-10.7,30.1-15.8c8.4-4.3,16.9-8.3,25.4-12.3
		c7.1-3.3,14.2-6.7,21.4-9.6c14-5.7,28.1-11.3,42.6-16c8.8-2.8,17.5-6,26.3-9c10-3.4,20-6.8,30-9.9c11.1-3.5,22.3-6.8,33.5-9.9
		c9.7-2.7,19.3-5.8,29.5-5.8c1.2,0,2.2-0.3,3-1.3C452,877.9,452.1,877.5,452.2,877.1z M738.6,1168.9c-0.5-2.3-0.8-4.7-1.4-7
		c-0.2-0.9-0.9-1.8-2.1-1.7c-1.1,0-1.7,0.9-2,1.8s-0.2,1.9-0.3,2.8c-0.1,1.6,0.1,3.2-0.2,4.8c-1.2,5.3-2,10.6-3.4,15.9
		c-4.5,16.6-9.4,33.1-14.8,49.5c-7.3,22.5-14.7,44.9-22.9,67.1c-3.9,10.5-8,20.9-12.6,31.1c-5.1,11.4-10.4,22.6-15.9,33.8
		c-5.3,10.8-10.9,21.3-16.5,32c-2.4,4.5-4.8,9-7.3,13.5c-4.1,7.4-8.3,14.8-12.4,22.1c-2.3,4-4.6,8.1-6.9,12.1
		c-2.4,4.1-4.8,8.3-7.2,12.4c-4.1,7.2-8.2,14.4-12.9,21.3c-2,2.9-3.7,6-5.9,8.7c-0.6,0.8-0.3,2,0.5,2.5s1.5,0.4,2.2-0.1
		c0.3-0.2,0.5-0.4,0.7-0.6c1.9-2.3,4-4.6,5.7-7c7.7-11.2,15-22.6,22-34.3c6.4-10.7,12.6-21.5,18.7-32.3c5.6-9.8,11-19.8,16.5-29.7
		c5-9.1,9.7-18.4,14.4-27.6c6.8-13.2,13.2-26.6,18.7-40.4c3.5-8.7,6.9-17.5,10-26.4c3.6-10.4,7.4-20.8,10.9-31.2
		c3.2-9.5,6-19.2,9.1-28.8c4.2-13.4,8-26.9,11.3-40.6c0.4-1.5,0.8-3.1,1-4.7c0.8-4.9,1.5-9.8,2-14.7
		C737.9,1171.8,738.6,1170.4,738.6,1168.9z M1160.7,746.2c0.8,0,1.8,0.2,2.7,0c3-0.9,6-0.8,9-0.9c0.6,0,1.3-0.1,1.9-0.3
		c13.2-2.6,26.1-6,38.9-9.8c12.7-3.8,25.3-7.8,37.9-11.9c17.6-5.7,35.1-11.7,52.4-18.4c15-5.8,29.7-12.5,44.2-19.7
		c5.3-2.6,10.5-5.4,15.7-8.2c6.9-3.6,13.9-7.3,20.8-11c3.8-2,7.6-4,11.4-6.2c11.5-6.6,22.9-13.3,34.4-19.9
		c15.7-8.9,31-18.5,45.8-28.8c2.7-1.9,5.2-4.2,7.8-6.3c0.5-0.4,0.7-1.1,0.3-1.7c-0.4-0.6-0.9-0.9-1.6-0.9c-1.2-0.1-2.1,0.6-3,1.3
		c-8.6,6.1-17.7,11.4-26.8,16.8c-8,4.7-16.2,9-24.2,13.7c-13.9,8.2-28.1,15.9-42.4,23.3c-20.4,10.6-40.9,21.1-62,30.3
		c-11,4.8-22.1,9.2-33.3,13.4c-10.6,3.9-21.4,7.4-32.1,11.1c-7.7,2.6-15.3,5.4-23.1,7.9c-11.9,3.8-23.8,7.4-35.7,11
		c-9.6,2.9-19.2,6.1-29,8.1c-5.1,1-10.2,2.7-15.6,2.3c-0.5,0-1,0.1-1.4,0.2c-0.8,0.2-1.4,0.8-1.5,1.7s0.4,1.6,1.2,1.9
		C1155.7,745.9,1158,746.5,1160.7,746.2z M738.3,452.2c-0.6-5.4-0.9-10.3-1.8-15.2c-1.1-6.3-2.6-12.5-4.2-18.6
		c-1.8-6.9-3.8-13.8-5.9-20.7c-3-9.9-5.9-19.9-9.1-29.8c-2.9-9-6.1-17.8-9.1-26.7c-2.2-6.5-4.2-13.1-6.7-19.5
		c-6.9-18.1-14.2-36-22.8-53.3c-4.9-9.9-10-19.6-15.2-29.4c-4.7-8.9-9.7-17.6-14.6-26.4c-3.3-5.9-6.5-11.7-9.9-17.5
		c-5.6-9.6-11.3-19.3-17.1-28.8c-6.8-11.2-13.6-22.3-21.6-32.7c-1.2-1.5-2.5-2.9-3.8-4.3c-1-1-1.9-1.1-2.5-0.4
		c-0.8,0.9-0.6,1.8-0.1,2.7c0.2,0.4,0.4,0.9,0.7,1.2c3.3,3.9,5.9,8.4,8.5,12.7c4.6,7.5,9,15.1,13.4,22.7c3.4,5.8,6.4,11.8,9.9,17.5
		c4.2,6.8,7.8,13.9,11.7,20.9c3.1,5.6,5.9,11.4,9.1,16.9c5.8,10,10.5,20.5,15.9,30.6c4.5,8.5,8.3,17.3,12.3,26
		c3,6.5,6,13.1,8.7,19.7c6.1,14.9,11.6,30.1,16.7,45.4c5.5,16.5,10.9,33.1,16.3,49.6c2.3,7,4.5,14,6.6,21c2.2,7.3,4.3,14.7,6.1,22.1
		c1.4,5.7,3,11.4,2.8,17.4c0,1.1,0.2,2.2,0.4,3.3c0.2,1,0.9,1.7,2.1,1.6c0.9-0.1,1.5-0.7,1.7-1.5
		C737.5,456.4,737.9,454.1,738.3,452.2z M1160.9,874.5c-1.3,0.1-3.4,0.1-5.4,0.3c-0.9,0.1-1.8,0.5-2.6,1c-1,0.5-0.8,2.4,0.2,2.8
		c1.3,0.5,2.7,0.9,4.2,0.9c6.6,0,12.9,1.7,19.3,3.4c5.2,1.4,10.5,2.8,15.6,4.4c10.2,3.2,20.5,6,30.7,9.3
		c20.8,6.7,41.6,13.6,62.2,20.9c9.9,3.5,19.8,7.3,29.5,11.4c6.8,2.8,13.4,6.1,20.1,8.9c8.4,3.5,16.5,7.8,24.6,11.8
		c12.2,5.9,24.1,12.5,36.2,18.8c4.7,2.4,9.3,4.9,13.9,7.5c11.4,6.4,22.8,12.9,34.2,19.4c12.2,6.9,24.4,14,36,21.9
		c0.7,0.4,1.3,1,2,1.3c0.8,0.4,1.6,0.4,2.2-0.3c0.7-0.7,0.5-1.5-0.1-2.1c-1.1-1.1-2.2-2.4-3.5-3.3c-5.7-4.1-11.3-8.4-17.2-12.1
		c-12.8-8.1-25.8-16-38.9-23.6c-11.5-6.6-23-13.2-34.6-19.6c-4.6-2.5-9.3-5-13.9-7.5c-6.5-3.5-12.9-7.1-19.4-10.4
		c-7.2-3.7-14.6-7.1-21.9-10.6c-8.7-4.3-17.7-8.1-26.8-11.7c-12.2-4.8-24.5-9.3-36.9-13.4c-4.8-1.6-9.7-3.2-14.5-4.9
		c-4.5-1.5-9-3.3-13.6-4.7c-11-3.4-22-6.6-33-9.9c-10.5-3.1-21.1-6.3-32-8.1C1172.2,875.5,1167,874.7,1160.9,874.5z M443.8,746.3
		c2,0.6,4.4-0.7,6.9-1.1c1-0.2,1.7-0.9,1.6-2.1c-0.1-1.1-1-1.6-2-1.7c-0.8-0.1-1.6-0.1-2.4-0.1c-1.6-0.1-3.2,0.1-4.8-0.3
		c-5-1-10-2-14.9-3.3c-8-2.1-16-4.4-24-6.8c-11.5-3.5-22.9-7-34.3-10.7c-25.3-8.4-50.7-16.6-75.5-26.6
		c-12.9-5.2-25.6-10.9-38.1-16.9c-12.2-5.9-24.5-11.8-36.4-18.5c-6-3.3-12.1-6.4-18.2-9.7c-3.9-2.1-7.9-4.3-11.8-6.4
		c-7-3.9-13.9-7.8-20.9-11.8c-7.5-4.3-14.9-8.6-22.4-12.9c-7.7-4.5-15.3-9.2-22.7-14.3c-0.7-0.5-1.3-0.9-2.2-0.9
		c-0.4,0-1,0.2-1.3,0.5c-0.2,0.3-0.3,1-0.2,1.3c0.4,0.7,0.9,1.4,1.5,1.9c2.6,2.1,5.2,4.3,7.9,6.2c8.6,6.1,17.6,11.6,26.5,17.2
		c9.9,6.2,20,12,30.1,17.8c8.9,5.1,17.8,10,26.8,14.9c8.8,4.9,17.5,9.9,26.5,14.5c14.2,7.3,28.5,14.5,43.2,20.9
		c13.6,5.9,27.5,11.2,41.5,16.1c9.6,3.4,19.4,6.5,29.1,9.8c8.5,2.8,16.9,5.7,25.5,8.3c8.5,2.6,17.1,5,25.8,7.3
		c10.6,2.8,21.2,6.2,32.3,6.5c0.5,0,1,0.1,1.4,0.3C440,746.3,441.6,746.3,443.8,746.3z M869,1160c-0.8,0.1-1.5,0.5-1.7,1.4
		c-0.5,2.3-1.2,4.6-1.3,7c-0.1,2.8,1,5.4,1,8.1c0,5.2,1.3,10.1,2.4,15.1c3.6,15.2,7.8,30.2,12.6,45.1c3.4,10.6,6.8,21.3,10.4,31.9
		c4.1,12.4,8.4,24.8,13,37.1c5.6,14.8,11.8,29.3,18.7,43.5c4.7,9.6,9.5,19.2,14.7,28.6c4.9,8.9,9.6,18.1,14.6,27
		c7,12.5,14.2,25,21.5,37.4c7.6,13,15.4,25.7,23.9,38.1c2.2,3.3,4.8,6.4,7.2,9.5c0.6,0.7,1.4,1.3,2.1,1.9c0.4,0.3,1,0.3,1.3-0.1
		c0.3-0.3,0.6-0.7,0.7-1.2c0.2-0.9-0.3-1.5-0.8-2.2c-2.9-4.4-5.9-8.7-8.6-13.3c-6.1-10.1-12.1-20.3-17.9-30.6
		c-5.1-8.9-9.9-17.9-15-26.8c-6.7-11.6-12.8-23.5-19-35.5c-7.9-15.2-15.5-30.5-22.3-46.2c-3.4-7.8-6.9-15.5-10-23.3
		c-3.5-8.8-6.8-17.6-9.8-26.5c-6.1-17.8-12.1-35.7-17.9-53.6c-3.7-11.4-7.1-22.9-10.5-34.3c-2.1-7.3-4-14.8-5.8-22.2
		c-1-4-1.8-8.1-1.6-12.3c0.1-0.8-0.1-1.6-0.3-2.4C870.6,1160.5,869.9,1160.1,869,1160z M866.1,451.9c-0.3,2.2,0.7,4.7,1.3,7.1
		c0.2,0.8,1,1.3,1.9,1.2c0.9-0.1,1.5-0.7,1.6-1.5c0.2-0.8,0.2-1.6,0.2-2.4c0.1-1.8-0.1-3.6,0.3-5.3c1-5,2-10,3.3-14.9
		c3-11.1,6.2-22.1,9.6-33.1c3.7-12.1,7.6-24,11.6-36c3.3-10,6.8-20,10.2-30c4.7-13.8,9.8-27.3,15.4-40.8
		c6.1-14.8,13.1-29.1,20.1-43.5c4.5-9.2,9.3-18.2,14-27.3c1.1-2.1,2.2-4.3,3.3-6.4c4.7-8.5,9.4-17.1,14.1-25.6
		c3.5-6.3,7-12.5,10.6-18.8c3.6-6.2,7.3-12.4,10.9-18.6c4.2-7.4,8.7-14.5,13.4-21.6c0.7-1.1,1.6-2,2.3-3.1c0.4-0.7,0.4-1.6-0.3-2.2
		c-0.7-0.5-1.5-0.5-2.2,0c-0.4,0.2-0.8,0.6-1.1,1c-3.4,4-6.4,8.3-9.4,12.7c-6.2,9.1-12,18.5-17.7,27.9c-4.1,6.7-8.1,13.4-12,20.2
		c-5.1,9-10.2,18.1-15.2,27.2c-5.6,10.2-11.3,20.4-16.7,30.7c-10.1,19.3-19.7,38.8-27.5,59.1c-4.6,11.8-8.7,23.7-12.9,35.6
		c-2.3,6.6-4.3,13.4-6.5,20.1c-2.7,8.2-5.4,16.3-8,24.6c-2.2,7-4.2,14.1-6.1,21.2c-1.7,6.2-3.2,12.3-4.6,18.6
		c-1.3,5.7-3.1,11.4-2.9,17.4c0,0.6-0.2,1.3-0.4,1.9C866.1,448.6,866.1,450,866.1,451.9z M634.9,1272.3c0.1,0.6,0.1,1.1,0.3,1.5
		c0.2,0.6,0.7,1.1,1.3,1.2c0.7,0.1,1.3-0.1,1.7-0.6c0.5-0.8,1-1.6,1.3-2.5c1.7-4.7,3.4-9.3,4.9-14c2.7-8.3,5.7-16.6,8.1-25.1
		c1.5-5.4,3.6-10.6,5.2-15.9c2.5-8.1,4.6-16.3,7.2-24.3c4.9-14.9,10.6-29.4,16.6-43.9c2.1-5,4.6-9.9,8.7-13.7
		c0.7-0.6,1.2-1.5,1.7-2.3c0.5-0.9,0.7-1.8,0.1-2.7c-0.7-0.8-1.6-1-2.6-0.9c-2,0.2-3.6,1.2-5,2.6c-3.5,3.1-6.3,6.7-8.4,10.9
		c-6.9,13.8-11.8,28.3-17.2,42.7c-3.2,8.5-5.3,17.4-7.7,26.2c-2.4,8.8-5.1,17.5-7.5,26.2c-2.9,10.8-5.6,21.6-8.3,32.4
		C635,1270.8,635,1271.6,634.9,1272.3z M340,977.6c0.8-0.2,1.6-0.3,2.4-0.5c1.4-0.4,2.7-1,4.1-1.2c7.6-1.3,14.9-3.5,22.2-5.6
		c9.5-2.7,19-5.3,28.5-8c9.2-2.6,18.6-4.6,27.6-7.8c5.9-2.1,11.7-4.2,17.5-6.5c7-2.7,14-5.4,20.9-8.3c4-1.7,7.8-3.6,11.4-6.1
		c2.7-1.8,4.8-4.2,6.9-6.6c1.2-1.5,2-3.3,1.6-5.3c-0.2-1.1-1.5-1.9-2.5-1.6c-1.6,0.5-2.8,1.5-3.9,2.7c-1.5,1.4-2.9,3-4.8,4
		c-3.3,1.6-6.6,3.3-9.9,4.7c-5.7,2.4-11.5,4.7-17.3,6.9c-7,2.7-14,5.3-21.1,7.7s-14.3,4.4-21.5,6.6c-7.6,2.4-15.1,5-22.8,7.2
		c-13,3.8-25.8,8.5-38.6,12.9c-1,0.4-2,0.9-2.9,1.6c-0.9,0.7-0.6,2.4,0.4,2.8C338.8,977.3,339.5,977.4,340,977.6z M969.1,1272.1
		c-0.2-1-0.3-2.1-0.6-3.2c-0.7-2.9-1.5-5.9-2.2-8.8c-1.8-8.6-4.3-17-6.7-25.4c-2.6-8.9-5.2-17.7-7.5-26.7c-1.5-5.7-3.1-11.4-4.8-17
		c-4.3-13.9-9.8-27.3-15.3-40.8c-2.1-5.2-4.8-10.1-8.1-14.6c-1.9-2.7-4.5-4.4-7.4-6c-0.9-0.5-1.8-0.6-2.8-0.6s-1.7,0.8-1.8,1.8
		c-0.1,1.4,0.5,2.5,1.5,3.4c3.5,3.2,5.6,7.3,7.7,11.5c1.8,3.7,3.3,7.6,4.8,11.5c5.8,14.7,11.5,29.4,16,44.5
		c3.5,11.6,7,23.2,10.7,34.8c4,12.3,8.2,24.5,12.3,36.8c0.1,0.4,0.4,0.9,0.7,1.2c0.6,0.9,2.5,0.6,2.8-0.4
		C968.9,1273.5,969,1272.9,969.1,1272.1z M1264,643.4c-0.8,0.1-1.6,0-2.4,0.2c-8.4,2.1-16.7,4.2-25,6.4s-16.6,4.7-24.9,7
		s-16.6,4.6-24.9,7c-4.1,1.2-8.3,2.4-12.3,3.9c-6.5,2.3-12.9,4.8-19.2,7.4c-7.3,2.9-14.6,5.7-21.5,9.4c-3.6,1.9-6.7,4.2-9.5,7.2
		c-1.6,1.7-2.6,3.7-3.4,5.7c-0.3,0.8-0.1,1.6,0.6,2.2c0.6,0.6,1.4,0.7,2.2,0.5c1-0.2,1.7-0.9,2.4-1.5c3.9-3.4,8-6.3,12.8-8.3
		c12.9-5.5,26.1-10.4,39.4-15.1c7.8-2.8,15.8-4.9,23.8-7.4c10.7-3.4,21.3-6.7,32-10.2c9.6-3.1,19.1-6.4,28.6-9.6
		c1.3-0.5,2.8-0.6,3.9-1.7c0.4-0.5,1-0.9,0.8-1.6c-0.2-0.7-0.7-1.1-1.3-1.2C1265.2,643.4,1264.6,643.4,1264,643.4z M1263.3,976.9
		c0.8-0.1,1.6,0,2.4-0.2c0.4-0.1,0.8-0.6,0.9-1s-0.1-1-0.4-1.3c-0.9-1-2.2-1.3-3.3-1.8c-17.8-6.6-36-12.2-54.1-17.9
		c-12.5-3.9-25.2-7.1-37.4-11.9c-10.2-4-20.6-7.8-30.8-12c-5.2-2.1-10.2-4.7-14.1-8.9c-0.9-1-2-1.6-3.3-1.9
		c-1.3-0.4-2.7,0.9-2.4,2.2c0.5,2,1.4,3.9,2.8,5.5c3.1,3.4,6.5,6.5,10.8,8.6c12.9,6.4,26.4,11.3,39.9,16.2c11.2,4.1,22.9,7,34.5,10
		c9.7,2.6,19.3,5.6,29,8.3c6.7,1.9,13.5,3.9,20.4,5C1259.8,976.1,1261.5,977,1263.3,976.9z M340.5,643.4c-0.6,0.1-1.3,0-1.9,0.2
		c-0.4,0.1-0.9,0.5-1.1,0.8c-0.4,0.6-0.1,1.2,0.4,1.7c0.9,1.1,2.2,1.3,3.4,1.7c7.9,2.7,15.7,5.3,23.6,8c7,2.3,13.9,4.7,20.9,6.9
		c11.1,3.5,22.3,6.7,33.4,10.2c14.1,4.5,27.9,10.2,41.7,15.5c6.5,2.5,12.5,5.6,17.4,10.7c0.4,0.4,1,0.8,1.6,1
		c0.9,0.3,1.9,0.3,2.7-0.5c0.6-0.6,0.7-1.4,0.6-2.2c-0.1-0.5-0.2-0.9-0.5-1.3c-2.3-3.9-5.3-7.3-9.2-9.6c-4.9-2.9-10.1-5.5-15.5-7.6
		c-6.5-2.6-13.1-5.1-19.6-7.7c-8.6-3.4-17.4-6.2-26.4-8.7c-10.1-2.8-20.3-5.7-30.4-8.5c-6.5-1.8-13-3.3-19.4-5.3
		c-6.5-2.1-13.4-2.9-19.9-5.1C341.9,643.4,341.2,643.4,340.5,643.4z M969.1,348.4c-0.1-0.6-0.1-1.1-0.3-1.5
		c-0.3-0.6-0.7-1.1-1.4-1.1c-0.4,0-1,0.3-1.2,0.6c-0.4,0.5-0.7,1.1-0.9,1.7c-1.1,3-2.2,6-3.2,9c-4.9,15-9.8,30-14.7,45
		c-1.3,3.9-2.3,8-3.5,11.9c-2.4,7.6-4.6,15.3-7.3,22.8c-3,8.4-6.2,16.7-9.5,25c-3.6,9-6.8,18.3-13.9,25.4c-0.8,0.8-1.2,2-0.6,3.1
		c0.6,1,1.7,0.8,2.6,0.8c1,0,1.8-0.4,2.7-0.9c2.4-1.4,4.5-3.1,6.1-5.3c3.1-4.3,5.7-8.9,7.7-13.7c3.1-7.5,6.1-15.1,9-22.7
		c3.6-9.5,7.2-19.1,9.6-29.1c1.8-7.4,3.8-14.8,6.1-22.1c4.7-15.4,8.8-31,12.5-46.6C968.9,349.9,969,349.1,969.1,348.4z M637,350.8
		c0,0.4,0.1,0.9,0.1,1.4c1.9,9.7,4.4,19.2,7.2,28.7c2.4,8.3,4.7,16.6,7.1,24.8c2.1,7.4,4,14.8,6.1,22.1c3.2,10.9,7.5,21.4,11.6,31.9
		c2.5,6.4,5.1,12.8,8.3,18.8c1.8,3.3,3.8,6.2,6.6,8.7c1.6,1.4,3.4,2.4,5.4,3c0.3,0.1,1-0.1,1.2-0.4s0.2-0.9,0-1.3
		c-0.1-0.4-0.5-0.8-0.8-1.2c-4.6-5-7.8-10.8-10.3-17.1c-2.7-6.8-5.4-13.6-8-20.5S666.3,436,664,429c-2.6-7.7-4.8-15.5-7.1-23.3
		c-4.5-15.3-9.5-30.5-14.7-45.6c-1.1-3.3-2.5-6.6-3.8-9.8c-0.2-0.5-0.7-0.7-1.1-0.5C637.2,350,637.1,350.4,637,350.8z"/>
	<path class="st0" d="M1033.7,797.1c0,2.7,0,5.4,0,8.2c0.1,7.2-0.7,14.3-1.8,21.4c-0.7,4.9-1.2,9.8-1.8,14.7c-0.1,0.5-0.1,1,0,1.4
		c1.6,6-0.1,11.8-1.6,17.4c-2.8,10.7-6.4,21.1-10.8,31.2c-3.3,7.6-6.9,15.1-10.8,22.4c-4.9,9-10.3,17.7-16.1,26
		c-4.6,6.5-9.7,12.7-14.9,18.7c-4.7,5.5-9.6,10.7-14.9,15.6c-5.8,5.5-11.7,10.8-18.1,15.7c-6.5,5-13.1,9.7-19.9,14.1
		c-10,6.3-20.4,12-31.2,16.8c-6,2.6-12.1,5.1-18.2,7.4c-4.5,1.6-9.1,3-13.7,4.3c-7.7,2.2-15.4,4.2-23.3,5.5
		c-5.8,0.9-11.6,1.8-17.5,2.6c-5.7,0.7-11.5,0.6-17.2,1.4c-5,0.7-10.2,0.7-15.3-0.2c-0.6-0.1-1.3-0.3-1.9-0.2
		c-5.6,0.3-11.2-0.7-16.7-1.2c-6.5-0.7-12.9-2-19.3-3.2c-10.2-1.9-20.2-4.9-29.9-8.4c-5.9-2.1-11.6-4.6-17.3-7
		c-10.9-4.7-21-10.8-31-17.2c-6.2-3.9-12-8.5-17.6-13.2c-6-5.1-12.1-10-17.4-15.7c-4.9-5.3-9.5-10.8-14.2-16.2
		c-4.8-5.6-8.9-11.7-13-17.8c-3.3-4.9-6.1-10.1-8.9-15.3c-6.2-11.4-11.3-23.3-15.3-35.6c-3.2-9.7-5.8-19.5-7.5-29.7
		c-0.8-5-1.5-10.1-2.4-15.1c-0.1-0.5-0.2-0.9-0.2-1.4c-0.1-6.7-1.3-13.3-1.1-20.1c0.2-5.9,0-11.8,0.1-17.8
		c0.1-5.1,0.9-10.1,1.5-15.2c0.5-4.6,1.4-9.1,2.1-13.7c1.1-6.8,2.8-13.4,4.5-20.1c2.8-11.2,6.8-22,11.5-32.5s9.7-20.8,15.9-30.6
		c3.4-5.4,6.8-10.8,10.7-15.9c3.2-4.3,6.5-8.7,10-12.8c6-6.9,11.9-13.7,18.5-20.1c3.9-3.8,8.1-7.2,12.3-10.7c3.4-2.9,7-5.6,10.5-8.4
		c5.7-4.6,11.9-8.6,18.1-12.4c5.4-3.3,10.9-6.7,16.6-9.5c9.3-4.6,18.7-8.9,28.5-12.4c10.2-3.7,20.6-6.7,31.3-9
		c7.2-1.5,14.4-2.7,21.7-3.5c10.8-1.2,21.6-2,32.5-1.7c7,0.2,14,1,21,1.6c4.8,0.5,9.5,1.3,14.2,2.1c7,1.1,13.7,2.9,20.5,4.7
		c11.1,3,21.9,7.1,32.4,11.7c8.8,3.9,17.1,8.6,25.3,13.6c7.8,4.7,15.1,10.2,22.2,15.9c5.5,4.4,10.6,9.2,15.6,14.2
		c8.8,8.7,16.6,18.1,23.8,28.1c4.8,6.7,9,13.9,13.1,21.1c7.9,14,13.6,28.9,18.1,44.2c2.4,8.3,4.1,16.7,5.6,25.2
		c1.1,6.3,1.3,12.7,2.5,18.9c0.2,1.1,0.1,2.2,0.1,3.4C1033.6,787.5,1033.6,792.3,1033.7,797.1
		C1033.6,797.1,1033.6,797.1,1033.7,797.1z M819.2,929.7L819.2,929.7c-5.1-0.1-10.2-0.2-15.4-0.1c-4,0.1-8-0.5-11.9-1.3
		c-9.1-1.8-18.1-3.8-26.8-7.2c-5.8-2.3-11.5-4.8-16.8-8c-4.8-2.8-9.5-5.9-13.3-10.1c-1.2-1.3-2.7-2.2-4-3.4c-2.2-2.1-4.7-4-6.5-6.4
		c-7.2-9.6-14.2-19.2-19-30.4c-3.9-9.1-7.1-18.4-9.5-28c-1.3-5.1-2.5-10.3-2.7-15.5c-0.3-8.3-0.6-16.6,0.6-24.9
		c0.9-6.5,2.4-12.8,4.2-19.1c2.9-10.1,8.4-18.9,12.8-28.3c3.6-7.7,9.8-13.4,16-18.9c4-3.6,8.4-6.8,12.8-10
		c6.4-4.6,13.1-8.5,20.3-11.6c4.3-1.8,8.6-3.4,13-5c7-2.5,14-4.3,21.4-4.5c1.1,0,2.2-0.3,3.3-0.5c4.9-0.6,9.9-0.8,14.8-0.2
		c5.1,0.6,10,1.8,15.1,2.6c7,1.2,13.5,3.8,19.8,7c4.1,2.1,7.9,4.8,11.7,7.4c6.6,4.5,12.6,9.8,17.3,16.3c3.4,4.7,6.7,9.3,9.1,14.6
		c1.7,3.9,3.4,7.9,5,11.9c2.2,5.5,3.7,11.2,4.2,17.1c0.3,3.4,0.7,6.7,1.4,9.9c0.4,1.9,0.6,3.8,0.7,5.7c0.2,4.8,0,9.6-1.5,14.2
		c-0.2,0.6-0.3,1.2-0.4,1.9c-0.6,5.8-2.4,11.2-4.3,16.6c-3.1,8.8-7.9,16.6-14.3,23.6c-2.2,2.4-4.5,4.5-6.9,6.6
		c-5.3,4.9-11.4,8.7-18.1,11.4c-2.5,1-5,2-7.6,3c-6.8,2.8-13.8,4.8-21.1,5.9c-5.9,0.9-11.4,0-17.1-0.9c-5.4-0.9-10.4-3.3-15.3-5.5
		c-3.3-1.5-6.6-3.3-9.6-5.4c-6.4-4.5-12.2-9.7-17.6-15.4c-0.9-0.9-1.9-1.8-2.5-2.9c-2.8-4.5-5.4-9-7.5-13.9c-1-2.4-1.7-4.8-1.6-7.4
		c0.1-1.7,0.1-3.5-0.4-5.2c-0.3-1.1-0.4-2.2,0-3.3c0.6-2,0.5-4.1,0.5-6.2c0-3.5,0.4-7,1-10.5c1.1-6.6,3.1-12.8,7.3-18
		c2.8-3.5,5.7-6.9,8.9-10c3.5-3.4,7.4-6,12.1-7.5c4.7-1.6,9.3-3.2,14.3-3.9c5.1-0.7,10.1-0.7,15.2,0.1c4.9,0.8,9.6,2.4,14.4,3.6
		c4.1,1,7.7,3.1,10.9,5.9c2.2,1.9,4.2,4,6.1,6.1c2.1,2.4,3.9,5.1,4.9,8.2c2.2,6.4,3.8,12.8,3.3,19.7c-0.3,3.6-1.1,7-3,10
		c-2.7,4.3-6.6,6.7-11.9,6.7c-4.3,0-8.8-4.5-8.6-8.6c0.1-2.5,0.6-4.7,1.4-7c0.8-2.2,0.6-4.2-0.7-6.4c-1.6-2.8-3.5-5.3-5.8-7.6
		c-6.9-6.6-19.2-9.6-28.4-4.4c-4.6,2.5-8.6,5.4-11.7,9.7c-1.6,2.2-3.1,4.5-4.5,6.8c-3,5.1-3.7,10.6-2.2,16.2
		c1.7,6,4.2,11.7,8.2,16.6c4.6,5.5,9.9,9.9,16.9,11.9c6.3,1.8,12.8,2.5,19.3,3.1c3,0.3,6,0.1,9-0.6c3.1-0.7,6.2-1.5,9.3-2.1
		c6.7-1.4,12-5.1,16.5-10.1c4.8-5.4,8.5-11.6,10.9-18.5c2.7-7.5,4.8-15.2,5.6-23.2c0.4-3.6,0.5-7.4-0.1-11c-1.1-7.5-4-14.5-7.1-21.3
		c-0.9-2-2.2-3.9-3.6-5.7c-3.1-4.1-6.2-8.1-9.5-12c-5.1-6-10.4-11.8-18-14.6c-4-1.5-8.1-3-12.2-4.4c-3.5-1.2-7.1-1.6-10.8-1.8
		c-9-0.5-17.8,0.9-26.7,1.9c-0.6,0.1-1.2,0.3-1.8,0.5c-8.3,3.4-16.6,6.6-24.6,10.8c-5.9,3.1-11.1,6.9-15.8,11.5
		c-7.1,7-12.8,15.1-17.1,24.1c-4.6,9.6-7.7,19.7-8.5,30.2c-0.7,9.1-0.4,18.2,1.7,27.1c2,8.4,4.5,16.7,8.9,24.2
		c1,1.8,2.2,3.6,3.1,5.4c4.5,8.4,10.5,15.6,16.8,22.6c3.3,3.7,7.3,6.7,11.1,9.9c5,4.2,10.5,7.8,16.2,11c6.8,3.7,14.2,5.7,21.6,7.6
		c2.8,0.7,5.6,1,8.5,1c3,0,6,0.1,9.1,0.6c5.1,0.7,10.2,0.7,15.3,0c2.5-0.3,5.1-0.6,7.6-0.6c6.4,0,12.7-0.9,18.9-2.6
		c2.9-0.8,5.9-1.5,8.8-2.4c6.8-1.9,13.4-4.5,19.6-7.8c8.8-4.6,16.9-10.2,23.9-17.4c4.9-5,10-9.9,14.4-15.4
		c6-7.5,11.3-15.5,15.6-24.1c3.4-6.9,5.8-14.2,7.7-21.6c2-7.8,2.4-15.8,2.8-23.7c0.4-6.4-0.2-12.7-0.6-19.1
		c-0.3-5.2-1.3-10.1-3-14.9c-3.1-8.6-7-16.8-11.7-24.6c-5.6-9.3-11.9-18.1-19.7-25.8c-2.4-2.4-4.8-4.7-7.1-7.1
		c-5.2-5.4-11.3-9.9-17.4-14.2c-11.4-8.1-23.9-14.1-37.2-18.4c-6.2-2-12.6-3.6-19-4.8c-7.6-1.5-15.1-2.4-22.8-2.5
		c-6.9,0-13.7,0-20.6,0.8c-6.9,0.7-13.6,1.9-20.2,3.6c-13.2,3.3-25.8,8.3-37.7,15.2c-10.2,6-19.7,12.9-28.6,20.8
		c-4.9,4.4-9.1,9.4-13.3,14.5c-5.5,6.8-10.5,14.1-14.6,21.8c-6.6,12.3-11.8,25.1-14.7,38.8c-1.5,7.2-2.9,14.4-3.2,21.7
		c-0.4,9.9-0.7,19.8,0.6,29.7c1.1,8.6,2.9,17,5.4,25.2c2.2,7.4,5.2,14.4,8.6,21.3c3.7,7.6,7.9,15,13.1,21.7c3.1,4,6.5,7.9,9.6,11.9
		c2.4,3.1,5.1,5.7,8,8.3c6.5,5.7,13.6,10.5,20.8,15.3c7.5,4.9,15.4,9.2,23.6,12.8c6.9,3,13.9,5.8,20.8,8.5
		c5.3,2.1,10.7,4.2,16.3,5.6c9.7,2.5,19.5,4.6,29.5,5.8c6.7,0.8,13.3,1.1,20,1.7c2.4,0.2,4.8,0,7.2,0.1c7.7,0.4,15.3-0.8,23-0.9
		c4.2-0.1,8.3-0.7,12.3-1.5c13.4-2.5,26.4-6.2,39-11.3c6.7-2.7,12.9-6.3,18.8-10.5c7.1-5.2,14.1-10.4,21.3-15.4
		c4.4-3.1,8.2-6.7,11.4-10.9c4.8-6.4,9-13.2,12.7-20.3c7.8-14.9,14-30.5,18.1-46.8c1.3-5.1,3.1-10.1,3.9-15.3
		c1.3-8,3.2-15.9,4.6-23.9c0.3-1.4,0.4-2.8,0.4-4.3c0.1-5.7-0.4-11.5-0.7-17.2c-0.4-9-1.8-17.8-3.4-26.5
		c-2.2-11.6-5.8-22.9-10.3-33.9c-2.8-7-6.2-13.6-9.7-20.3c-1.9-3.5-4-6.9-6-10.3c-6.1-10-13.6-18.9-21.2-27.7
		c-5.1-5.8-10.8-10.9-16.8-15.7c-6.2-5-12.6-9.7-19.3-14c-9.9-6.3-20.2-11.6-31-16.1c-3.7-1.5-7.4-2.9-11.3-4.1
		c-9-2.7-18.1-5.3-27.4-6.6c-5.2-0.7-10.4-1.9-15.6-2c-15.5-0.3-31-1.1-46.4,1.6c-10.1,1.7-20.1,3.7-29.8,6.8
		c-8.7,2.7-17.1,6.1-25.5,9.8c-6.7,3-13.1,6.6-19.5,10.3c-5.4,3.1-10.5,6.7-15.6,10.3c-8,5.6-15.4,11.8-22.5,18.6
		c-4.3,4.1-8.3,8.4-12.2,12.9c-5.2,5.9-10,12-14.6,18.4c-8.4,11.8-15.2,24.4-21,37.6c-4.2,9.5-7.5,19.3-10.2,29.4
		c-2.3,8.5-4.1,17.1-5,25.8c-0.6,5.2-1.5,10.4-1.3,15.7c0.1,1.7,0,3.5-0.4,5.2c-0.6,2.7-0.8,5.5-0.3,8.1c1.1,6,0.5,12.1,1.4,18.1
		c1,6.5,1.8,12.9,3,19.3c1.3,6.6,3.1,13.1,5.2,19.4c2.2,6.5,4.7,12.9,7.5,19.2c2.5,5.5,5.1,11.1,8.3,16.2
		c4.1,6.8,8.4,13.5,13.3,19.9c3.5,4.6,7.3,8.8,11,13.2c5.6,6.6,12.4,12,18.7,17.8c0.5,0.4,1.1,0.7,1.6,1.1c6.3,5,12.9,9.4,19.7,13.6
		c7.4,4.6,15.1,8.5,23,11.9c10.7,4.6,21.8,8,33.2,10.6c9.8,2.2,19.8,3.6,29.8,4.1c13.1,0.7,26.2,0.3,39.2-1.5
		c6.3-0.9,12.6-2.1,18.8-3.4c12.5-2.7,24.5-7.2,36.2-12.3c0.9-0.4,1.7-0.9,2.2-1.7c0.4-0.5,0.1-1.5-0.5-1.5
		c-1.1-0.1-2.3-0.3-3.3-0.1c-3.3,0.7-6.7,0.6-10,1.1c-6.2,1-12.4,0.6-18.6,1.4c-3.8,0.5-7.6-0.3-11.4-0.5c-7-0.4-14-0.7-21-1.1
		c-6.9-0.3-13.6-1.2-20.4-2.4c-1.3-0.2-2.5-0.5-3.8-0.7c-3-0.5-6-0.7-9-1.4c-5.3-1.2-10.6-2.4-15.7-4.2c-3.2-1.1-6.4-2.1-9.6-3
		c-4.9-1.4-9.7-3.3-14.3-5.4c-5.9-2.6-11.3-5.9-17-8.9s-11.1-6.4-16.5-9.7c-6.2-3.8-11.1-9.1-17.2-12.9c-0.3-0.2-0.5-0.4-0.7-0.7
		c-6.4-6.5-13.1-12.7-18.9-19.7c-7.4-8.9-13.6-18.5-19.1-28.6c-5.7-10.6-9.9-21.8-13.3-33.3c-2.5-8.4-4.3-17-5.3-25.7
		c-0.3-2.8-1-5.7-1-8.5c-0.1-13.1-0.7-26.2,1.7-39.2c1.6-9,3.5-17.9,6.4-26.5c3.8-11,8.3-21.7,14.2-31.9c6.7-11.5,14.7-22,23.5-31.9
		c4.6-5.2,10-9.5,15.1-14.1c2.2-2,4.6-3.9,7.1-5.7c4.3-3,8.7-6,13.1-8.8c7.2-4.6,14.7-8.5,22.5-11.7c11.4-4.6,23-8.4,35.3-10.5
		c8-1.4,16.1-2.4,24.2-2.7c4.9-0.2,9.8-0.4,14.7,0.1c4.3,0.4,8.6,0.4,12.9,0.9c6.5,0.7,13,1.9,19.3,3.5c13,3.3,25.7,7.6,37.7,13.8
		c3.4,1.8,6.8,3.6,10.1,5.5c4.7,2.7,9.2,5.8,13.6,8.8c2.4,1.6,4.4,3.7,6.7,5.5c4,3.2,7.9,6.4,11.6,10c4.7,4.6,8.8,9.7,13,14.7
		c7.8,9,13.9,19.1,19.2,29.7c2.8,5.6,5.6,11.2,7.9,17c3.4,8.5,5.9,17.2,5.5,26.5c-0.2,4.8,0,9.6-0.1,14.4c0,1.6,0.1,3.2-0.4,4.8
		c-0.6,1.7-0.7,3.5-0.6,5.2c0.2,6-1.4,11.7-2.8,17.4c-1.7,7-4.2,13.7-7.1,20.3c-2,4.7-3.9,9.5-6.2,14c-3.6,7.1-7.9,13.9-12.8,20.2
		c-3.8,4.9-7.6,9.9-11.9,14.3c-6,6.2-12.4,12-19.1,17.4c-5.9,4.7-12.3,8.6-18.8,12.2c-4.2,2.3-8.7,3.9-13.2,5.7
		c-13.5,5.3-27.5,8.3-42,8.6C828.4,929.8,823.8,929.7,819.2,929.7z"/>
	<path class="st0" d="M1458.3,1125.4c-5.3,0-10.6,0.5-15.8-0.1c-6.7-0.8-13.4,0-20-1.5c-0.8-0.2-1.6-0.1-2.4-0.2
		c-6.1,0-12-1.1-18.1-1.7c-19.9-2.1-39.4-6-58.9-10.2c-17.8-3.8-35.4-8.4-52.9-13.5c-17.2-5-34.3-10.1-51.2-16
		c-8.7-3-17.4-6.4-26-9.8c-8-3.1-16.1-6.3-23.9-9.8c-6.3-2.8-12.5-5.6-18.5-9c-5.6-3.2-11.3-6-16.9-9c-12.5-6.9-24.4-14.6-35.8-23.1
		c-5.8-4.3-11.5-8.6-17.1-13c-4.4-3.4-8.7-7-13.2-10.3c-5-3.7-9.8-7.6-14.6-11.6c-3.2-2.7-6.4-5.2-9.6-8c-5.8-5-11.3-10.3-17.3-15.1
		c-5.7-4.7-10.7-10-16-15.1c-1.9-1.8-3.2-4-4.6-6.1c-0.5-0.8-0.8-1.8-0.9-2.7c-0.2-0.8,0.2-1.6,0.9-2c0.8-0.5,1.6-0.3,2.2,0.2
		s1.2,1.1,1.8,1.6c1,1,2.1,2,3.1,3.1c5.6,6,11.9,11.1,18.4,16c6.9,5.2,13.5,10.7,20.3,15.9s13.8,10.4,20.7,15.5
		c10.4,7.7,20.8,15.4,31.2,23.1c8,5.9,16.3,11.3,24.7,16.4c11.5,7,23.3,13.4,35.4,19.1c11.2,5.4,22.8,10.1,34.4,14.6
		c14.6,5.7,29.4,10.8,44.3,15.6c9.6,3,19.2,5.8,28.9,8.6c13.2,3.8,26.5,7.3,39.8,10.6c14.1,3.5,28.3,6.6,42.5,9.5
		c8.9,1.9,17.8,3.5,26.8,5.1c3.6,0.6,7.2,1.5,10.9,1.5c1.9,0,3.8,0.6,5.7,0.9c7.9,1,15.9,1.5,23.8,2.1c10.4,0.9,20.7,0.6,31.1,0.9
		c7.3,0.2,14.7-0.1,22-0.1c2.2,0,4.5,0,6.6-0.7c0.6-0.2,1.3-0.3,1.9-0.3c5.3,0.3,10-1.5,14.8-3.5c0.7-0.3,1.4-0.7,2.2-1
		c0.7-0.2,1.3,0,1.7,0.6c0.4,0.6,0.4,1.2,0.1,1.8c-1.1,1.8-2.9,3-4.8,3.8c-3.4,1.4-6.8,2.6-10.5,3.3c-3.9,0.8-7.8,1.4-11.8,1.9
		C1481.9,1125.2,1470.1,1125.6,1458.3,1125.4z"/>
	<path class="st0" d="M487,1466.3c0-5.3-0.5-10.6,0.1-15.8c0.8-6.2-0.1-12.5,1.4-18.6c0.3-1.1,0.2-2.2,0.2-3.3
		c0-5.9,0.8-11.8,1.7-17.6c0.9-5.8,1.5-11.7,2.3-17.5c0.5-3.6,1.2-7.2,1.9-10.8c1.8-9.4,3.7-18.8,5.5-28.2
		c2.3-11.9,5.3-23.7,8.4-35.4c3.7-14.2,7.6-28.4,12.1-42.4c3.4-10.5,6.8-21,10.3-31.4c4.9-14.5,10.6-28.8,16.6-42.9
		c3.6-8.5,7.4-17,11.7-25.2c4.5-8.5,9.1-16.9,14.1-25c3.9-6.4,7.7-12.9,12.2-18.9c5.7-7.7,11.1-15.6,17.2-23
		c4.5-5.4,8.6-11.1,12.9-16.6c3.6-4.6,7.3-9.3,11-13.8c4.9-5.9,9.8-11.7,14.8-17.6c2.5-2.9,5.2-5.6,7.7-8.5c4-4.8,8.4-9.2,12.6-13.8
		c2.6-2.9,6-4.7,9.2-6.8c0.3-0.2,0.6-0.3,0.9-0.4c1.1-0.5,1.8,0,2.5,0.7c0.8,0.9,0.7,1.8-0.1,2.5c-2.7,2.7-5.4,5.5-8.1,8.2
		c-2.2,2.1-4.1,4.4-5.9,6.9c-1.9,2.7-4.1,5.3-6.2,7.9c-5.2,6.7-10.4,13.3-15.5,20c-5.7,7.5-11.5,14.9-17.1,22.4
		c-5.7,7.6-11.4,15.4-17.1,23.1c-4.1,5.7-8.4,11.3-12.3,17.1c-4.5,6.8-8.8,13.7-12.8,20.8c-4.9,8.4-9.7,16.9-13.9,25.7
		c-4.5,9.4-8.6,18.9-12.5,28.5c-6.2,15.2-11.8,30.7-16.9,46.3c-4.6,14.1-8.7,28.4-12.7,42.7c-3.4,12.1-6.7,24.3-9.5,36.6
		c-3.1,13.2-6.2,26.4-9,39.7c-2.2,10.6-4.3,21.3-5.7,32c-0.8,6.1-1.7,12.3-2.4,18.5c-0.6,5.4-0.2,10.9-1.1,16.2
		c-1,5.9,0,11.8-1.4,17.6c-0.3,1.1-0.1,2.2-0.1,3.3c0,6.9,0,13.8,0,20.6c-0.1,6.4,0.3,12.7,1.5,19c0.6,3,0.3,6,1.1,9
		c0.7,2.3,1.8,4.4,2.5,6.7c0.3,1.1,0.7,2.1,0.5,3.3c-0.1,0.7-0.8,1.1-1.4,0.7c-1.5-1-2.7-2.3-3.6-3.8c-0.8-1.6-1.6-3.2-2.1-4.8
		c-2-5.9-3.1-12-3.9-18.2C487.3,1490.2,486.7,1478.3,487,1466.3z"/>
	<path class="st0" d="M498.6,91.6c0.7,0.1,0.9,0.5,1,1c0.2,1,0.1,1.9-0.4,2.8c-2.5,4.8-3.4,9.9-3.7,15.2c-0.2,2.3-0.6,4.7-1,7.1
		c-0.5,2.5-0.5,5.1-0.5,7.6c0,5.4,0.2,10.9-0.1,16.3c-0.3,8.5,0.9,16.9,0.9,25.4c1.2,5.2,0.5,10.5,1.2,15.7
		c0.8,5.8,0.9,11.8,2.3,17.5c0.8,3.1,0.6,6.3,1.1,9.5c1.6,9.6,3.3,19.2,5.3,28.7c3.1,14.3,6.1,28.7,9.6,42.9s7.2,28.5,11.4,42.5
		c3.7,12.6,7.2,25.2,11.4,37.6c4.6,13.3,9.3,26.5,14.5,39.6c5.8,14.8,12.6,29,19.8,43.1c4.4,8.7,9.5,17,14.6,25.3
		s10.9,16.1,16.5,24.1c9.2,12.9,18.8,25.4,28.2,38c7.9,10.6,16.2,20.9,24.3,31.4c5.1,6.6,10.6,12.8,16.6,18.5c1,1,2,2,3,3.1
		c0.6,0.6,0.7,1.4,0.3,2.2c-0.6,1-1.5,1.1-2.5,1c-0.5-0.1-0.9-0.3-1.3-0.5c-2.8-1.9-5.7-3.6-8.1-5.9c-7-6.8-13.4-14.1-19.7-21.5
		c-2.6-3-5.3-6-7.9-9c-5.5-6.2-10.8-12.6-15.9-19.1c-2.2-2.9-4.6-5.7-6.9-8.6c-3.4-4.4-6.9-8.8-10.2-13.3
		c-5.9-7.9-12.2-15.6-17.6-23.9c-3.5-5.4-7.1-10.6-10.5-16c-8.1-13.1-15.2-26.7-21.7-40.5c-4.3-9.1-8.1-18.4-11.8-27.8
		c-3.7-9.7-7.5-19.4-10.9-29.2c-3.7-10.7-7-21.5-10.3-32.4c-2.8-9.2-5.3-18.4-7.9-27.6c-3.9-13.5-7.2-27.1-10.2-40.8
		c-2.2-10.1-4.2-20.3-6.1-30.5c-1.5-8.5-2.7-17-4.2-25.5c-0.7-3.9-0.5-8-1.3-11.9c-1.3-6.1-0.1-12.5-1.8-18.5c-0.1-0.3,0-0.6-0.1-1
		c-0.9-15.5-1.4-31-0.8-46.5c0.2-4.8,0.4-9.6,0.9-14.3c0.7-7.1,1.8-14.2,3.8-21.1c0.9-3.3,2.5-6.2,4.3-9.1
		C496.6,92.4,497.4,91.5,498.6,91.6z"/>
	<path class="st0" d="M144.8,495.5c5.9,0,11.9-0.5,17.7,0.1c7.3,0.7,14.7,0.1,22,1.6c0.3,0.1,0.6,0.1,1,0.1
		c5.3-0.3,10.5,1.1,15.7,1.3c4.3,0.2,8.5,1.1,12.8,1.8c7.4,1.2,14.8,2.4,22.2,3.8c22,4,43.7,9.1,65.3,14.9
		c15.1,4.1,30.1,8.6,45,13.3c19.7,6.2,39,13.4,58,21.2c12.6,5.2,24.8,11.1,36.8,17.4c15.4,8.1,30.1,17.5,44.3,27.5
		c4,2.8,7.8,6.1,11.7,9.1c7.2,5.5,14.5,10.9,21.6,16.6c6.5,5.2,13.1,10.2,19.3,15.8c5.8,5.2,12,10.1,17.8,15.3
		c6,5.5,12.5,10.5,17.8,16.7c1.9,2.1,3.4,4.6,5,7c0.7,1.1,1,2.4,0.1,3.6c-0.5,0.7-1.8,0.4-3.3-1c-1.7-1.7-3.4-3.4-5.1-5.1
		c-3.2-3.2-6.6-6-10.1-8.8c-8.4-6.6-16.7-13.3-25.2-19.8c-8-6.1-16-12.1-24.1-18.2c-9.6-7.2-19.2-14.3-28.8-21.4
		c-7.9-5.9-16.2-11.3-24.7-16.5c-10.4-6.4-21-12.2-31.9-17.6c-10.3-5.2-20.9-9.7-31.5-14c-17.2-6.9-34.7-13.1-52.4-18.6
		c-13.7-4.3-27.5-8.3-41.4-12.1c-11.7-3.2-23.5-6.1-35.3-9c-10.4-2.5-20.8-5-31.3-7.1c-12-2.4-24.1-4.6-36.2-6.6c-6-1-12-1.6-18-2.1
		c-5.6-0.5-11.1-1.4-16.7-1.1c-8.9-1.6-17.8-0.9-26.8-1s-17.9-0.3-26.9,0.2c-5,0.2-10.2,0.7-15.1,2c-3,0.7-5.7,2.1-8.5,3.3
		c-0.6,0.3-1.3,0.4-1.8-0.2c-0.6-0.7-0.5-1.5-0.1-2.2c0.5-0.9,1.3-1.3,2.2-1.8c4.6-2.7,9.6-4.3,14.8-5.2c6.4-1.2,12.9-1.7,19.4-2.3
		C128.5,495.3,136.7,495.6,144.8,495.5z"/>
	<path class="st0" d="M1459.2,495.6c6.2,0,12.5-0.3,18.7,0.1c5.2,0.4,10.5,0.4,15.7,1.5c2.9,0.6,6,0.8,9,1.2c4.6,0.7,8.9,2.3,13.2,4
		c1.8,0.7,3.4,1.8,4.6,3.4c0.4,0.6,0.5,1.2,0,1.7c-0.4,0.6-1.1,0.7-1.7,0.4c-1.5-0.6-3-1.1-4.4-1.8c-3.7-1.7-7.6-2-11.6-2.6
		c-9.2-1.5-18.5-0.8-27.7-1c-9.1-0.1-18.2,0.1-27.3,0.1c-1.4,0-2.9,0.1-4.3,0.5c-0.9,0.3-1.9,0.4-2.8,0.4c-4.2,0-8.3,0.4-12.4,0.8
		c-5.2,0.6-10.4,1.4-15.7,1.8c-7.3,0.7-14.5,2.3-21.7,3.3c-7.1,1-14.1,2.6-21.1,4.2c-12.6,2.8-25.2,5.8-37.8,8.7
		c-15.6,3.5-30.9,7.8-46.3,12.3c-12.7,3.7-25.4,7.6-38,11.8c-16.8,5.6-33.4,11.8-49.7,18.9c-9.5,4.1-19,8.5-28.2,13.3
		c-14.4,7.6-28.5,15.8-41.8,25.3c-12.6,9-24.9,18.3-37.4,27.5c-6,4.5-12,8.9-18,13.5c-8.1,6.2-16.1,12.6-24.1,18.8
		c-6.7,5.2-13,10.8-18.9,17c-0.7,0.7-1.4,1.3-2.2,1.9c-0.7,0.5-1.5,0.4-2.2-0.1c-0.7-0.6-1-1.4-0.5-2.1c1.3-2.2,2.2-4.6,4.1-6.5
		c5-5.1,9.8-10.5,15.6-14.9c0.9-0.7,1.7-1.5,2.5-2.3c3.9-4,8.3-7.4,12.6-11c3-2.4,5.8-5,8.7-7.5c7.2-6.3,14.8-12.1,22.3-18.1
		c6.5-5.2,13.1-10.1,19.7-15.1c12.5-9.5,25.3-18.4,38.9-26.1c8.1-4.6,16.1-9.2,24.4-13.3c7.9-3.9,15.8-7.7,24-10.8
		c7-2.6,13.9-5.7,20.9-8.4c7.2-2.8,14.4-5.4,21.6-7.9c9.4-3.2,18.7-6.4,28.2-9.3c14.5-4.5,29.1-8.6,43.8-12.4c7.9-2,15.8-4,23.7-5.8
		c12.4-2.9,24.9-5.4,37.5-7.6c8.5-1.5,17-2.8,25.5-3.9c6.5-0.8,13-1.2,19.5-2s13.1-0.6,19.6-1.5c3.1-0.4,6.4-0.2,9.6-0.2
		C1451.2,495.5,1455.2,495.5,1459.2,495.6C1459.2,495.5,1459.2,495.5,1459.2,495.6z"/>
	<path class="st0" d="M1116.9,1466.5c0,6.1,0.4,12.2-0.1,18.2c-0.5,5.5-0.3,11.1-1.4,16.7c-0.6,3.2-0.6,6.6-1.3,9.9
		c-1.1,5-2.4,9.9-5,14.4c-0.4,0.7-0.8,1.4-1.3,2c-0.4,0.4-1,0.7-1.6,0.9c-0.4,0.1-1,0-1.3-0.3s-0.5-0.9-0.4-1.3
		c0.2-0.8,0.5-1.5,0.9-2.2c2.2-4.5,3.1-9.3,3.7-14.3c2-18,0.6-36.1,0.9-54.1c0-1.6,0-3.2-0.5-4.7c-0.3-0.9-0.4-1.9-0.4-2.8
		c0-8.2-1.1-16.2-2-24.3c-1.1-9.5-2.7-18.9-4.5-28.3c-2.4-12.7-4.9-25.4-7.9-37.9c-3.1-13.2-6.3-26.4-9.7-39.5
		c-2.7-10.5-5.9-20.9-8.8-31.3c-3.7-13.1-8-26-12.3-38.8c-4.3-12.7-9.3-25.2-14.3-37.6c-3.3-8.2-6.9-16.2-10.9-24
		c-5.8-11.6-12.1-22.9-18.8-33.9c-8.2-13.4-17.5-25.9-26.9-38.4c-6.8-9-13.5-18.2-20.3-27.3c-5.2-6.9-10.6-13.6-15.9-20.4
		c-2.3-2.9-4.5-5.8-6.7-8.7c-5.3-6.8-10.7-13.5-16.9-19.5c-1.1-1.1-2.2-2.3-3.2-3.5c-0.2-0.3-0.2-0.9-0.1-1.4
		c0.2-0.7,0.8-0.9,1.5-0.9c1,0,1.9,0.2,2.7,0.8c2,1.4,4.2,2.5,5.9,4.1c3.6,3.4,7.2,6.8,10.4,10.6c2.5,3.1,5.2,6.1,7.8,9.1
		c3.4,3.8,6.9,7.6,10.2,11.4c3.8,4.3,7.5,8.7,11.1,13.2c5.9,7.3,11.7,14.7,17.5,22.1c3.7,4.8,7.2,9.7,11.1,14.4
		c7.6,9.3,14,19.4,20.5,29.5c3.2,5,6,10.2,9,15.3c4.1,7.1,7.7,14.4,11.4,21.6c4.1,8.1,7.6,16.6,11.1,25c6.4,15.2,12,30.6,17.2,46.2
		c3.8,11.5,7.2,23.2,10.8,34.8c4.3,13.9,8,27.9,11.4,42.1c1.7,7,3.5,13.9,5,20.9c1.9,9.4,3.6,18.8,5.2,28.2
		c1.6,9.3,3.1,18.5,4.5,27.8c0.7,4.7,0.8,9.5,1.3,14.3c0.2,2.7,0.7,5.4,0.8,8.1C1116.4,1443.8,1117.4,1455.1,1116.9,1466.5z"/>
	<path class="st0" d="M1116.9,153.3c0,6.1,0.5,12.2-0.1,18.2c-0.7,7.3-0.6,14.7-1.4,22c-0.6,4.9-1.1,9.8-1.4,14.8
		c-0.3,5.2-1.3,10.4-2.1,15.6c-1.1,7.1-2.2,14.2-3.6,21.2c-1.5,8.2-3.1,16.3-4.9,24.4c-3,12.7-6.1,25.4-9.4,38.1
		c-2.8,11-6.1,21.8-9.3,32.7c-3.7,12.3-7.7,24.4-11.9,36.5c-4.3,12.5-9.2,24.9-14.3,37.1c-4.1,9.7-8.3,19.4-13.2,28.8
		c-6,11.5-12.4,22.7-19.3,33.7c-6.2,9.7-13,18.9-19.9,28.2c-6.7,9-13.5,17.8-20.6,26.4c-5.7,7.1-11.4,14.1-17.5,20.9
		c-4.7,5.2-9.3,10.5-13.9,15.8c-4.5,5.2-9.4,10-14.2,14.9c-2.3,2.4-5.1,3.8-8.1,5.1c-0.6,0.3-1.3,0.2-1.7-0.4
		c-0.6-0.7-0.7-1.4-0.3-2.2c0.3-0.5,0.7-1,1.2-1.5c1.3-1.4,2.7-2.8,4.1-4.1c5.1-4.8,9.6-10.3,13.9-15.8c6-7.7,12.1-15.3,18-23
		c5.6-7.3,11.1-14.8,16.6-22.2c7.2-9.7,14.5-19.4,21.6-29.2c7.9-10.8,15.2-22.1,21.8-33.8c7.3-13.1,14.2-26.5,20-40.4
		c5.8-13.7,11.1-27.5,16.1-41.5c5-14.2,9.3-28.5,13.7-42.9c3.7-12.4,7.1-24.9,10.4-37.4c2.4-9.4,4.6-18.9,6.8-28.4
		c3.3-14,6.2-28,8.9-42.1c1.3-7.2,2.5-14.4,3.4-21.7s1.3-14.6,2.5-21.8c0.2-1.4,0.1-2.9,0.2-4.3c0.1-2.2,0-4.5,0.7-6.7
		c0.4-1.2,0.3-2.5,0.3-3.8c0.1-14.6,0.1-29.1,0.1-43.7c0-2.9,0.2-5.8-0.8-8.6c-0.2-0.6-0.2-1.3-0.2-1.9c0.2-5.1-1.5-9.7-3.4-14.3
		c-0.4-0.9-0.8-1.7-1-2.7c-0.1-0.4,0.2-1,0.5-1.2s1-0.3,1.3-0.2c1.4,0.8,2.4,2.1,3.2,3.5c2.2,4.1,3.6,8.6,4.5,13.1
		c0.9,4.4,1.4,8.8,2,13.2c0.1,0.5,0.1,1,0.1,1.4C1116.6,133.2,1117.4,143.2,1116.9,153.3z"/>
	<path class="st0" d="M143.5,1125.6c-5-0.2-9.3,0.3-13.6-0.8c-0.6-0.1-1.3-0.1-1.9-0.1c-10,0.5-19.7-1.4-29.4-3.1
		c-4-0.7-8.1-1.9-11.6-4.3c-0.5-0.4-1.1-0.6-1.6-1c-0.8-0.7-1.8-1.4-1.5-2.7c0.2-1,1.6-1.2,3.4-0.3c4.3,2.2,8.9,3.4,13.8,3.5
		c0.9,0,1.9,0.4,2.8,0.6c4.3,0.6,8.5,1.2,12.9,1.1c6.6-0.1,13.1-0.2,19.7,0c8.2,0.3,16.3-0.6,24.4-1.1c4.6-0.3,9.3-0.4,13.8-0.9
		c8.9-1,17.7-1.8,26.6-3.3c7.7-1.4,15.4-2.7,23.1-4.1c10.8-2.1,21.6-4.3,32.3-6.9c9.9-2.4,19.9-4.7,29.8-7.3
		c12.7-3.3,25.3-6.8,37.9-10.4c13.5-3.9,26.9-8.1,40.2-12.8c12.9-4.6,25.8-9.4,38.5-14.8c7.2-3,14.4-6.1,21.4-9.7s14-7,20.8-10.9
		c7.2-4.1,14.4-8.3,21.3-12.8c7.8-5,15.3-10.3,22.7-16c5-3.9,10.2-7.6,15.4-11.4c9.5-7,19-14,28.4-21.2c9.5-7.3,18.7-14.9,28.2-22.1
		c4.2-3.2,7.8-7.1,11.6-10.7c1-1,2-2,3.1-3c0.9-0.8,1.9-1.2,3.1-0.7c0.8,0.4,1,1.7,0.3,3c-1.1,2.2-2.3,4.3-4,6
		c-4.7,4.8-9.1,9.9-14.5,13.9c-1,0.8-1.9,1.7-2.8,2.6c-6.5,6.1-13.5,11.7-20.2,17.6c-5.8,5.1-11.7,9.8-17.8,14.5
		c-12.5,9.7-24.9,19.4-37.6,28.8c-6.5,4.8-13.5,9.2-20.4,13.4c-12.5,7.7-25.5,14.6-38.8,20.9c-9.7,4.6-19.6,8.7-29.5,12.6
		c-17.8,7-36,13.3-54.3,19c-9.4,3-19,5.5-28.5,8.3c-12.7,3.8-25.5,7.1-38.4,10.1c-11.5,2.7-23,5.2-34.7,7.1
		c-8.2,1.3-16.3,3.2-24.5,4.3c-6.5,0.8-12.9,1.9-19.5,2.4c-5.6,0.3-11.1,0.8-16.7,1.6c-3.3,0.5-6.7,0.2-10.1,0.3
		C158.7,1124.9,150.8,1125.3,143.5,1125.6z"/>
	<path class="st0" d="M452.2,877.1c-0.1,0.3-0.3,0.8-0.5,1.2c-0.7,1-1.8,1.3-3,1.3c-10.2,0-19.8,3.1-29.5,5.8
		c-11.2,3.1-22.4,6.5-33.5,9.9c-10.1,3.1-20,6.5-30,9.9c-8.8,3-17.5,6.2-26.3,9c-14.5,4.6-28.6,10.2-42.6,16
		c-7.2,3-14.3,6.3-21.4,9.6c-8.5,4-17,8-25.4,12.3c-10.1,5.1-20.1,10.5-30.1,15.8c-4.9,2.6-9.9,5.2-14.8,7.9
		c-9.2,5.1-18.4,10.3-27.5,15.5c-7.2,4.1-14.5,8.2-21.6,12.4c-5.4,3.2-10.6,6.5-15.8,9.9c-2.3,1.5-4.8,2.6-6.7,4.6
		c-0.8,0.8-2,0.5-2.6-0.2c-0.7-0.9-0.6-1.8,0.1-2.6c2-2.5,4.8-4.3,7.4-6.1c8.6-6.1,17.5-11.7,26.5-17.2c4.9-3,9.8-6,14.7-9
		c7.3-4.3,14.6-8.5,22-12.7c6.9-4,13.9-7.9,20.9-11.8c3.6-2,7.2-4.1,10.9-6c9.9-5.2,19.9-10.3,29.8-15.5
		c16.3-8.5,33.1-15.9,50.2-22.6c7.9-3,15.9-5.8,23.9-8.7c8.3-2.9,16.6-5.8,24.9-8.5c9.7-3.2,19.5-6.2,29.2-9.2
		c9.3-2.9,18.7-5.6,28.1-8c7.9-2,15.8-4,23.8-5.1c3-0.4,6-0.5,9-1.1c2.8-0.6,5.7,0.6,8.4,1.3C451.4,875.5,451.9,876.2,452.2,877.1z"
		/>
	<path class="st0" d="M738.6,1168.9c0,1.5-0.7,2.8-0.8,4.3c-0.5,4.9-1.2,9.8-2,14.7c-0.3,1.6-0.7,3.1-1,4.7
		c-3.3,13.7-7.1,27.2-11.3,40.6c-3,9.6-5.9,19.2-9.1,28.8c-3.5,10.4-7.3,20.8-10.9,31.2c-3.1,8.9-6.5,17.7-10,26.4
		c-5.6,13.8-11.9,27.2-18.7,40.4c-4.8,9.2-9.4,18.5-14.4,27.6c-5.5,9.9-10.9,19.9-16.5,29.7c-6.2,10.8-12.3,21.6-18.7,32.3
		c-7,11.6-14.3,23.1-22,34.3c-1.7,2.5-3.8,4.7-5.7,7c-0.2,0.2-0.4,0.5-0.7,0.6c-0.7,0.5-1.5,0.6-2.2,0.1c-0.8-0.5-1.1-1.8-0.5-2.5
		c2.2-2.8,3.9-5.8,5.9-8.7c4.7-6.9,8.8-14.1,12.9-21.3c2.4-4.2,4.8-8.3,7.2-12.4c2.3-4,4.6-8,6.9-12.1c4.2-7.4,8.3-14.7,12.4-22.1
		c2.5-4.5,4.9-9,7.3-13.5c5.5-10.6,11.2-21.2,16.5-32c5.5-11.2,10.8-22.4,15.9-33.8c4.6-10.2,8.7-20.6,12.6-31.1
		c8.2-22.2,15.5-44.6,22.9-67.1c5.4-16.4,10.3-32.9,14.8-49.5c1.4-5.3,2.3-10.6,3.4-15.9c0.3-1.5,0.1-3.2,0.2-4.8
		c0.1-1,0-1.9,0.3-2.8s0.9-1.8,2-1.8s1.8,0.8,2.1,1.7C737.8,1164.2,738.1,1166.6,738.6,1168.9z"/>
	<path class="st0" d="M1160.7,746.2c-2.6,0.3-4.9-0.4-7.2-1.2c-0.8-0.3-1.3-1-1.2-1.9c0.1-0.9,0.7-1.4,1.5-1.7
		c0.5-0.1,0.9-0.2,1.4-0.2c5.4,0.4,10.4-1.3,15.6-2.3c9.9-1.9,19.4-5.2,29-8.1c11.9-3.6,23.8-7.2,35.7-11c7.8-2.5,15.4-5.3,23.1-7.9
		c10.7-3.7,21.5-7.2,32.1-11.1c11.2-4.2,22.4-8.5,33.3-13.4c21.1-9.3,41.6-19.7,62-30.3c14.3-7.5,28.5-15.2,42.4-23.3
		c8-4.7,16.2-9,24.2-13.7c9-5.4,18.2-10.6,26.8-16.8c0.9-0.7,1.7-1.4,3-1.3c0.7,0.1,1.2,0.4,1.6,0.9c0.4,0.6,0.2,1.3-0.3,1.7
		c-2.6,2.1-5,4.4-7.8,6.3c-14.8,10.3-30.1,19.8-45.8,28.8c-11.5,6.6-22.9,13.3-34.4,19.9c-3.7,2.1-7.6,4.2-11.4,6.2
		c-6.9,3.7-13.8,7.3-20.8,11c-5.2,2.8-10.4,5.6-15.7,8.2c-14.5,7.1-29.2,13.8-44.2,19.7c-17.3,6.7-34.8,12.7-52.4,18.4
		c-12.6,4.1-25.2,8.1-37.9,11.9c-12.8,3.8-25.8,7.2-38.9,9.8c-0.6,0.1-1.3,0.2-1.9,0.3c-3,0.1-6.1,0-9,0.9
		C1162.5,746.5,1161.5,746.2,1160.7,746.2z"/>
	<path class="st0" d="M738.3,452.2c-0.4,1.9-0.7,4.2-1.3,6.5c-0.2,0.8-0.8,1.4-1.7,1.5c-1.2,0.1-1.8-0.6-2.1-1.6
		c-0.3-1.1-0.4-2.2-0.4-3.3c0.1-6-1.4-11.7-2.8-17.4c-1.9-7.4-4-14.8-6.1-22.1c-2.1-7-4.3-14-6.6-21c-5.4-16.6-10.7-33.1-16.3-49.6
		c-5.1-15.3-10.6-30.5-16.7-45.4c-2.7-6.6-5.7-13.2-8.7-19.7c-4-8.7-7.8-17.5-12.3-26c-5.4-10.2-10.1-20.7-15.9-30.6
		c-3.2-5.5-6-11.3-9.1-16.9c-3.9-7-7.6-14.1-11.7-20.9c-3.5-5.7-6.5-11.7-9.9-17.5c-4.4-7.6-8.9-15.2-13.4-22.7
		c-2.6-4.4-5.2-8.8-8.5-12.7c-0.3-0.4-0.5-0.8-0.7-1.2c-0.4-0.9-0.7-1.8,0.1-2.7c0.6-0.6,1.5-0.6,2.5,0.4c1.3,1.4,2.6,2.8,3.8,4.3
		c8,10.4,14.9,21.5,21.6,32.7c5.8,9.6,11.5,19.2,17.1,28.8c3.4,5.8,6.6,11.7,9.9,17.5c4.9,8.8,9.8,17.6,14.6,26.4
		c5.2,9.7,10.3,19.5,15.2,29.4c8.6,17.3,15.9,35.2,22.8,53.3c2.4,6.4,4.4,13,6.7,19.5c3,8.9,6.2,17.8,9.1,26.7
		c3.2,9.9,6.1,19.8,9.1,29.8c2,6.9,4.1,13.8,5.9,20.7c1.6,6.2,3.1,12.4,4.2,18.6C737.4,441.9,737.7,446.8,738.3,452.2z"/>
	<path class="st0" d="M1160.9,874.5c6.1,0.2,11.3,1,16.5,1.8c10.9,1.8,21.4,4.9,32,8.1c11,3.3,22,6.5,33,9.9c4.6,1.4,9,3.1,13.6,4.7
		c4.8,1.6,9.7,3.3,14.5,4.9c12.4,4.1,24.7,8.6,36.9,13.4c9,3.6,18,7.4,26.8,11.7c7.3,3.6,14.7,7,21.9,10.6
		c6.5,3.3,12.9,6.9,19.4,10.4c4.6,2.5,9.3,5,13.9,7.5c11.6,6.4,23.1,12.9,34.6,19.6c13.1,7.6,26.1,15.4,38.9,23.6
		c5.9,3.8,11.5,8,17.2,12.1c1.3,0.9,2.4,2.2,3.5,3.3c0.6,0.6,0.9,1.4,0.1,2.1c-0.6,0.7-1.4,0.7-2.2,0.3c-0.7-0.4-1.3-0.9-2-1.3
		c-11.6-7.9-23.8-15-36-21.9c-11.4-6.5-22.8-12.9-34.2-19.4c-4.6-2.6-9.3-5.1-13.9-7.5c-12-6.3-24-12.8-36.2-18.8
		c-8.2-4-16.2-8.3-24.6-11.8c-6.8-2.8-13.4-6.1-20.1-8.9c-9.7-4.1-19.6-7.9-29.5-11.4c-20.6-7.3-41.4-14.2-62.2-20.9
		c-10.2-3.3-20.5-6.1-30.7-9.3c-5.2-1.6-10.4-3-15.6-4.4c-6.3-1.7-12.6-3.4-19.3-3.4c-1.5,0-2.9-0.4-4.2-0.9c-1-0.4-1.2-2.2-0.2-2.8
		c0.8-0.5,1.7-0.9,2.6-1C1157.6,874.6,1159.7,874.6,1160.9,874.5z"/>
	<path class="st0" d="M443.8,746.3c-2.3,0-3.9,0-5.4-0.5c-0.4-0.2-0.9-0.3-1.4-0.3c-11.1-0.4-21.7-3.7-32.3-6.5
		c-8.6-2.3-17.2-4.7-25.8-7.3c-8.5-2.6-17-5.5-25.5-8.3c-9.7-3.2-19.4-6.3-29.1-9.8c-14-5-27.9-10.2-41.5-16.1
		c-14.7-6.4-29-13.5-43.2-20.9c-8.9-4.6-17.7-9.6-26.5-14.5c-8.9-4.9-17.9-9.8-26.8-14.9c-10.1-5.8-20.2-11.6-30.1-17.8
		c-8.9-5.6-17.9-11.1-26.5-17.2c-2.7-1.9-5.3-4.1-7.9-6.2c-0.6-0.5-1.1-1.2-1.5-1.9c-0.2-0.3-0.1-1,0.2-1.3c0.2-0.3,0.8-0.4,1.3-0.5
		c0.8-0.1,1.5,0.4,2.2,0.9c7.4,5,15,9.8,22.7,14.3c7.5,4.3,14.9,8.7,22.4,12.9c6.9,4,13.9,7.9,20.9,11.8c3.9,2.2,7.8,4.3,11.8,6.4
		c6.1,3.2,12.2,6.3,18.2,9.7c11.9,6.6,24.1,12.6,36.4,18.5c12.5,6,25.2,11.7,38.1,16.9c24.8,10,50.1,18.3,75.5,26.6
		c11.4,3.8,22.8,7.3,34.3,10.7c7.9,2.4,15.9,4.6,24,6.8c4.9,1.3,9.9,2.3,14.9,3.3c1.5,0.3,3.2,0.2,4.8,0.3c0.8,0,1.6,0,2.4,0.1
		c1,0.1,1.9,0.6,2,1.7c0.1,1.1-0.6,1.9-1.6,2.1C448.2,745.6,445.8,746.9,443.8,746.3z"/>
	<path class="st0" d="M869,1160c0.9,0,1.6,0.5,1.8,1.3s0.3,1.6,0.3,2.4c-0.3,4.2,0.6,8.3,1.6,12.3c1.8,7.4,3.7,14.9,5.8,22.2
		c3.4,11.5,6.8,23,10.5,34.3c5.8,17.9,11.8,35.8,17.9,53.6c3,8.9,6.3,17.8,9.8,26.5c3.1,7.9,6.7,15.6,10,23.3
		c6.8,15.7,14.4,31,22.3,46.2c6.2,11.9,12.3,23.8,19,35.5c5.1,8.9,9.9,17.9,15,26.8c5.9,10.2,11.9,20.4,17.9,30.6
		c2.7,4.5,5.7,8.9,8.6,13.3c0.4,0.7,1,1.3,0.8,2.2c-0.1,0.4-0.4,0.8-0.7,1.2c-0.4,0.4-0.9,0.4-1.3,0.1c-0.8-0.6-1.5-1.2-2.1-1.9
		c-2.5-3.1-5-6.2-7.2-9.5c-8.5-12.4-16.3-25.2-23.9-38.1c-7.3-12.4-14.4-24.8-21.5-37.4c-5-8.9-9.7-18-14.6-27
		c-5.2-9.4-10-18.9-14.7-28.6c-6.9-14.2-13.1-28.7-18.7-43.5c-4.6-12.3-8.9-24.6-13-37.1c-3.5-10.6-7-21.2-10.4-31.9
		c-4.8-14.9-9-29.9-12.6-45.1c-1.2-4.9-2.4-9.9-2.4-15.1c0-2.7-1-5.3-1-8.1c0.1-2.4,0.8-4.7,1.3-7
		C867.5,1160.6,868.2,1160.1,869,1160z"/>
	<path class="st0" d="M866.1,451.9c0-1.8,0-3.3,0.5-4.7c0.2-0.6,0.4-1.3,0.4-1.9c-0.2-6,1.6-11.7,2.9-17.4c1.4-6.2,3-12.4,4.6-18.6
		c1.9-7.1,4-14.1,6.1-21.2c2.6-8.2,5.3-16.4,8-24.6c2.2-6.7,4.2-13.4,6.5-20.1c4.2-11.9,8.4-23.8,12.9-35.6
		c7.9-20.3,17.5-39.8,27.5-59.1c5.4-10.3,11.1-20.5,16.7-30.7c5-9.1,10-18.2,15.2-27.2c3.9-6.8,7.9-13.5,12-20.2
		c5.7-9.4,11.5-18.8,17.7-27.9c2.9-4.4,6-8.6,9.4-12.7c0.3-0.4,0.7-0.7,1.1-1c0.7-0.4,1.6-0.5,2.2,0c0.7,0.6,0.7,1.5,0.3,2.2
		c-0.6,1.1-1.6,2-2.3,3.1c-4.6,7.1-9.2,14.2-13.4,21.6c-3.5,6.2-7.3,12.4-10.9,18.6c-3.6,6.2-7.1,12.5-10.6,18.8
		c-4.7,8.5-9.5,17-14.1,25.6c-1.2,2.1-2.2,4.3-3.3,6.4c-4.7,9.1-9.6,18.1-14,27.3c-7,14.4-13.9,28.7-20.1,43.5
		c-5.6,13.4-10.7,27-15.4,40.8c-3.4,10-6.9,19.9-10.2,30c-3.9,12-7.9,24-11.6,36c-3.4,11-6.6,22-9.6,33.1c-1.3,4.9-2.3,9.9-3.3,14.9
		c-0.3,1.7-0.2,3.5-0.3,5.3c0,0.8,0,1.6-0.2,2.4s-0.8,1.4-1.6,1.5c-0.9,0.1-1.7-0.4-1.9-1.2C866.8,456.5,865.8,454.1,866.1,451.9z"
		/>
	<path class="st0" d="M634.9,1272.3c0.1-0.7,0.2-1.5,0.4-2.3c2.8-10.8,5.4-21.6,8.3-32.4c2.4-8.8,5.1-17.5,7.5-26.2
		c2.4-8.8,4.5-17.7,7.7-26.2c5.3-14.4,10.3-28.9,17.2-42.7c2.1-4.2,5-7.8,8.4-10.9c1.5-1.3,3-2.3,5-2.6c1-0.1,2,0,2.6,0.9
		c0.7,0.9,0.5,1.8-0.1,2.7c-0.5,0.8-1,1.7-1.7,2.3c-4.1,3.8-6.6,8.7-8.7,13.7c-6,14.5-11.7,29-16.6,43.9c-2.7,8-4.8,16.2-7.2,24.3
		c-1.6,5.3-3.7,10.6-5.2,15.9c-2.4,8.5-5.4,16.7-8.1,25.1c-1.5,4.7-3.3,9.4-4.9,14c-0.3,0.9-0.8,1.7-1.3,2.5c-0.4,0.6-1,0.8-1.7,0.6
		c-0.7-0.1-1.1-0.6-1.3-1.2C635,1273.4,635,1272.9,634.9,1272.3z"/>
	<path class="st0" d="M340,977.6c-0.6-0.1-1.2-0.2-1.8-0.4c-1.1-0.4-1.4-2.1-0.4-2.8c0.9-0.6,1.9-1.2,2.9-1.6
		c12.8-4.4,25.5-9.1,38.6-12.9c7.6-2.2,15.2-4.8,22.8-7.2c7.2-2.2,14.4-4.2,21.5-6.6c7.1-2.4,14.1-5.1,21.1-7.7
		c5.8-2.2,11.6-4.5,17.3-6.9c3.4-1.4,6.6-3.1,9.9-4.7c1.9-0.9,3.3-2.5,4.8-4c1.2-1.1,2.4-2.2,3.9-2.7c1.1-0.3,2.3,0.5,2.5,1.6
		c0.4,2.1-0.4,3.8-1.6,5.3c-2,2.5-4.2,4.8-6.9,6.6c-3.6,2.5-7.4,4.4-11.4,6.1c-6.9,2.9-13.9,5.6-20.9,8.3
		c-5.8,2.2-11.6,4.4-17.5,6.5c-9,3.2-18.4,5.2-27.6,7.8c-9.5,2.7-19,5.3-28.5,8c-7.3,2.1-14.7,4.3-22.2,5.6
		c-1.4,0.2-2.7,0.8-4.1,1.2C341.7,977.3,340.9,977.4,340,977.6z"/>
	<path class="st0" d="M969.1,1272.1c-0.2,0.8-0.3,1.4-0.5,2c-0.4,1-2.2,1.2-2.8,0.4c-0.3-0.4-0.5-0.8-0.7-1.2
		c-4.1-12.2-8.4-24.5-12.3-36.8c-3.7-11.5-7.2-23.1-10.7-34.8c-4.5-15.1-10.2-29.9-16-44.5c-1.5-3.9-3-7.7-4.8-11.5
		c-2.1-4.2-4.2-8.2-7.7-11.5c-1-0.9-1.6-2-1.5-3.4c0-1.1,0.7-1.8,1.8-1.8c1,0,1.9,0.1,2.8,0.6c2.8,1.5,5.4,3.3,7.4,6
		c3.3,4.6,6,9.5,8.1,14.6c5.4,13.5,11,26.9,15.3,40.8c1.7,5.6,3.4,11.3,4.8,17c2.3,9,4.9,17.8,7.5,26.7c2.4,8.4,4.9,16.8,6.7,25.4
		c0.6,3,1.5,5.9,2.2,8.8C968.8,1270,969,1271.1,969.1,1272.1z"/>
	<path class="st0" d="M1264,643.4c0.6,0.1,1.3,0.1,1.9,0.2c0.6,0.1,1.2,0.5,1.3,1.2c0.2,0.7-0.4,1.2-0.8,1.6
		c-1.1,1.1-2.6,1.3-3.9,1.7c-9.5,3.2-19,6.5-28.6,9.6c-10.6,3.5-21.3,6.8-32,10.2c-7.9,2.5-15.9,4.7-23.8,7.4
		c-13.2,4.7-26.4,9.6-39.4,15.1c-4.8,2-8.9,4.9-12.8,8.3c-0.7,0.6-1.4,1.3-2.4,1.5c-0.8,0.2-1.6,0.1-2.2-0.5
		c-0.7-0.6-0.9-1.4-0.6-2.2c0.8-2.1,1.8-4.1,3.4-5.7c2.8-2.9,5.9-5.3,9.5-7.2c6.9-3.7,14.2-6.5,21.5-9.4c6.4-2.6,12.8-5,19.2-7.4
		c4-1.5,8.2-2.7,12.3-3.9c8.3-2.4,16.6-4.6,24.9-7c8.3-2.3,16.6-4.7,24.9-7c8.3-2.2,16.7-4.3,25-6.4
		C1262.3,643.4,1263.1,643.4,1264,643.4z"/>
	<path class="st0" d="M1263.3,976.9c-1.8,0.1-3.4-0.7-5.2-1c-7-1.1-13.7-3.1-20.4-5c-9.7-2.7-19.3-5.7-29-8.3
		c-11.6-3.1-23.2-5.9-34.5-10c-13.5-5-27-9.8-39.9-16.2c-4.3-2.1-7.6-5.2-10.8-8.6c-1.4-1.5-2.3-3.5-2.8-5.5
		c-0.3-1.3,1.1-2.6,2.4-2.2c1.2,0.4,2.4,1,3.3,1.9c3.9,4.2,8.9,6.8,14.1,8.9c10.2,4.1,20.6,7.9,30.8,12c12.2,4.8,24.9,7.9,37.4,11.9
		c18.1,5.7,36.3,11.3,54.1,17.9c1.2,0.4,2.5,0.8,3.3,1.8c0.3,0.3,0.5,0.9,0.4,1.3c-0.1,0.4-0.5,0.9-0.9,1
		C1264.9,976.9,1264.1,976.8,1263.3,976.9z"/>
	<path class="st0" d="M340.5,643.4c0.7,0.1,1.3,0,1.9,0.2c6.5,2.2,13.3,3,19.9,5.1c6.4,2,12.9,3.5,19.4,5.3
		c10.2,2.8,20.3,5.6,30.4,8.5c8.9,2.5,17.7,5.3,26.4,8.7c6.5,2.6,13.1,5.1,19.6,7.7c5.4,2.1,10.5,4.6,15.5,7.6
		c3.9,2.3,6.9,5.6,9.2,9.6c0.2,0.4,0.4,0.9,0.5,1.3c0.1,0.8,0.1,1.6-0.6,2.2c-0.8,0.8-1.7,0.8-2.7,0.5c-0.6-0.2-1.2-0.6-1.6-1
		c-4.9-5.1-11-8.2-17.4-10.7c-13.8-5.4-27.6-11-41.7-15.5c-11.1-3.6-22.3-6.8-33.4-10.2c-7-2.2-14-4.5-20.9-6.9
		c-7.9-2.6-15.7-5.3-23.6-8c-1.2-0.4-2.5-0.6-3.4-1.7c-0.4-0.5-0.7-1.1-0.4-1.7c0.2-0.4,0.7-0.7,1.1-0.8
		C339.2,643.4,339.9,643.4,340.5,643.4z"/>
	<path class="st0" d="M969.1,348.4c-0.1,0.7-0.1,1.5-0.3,2.3c-3.8,15.6-7.8,31.2-12.5,46.6c-2.3,7.3-4.3,14.7-6.1,22.1
		c-2.4,9.9-6,19.5-9.6,29.1c-2.9,7.6-6,15.1-9,22.7c-2,4.9-4.6,9.5-7.7,13.7c-1.6,2.2-3.7,3.9-6.1,5.3c-0.8,0.5-1.7,0.9-2.7,0.9
		c-0.9,0-2,0.2-2.6-0.8c-0.7-1.1-0.3-2.2,0.6-3.1c7.1-7.1,10.3-16.4,13.9-25.4c3.3-8.3,6.6-16.6,9.5-25c2.6-7.5,4.9-15.2,7.3-22.8
		c1.2-4,2.2-8,3.5-11.9c4.9-15,9.8-30,14.7-45c1-3,2.1-6,3.2-9c0.2-0.6,0.5-1.2,0.9-1.7c0.3-0.3,0.8-0.5,1.2-0.6
		c0.7-0.1,1.2,0.5,1.4,1.1C968.9,347.4,968.9,347.9,969.1,348.4z"/>
	<path class="st0" d="M637,350.8c0.2-0.3,0.2-0.8,0.4-0.9c0.5-0.2,0.9,0,1.1,0.5c1.3,3.3,2.6,6.5,3.8,9.8
		c5.2,15.1,10.1,30.3,14.7,45.6c2.3,7.8,4.6,15.6,7.1,23.3c2.3,7,4.9,13.8,7.5,20.7c2.6,6.9,5.4,13.7,8,20.5
		c2.5,6.3,5.6,12.1,10.3,17.1c0.3,0.3,0.7,0.7,0.8,1.2c0.1,0.4,0.2,1,0,1.3s-0.9,0.5-1.2,0.4c-2-0.6-3.8-1.6-5.4-3
		c-2.8-2.5-4.8-5.5-6.6-8.7c-3.3-6-5.9-12.4-8.3-18.8c-4.1-10.6-8.4-21-11.6-31.9c-2.2-7.3-4.1-14.8-6.1-22.1
		c-2.3-8.3-4.6-16.6-7.1-24.8c-2.8-9.5-5.4-19-7.2-28.7C637,351.7,637,351.2,637,350.8z"/>
	<path class="st1" d="M819.2,929.7c4.6,0,9.3,0.1,13.9,0c14.5-0.3,28.5-3.3,42-8.6c4.5-1.7,9-3.3,13.2-5.7
		c6.6-3.6,12.9-7.5,18.8-12.2c6.8-5.4,13.1-11.2,19.1-17.4c4.4-4.5,8.1-9.4,11.9-14.3c4.9-6.3,9.2-13.1,12.8-20.2
		c2.3-4.5,4.2-9.3,6.2-14c2.9-6.6,5.4-13.3,7.1-20.3c1.4-5.7,2.9-11.4,2.8-17.4c0-1.8,0-3.5,0.6-5.2c0.6-1.5,0.4-3.2,0.4-4.8
		c0-4.8-0.1-9.6,0.1-14.4c0.4-9.3-2.1-18-5.5-26.5c-2.3-5.8-5.1-11.4-7.9-17c-5.3-10.6-11.4-20.6-19.2-29.7c-4.3-5-8.3-10.1-13-14.7
		c-3.7-3.6-7.6-6.8-11.6-10c-2.3-1.8-4.3-3.8-6.7-5.5c-4.5-3.1-8.9-6.1-13.6-8.8c-3.3-1.9-6.7-3.7-10.1-5.5
		c-12-6.2-24.7-10.5-37.7-13.8c-6.3-1.6-12.7-2.8-19.3-3.5c-4.3-0.4-8.6-0.4-12.9-0.9c-4.9-0.5-9.8-0.3-14.7-0.1
		c-8.2,0.3-16.2,1.4-24.2,2.7c-12.2,2.1-23.9,5.8-35.3,10.5c-7.8,3.2-15.4,7.2-22.5,11.7c-4.4,2.8-8.8,5.8-13.1,8.8
		c-2.5,1.7-4.8,3.7-7.1,5.7c-5.1,4.6-10.5,8.9-15.1,14.1c-8.8,9.9-16.8,20.4-23.5,31.9c-5.9,10.1-10.4,20.9-14.2,31.9
		c-3,8.6-4.8,17.5-6.4,26.5c-2.3,13-1.7,26.1-1.7,39.2c0,2.9,0.7,5.7,1,8.5c1.1,8.7,2.9,17.3,5.3,25.7c3.4,11.5,7.6,22.7,13.3,33.3
		c5.5,10.1,11.7,19.7,19.1,28.6c5.8,7,12.5,13.2,18.9,19.7c0.2,0.2,0.4,0.5,0.7,0.7c6.1,3.9,11,9.2,17.2,12.9
		c5.5,3.3,10.9,6.7,16.5,9.7c5.7,3,11.1,6.3,17,8.9c4.7,2.1,9.4,3.9,14.3,5.4c3.2,0.9,6.4,1.9,9.6,3c5.1,1.8,10.4,3,15.7,4.2
		c2.9,0.7,6,0.9,9,1.4c1.3,0.2,2.5,0.5,3.8,0.7c6.8,1.2,13.5,2.1,20.4,2.4c7,0.3,14,0.6,21,1.1c3.8,0.2,7.7,1,11.4,0.5
		c6.2-0.8,12.4-0.4,18.6-1.4c3.3-0.5,6.7-0.5,10-1.1c1.1-0.2,2.2,0,3.3,0.1c0.6,0,0.8,1,0.5,1.5c-0.6,0.8-1.3,1.3-2.2,1.7
		c-11.8,5-23.7,9.5-36.2,12.3c-6.2,1.4-12.5,2.6-18.8,3.4c-13,1.8-26.1,2.2-39.2,1.5c-10-0.5-20-1.9-29.8-4.1
		c-11.4-2.6-22.5-6-33.2-10.6c-7.9-3.4-15.6-7.3-23-11.9c-6.8-4.2-13.4-8.6-19.7-13.6c-0.5-0.4-1.1-0.7-1.6-1.1
		c-6.4-5.8-13.1-11.3-18.7-17.8c-3.7-4.4-7.6-8.6-11-13.2c-4.9-6.4-9.2-13.1-13.3-19.9c-3.1-5.2-5.8-10.7-8.3-16.2
		c-2.8-6.3-5.4-12.7-7.5-19.2c-2.1-6.3-3.9-12.8-5.2-19.4c-1.3-6.4-2.1-12.9-3-19.3c-0.9-6-0.3-12.1-1.4-18.1
		c-0.5-2.6-0.3-5.4,0.3-8.1c0.4-1.7,0.4-3.5,0.4-5.2c-0.2-5.3,0.7-10.5,1.3-15.7c0.9-8.7,2.7-17.3,5-25.8c2.7-10,6.1-19.8,10.2-29.4
		c5.8-13.2,12.6-25.8,21-37.6c4.5-6.4,9.4-12.5,14.6-18.4c3.9-4.4,7.9-8.8,12.2-12.9c7-6.8,14.5-13,22.5-18.6
		c5.1-3.6,10.2-7.2,15.6-10.3c6.4-3.7,12.7-7.3,19.5-10.3c8.3-3.7,16.8-7.1,25.5-9.8c9.8-3,19.7-5,29.8-6.8
		c15.4-2.6,30.9-1.8,46.4-1.6c5.2,0.1,10.4,1.3,15.6,2c9.3,1.3,18.4,4,27.4,6.6c3.8,1.1,7.6,2.5,11.3,4.1c10.8,4.5,21.1,9.8,31,16.1
		c6.7,4.3,13.2,9,19.3,14c5.9,4.9,11.7,10,16.8,15.7c7.7,8.8,15.1,17.7,21.2,27.7c2.1,3.4,4.2,6.8,6,10.3c3.5,6.6,6.9,13.3,9.7,20.3
		c4.5,11,8.1,22.2,10.3,33.9c1.7,8.7,3.1,17.6,3.4,26.5c0.2,5.7,0.7,11.5,0.7,17.2c0,1.4-0.2,2.9-0.4,4.3c-1.5,8-3.3,15.9-4.6,23.9
		c-0.8,5.2-2.6,10.2-3.9,15.3c-4.2,16.3-10.3,31.9-18.1,46.8c-3.7,7.1-7.9,13.9-12.7,20.3c-3.2,4.2-7,7.9-11.4,10.9
		c-7.2,5-14.2,10.3-21.3,15.4c-5.8,4.3-12.1,7.8-18.8,10.5c-12.6,5.1-25.7,8.8-39,11.3c-4,0.8-8.2,1.4-12.3,1.5
		c-7.7,0.2-15.3,1.3-23,0.9c-2.4-0.1-4.8,0.1-7.2-0.1c-6.7-0.6-13.3-0.8-20-1.7c-10-1.2-19.8-3.3-29.5-5.8c-5.6-1.4-11-3.5-16.3-5.6
		c-7-2.8-14-5.5-20.8-8.5c-8.2-3.6-16-7.9-23.6-12.8c-7.2-4.7-14.3-9.6-20.8-15.3c-2.9-2.5-5.6-5.2-8-8.3c-3.1-4-6.5-7.9-9.6-11.9
		c-5.2-6.7-9.3-14.1-13.1-21.7c-3.4-6.9-6.3-14-8.6-21.3c-2.5-8.3-4.2-16.6-5.4-25.2c-1.3-9.9-1-19.8-0.6-29.7
		c0.3-7.3,1.7-14.5,3.2-21.7c2.9-13.7,8.1-26.5,14.7-38.8c4.1-7.8,9.1-15,14.6-21.8c4.1-5.1,8.4-10.1,13.3-14.5
		c8.8-7.9,18.3-14.9,28.6-20.8c11.8-6.9,24.4-11.9,37.7-15.2c6.6-1.7,13.4-2.8,20.2-3.6c6.9-0.7,13.7-0.8,20.6-0.8
		c7.7,0,15.2,1,22.8,2.5c6.4,1.3,12.8,2.8,19,4.8c13.3,4.3,25.8,10.4,37.2,18.4c6.1,4.3,12.2,8.8,17.4,14.2c2.3,2.4,4.7,4.8,7.1,7.1
		c7.7,7.7,14,16.5,19.7,25.8c4.7,7.8,8.6,16.1,11.7,24.6c1.7,4.8,2.6,9.8,3,14.9c0.4,6.4,1,12.8,0.6,19.1
		c-0.4,7.9-0.8,15.9-2.8,23.7c-1.9,7.5-4.3,14.8-7.7,21.6c-4.2,8.6-9.5,16.6-15.6,24.1c-4.4,5.5-9.5,10.3-14.4,15.4
		c-7,7.2-15.1,12.8-23.9,17.4c-6.2,3.2-12.8,5.9-19.6,7.8c-2.9,0.8-5.9,1.5-8.8,2.4c-6.2,1.7-12.5,2.5-18.9,2.6
		c-2.6,0-5.1,0.3-7.6,0.6c-5.1,0.7-10.3,0.7-15.3,0c-3-0.4-6-0.6-9.1-0.6c-2.9,0-5.7-0.3-8.5-1c-7.5-1.8-14.8-3.9-21.6-7.6
		c-5.8-3.1-11.2-6.8-16.2-11c-3.8-3.1-7.8-6.1-11.1-9.9c-6.3-7-12.4-14.2-16.8-22.6c-1-1.8-2.1-3.6-3.1-5.4
		c-4.4-7.5-6.9-15.8-8.9-24.2c-2.1-9-2.5-18.1-1.7-27.1c0.9-10.6,3.9-20.6,8.5-30.2c4.3-9,10-17.1,17.1-24.1
		c4.7-4.6,9.9-8.4,15.8-11.5c7.9-4.2,16.3-7.4,24.6-10.8c0.6-0.2,1.2-0.5,1.8-0.5c8.9-1,17.7-2.4,26.7-1.9c3.7,0.2,7.3,0.6,10.8,1.8
		c4.1,1.4,8.1,2.9,12.2,4.4c7.6,2.9,12.9,8.7,18,14.6c3.3,3.9,6.4,7.9,9.5,12c1.3,1.8,2.6,3.7,3.6,5.7c3.1,6.8,6,13.8,7.1,21.3
		c0.5,3.6,0.4,7.4,0.1,11c-0.8,8-2.9,15.7-5.6,23.2c-2.4,6.8-6.1,13.1-10.9,18.5c-4.4,5-9.7,8.7-16.5,10.1c-3.1,0.6-6.2,1.5-9.3,2.1
		c-3,0.6-6,0.9-9,0.6c-6.5-0.7-13-1.3-19.3-3.1c-7-2-12.4-6.4-16.9-11.9c-4.1-4.9-6.6-10.6-8.2-16.6c-1.6-5.6-0.8-11.1,2.2-16.2
		c1.4-2.3,2.9-4.6,4.5-6.8c3.1-4.3,7.1-7.2,11.7-9.7c9.3-5.1,21.6-2.2,28.4,4.4c2.3,2.2,4.2,4.7,5.8,7.6c1.2,2.2,1.5,4.1,0.7,6.4
		c-0.8,2.3-1.3,4.6-1.4,7c-0.2,4.1,4.3,8.6,8.6,8.6c5.4,0,9.2-2.4,11.9-6.7c1.9-3,2.7-6.4,3-10c0.5-6.9-1.1-13.3-3.3-19.7
		c-1.1-3-2.8-5.8-4.9-8.2c-1.9-2.1-3.9-4.2-6.1-6.1c-3.2-2.8-6.8-4.8-10.9-5.9c-4.8-1.2-9.5-2.8-14.4-3.6
		c-5.1-0.8-10.1-0.8-15.2-0.1c-5,0.7-9.6,2.3-14.3,3.9c-4.6,1.5-8.6,4.1-12.1,7.5c-3.2,3.2-6.1,6.6-8.9,10c-4.2,5.2-6.1,11.5-7.3,18
		c-0.6,3.5-1,6.9-1,10.5c0,2.1,0.2,4.2-0.5,6.2c-0.3,1.1-0.3,2.2,0,3.3c0.5,1.7,0.5,3.5,0.4,5.2c-0.1,2.6,0.6,5.1,1.6,7.4
		c2.1,4.9,4.8,9.4,7.5,13.9c0.7,1.1,1.6,2,2.5,2.9c5.4,5.7,11.2,10.9,17.6,15.4c3,2.1,6.2,3.9,9.6,5.4c4.9,2.2,9.9,4.6,15.3,5.5
		c5.6,0.9,11.2,1.8,17.1,0.9c7.4-1.1,14.3-3.1,21.1-5.9c2.5-1,5-2,7.6-3c6.7-2.7,12.8-6.5,18.1-11.4c2.3-2.1,4.7-4.3,6.9-6.6
		c6.4-6.9,11.2-14.7,14.3-23.6c1.9-5.4,3.7-10.9,4.3-16.6c0.1-0.6,0.2-1.3,0.4-1.9c1.5-4.6,1.6-9.4,1.5-14.2
		c-0.1-1.9-0.3-3.8-0.7-5.7c-0.7-3.3-1.1-6.6-1.4-9.9c-0.5-5.9-2.1-11.6-4.2-17.1c-1.6-4-3.3-8-5-11.9c-2.3-5.3-5.7-10-9.1-14.6
		c-4.7-6.6-10.7-11.8-17.3-16.3c-3.8-2.6-7.6-5.3-11.7-7.4c-6.3-3.2-12.8-5.8-19.8-7c-5-0.9-10-2-15.1-2.6
		c-4.9-0.6-9.9-0.4-14.8,0.2c-1.1,0.1-2.2,0.4-3.3,0.5c-7.4,0.2-14.5,2.1-21.4,4.5c-4.4,1.5-8.7,3.2-13,5c-7.2,3.1-14,7-20.3,11.6
		c-4.4,3.2-8.8,6.4-12.8,10c-6.2,5.5-12.3,11.3-16,18.9c-4.4,9.4-10,18.2-12.8,28.3c-1.8,6.3-3.3,12.6-4.2,19.1
		c-1.2,8.3-0.9,16.6-0.6,24.9c0.2,5.2,1.4,10.4,2.7,15.5c2.4,9.6,5.6,18.9,9.5,28c4.8,11.2,11.8,20.8,19,30.4
		c1.8,2.4,4.3,4.3,6.5,6.4c1.3,1.2,2.8,2.1,4,3.4c3.8,4.2,8.5,7.3,13.3,10.1c5.3,3.2,11,5.8,16.8,8c8.7,3.4,17.7,5.4,26.8,7.2
		c3.9,0.8,7.8,1.4,11.9,1.3c5.1-0.1,10.2,0,15.4,0C819.2,929.6,819.2,929.7,819.2,929.7z"/>
</g>
</svg>
