<?xml version="1.0" encoding="utf-8"?>
<!-- Generator: Adobe Illustrator 25.0.1, SVG Export Plug-In . SVG Version: 6.00 Build 0)  -->
<svg version="1.1" id="Capa_1" xmlns="http://www.w3.org/2000/svg" xmlns:xlink="http://www.w3.org/1999/xlink" x="0px" y="0px"
	 width="1974.9px" height="1272.3px" viewBox="0 0 1974.9 1272.3" style="enable-background:new 0 0 1974.9 1272.3;"
	 xml:space="preserve">
<style type="text/css">
	.st0{fill:#14131C;}
	.st1{fill:#E67870;}
	.st2{fill:#2D6196;}
	.st3{fill:#904D4C;}
	.st4{fill:#C66863;}
</style>
<g>
	<path class="st0" d="M982.4,1264.6c-118.7-0.2-237.3-0.3-356-0.6c-88.6-0.2-177.2-0.6-265.8-0.9c-75.5-0.2-151-0.5-226.5-0.7
		c-3.7,0-7.4,0.1-10.9-1.1c-2.4-0.8-4.3-2.2-5.7-4.2c-1.1-1.4-1.7-3.1-1.7-4.9c0.2-7.6-1.4-15-2.3-22.4c-2-17.6-4.3-35.2-6.3-52.9
		c-2.9-25.4-5.6-50.9-8.3-76.3c-2.1-20-4.2-40.1-6.2-60.1c-2.4-23.7-4.9-47.4-7.3-71.1c-1.8-17.3-3.4-34.7-5.2-52
		c-2.4-24-4.8-48.1-7.2-72.1c-1.4-14.2-2.8-28.3-4.2-42.5c-1.8-17.7-3.6-35.3-5.3-53c-2.1-21.3-4.3-42.6-6.4-64
		c-2-20.2-4.1-40.4-6.1-60.6c-2-20.4-4-40.7-6.1-61.1c-2.5-25.3-5.1-50.6-7.6-75.9c-1.7-16.6-3.3-33.1-4.9-49.7
		c-2-20.2-4-40.4-6-60.6c-1.9-19.7-3.8-39.5-5.8-59.2c-3.2-32.5-6.5-64.9-9.7-97.4C9,201.9,7.1,182.5,5.2,163
		c-1.2-11.8-2.3-23.6-3.4-35.3c-0.2-2.1-0.7-4.1-1-6.1c-0.5-3.8,0.9-6.2,4.5-7.4c2-0.6,4-1,6.1-1.2c5.1-0.4,10.2-0.7,15.3-0.8
		c25.4-0.5,50.8-0.9,76.3-1.2c4.9-0.1,6.3-0.6,5.5-6.5c-1.4-9.3-2.1-18.7-3.1-28.1c-1.8-16.4-2.9-32.8-4.1-49.2
		c-0.2-3.2-0.5-6.4-0.6-9.6c0-1.6,0.2-3.2,0.4-4.8c0.5-4.4,3.3-6.8,7.3-8c1.4-0.4,2.8-0.5,4.2-0.7c8.9-1,17.9-1.4,26.8-1.5
		c20.5-0.2,40.9,0,61.4,0.3c21.7,0.3,43.5,0.2,65.3,0.3c18.4,0.1,36.8,0.3,55.2,0.4c5.1,0,10.2-0.1,15.3-0.2c3.1-0.1,6,0.4,8.7,2.2
		c3.6,2.3,5.6,5.7,6.3,9.8c0.8,4.7,1.4,9.5,1.9,14.3c0.6,5.9,1,11.8,1.5,17.7c0.1,1.4,0.3,2.9,0.6,4.3c0.4,1.9,1.4,2.7,3.3,2.9
		c1.3,0.1,2.6,0.1,3.8,0.1c56.8-0.2,113.6-0.3,170.3-0.5c37.3-0.1,74.5-0.2,111.8-0.2c98-0.2,196.1-0.4,294.1-0.4
		c90.5-0.1,181,0.1,271.6,0c87.2,0,174.3-0.2,261.5-0.3c140.3,0,280.5,0.1,420.8,0.1c20.8,0,41.6-0.1,62.4-0.1c2.9,0,5.8,0,8.6,0.4
		c5.2,0.6,7.2,2.7,8,7.9c0.2,1.6,0.3,3.2,0.1,4.8c-0.9,13.2-1.6,26.5-2.7,39.7c-1,12.9-2.3,25.8-3.5,38.7
		c-2.1,21.7-4.2,43.3-6.4,64.9c-1.6,16.4-3.2,32.8-4.9,49.2c-2.2,20.8-4.4,41.7-6.6,62.5c-1.7,16.7-3.4,33.4-5.1,50.1
		c-2.4,23.7-4.9,47.4-7.3,71.1c-1.7,16.2-3.3,32.5-5,48.7c-2.4,22.4-4.9,44.8-7.3,67.3c-1.5,13.7-2.9,27.4-4.4,41
		c-1.4,13-2.8,26.1-4.2,39.1c-1.4,13-2.8,26.1-4.2,39.1c-1.8,17.2-3.6,34.4-5.4,51.5c-1.4,13.8-2.9,27.7-4.3,41.5
		c-2.4,22.6-4.8,45.2-7.2,67.7c-2.5,23.4-4.9,46.8-7.4,70.1c-1.7,16.2-3.5,32.4-5.2,48.7c-1.4,13.5-2.8,27-4.2,40.6
		c-2.1,20-4.3,40.1-6.5,60.1c-1.7,15.7-3.3,31.5-5,47.2c-1.8,16.7-3.5,33.4-5.3,50.1c-1.4,13.5-2.8,27-4.3,40.6
		c-1.7,15.9-3.3,31.8-5.1,47.7c-0.4,3.3-1.1,6.6-1.8,9.9c-1.3,5.7-5,8.8-10.8,9.3c-5.4,0.5-10.8,0.8-16.3,0.6
		c-1.6-0.1-3.2-0.1-4.8-0.1c-37.9,1.2-75.8,1.3-113.7,1.3c-236.4,0-472.8,0-709.1,0C990.1,1264.6,986.3,1264.6,982.4,1264.6
		L982.4,1264.6z M120.3,1098.9c0,0.6,0.1,1.3,0.1,1.9c-0.7,4.3-0.3,8.6,0,12.9c0.4,4.3,1.3,8.5,1.4,12.8c0.1,5.9,1.6,11.7,1.3,17.7
		c0,0.3,0.1,0.6,0.1,1c0.9,6,1.8,12,1.7,18.1c0,1.4,0.3,2.8,0.5,4.3c0.4,3.6,1,7.3,1.2,10.9c0.3,4.3,0.4,8.6,0.9,12.9
		c0.6,5.2,1.4,10.5,1.1,15.7c-0.1,1.6-0.2,3.3,0.2,4.8c0.9,3.3,0.7,6.7,0.8,10c0.1,2.2,0.3,4.4,0.5,6.7c0.3,4,1.6,7.9,1.3,11.9
		c0,0.5,0,1,0.1,1.4c0.3,2.1,1,2.9,3,3.1c1.8,0.1,3.5,0.1,5.3,0.1c119.2-0.1,238.3-0.1,357.5-0.2c31,0,62.1,0.1,93.1-0.1
		c31.2-0.2,62.3,0.8,93.5-0.7c62.7,0,125.4,0,188.1,0c31.7,0,63.3,0,95,0c31.8,0,63.7-0.1,95.5,0c31.6,0.2,63.3-0.8,94.9,0.6
		c99.6,0,199.3,0,298.9,0.1c100,0,199.9,0.1,299.9,0.2c2.4,0,4.9-0.3,7.2,0.2c4,0.8,8,0.6,11.9,0.7c7.7,0.1,15.4,0.1,23,0.1
		c3,0,6,0.1,9.1,0.5c3,0.4,6.1,0.3,9.1,0.1c1.4-0.1,2.8-0.6,4.1-1.1c1.6-0.6,2.6-1.9,2.5-3.7c-0.1-1.4-0.2-2.9-0.3-4.3
		c-0.5-4.3-1.1-8.5-1.4-12.8c-0.2-2.7-0.3-5.4-0.8-8.1c-0.8-4.2-1.3-8.5-1.2-12.9c0-1.4-0.4-2.8-0.5-4.3c-0.4-3.6-1-7.3-1.2-10.9
		c-0.3-5.4-1.3-10.8-1.7-16.2c-0.4-4.9-1.6-9.8-1.4-14.8c0.1-1.7-0.2-3.5-0.5-5.2c-0.7-4.2-1.5-8.5-1.4-12.8c0-1.9-0.3-3.8-0.6-5.7
		c-0.6-3.6-0.9-7.3-1.2-10.9c-0.5-4.8-0.8-9.5-1.3-14.3c-0.7-5.9-1.3-11.7-1.8-17.6c-0.6-7-2-13.9-2-20.9c0-0.5-0.3-0.9-0.4-1.4
		c-0.4-3.5-1.1-7-1.2-10.5c-0.2-5.1-1.2-10.1-1.6-15.2c-0.4-4.3-1-8.5-1.3-12.8c-0.2-2.4-0.2-4.8-0.7-7.1c-0.6-3.1-1.1-6.3-1.1-9.5
		c-0.1-5.8-1.1-11.4-1.8-17.1c-0.6-4.9-0.9-9.8-1.3-14.8c-0.1-1.6-0.4-3.2-0.5-4.8c-0.3-4.8-1.6-9.4-1.5-14.3c0-1.8-0.3-3.5-0.5-5.2
		c-0.6-4.6-1.6-9.1-1.4-13.8c0-1.4-0.3-2.8-0.5-4.3c-0.4-3.3-1.2-6.6-1.2-10c0-5.1-1.1-10.1-1.4-15.2c-0.5-6.5-1.8-12.9-1.8-19.5
		c0-0.5,0-1-0.1-1.4c-1.9-7-1.8-14.2-2.5-21.4c-0.8-7.6-2.3-15.1-2.2-22.8c0-0.8-0.3-1.6-0.3-2.4c-0.4-4.1-1.5-8.2-1.4-12.3
		c0-3-0.2-6-0.9-9c-0.5-1.9-0.7-3.8-0.8-5.7c-0.2-4-0.6-7.9-1-11.9c-0.6-7.6-2.1-15.2-2.2-22.8c0-0.6-0.1-1.3-0.2-1.9
		c-0.9-5.4-1.8-10.7-1.7-16.2c0-1.3-0.2-2.5-0.4-3.8c-0.5-3.5-1.4-6.9-1.3-10.4c0.1-5.3-1.1-10.5-1.6-15.7c-0.5-4.9-1-9.8-1.4-14.8
		c-0.2-1.9-0.3-3.8-0.5-5.7c-0.6-4.7-1.7-9.4-1.4-14.3c0-1,0.1-2-0.1-2.9c-1.8-7.3-1.6-14.9-2.6-22.3c-1-7.6-2.1-15.2-2.2-22.8
		c0-0.8-0.2-1.6-0.4-2.4c-0.7-4.7-1.6-9.4-1.5-14.3c0-1.4-0.3-2.8-0.5-4.3c-0.4-3.5-1.1-7-1.2-10.4c-0.2-5.3-1.1-10.5-1.7-15.7
		c-0.4-4.4-0.9-8.9-1.3-13.3c-0.2-2.1-0.4-4.1-0.6-6.2c-0.5-4.6-1.6-9.1-1.4-13.8c0.1-2.4-0.2-4.8-0.8-7.1c-0.5-2.2-1-4.4-0.9-6.6
		c0.1-5.1-1-10.2-1.4-15.3c-0.4-6.2-1.7-12.3-1.8-18.5c0-0.3,0-0.6-0.1-1c-0.8-5.8-1.9-11.7-1.8-17.6c0-0.6,0-1.3-0.2-1.9
		c-1.1-5.8-1.8-11.7-1.7-17.6c0-1-0.1-1.9-0.3-2.9c-0.9-4.5-1.5-9.1-1.6-13.8c0-1.1,0.1-2.3-0.3-3.3c-0.8-2.3-0.7-4.7-0.8-7.1
		c0-1.1,0-2.2-0.2-3.3c-0.8-5.8-1.8-11.7-1.7-17.6c0-0.8,0-1.6-0.2-2.4c-1.1-5.7-1.8-11.4-1.7-17.1c0-0.8,0-1.6-0.2-2.4
		c-1.1-4-1.1-8.2-1.4-12.3c-0.4-5.1-1.7-10.1-1.3-15.2c0-0.6-0.2-1.3-0.3-1.9c-0.5-4.9-1.7-9.8-1.5-14.7c0-1.6-0.3-3.2-0.5-4.8
		c-0.4-3.6-0.9-7.3-1.3-10.9c-0.6-5.5-1.2-11.1-1.7-16.6c-0.4-4.1-0.9-8.2-1.2-12.4c-0.2-2.4-0.2-4.8-0.7-7.1
		c-0.6-2.8-0.9-5.7-1.1-8.5c-0.3-4.1-0.1-8.3-1.1-12.4c-1.4-5.9-1.1-12.1-1.7-18.1c-0.9-8.1-2.4-16.1-2.2-24.3
		c0-0.5-0.2-0.9-0.2-1.4c-0.8-5.5-1.7-11-1.6-16.7c0-1.6,0.1-3.2-0.2-4.8c-1.1-6.2-1.7-12.3-1.7-18.6c0-1.1,0-2.3-0.2-3.3
		c-1-5.5-1.6-11-1.7-16.6c0-0.8,0.1-1.6-0.2-2.4c-1-3.1-0.8-6.3-0.9-9.5c-0.1-1.3-0.1-2.6-0.3-3.8c-0.8-5.2-1.7-10.4-1.6-15.7
		c0-1.1-0.1-2.2-0.2-3.3c-0.9-5.5-1.3-11.1-1.5-16.7c-0.1-3.2,0-6.4-0.2-9.6c-0.2-3.7-2.1-5.7-5.6-5.9c-2.9-0.1-5.7-0.2-8.6,0.3
		c-5.4,0.9-10.9,0.7-16.2,0.2c-2.5-0.2-5.1-0.5-7.6-0.6c-3.8,0-7.7,0-11.5,0c-143.1,0-286.3-0.1-429.4-0.1c-39.5,0-79,0.1-118.5-0.1
		c-39.5-0.2-79,0.8-118.5-0.6c-140.4-0.1-280.8-0.1-421.3-0.2c-4.2,0-8.4,0.2-12.5-0.3c-4-0.5-8-0.5-11.9-0.5
		c-63.5,0-127-0.1-190.5-0.1c-3.8,0-7.7-0.1-11.5-0.1c-2.6,0-4.4-1.2-5.3-3.4c-1.1-2.6-2.3-5.3-2.3-8.3c0-2.9-0.4-5.7-1.3-8.5
		c-0.3-0.9-0.5-1.9-0.5-2.8c0.1-3.7-0.7-7.3-1.4-10.9c-0.4-1.9-0.5-3.8-0.6-5.7c-0.2-5.1-1-10.2-2.1-15.1c-0.5-2.2-0.7-4.4-0.9-6.6
		c-0.3-5.1-0.6-10.2-0.9-15.3c0-0.5-0.1-1-0.2-1.4c-0.7-1.8-0.7-3.8-0.6-5.7c0.3-5.8-1.1-11.4-1.2-17.2c-0.1-3.6-1.5-4.7-5.2-4.8
		c-15.3-0.3-30.7-0.1-46-0.5c-22.4-0.6-44.8,0-67.2-0.3c-22.4-0.2-44.8,0.9-67.1-0.8c-4.9-0.4-9.9-0.1-14.9-0.2
		c-5.4,0-5.7,0.3-5.7,5.7s0.2,10.8,0.8,16.3c0.6,5.5,0.8,11.1,1.2,16.7c0,0.5,0.1,1,0.2,1.4c1.1,4.8,1.5,9.8,1.6,14.7
		c0.2,4.8,1.4,9.5,1.3,14.3c0,1.4,0.5,2.8,0.7,4.2c0.2,0.8,0.6,1.5,1.4,1.8c0,0.5,0,1.1,0.1,1.6c-0.2,0.4-0.6,0.8-0.6,1.2
		c0.1,3.7-0.1,7.3,0.6,11c0.7,3.6,1,7.3,1.2,10.9c0.1,3.1-1.7,4.9-4.7,5.7c-3.9,1-7.9,1.1-11.9,1c-12.1-0.4-24.3-0.2-36.4-0.7
		c-16.8-0.6-33.6-0.3-50.4-0.3c-0.8,0-1.6,0-2.4,0c-3.4,0.2-5,2-4.2,5.4c0.6,2.7,0.7,5.4,0.8,8.1c0,0.6,0.1,1.3,0.2,1.9
		c0.8,5.5,1.8,11,1.7,16.6c0,1,0.1,1.9,0.3,2.9c0.9,5,1.6,10.1,1.6,15.2c0,1.8,0.3,3.5,0.6,5.2c0.6,3.1,1.1,6.3,1.1,9.5
		c0.1,5.6,1.6,11.1,1.3,16.7c0,0.6,0.2,1.3,0.3,1.9c0.5,5.1,1.6,10.1,1.5,15.2c0,1.9,0.2,3.8,0.5,5.7c0.6,3.1,1,6.3,1.2,9.5
		c0.3,5.9,1.4,11.7,1.7,17.6c0.3,4.9,1.5,9.8,1.4,14.8c-0.1,1.8,0.3,3.5,0.5,5.2c0.6,4.9,1.6,9.8,1.4,14.8c-0.1,1.8,0.2,3.5,0.5,5.2
		c0.6,3.1,1,6.3,1.2,9.5c0.3,6.1,1.4,12,1.7,18.1c0.2,3.5,1.3,6.9,1.2,10.4c-0.1,4.2,0.5,8.3,1.1,12.4c0.2,1.4,0.6,2.8,0.7,4.2
		c0.3,4.6,0.4,9.2,1.1,13.8c1.1,7.2,1.4,14.6,2.1,21.9c0,0.5,0.1,1,0.1,1.4c0.8,5.7,1.8,11.3,1.7,17.1c0,1.1,0.1,2.2,0.3,3.3
		c0.8,5.2,1.7,10.4,1.6,15.7c0,1.3,0.2,2.5,0.4,3.8c0.5,4.3,1,8.5,1.4,12.8c0.5,4.9,0.9,9.8,1.4,14.7c0.5,5.5,1.1,11.1,1.6,16.6
		c0.2,2.2,0.2,4.4,0.6,6.7c0.8,4.7,1.6,9.4,1.4,14.3c0,1.1,0,2.2,0.2,3.3c0.9,5.4,1.6,10.7,1.7,16.2c0,1.1,0.2,2.2,0.3,3.3
		c0.5,3.6,1.3,7.2,1.4,10.9c0.2,5.4,1.6,10.7,1.3,16.2c0,0.8,0.3,1.6,0.4,2.4c0.5,3.8,1.2,7.6,1.3,11.4c0.1,5.3,1.1,10.5,1.6,15.7
		c0.5,4.9,1,9.8,1.4,14.7c0.2,1.9,0.4,3.8,0.5,5.7c0.3,4.8,1.6,9.4,1.4,14.3c-0.1,1.6,0.4,3.2,0.5,4.7c0.4,4.5,1.5,8.8,1.3,13.3
		c-0.1,2.5,0.2,5.1,0.7,7.6c0.6,2.8,1,5.7,1,8.5c0,5.5,1.6,10.8,1.3,16.2c0,0.3,0.1,0.6,0.1,1c0.9,5.8,1.8,11.7,1.8,17.6
		c0,1,0.1,1.9,0.2,2.9c0.9,5.4,1.7,10.7,1.6,16.2c0,1.8,0.3,3.5,0.6,5.2c0.6,3.8,0.9,7.6,1.2,11.4c0.2,2.9,0.2,5.7,0.8,8.6
		c0.7,3.3,0.9,6.6,1,10c0.2,5.6,1.6,11.1,1.3,16.7c0,0.5,0.2,0.9,0.2,1.4c0.7,5.2,1.7,10.4,1.6,15.7c0,1.8,0.2,3.5,0.5,5.2
		c0.6,3.3,1.2,6.6,1.2,10c0,5.5,1.1,10.8,1.5,16.2c0.3,6,1.8,12,1.7,18.1c0,1.1,0.3,2.2,0.4,3.3c0.4,3.5,1.5,6.9,1.3,10.4
		c-0.3,5.5,1,10.8,1.4,16.2c0.4,5.9,1.8,11.7,1.7,17.6c0,0.8,0.2,1.6,0.3,2.4c0.7,5.4,1.7,10.7,1.6,16.2c0,1.4,0.1,2.9,0.4,4.3
		c0.8,4.4,1.4,8.8,1.4,13.3c0,2.4,0.2,4.7,0.7,7.1c0.7,3.1,1.1,6.3,1,9.5c-0.1,5.6,1,11.1,1.4,16.7c0.4,6.7,1.8,13.3,1.8,20
		c0,0.6,0.1,1.3,0.2,1.9c1,5.7,1.8,11.3,1.7,17.1c0,1.1,0.1,2.2,0.3,3.3c0.8,4.6,1.5,9.1,1.5,13.8c0,1.3-0.1,2.6,0.3,3.8
		c0.8,2.5,0.7,5,0.8,7.6c0,1.1,0.1,2.2,0.2,3.3c0.8,5.5,1.8,11,1.7,16.6c0,1-0.1,2,0.1,2.9c1.9,7.3,1.8,14.9,2.5,22.3
		c0.8,8.2,2.3,16.4,2.2,24.8c0,0.6,0.2,1.3,0.3,1.9c0.8,5.4,1.8,10.7,1.5,16.2c-0.1,3.4,0.9,6.6,1.2,10
		C119.5,1098.2,120,1098.5,120.3,1098.9z M1057.8,109.5L1057.8,109.5c214.6-0.1,429.3-0.1,643.9-0.1c3.5,0,7,0.1,10.6,0
		c7.7-0.1,11.1,5.1,12.1,10.1c1.6,7.8,2.7,15.7,3.8,23.6c0.9,6,1.2,12.1,2.2,18c0.7,3.6,0.6,7.3,1.5,10.9c0.8,3.2,1,6.6,1.2,10
		c0.2,3.8,0.8,7.6,1.2,11.4c0.9,8.2,2.3,16.4,2.7,24.7c0,0.8,0.2,1.6,0.3,2.4c0.5,3.6,1,7.2,1.5,10.9c0.4,4,0.7,7.9,1.2,11.9
		c0.6,5.4,1.1,10.8,1.9,16.1c0.5,3.5,0.8,7,1.1,10.5c0.4,4.3,1.3,8.5,1.6,12.8c0.3,4.5,1,8.9,1.3,13.3c0.4,5.7,1.6,11.3,1.8,17.1
		c0,0.8,0.2,1.6,0.3,2.4c0.5,3.6,1.1,7.2,1.4,10.9c0.5,4.4,0.6,8.9,1.2,13.3c0.9,6.6,1.7,13.3,1.9,20c0,0.3,0,0.6,0.1,1
		c1,5.2,1.8,10.4,1.8,15.7c0,0.8,0.2,1.6,0.3,2.4c0.5,4.3,1.1,8.5,1.6,12.8c0.4,4.1,0.5,8.3,1.3,12.4c0.6,3,0.5,6,0.9,9
		c0.6,4.3,1.3,8.5,1.6,12.8c0.3,4.5,1,8.9,1.3,13.3c0.4,5.5,1.5,11,1.8,16.6c0.2,2.8,0.6,5.7,1,8.5c0.5,3.5,0.7,7,1.1,10.5
		c0.5,4.1,1.1,8.2,1.5,12.3c0.5,4.4,0.5,8.9,1.2,13.3c0.5,3.2,0.6,6.3,1,9.5c0.5,4.6,1.2,9.2,1.6,13.7c0.5,4.4,0.6,8.9,1.2,13.3
		c0.8,6,1.5,12,1.8,18.1c0,0.6,0.1,1.3,0.2,1.9c0.5,4.1,1.2,8.2,1.6,12.3c0.5,4.8,0.8,9.5,1.1,14.3c0,0.5,0.1,1,0.2,1.4
		c0.5,4.1,1.4,8.2,1.5,12.3c0.2,4.8,1.4,9.5,1.2,14.3c0,0.5,0.1,0.9,0.2,1.4c0.5,4.3,1.3,8.5,1.5,12.8c0.2,4.6,1,9.2,1.3,13.8
		c0.2,3,0.3,6.1,0.9,9c1,4.6,0.8,9.2,1.6,13.8c0.8,4.7,0.6,9.6,1.3,14.3c0.5,3.3,0.6,6.7,1,10c0.5,4.7,1.3,9.5,1.6,14.2
		c0.3,4.3,0.9,8.6,1.3,12.8c0.4,5.7,1.6,11.4,1.7,17.1c0,0.6,0.1,1.3,0.2,1.9c0.5,4.4,1.2,8.8,1.6,13.3c0.3,4.3,0.9,8.6,1.3,12.8
		c0.3,3,0.3,6.1,0.9,9c1,4.5,1,9.2,1.5,13.8c0.5,4.3,0.8,8.6,1.4,12.8c0.7,5.1,0.6,10.2,1.5,15.2c0.8,4.4,0.6,8.9,1.2,13.3
		c0.8,5.8,1.6,11.7,1.8,17.6c0,0.6,0.2,1.3,0.3,1.9c0.5,3.6,1.3,7.2,1.4,10.9c0.2,5.1,1.5,10.1,1.2,15.3c0,0.5,0.1,1,0.2,1.4
		c0.8,5,1.6,10.1,1.7,15.2c0,0.8-0.1,1.6,0.2,2.4c1.3,4.3,0.8,8.9,1.5,13.3c0.5,3.3,1.1,6.6,1.2,10c0.1,4.5,0.4,9,1.2,13.3
		c0.6,3.2,0.5,6.4,1,9.5c0.7,4.4,1.1,8.8,1.6,13.3c0.4,4.3,0.5,8.6,1.3,12.8c0.6,3.2,0.4,6.4,0.9,9.5c0.8,5.4,1.6,10.7,1.8,16.1
		c0,0.8,0,1.6,0.2,2.4c1.2,4,1,8.2,1.5,12.3c0.5,4.7,1.5,9.5,1.3,14.3c0,0.6,0.2,1.3,0.3,1.9c0.5,4.3,1.2,8.5,1.5,12.8
		c0.2,4.6,1,9.2,1.3,13.8c0.4,5.7,1.7,11.3,1.7,17.1c0,0.8,0.2,1.6,0.3,2.4c0.5,4.1,1.2,8.2,1.4,12.3c0.3,4.5,1,8.9,1.4,13.3
		c0.3,3.3,0.2,6.7,0.9,10c1,4.1,1,8.2,1.4,12.3c0.5,4.7,1.5,9.5,1.3,14.3c0,0.6,0.2,1.3,0.2,1.9c0.5,4.1,1,8.2,1.6,12.3
		c0.1,1-0.4,2.3,0.9,3c0.7,0.4,1.7-1,2-2.8c0.1-0.8,0.1-1.6,0.2-2.4c0.4-4,0.8-7.9,1.2-11.9c0.5-4.6,1.1-9.2,1.6-13.8
		c0.4-4.1,0.8-8.3,1.3-12.4c0.4-3.2,0.5-6.4,0.9-9.5c0.7-4.4,1.1-8.8,1.6-13.3c0.4-4.3,0.5-8.6,1.3-12.8c0.6-3,0.5-6,0.9-9
		c0.6-4.7,1.2-9.5,1.7-14.2c0.4-4.1,0.7-8.3,1.2-12.4c0.5-4.7,1.2-9.5,1.7-14.2c0.4-4.1,0.6-8.3,1.2-12.4c0.8-5.5,1.6-11,1.8-16.6
		c0-0.8,0.1-1.6,0.2-2.4c0.5-4.3,1.3-8.5,1.5-12.8c0.2-4.1,0.9-8.2,1.3-12.4c0.3-3,0.5-6,0.9-9c0.6-4.7,1.2-9.5,1.7-14.2
		c0.4-4.1,0.4-8.3,1.2-12.4c0.8-4.1,1.1-8.2,1.4-12.3c0.6-7.2,1.8-14.2,2.3-21.4c0.2-3.2,0.4-6.4,0.9-9.5c0.6-3.5,0.7-7,1.1-10.5
		c0.6-4.4,1.1-8.8,1.6-13.3c0.4-4.3,0.4-8.6,1.3-12.8c0.8-4.1,1-8.2,1.4-12.3c0.5-4.7,1.6-9.5,1.3-14.3c0-0.5,0-1,0.1-1.4
		c1.7-6.8,1.8-13.9,2.4-20.9c0.7-7.1,1.8-14.2,2.3-21.4c0.2-3.3,0.5-6.7,0.9-10c0.8-5.7,1.6-11.4,1.8-17.1c0-0.6,0.1-1.3,0.2-1.9
		c0.5-4.1,1.3-8.2,1.5-12.3c0.2-4.5,1-8.9,1.3-13.3c0.3-3.3,0.5-6.7,1-10c0.6-4.4,1.3-8.8,1.6-13.3c0.3-4.3,1-8.6,1.3-12.9
		c0.4-5.7,1.6-11.4,1.7-17.1c0-0.6,0.1-1.3,0.2-1.9c0.5-4.1,1.4-8.2,1.5-12.3c0.1-4.5,0.9-8.9,1.3-13.3c0.5-6,1.5-12,1.8-18.1
		c0-0.5,0.1-0.9,0.2-1.4c0.5-4.3,1.3-8.5,1.5-12.8c0.2-4.6,1.5-9.2,1.2-13.8c0-0.5,0.2-0.9,0.2-1.4c0.5-3.6,1.1-7.2,1.5-10.9
		c0.5-4.8,0.8-9.5,1.1-14.3c0-0.5,0.1-1,0.2-1.4c0.8-4.7,1.6-9.4,1.7-14.2c0-1,0-2,0.2-2.9c1.1-4.4,0.9-8.9,1.5-13.3
		c0.6-4.4,1.1-8.9,1.4-13.3c0.2-3.3,0.6-6.7,1-10c0.5-4.3,1.3-8.5,1.6-12.8c0.4-5.4,1.2-10.8,1.8-16.1c0.4-3.5,0.7-7,1.1-10.5
		c0.5-4.4,0.5-8.9,1.2-13.3c0.5-3.2,0.4-6.4,1.1-9.5c0.9-4.1,0.7-8.2,1.5-12.3c0.8-4,0.6-8.3,1.3-12.4c0.5-3.2,0.7-6.3,1.1-9.5
		c0.6-4.4,1.1-8.8,1.6-13.3c0.4-3.8,0.8-7.6,1.2-11.4c0.5-4.7,1.1-9.5,1.6-14.2c0.4-3.8,0.5-7.7,1.2-11.4c0.9-4.7,0.8-9.5,1.6-14.2
		c0.7-4.1,0.5-8.3,1.3-12.3c0.6-3,0.5-6,0.9-9c0.6-4.1,1.3-8.2,1.6-12.3c0.4-4.4,0.9-8.9,1.3-13.3c0.3-3.5,0.5-7,1.1-10.5
		c0.6-4.3,1.2-8.5,1.5-12.8s0.9-8.6,1.3-12.8c0.3-3.2,0.4-6.4,0.9-9.5c0.6-4.1,1.4-8.2,1.5-12.3c0.1-4.5,0.9-8.9,1.4-13.3
		c0.3-3.3,0.5-6.7,1-10c0.6-4.4,1.1-8.8,1.6-13.3c0.4-3.8,0.8-7.6,1.2-11.4c0.5-4.1,1.3-8.2,1.6-12.3c0.2-3.7,0.9-7.3,1.4-10.9
		c0.4-3,0.5-6,1-9c0.6-3.8,1.1-7.6,1.5-11.4c0.4-3.6,0.8-7.3,1.2-10.9c0.6-4.7,1.1-9.5,1.8-14.2c0.5-3.8,0.7-7.6,1.2-11.4
		c1-8.2,2.3-16.4,3.6-24.6c0.3-1.9,0.7-3.8,0.9-5.7c0.4-4.5,0.1-6.1-4.9-5.8c-1,0-1.9,0-2.9,0c-13.9,0-27.8,0-41.7-0.1
		c-1.3,0-2.6,0.2-3.8-0.1c-3-0.8-6-0.6-9.1-0.6c-154.7,0-309.3-0.1-464-0.1c-126.8,0-253.7-0.1-380.5-0.1c-1.8,0-3.6,0.2-5.3-0.1
		c-3.2-0.7-6.4-0.6-9.5-0.6c-62.4,0-124.7-0.1-187.1-0.1c-24.9,0-49.9,0-74.8-0.1c-25.1,0-50.2,0.1-75.3-0.1
		c-24.9-0.2-49.8,0.3-74.8-0.6c-21.7-0.8-43.5-0.2-65.2-0.2c-21.6,0-43.2,0.1-64.8-0.1c-21.7-0.2-43.4,0.2-65.2-0.7
		c-20.4-0.8-40.9-0.2-61.4-0.2c-1.3,0-2.6,0-3.8,0.1c-1.6,0.2-2.4,0.9-2.5,2.4c-0.1,1.6-0.3,3.3,0.1,4.8c0.9,3.5,0.6,7,0.7,10.5
		c0.1,4.6,0.2,9.3,0.1,13.9c-0.1,3,1.9,5,4.6,4.8c0.6-0.1,1.3,0,1.9,0c10.4,0,20.8,0,31.2,0c1,0,2,0.1,2.9-0.1
		c3.6-0.9,7.3-0.6,11-0.6C625.7,109.5,841.8,109.5,1057.8,109.5z"/>
	<path class="st1" d="M132.2,97.8c0-0.5,0-1.1-0.1-1.6c0.8-2.2,0.6-4.5,0.1-6.6c-0.7-3-0.6-6-0.8-9c1.1-1.2,1-1.4-0.7-2
		c-0.1-2.5-0.1-5.1-0.2-7.6c1.6-1.6,1.1-3.4,0.5-5.2c-0.1-0.3-0.8-0.4-1.2-0.7c-0.5-5.4-1.6-10.8-1.2-16.2c0-0.3,0-0.6,0-0.9
		c1.5-2.1,1.3-2.8-0.7-3.9c-0.1-2.9-0.1-5.7-0.2-8.6c1.4-2,1.5-3.9-0.1-5.8c0-1.2,0-2.5,0.1-3.7c0.1-1.4,0.5-1.9,2-2
		c0.9-0.1,1.9-0.1,2.8-0.1c2.7,1.5,4.7,1.5,7.7,0.1c11.8,0,23.6,0.1,35.5,0.1c6.4,0,12.8,0.1,19.2,0.1c0.2,0.8,0.6,1.5,1.5,1.6
		c1.3,0.1,2.5,0.1,3.8,0.1c19.8,0,39.6,0,59.4,0c1.3,0,2.6,0,3.8-0.1c0.7,0,1.2-0.4,1.6-0.9c18.9,0,37.8,0,56.7,0
		c1.4,0,2.9,0,4.3,0.1c0.9,0.1,1.3,0.8,1.5,1.6c0,1.7-0.1,3.4-0.1,5.1c0,1.1,0.7,1.6,1.7,1.8c0,1.9,0.1,3.8,0.1,5.7
		c-1.6,2.5-1.4,3.5,0.7,4.9c0.1,2.5,0.2,5.1,0.2,7.6c-1.4,1.7-1.3,2,0.7,3c0.1,2.5,0.1,5.1,0.2,7.6c-1.4,2.1-1.3,2.7,0.7,3.9
		c0.1,2.2,0.2,4.4,0.3,6.6c-1,1.2-1,1.4,0.8,2c0.1,1.6,0.1,3.2,0.2,4.7c-1.3,1.7-1.3,2,0.7,3c0.1,1.6,0.1,3.1,0.2,4.7
		c-1.3,1.7-1.3,2,0.8,3c0.1,1.3,0.1,2.5,0.2,3.8c-1.3,1.7-1.2,2,0.7,3c0.1,1.2,0.2,2.5,0.2,3.7c-1.3,1.7-1.2,2,0.7,3
		c0.1,2.6,0.4,5.1,1.1,7.6c-1.3,2.1-1.2,2.7,0.7,3.9c0.1,0.8,0.2,1.6,0.1,2.4c-0.1,2.6,0.6,5,1.7,7.3c1.6,3.5,4,6,8.4,5.6
		c1.4-0.1,2.9,0,4.3,0.1c0.2,0.8,0.6,1.6,1.5,1.6c1.3,0.1,2.6,0.1,3.8,0.1c33.1,0,66.1,0,99.2,0c1.1,0,2.2,0.1,3.3-0.1
		c0.6-0.1,1.1-0.6,1.6-0.8c34.2,0,68.4,0,102.6,0c1,0,1.9,0.1,2.9,0.1c0.2,0.8,0.6,1.6,1.5,1.7c1.3,0.1,2.6,0.1,3.8,0.1
		c62.2,0,124.4,0,186.5,0c1.1,0,2.2,0,3.4-0.1c0.7,0,1.2-0.4,1.6-0.9c1.8,0,3.5,0,5.3,0c209,0,418,0.1,627.1,0.1
		c2.2,0,4.5,0.1,6.7,0.1c0.2,0.8,0.6,1.6,1.5,1.6c1.6,0.1,3.2,0.1,4.8,0.1c83.3,0,166.6,0,249.9,0c1.3,0,2.6,0,3.8,0
		c0.8,0,1.6-0.3,2.1-1c11.6,0,23.2,0,34.8,0c1.6,0,3.2-0.1,4.8,0c2.8,0.1,3,0.4,3.6,3.8c-1.6,2.5-1.4,3.5,0.7,4.9
		c0.1,4.4,0.2,8.9,0.2,13.3c-1.3,1.7-1.3,2,0.7,3c0.1,2.2,0.2,4.4,0.3,6.6c-1.4,2.1-1.3,2.8,0.8,3.9c0.1,2.2,0.1,4.4,0.2,6.6
		c-1,1.2-1,1.4,0.7,2c0.1,2.5,0.2,5.1,0.3,7.6c-1.4,2.1-1.3,2.8,0.7,3.9c0.1,1.9,0.1,3.8,0.2,5.7c-1.6,2.5-1.4,3.6,0.8,4.9
		c0.1,2.2,0.1,4.4,0.2,6.6c-1.3,1.7-1.3,2,0.7,3c0.1,2.5,0.2,5,0.3,7.6c-1.3,1.7-1.3,2,0.7,3c0.1,3.2,0.2,6.3,0.2,9.5
		c-1.4,2.1-1.3,2.8,0.8,3.9c0.1,2.2,0.1,4.4,0.2,6.6c-1.5,2.1-1.3,2.8,0.7,3.9c0.1,2.5,0.2,5.1,0.2,7.6c-1,1.2-1,1.4,0.7,2
		c0.1,2.2,0.1,4.4,0.2,6.6c-1.4,2.1-1.3,2.8,0.7,3.9c0.1,1.9,0.1,3.8,0.2,5.7c-1.4,2.1-1.3,2.8,0.8,3.9c0.1,2.2,0.1,4.4,0.2,6.6
		c-1.1,1.2-1,1.3,0.6,2c0.1,2.2,0.2,4.4,0.3,6.6c-1.3,1.7-1.3,2,0.7,3c0.1,2.2,0.1,4.4,0.2,6.6c-1.3,1.7-1.3,2,0.7,3
		c0.1,1.9,0.2,3.8,0.3,5.7c-1.3,1.7-1.3,2,0.7,3c0.1,2.5,0.2,5.1,0.2,7.6c-1.3,1.7-1.3,2,0.8,3c0.1,1.6,0.1,3.2,0.2,4.7
		c-1.4,2.1-1.3,2.8,0.7,3.9c0.1,1.9,0.1,3.8,0.2,5.7c-1.3,1.7-1.2,2,0.8,3c0.1,2.5,0.1,5.1,0.2,7.6c-1.3,1.7-1.3,2,0.7,3
		c0.1,1.6,0.2,3.1,0.2,4.7c-1.4,2.1-1.3,2.8,0.8,3.9c0.1,2.2,0.1,4.4,0.2,6.6c-1.3,1.7-1.3,2,0.7,3c0.1,1.9,0.1,3.8,0.2,5.7
		c-1.4,2.1-1.3,2.8,0.8,3.9c0.1,1.9,0.1,3.8,0.2,5.7c-1.4,2.1-1.3,2.8,0.8,3.9c0.1,1.9,0.1,3.8,0.2,5.7c-1.3,1.7-1.3,2,0.7,3
		c0.1,2.5,0.2,5,0.3,7.6c-1.4,1.7-1.3,2,0.7,3c0.1,1.9,0.1,3.8,0.2,5.7c-1.4,2.1-1.3,2.8,0.7,3.9c0.1,1.9,0.2,3.8,0.2,5.7
		c-1.3,1.7-1.3,2,0.7,3c0.1,2.8,0.2,5.7,0.3,8.5c-1.1,1.2-1,1.4,0.7,2c0.1,1.9,0.1,3.8,0.2,5.7c-1.5,2.5-1.4,3.6,0.8,4.9
		c0.1,1.9,0.1,3.8,0.2,5.7c-1.3,1.7-1.2,2,0.7,3c0.1,2.5,0.2,5.1,0.2,7.6c-1.3,1.7-1.3,2,0.7,3c0.1,1.9,0.2,3.8,0.2,5.7
		c-1.4,2.1-1.3,2.8,0.8,3.9c0.1,2.2,0.1,4.4,0.2,6.6c-1.3,1.7-1.3,2,0.7,3c0.1,2.2,0.2,4.4,0.3,6.6c-1.3,1.7-1.3,2,0.7,3
		c0.1,2.2,0.1,4.4,0.2,6.6c-1.3,1.7-1.2,2,0.8,3c0.1,1.9,0.1,3.8,0.2,5.7c-1.4,2.1-1.3,2.8,0.7,3.9c0.1,2.2,0.2,4.4,0.2,6.6
		c-1.1,1.2-1,1.4,0.7,2c0.1,2.2,0.1,4.4,0.2,6.6c-1.3,1.7-1.3,2,0.7,3c0.1,1.9,0.2,3.8,0.2,5.7c-1.4,2.1-1.3,2.8,0.8,3.9
		c0.1,2.2,0.1,4.4,0.2,6.6c-1.1,1.2-1,1.3,0.7,2c0.1,2.2,0.2,4.4,0.3,6.6c-1.4,1.7-1.3,2,0.7,3c0.1,2.2,0.1,4.4,0.2,6.6
		c-1.4,1.7-1.3,2,0.8,3c0.1,1.9,0.1,3.8,0.2,5.7c-1.3,1.7-1.3,2,0.7,3c0.1,2.2,0.2,4.4,0.2,6.6c-1,1.2-1,1.4,0.7,2
		c0.1,1.9,0.1,3.8,0.2,5.7c-1.4,2.1-1.3,2.8,0.7,3.9c0.1,1.9,0.2,3.8,0.2,5.7c-1.3,1.7-1.3,2,0.7,3c0.1,2.5,0.2,5.1,0.2,7.6
		c-1.3,1.7-1.3,2,0.7,3c0.1,1.6,0.1,3.1,0.2,4.7c-1.4,2.1-1.3,2.8,0.8,3.9c0.1,2.2,0.1,4.4,0.2,6.6c-1.1,1.2-1,1.4,0.7,2
		c0.1,2.2,0.2,4.4,0.3,6.6c-1.4,1.7-1.3,2,0.7,3c0.1,1.9,0.1,3.8,0.2,5.7c-1.3,1.7-1.2,2,0.8,3c0.1,1.9,0.1,3.8,0.2,5.7
		c-1.3,1.7-1.2,2,0.7,3c0.1,2.2,0.2,4.4,0.3,6.6c-1.3,1.7-1.3,2,0.8,3c0.1,2.2,0.1,4.4,0.2,6.6c-1.4,2.1-1.3,2.8,0.8,3.9
		c0.1,1.6,0.1,3.1,0.2,4.7c-1.4,1.7-1.3,2,0.7,3c0.1,2.5,0.2,5.1,0.2,7.6c-1,1.2-1,1.4,0.7,2c0.1,1.9,0.2,3.8,0.2,5.7
		c-1.4,2.1-1.3,2.8,0.7,3.9c0.1,2.2,0.2,4.4,0.2,6.6c-1.1,1.2-1,1.4,0.7,2c0.1,2.2,0.1,4.4,0.2,6.6c-1.3,1.7-1.3,2,0.7,3
		c0.1,2.2,0.2,4.4,0.3,6.6c-1.1,1.2-1,1.4,0.7,2c0.1,2.2,0.1,4.4,0.2,6.6c-1.3,1.7-1.3,2,0.7,3c0.1,1.9,0.2,3.8,0.3,5.7
		c-1.3,1.7-1.3,2,0.7,3c0.1,2.5,0.2,5.1,0.3,7.6c-1.3,1.7-1.3,2,0.7,3c0.1,1.9,0.2,3.8,0.2,5.7c-1.4,1.7-1.3,2,0.7,3
		c0.1,2.5,0.2,5.1,0.3,7.6c-1.1,1.2-1,1.4,0.7,2c0.1,1.9,0.1,3.8,0.2,5.7c-1.4,2.1-1.3,2.8,0.7,3.9c0.1,1.6,0.1,3.1,0.2,4.7
		c-1.4,2.1-1.3,2.8,0.8,3.9c0.1,2.2,0.1,4.4,0.2,6.6c-1,1.2-1,1.3,0.6,2c0.1,2.5,0.2,5,0.3,7.6c-1.1,1.2-1,1.4,0.7,2
		c0.1,2.2,0.1,4.4,0.2,6.6c-1.4,2.1-1.3,2.8,0.8,3.9c0.1,1.6,0.1,3.1,0.2,4.7c-1.3,1.7-1.3,2,0.7,3c0.1,2.5,0.2,5.1,0.3,7.6
		c-1,1.2-1,1.4,0.7,2c0.1,2.2,0.1,4.4,0.2,6.6c-1.4,2.1-1.3,2.8,0.7,3.9c0.1,1.9,0.2,3.8,0.2,5.7c-1.1,1.2-1,1.4,0.7,2
		c0.1,2.5,0.2,5.1,0.2,7.6c-1.3,1.7-1.3,2,0.7,3c0.1,1.6,0.1,3.1,0.2,4.7c-1.4,2.1-1.3,2.8,0.8,3.9c0.1,2.2,0.1,4.4,0.2,6.6
		c-1.3,1.7-1.3,2,0.7,3c0.1,1.9,0.1,3.8,0.2,5.7c-1.4,2.1-1.3,2.8,0.8,3.9c0.1,1.9,0.1,3.8,0.2,5.7c-1.4,2.1-1.3,2.8,0.8,3.9
		c0.1,1.9,0.1,3.8,0.2,5.7c-1.4,1.7-1.3,2,0.7,3c0.1,1.9,0.2,3.8,0.2,5.7c-1.4,2.1-1.3,2.8,0.8,3.9c0.1,2.2,0.1,4.4,0.2,6.6
		c-1.3,1.7-1.3,2,0.7,3c0.1,1.9,0.2,3.8,0.3,5.7c-1.3,1.7-1.3,2,0.7,3c0.1,2.2,0.2,4.4,0.2,6.6c-1.3,1.7-1.2,2,0.8,3
		c0.1,2.2,0.2,4.4,0.2,6.6c-1.5,2.1-1.3,2.8,0.7,3.9c0.1,1.6,0.1,3.1,0.2,4.7c-1.4,2.1-1.3,2.8,0.8,3.9c0.1,2.2,0.1,4.4,0.2,6.6
		c-1.4,1.7-1.3,2,0.7,3c0.1,1.9,0.2,3.8,0.2,5.7c-1.6,2.5-1.4,3.6,0.8,4.9c0.1,1.9,0.1,3.8,0.2,5.7c-1.4,1.7-1.3,2,0.7,3
		c0.1,1.9,0.2,3.8,0.2,5.7c-1.4,1.7-1.3,2,0.7,3c0.1,2.5,0.2,5.1,0.3,7.6c-1.1,1.2-1,1.4,0.7,2c0.1,1.9,0.1,3.8,0.2,5.7
		c-1.5,2.1-1.3,2.8,0.7,3.9c0.1,1.9,0.1,3.8,0.2,5.7c-1.3,1.7-1.3,2,0.7,3c0.1,2.2,0.1,4.4,0.2,6.6c-1.3,1.7-1.3,2,0.7,3
		c0.1,1.9,0.2,3.8,0.2,5.7c-1.5,2.1-1.3,2.8,0.8,3.9c0.1,2.2,0.1,4.4,0.2,6.6c-1.1,1.2-1,1.4,0.7,2c0.1,2.5,0.2,5,0.3,7.6
		c-1.1,1.2-1,1.4,0.7,2c0.1,2.2,0.1,4.4,0.2,6.6c-1.5,2.1-1.3,2.8,0.8,3.9c0.1,1.9,0.1,3.8,0.2,5.7c-1.1,1.2-1,1.4,0.7,2
		c0.1,2.2,0.2,4.4,0.3,6.6c-1.4,1.7-1.3,2,0.7,3c0.1,1.9,0.1,3.8,0.2,5.7c-1.6,2.5-1.4,3.6,0.8,4.9c0.1,1.3,0.1,2.5,0.2,3.8
		c-1.4,2.1-1.3,2.8,0.8,3.9c0.1,2.5,0.2,5.1,0.2,7.6c-1.1,1.2-1,1.4,0.7,2c0.1,2.2,0.2,4.4,0.3,6.6c-1.4,1.7-1.3,2,0.7,3
		c0.1,2.2,0.1,4.4,0.2,6.6c-1.4,1.7-1.3,2,0.8,3c0.1,2.2,0.1,4.4,0.2,6.6c-1.4,1.7-1.3,2,0.7,3c0.1,1.9,0.2,3.8,0.2,5.7
		c-1.4,1.7-1.3,2,0.8,3c0.1,1.9,0.1,3.8,0.2,5.7c-1.4,2.1-1.3,2.8,0.7,3.9c0.1,1.9,0.2,3.8,0.2,5.7c-1.4,1.7-1.3,2,0.7,3
		c0.1,2.5,0.2,5.1,0.3,7.6c-1.4,1.7-1.3,2,0.8,2.9c0.1,1.3,0.1,2.5,0.2,3.8c-1.4,2.1-1.3,2.8,0.8,3.9c0.1,2.5,0.2,5.1,0.3,7.6
		c-1.1,1.2-1,1.4,0.7,2c0.1,2.2,0.2,4.4,0.2,6.6c-1.4,1.7-1.3,2,0.7,3c0.1,1.6,0.1,3.1,0.2,4.7c-1.4,2.1-1.3,2.8,0.8,3.9
		c0.1,2.5,0.1,4.9,0.1,7.4c0,1.3-0.7,2-1.9,2.2c-1.6-1.4-3.2-1.4-4.8,0c-10.5-0.1-21.1-0.2-31.6-0.3c-0.3-1-0.9-1.7-2-1.7
		c-4,0-7.9,0-11.9,0.1c-0.5,0-1.1,0.6-1.6,0.9c-16.9-0.1-33.9-0.1-50.8-0.2c-0.2-0.8-0.6-1.6-1.5-1.7c-1.6-0.1-3.2-0.1-4.8-0.1
		c-78.8,0-157.6,0-236.4,0c-1.3,0-2.6,0-3.8,0c-0.8,0-1.6,0.3-2.1,1c-319.9,0-639.8,0-959.6,0c-1.6-1.7-3.6-1-5.4-1
		c-110.2,0-220.3,0-330.5,0c-1.4,0-2.9,0-4.3,0.1c-0.9,0.1-1.3,0.8-1.5,1.7c-8.4,0-16.8,0-25.2,0.1c-2,0-3.7-0.6-5.6-0.9
		c-1.1-0.2-1.6-0.9-1.7-2c-0.1-2.2-0.1-4.4-0.2-6.7c1.5-2.1,1.4-2.8-0.8-3.9c-0.1-2.9-0.1-5.7-0.2-8.6c1.6-2.5,1.4-3.5-0.7-4.9
		c-0.1-1.6-0.1-3.2-0.2-4.7c1.5-2,1.1-4.1,0.4-6.2c-0.1-0.3-0.8-0.4-1.2-0.6c-0.1-2.2-0.1-4.4-0.2-6.7c1.5-1.6,1.1-3.4,0.4-5.2
		c-0.1-0.3-0.8-0.4-1.2-0.6c-0.1-1.6-0.1-3.1-0.2-4.7c1.5-1.6,1.1-3.4,0.4-5.2c-0.1-0.3-0.8-0.4-1.2-0.6c-0.1-2.2-0.1-4.4-0.2-6.6
		c1.5-2.6,1.4-3.5-0.8-4.9c-0.1-1.6-0.1-3.1-0.2-4.7c1.4-1.4,1-3.2,0.7-4.8c-0.1-0.7-0.9-0.8-1.5-1c-0.1-2.2-0.1-4.4-0.2-6.6
		c1.5-2.6,1.4-3.6-0.8-4.9c0-1.6-0.1-3.2-0.1-4.7c1.4-1.4,1-3.2,0.7-4.8c-0.1-0.7-0.9-0.8-1.5-1c-0.1-1.6-0.1-3.1-0.2-4.7
		c1.5-2,1.2-4.1,0.4-6.2c-0.1-0.3-0.8-0.4-1.2-0.6c0-1.3-0.1-2.5-0.1-3.8c1.4-1.4,1-3.1,0.7-4.8c-0.1-0.7-0.9-0.8-1.5-1
		c-0.1-1.6-0.1-3.1-0.2-4.7c1.4-1.4,1-3.2,0.7-4.8c-0.1-0.7-0.9-0.8-1.5-1c0-1.6-0.1-3.2-0.1-4.7c1.4-1.4,1-3.2,0.6-4.8
		c-0.2-0.7-0.9-0.8-1.5-1c0-1.3-0.1-2.5-0.1-3.8c1.4-1.4,1-3.2,0.7-4.8c-0.1-0.7-0.9-0.8-1.5-1c-0.1-1.9-0.1-3.8-0.2-5.7
		c1.5-2.6,1.3-3.6-0.9-4.9c0-1.3-0.1-2.5-0.1-3.8c1.4-1.4,1-3.2,0.7-4.8c-0.1-0.7-0.9-0.8-1.5-1c-0.1-1.9-0.1-3.8-0.2-5.7
		c1.4-2.1,1.3-2.8-0.8-3.9c-0.1-1.9-0.1-3.8-0.2-5.7c1.5-2.5,1.4-3.5-0.8-4.9c0-0.9-0.1-1.9-0.1-2.8c1.6-1.8,0.9-3.8,0.6-5.8
		c-0.1-0.7-0.9-0.8-1.5-1c0-1.6-0.1-3.2-0.1-4.7c1.5-2.6,1.4-3.6-0.8-4.9c0-1.6-0.1-3.2-0.1-4.7c1.5-1.4,1-3.2,0.7-4.8
		c-0.1-0.7-0.9-0.8-1.5-1c0-1.6-0.1-3.2-0.1-4.7c1.4-1.5,1-3.2,0.6-4.9c-0.2-0.7-0.9-0.8-1.5-0.9c0-0.9-0.1-1.9-0.1-2.8
		c1.5-1.6,1.1-3.4,0.4-5.2c-0.1-0.3-0.8-0.4-1.2-0.6c-0.1-1.3-0.1-2.5-0.2-3.8c1.4-1.4,1-3.2,0.6-4.8c-0.2-0.7-0.9-0.8-1.5-1
		c0-1.6-0.1-3.2-0.1-4.7c1.4-1.4,1-3.2,0.6-4.8c-0.2-0.7-0.9-0.8-1.5-1c0-1.3-0.1-2.5-0.1-3.8c1.4-1.4,1-3.2,0.7-4.8
		c-0.1-0.7-0.9-0.8-1.5-1c-0.1-2.5-0.2-5.1-0.3-7.6c1.1-1.2,1-1.4-0.7-2c-0.1-2.5-0.2-5.1-0.2-7.6c1.4-1.7,1.3-2-0.7-3
		c-0.1-2.2-0.2-4.4-0.3-6.6c1.4-1.7,1.3-2-0.7-3c0.3-5.8-1.3-11.4-1.2-17.2c1.1-1.2,1.1-1.4-0.7-2c-0.1-3.4,0.1-6.9-0.5-10.3
		c-0.4-2.3-0.6-4.6-0.8-6.9c1.1-1.2,1.1-1.4-0.7-2c-0.1-5.4-0.3-10.9-1.2-16.2c1.5-2.1,1.3-2.8-0.7-3.9c-0.1-2.5-0.2-5.1-0.3-7.6
		c1.1-1.2,1.1-1.4-0.7-2c-0.1-2.5-0.2-5.1-0.2-7.6c1.1-1.2,1-1.4-0.7-2c-0.1-2.2-0.2-4.4-0.3-6.6c1.4-1.7,1.3-2-0.7-2.9
		c-0.1-3.1,0.1-6.3-0.4-9.3c-0.4-2.3-0.6-4.6-0.8-6.9c1.4-1.7,1.3-2-0.7-3c-0.1-2.5-0.2-5.1-0.3-7.6c1.4-1.7,1.3-2-0.8-2.9
		c-0.1-2.2-0.1-4.4-0.2-6.7c1.1-1.2,1.1-1.4-0.7-2c-0.1-2.2-0.2-4.4-0.2-6.6c1.4-1.7,1.3-2-0.7-3c-0.1-2.2-0.1-4.4-0.2-6.6
		c1.5-2.1,1.3-2.8-0.7-3.9c-0.1-2.2-0.2-4.4-0.3-6.6c1.1-1.2,1.1-1.4-0.7-2c-0.1-3.1,0.1-6.3-0.5-9.3c-0.5-2.6-0.6-5.2-0.7-7.9
		c1.5-2.1,1.4-2.8-0.8-3.9c-0.1-2.2-0.2-4.4-0.2-6.6c1.1-1.2,1-1.4-0.7-2c-0.1-2.5-0.2-5.1-0.2-7.6c1.4-1.7,1.3-2-0.7-3
		c-0.1-1.9-0.2-3.8-0.2-5.7c1.4-1.7,1.3-2-0.7-3c-0.1-3.4,0.1-6.9-0.5-10.3c-0.4-2.3-0.6-4.6-0.7-6.9c1.1-1.2,1-1.4-0.7-2
		c0.2-6.1-1.2-12.1-1.3-18.1c1.1-1.2,1.1-1.4-0.7-2c-0.1-3.4,0.1-6.9-0.5-10.3c-0.4-2.3-0.6-4.6-0.7-6.9c1.4-1.7,1.3-2-0.7-3
		c-0.1-2.2-0.2-4.4-0.3-6.6c1.1-1.2,1-1.4-0.7-2c0.2-5.8-1.1-11.4-1.2-17.2c1.1-1.2,1-1.4-0.7-2c-0.1-2.8-0.2-5.7-0.3-8.5
		c1.1-1.2,1-1.4-0.7-2c-0.1-2.2-0.2-4.4-0.3-6.6c1.1-1.2,1.1-1.4-0.7-2c0.2-5.8-1.4-11.4-1.3-17.2c1.4-1.7,1.3-2-0.7-3
		c-0.1-2.2-0.2-4.4-0.3-6.6c1.1-1.2,1.1-1.4-0.7-2c-0.1-2.9-0.2-5.7-0.3-8.6c1.1-1.2,1.1-1.4-0.7-2c-0.1-2.2-0.2-4.4-0.3-6.6
		c1.4-1.7,1.3-2-0.7-2.9c-0.1-2.5-0.2-5.1-0.2-7.6c1.1-1.2,1.1-1.4-0.7-2c-0.1-2.2-0.2-4.4-0.3-6.6c1.4-1.7,1.3-2-0.7-3
		c-0.1-2.2-0.2-4.4-0.2-6.6c1.4-1.7,1.3-2-0.8-2.9c-0.1-2.2-0.1-4.4-0.2-6.7c1.4-1.7,1.3-2-0.7-3c-0.1-2.5-0.2-5.1-0.3-7.6
		c1.1-1.2,1.1-1.4-0.7-2c-0.1-2.5-0.2-5.1-0.2-7.6c1.4-1.7,1.3-2-0.7-3c-0.1-1.9-0.1-3.8-0.2-5.7c1.5-2.1,1.4-2.8-0.7-3.9
		c-0.1-2.3,0.2-4.8-0.3-7c-0.7-3.1-0.7-6.2-0.9-9.3c1.4-1.7,1.3-2-0.7-3c-0.1-2.2-0.2-4.4-0.2-6.6c1.4-1.7,1.3-2-0.7-3
		c-0.4-5.7-0.8-11.5-1.2-17.2c1.1-1.2,1.1-1.4-0.7-2c-0.1-2.5-0.2-5.1-0.2-7.6c1.1-1.2,1.1-1.4-0.6-2c-0.1-2.2-0.2-4.4-0.3-6.6
		c1.1-1.2,1-1.4-0.7-2c-0.1-1.4-0.1-2.8-0.2-4.2c-0.1-3.3,0.1-6.5-0.9-9.7c-0.3-1-0.1-2.2-0.2-3.3c1.4-1.7,1.3-2-0.7-3
		c-0.1-2.7,0-5.4-0.3-8c-0.9-6.2-1.5-12.5-1.9-18.8c1.1-1.2,1.1-1.4-0.7-2c-0.1-2.5-0.2-5.1-0.2-7.6c1.1-1.2,1-1.4-0.6-2
		c-0.1-2.2-0.2-4.4-0.3-6.6c1.1-1.2,1-1.4-0.7-2c-0.1-2.8-0.2-5.7-0.3-8.5c1.4-1.7,1.3-2-0.7-3c-0.1-1.9-0.2-3.8-0.3-5.7
		c1.1-1.2,1.1-1.4-0.7-2c-0.1-2.8-0.2-5.7-0.3-8.5c1.1-1.2,1-1.4-0.7-2c-0.1-2.2-0.2-4.4-0.2-6.6c1.5-2.1,1.4-2.8-0.7-3.9
		c-0.1-1.9-0.1-3.8-0.2-5.7c1.1-1.2,1-1.4-0.7-2c-0.1-2.9-0.2-5.7-0.3-8.6c1.1-1.2,1-1.4-0.7-2c-0.1-1.9-0.2-3.8-0.2-5.7
		c1.5-2.1,1.3-2.8-0.8-3.9c-0.1-2.8,0.1-5.7-0.4-8.4c-0.5-2.6-0.6-5.2-0.8-7.9c1.4-1.7,1.3-2-0.7-3c-0.1-2.2-0.2-4.4-0.2-6.6
		c1.4-1.7,1.3-2-0.8-2.9c-0.1-2.2-0.1-4.4-0.2-6.7c1.4-1.7,1.3-2-0.7-3c-0.1-2.5-0.2-5.1-0.3-7.6c1.1-1.2,1-1.4-0.7-2
		c-0.1-2.5-0.2-5.1-0.2-7.6c1.4-1.7,1.3-2-0.7-3c-0.1-1.9-0.2-3.8-0.2-5.7c1.4-1.7,1.3-2-0.7-3c-0.1-2.5-0.2-5.1-0.3-7.6
		c1.1-1.2,1-1.4-0.7-2c-0.1-2.2-0.1-4.4-0.2-6.6c1.4-1.7,1.3-2-0.7-3c-0.1-2.2-0.2-4.4-0.3-6.6c1.4-1.7,1.3-2-0.7-3
		c-0.1-2.5-0.2-5.1-0.2-7.6c1.1-1.2,1-1.4-0.7-2c-0.1-2.2-0.2-4.4-0.3-6.6c1.4-1.7,1.3-2-0.7-3c-0.1-2.5-0.2-5.1-0.3-7.6
		c1.1-1.2,1-1.4-0.7-2c-0.1-2.2-0.2-4.4-0.3-6.6c1.1-1.2,1-1.4-0.7-2c-0.1-3.4,0.1-6.9-0.5-10.3c-0.4-2.3-0.6-4.6-0.8-6.9
		c1.1-1.2,1-1.4-0.7-2c-0.1-2.5-0.2-5.1-0.3-7.6c1.1-1.2,1-1.4-0.7-2c-0.3-3.8,0.2-7.6-1-11.3c-0.2-0.7-0.1-1.6-0.1-2.4
		c0-2,0.5-2.6,2.4-2.7c1.7-0.1,3.5-0.1,5.2-0.1c0.6,1.1,1.3,1.2,1.9,0.1c2.9,0,5.8,0.1,8.6,0.1c21.9,0,43.8,0.1,65.7,0.1
		c2.1,0,4.2,0.1,6.2,0.1c0.2,0.4,0.3,1.1,0.7,1.2c2.1,0.8,4.3,0.8,6.5,0c0.3-0.1,0.5-0.8,0.7-1.2c1.9-0.2,3.8-0.4,5.6-1
		c3.9-1.3,5.8-3.5,5.8-7.4c0-1.4,0-2.9-0.1-4.3c1.4-2.1,1.3-2.7-0.7-3.9c-0.1-1.6-0.2-3.1-0.3-4.7c1.1-1.2,1-1.4-0.6-2
		c-0.1-2.1-0.2-4.1-0.3-6.2C133.4,99.2,133.3,98.3,132.2,97.8z"/>
	<path class="st2" d="M1057.8,109.5c-216.1,0-432.1,0-648.2,0c-3.7,0-7.3-0.3-11,0.6c-0.9,0.2-1.9,0.1-2.9,0.1
		c-10.4,0-20.8,0-31.2,0c-0.6,0-1.3-0.1-1.9,0c-2.7,0.3-4.7-1.8-4.6-4.8c0.1-4.6,0-9.3-0.1-13.9c0-3.5,0.2-7-0.7-10.5
		c-0.4-1.5-0.2-3.2-0.1-4.8c0.1-1.5,0.9-2.3,2.5-2.4c1.3-0.1,2.6-0.1,3.8-0.1c20.5,0,41-0.6,61.4,0.2c21.7,0.9,43.5,0.5,65.2,0.7
		c21.6,0.2,43.2,0.1,64.8,0.1c21.8,0,43.5-0.6,65.2,0.2c24.9,0.9,49.9,0.4,74.8,0.6c25.1,0.2,50.2,0.1,75.3,0.1
		c24.9,0,49.9,0,74.8,0.1c62.4,0,124.7,0.1,187.1,0.1c3.2,0,6.4-0.1,9.5,0.6c1.7,0.4,3.5,0.1,5.3,0.1c126.8,0,253.7,0.1,380.5,0.1
		c154.7,0,309.3,0.1,464,0.1c3,0,6.1-0.2,9.1,0.6c1.2,0.3,2.5,0.1,3.8,0.1c13.9,0,27.8,0,41.7,0.1c1,0,1.9,0,2.9,0
		c5-0.2,5.3,1.3,4.9,5.8c-0.2,1.9-0.6,3.8-0.9,5.7c-1.2,8.2-2.6,16.4-3.6,24.6c-0.4,3.8-0.6,7.6-1.2,11.4c-0.7,4.7-1.2,9.5-1.8,14.2
		c-0.4,3.6-0.7,7.3-1.2,10.9c-0.5,3.8-0.9,7.6-1.5,11.4c-0.5,3-0.7,6-1,9c-0.4,3.6-1.1,7.2-1.4,10.9c-0.2,4.1-1.1,8.2-1.6,12.3
		c-0.5,3.8-0.8,7.6-1.2,11.4c-0.5,4.4-1,8.9-1.6,13.3c-0.5,3.3-0.6,6.7-1,10c-0.5,4.4-1.2,8.8-1.4,13.3c-0.1,4.1-0.9,8.2-1.5,12.3
		c-0.5,3.2-0.6,6.4-0.9,9.5c-0.5,4.3-1,8.5-1.3,12.8s-0.9,8.5-1.5,12.8c-0.5,3.5-0.8,7-1.1,10.5c-0.4,4.4-1,8.9-1.3,13.3
		c-0.3,4.1-1,8.2-1.6,12.3c-0.4,3-0.3,6-0.9,9c-0.8,4-0.6,8.3-1.3,12.3c-0.8,4.7-0.7,9.5-1.6,14.2c-0.7,3.7-0.8,7.6-1.2,11.4
		c-0.5,4.7-1.1,9.5-1.6,14.2c-0.4,3.8-0.8,7.6-1.2,11.4c-0.5,4.4-1,8.9-1.6,13.3c-0.4,3.2-0.6,6.3-1.1,9.5
		c-0.7,4.1-0.5,8.3-1.3,12.4s-0.6,8.3-1.5,12.3c-0.7,3.1-0.6,6.3-1.1,9.5c-0.7,4.4-0.7,8.9-1.2,13.3c-0.4,3.5-0.7,7-1.1,10.5
		c-0.6,5.4-1.4,10.7-1.8,16.1c-0.3,4.3-1.1,8.5-1.6,12.8c-0.4,3.3-0.7,6.7-1,10c-0.3,4.5-0.8,8.9-1.4,13.3
		c-0.6,4.4-0.3,8.9-1.5,13.3c-0.2,0.9-0.2,1.9-0.2,2.9c-0.1,4.8-0.9,9.5-1.7,14.2c-0.1,0.5-0.1,0.9-0.2,1.4
		c-0.4,4.8-0.7,9.5-1.1,14.3c-0.4,3.6-1,7.3-1.5,10.9c-0.1,0.5-0.3,0.9-0.2,1.4c0.3,4.7-1,9.2-1.2,13.8c-0.2,4.3-1,8.5-1.5,12.8
		c-0.1,0.5-0.2,0.9-0.2,1.4c-0.3,6.1-1.3,12-1.8,18.1c-0.4,4.4-1.2,8.8-1.3,13.3c-0.1,4.1-1,8.2-1.5,12.3c-0.1,0.6-0.2,1.3-0.2,1.9
		c-0.2,5.7-1.3,11.4-1.7,17.1c-0.3,4.3-1,8.6-1.3,12.9c-0.3,4.4-1,8.9-1.6,13.3c-0.4,3.3-0.7,6.7-1,10c-0.4,4.5-1.1,8.9-1.3,13.3
		c-0.2,4.1-1,8.2-1.5,12.3c-0.1,0.6-0.2,1.3-0.2,1.9c-0.2,5.7-1.1,11.4-1.8,17.1c-0.4,3.3-0.7,6.7-0.9,10
		c-0.5,7.2-1.7,14.2-2.3,21.4c-0.7,7-0.7,14-2.4,20.9c-0.1,0.5-0.2,1-0.1,1.4c0.3,4.8-0.8,9.5-1.3,14.3c-0.4,4.1-0.6,8.2-1.4,12.3
		c-0.8,4.2-0.8,8.6-1.3,12.8c-0.5,4.4-1,8.9-1.6,13.3c-0.5,3.5-0.5,7-1.1,10.5c-0.5,3.1-0.7,6.3-0.9,9.5c-0.5,7.2-1.8,14.2-2.3,21.4
		c-0.3,4.1-0.6,8.2-1.4,12.3c-0.8,4-0.8,8.2-1.2,12.4c-0.5,4.7-1.1,9.5-1.7,14.2c-0.4,3-0.6,6-0.9,9c-0.4,4.1-1.1,8.2-1.3,12.4
		c-0.3,4.3-1,8.5-1.5,12.8c-0.1,0.8-0.2,1.6-0.2,2.4c-0.2,5.6-1,11.1-1.8,16.6c-0.6,4.1-0.7,8.3-1.2,12.4c-0.5,4.7-1.2,9.5-1.7,14.2
		c-0.4,4.1-0.7,8.3-1.2,12.4c-0.5,4.7-1.1,9.5-1.7,14.2c-0.4,3-0.3,6-0.9,9c-0.8,4.2-0.8,8.6-1.3,12.8c-0.5,4.4-0.9,8.9-1.6,13.3
		c-0.5,3.2-0.5,6.3-0.9,9.5c-0.5,4.1-0.9,8.2-1.3,12.4c-0.5,4.6-1.1,9.2-1.6,13.8c-0.4,4-0.8,7.9-1.2,11.9c-0.1,0.8,0,1.6-0.2,2.4
		c-0.3,1.8-1.2,3.2-2,2.8c-1.3-0.7-0.8-1.9-0.9-3c-0.5-4.1-1.1-8.2-1.6-12.3c-0.1-0.6-0.3-1.3-0.2-1.9c0.3-4.8-0.8-9.6-1.3-14.3
		c-0.4-4.1-0.4-8.3-1.4-12.3c-0.8-3.2-0.6-6.7-0.9-10c-0.4-4.4-1.1-8.9-1.4-13.3c-0.2-4.1-0.9-8.2-1.4-12.3
		c-0.1-0.8-0.3-1.6-0.3-2.4c0-5.8-1.3-11.4-1.7-17.1c-0.3-4.6-1.1-9.2-1.3-13.8c-0.2-4.3-0.9-8.5-1.5-12.8c-0.1-0.6-0.3-1.3-0.3-1.9
		c0.2-4.8-0.8-9.5-1.3-14.3c-0.4-4.1-0.3-8.3-1.5-12.3c-0.2-0.8-0.2-1.6-0.2-2.4c-0.2-5.4-1-10.8-1.8-16.1c-0.5-3.2-0.3-6.3-0.9-9.5
		c-0.8-4.2-0.8-8.6-1.3-12.8c-0.5-4.4-0.9-8.9-1.6-13.3c-0.5-3.2-0.4-6.3-1-9.5c-0.8-4.4-1.1-8.9-1.2-13.3c-0.1-3.4-0.7-6.7-1.2-10
		c-0.7-4.4-0.2-9-1.5-13.3c-0.2-0.7-0.1-1.6-0.2-2.4c-0.1-5.1-0.9-10.2-1.7-15.2c-0.1-0.5-0.2-1-0.2-1.4c0.3-5.1-1.1-10.1-1.2-15.3
		c-0.1-3.6-0.9-7.3-1.4-10.9c-0.1-0.6-0.2-1.3-0.3-1.9c-0.2-5.9-1.1-11.7-1.8-17.6c-0.6-4.4-0.5-8.9-1.2-13.3
		c-0.9-5-0.8-10.2-1.5-15.2c-0.6-4.2-1-8.6-1.4-12.8c-0.5-4.6-0.5-9.2-1.5-13.8c-0.7-2.9-0.6-6-0.9-9c-0.4-4.3-1-8.6-1.3-12.8
		c-0.3-4.4-1-8.8-1.6-13.3c-0.1-0.6-0.2-1.3-0.2-1.9c-0.2-5.7-1.3-11.4-1.7-17.1c-0.3-4.3-0.9-8.6-1.3-12.8
		c-0.3-4.8-1.1-9.5-1.6-14.2c-0.4-3.3-0.5-6.7-1-10c-0.7-4.7-0.5-9.6-1.3-14.3c-0.8-4.6-0.6-9.2-1.6-13.8c-0.6-2.9-0.7-6-0.9-9
		c-0.3-4.6-1.1-9.2-1.3-13.8c-0.2-4.3-1-8.5-1.5-12.8c-0.1-0.5-0.2-1-0.2-1.4c0.2-4.8-1-9.5-1.2-14.3c-0.1-4.1-1-8.2-1.5-12.3
		c-0.1-0.5-0.1-0.9-0.2-1.4c-0.4-4.8-0.6-9.5-1.1-14.3c-0.4-4.1-1.1-8.2-1.6-12.3c-0.1-0.6-0.1-1.3-0.2-1.9c-0.3-6-1-12.1-1.8-18.1
		c-0.6-4.4-0.7-8.9-1.2-13.3c-0.5-4.6-1.1-9.2-1.6-13.7c-0.4-3.2-0.5-6.3-1-9.5c-0.7-4.4-0.7-8.9-1.2-13.3c-0.4-4.1-1-8.2-1.5-12.3
		c-0.4-3.5-0.6-7-1.1-10.5c-0.4-2.8-0.8-5.7-1-8.5c-0.3-5.6-1.4-11.1-1.8-16.6c-0.3-4.5-1-8.9-1.3-13.3c-0.3-4.3-1-8.5-1.6-12.8
		c-0.4-3-0.3-6-0.9-9c-0.8-4-0.8-8.2-1.3-12.4c-0.5-4.3-1-8.5-1.6-12.8c-0.1-0.8-0.3-1.6-0.3-2.4c0-5.3-0.8-10.5-1.8-15.7
		c-0.1-0.3-0.1-0.6-0.1-1c-0.2-6.7-1.1-13.3-1.9-20c-0.6-4.4-0.7-8.9-1.2-13.3c-0.4-3.6-0.9-7.3-1.4-10.9c-0.1-0.8-0.3-1.6-0.3-2.4
		c-0.1-5.8-1.4-11.4-1.8-17.1c-0.3-4.5-1-8.9-1.3-13.3c-0.3-4.3-1.1-8.5-1.6-12.8c-0.4-3.5-0.6-7-1.1-10.5
		c-0.8-5.4-1.3-10.7-1.9-16.1c-0.4-4-0.7-7.9-1.2-11.9c-0.4-3.6-1-7.3-1.5-10.9c-0.1-0.8-0.3-1.6-0.3-2.4
		c-0.4-8.3-1.8-16.5-2.7-24.7c-0.4-3.8-1-7.6-1.2-11.4c-0.2-3.3-0.4-6.7-1.2-10c-0.9-3.6-0.8-7.3-1.5-10.9c-1.1-5.9-1.4-12-2.2-18
		c-1.1-7.9-2.3-15.8-3.8-23.6c-1-5-4.4-10.2-12.1-10.1c-3.5,0-7,0-10.6,0c-214.6,0-429.3,0-643.9,0
		C1057.8,109.4,1057.8,109.5,1057.8,109.5z"/>
	<path class="st3" d="M194.8,24.1c-6.4,0-12.8-0.1-19.2-0.1c-11.8,0-23.6-0.1-35.5-0.1c-2.5-1.4-5.1-1.3-7.7-0.1
		c-0.9,0-1.9,0-2.8,0.1c-1.5,0.2-1.9,0.6-2,2c-0.1,1.2-0.1,2.5-0.1,3.7c-1.2,2-1.2,3.9,0.1,5.8c0.1,2.9,0.1,5.7,0.2,8.6
		c-0.1,1.4-0.5,2.8,0.7,3.9c0,0.3,0,0.6,0,0.9c-0.4,5.5,0.7,10.8,1.2,16.2c-0.1,2-0.8,4.1,0.7,5.9c0.1,2.5,0.1,5.1,0.2,7.6
		c-0.1,0.8,0,1.5,0.7,2c0.2,3,0.2,6,0.8,9c0.5,2.1,0.6,4.4-0.1,6.6c-0.8-0.3-1.3-0.9-1.4-1.8c-0.3-1.4-0.8-2.8-0.7-4.2
		c0.1-4.8-1.2-9.5-1.3-14.3c-0.2-4.9-0.5-9.9-1.6-14.7c-0.1-0.5-0.1-0.9-0.2-1.4c-0.4-5.6-0.5-11.2-1.2-16.7
		c-0.6-5.4-0.8-10.8-0.8-16.3c0-5.4,0.3-5.7,5.7-5.7c5,0,9.9-0.2,14.9,0.2c22.4,1.7,44.7,0.5,67.1,0.8c22.4,0.2,44.8-0.3,67.2,0.3
		c15.3,0.4,30.7,0.3,46,0.5c3.6,0.1,5.1,1.2,5.2,4.8c0.2,5.8,1.5,11.4,1.2,17.2c-0.1,1.9,0,3.8,0.6,5.7c0.2,0.4,0.2,0.9,0.2,1.4
		c0.3,5.1,0.6,10.2,0.9,15.3c0.1,2.2,0.3,4.4,0.9,6.6c1.2,5,1.9,10,2.1,15.1c0.1,1.9,0.2,3.8,0.6,5.7c0.7,3.6,1.6,7.2,1.4,10.9
		c0,0.9,0.2,1.9,0.5,2.8c0.9,2.8,1.3,5.6,1.3,8.5s1.2,5.6,2.3,8.3c0.9,2.2,2.7,3.4,5.3,3.4c3.8,0,7.7,0.1,11.5,0.1
		c63.5,0,127,0.1,190.5,0.1c4,0,8,0,11.9,0.5c4.1,0.5,8.3,0.3,12.5,0.3c140.4,0.1,280.8,0.1,421.3,0.2c39.5,1.4,79,0.5,118.5,0.6
		c39.5,0.2,79,0.1,118.5,0.1c143.1,0,286.3,0.1,429.4,0.1c3.8,0,7.7,0,11.5,0c2.5,0,5.1,0.3,7.6,0.6c5.4,0.5,10.9,0.8,16.2-0.2
		c2.9-0.5,5.7-0.4,8.6-0.3c3.6,0.2,5.4,2.2,5.6,5.9c0.2,3.2,0.1,6.4,0.2,9.6c0.2,5.6,0.6,11.1,1.5,16.7c0.2,1.1,0.3,2.2,0.2,3.3
		c-0.1,5.3,0.9,10.5,1.6,15.7c0.2,1.3,0.2,2.5,0.3,3.8c0.1,3.2-0.1,6.4,0.9,9.5c0.2,0.7,0.1,1.6,0.2,2.4c0.1,5.6,0.7,11.1,1.7,16.6
		c0.2,1.1,0.2,2.2,0.2,3.3c0,6.2,0.6,12.4,1.7,18.6c0.3,1.6,0.3,3.2,0.2,4.8c-0.1,5.6,0.7,11.1,1.6,16.7c0.1,0.5,0.2,0.9,0.2,1.4
		c-0.1,8.2,1.3,16.2,2.2,24.3c0.7,6,0.3,12.1,1.7,18.1c1,4.1,0.8,8.2,1.1,12.4c0.2,2.9,0.5,5.7,1.1,8.5c0.5,2.4,0.5,4.8,0.7,7.1
		c0.3,4.1,0.8,8.2,1.2,12.4c0.6,5.5,1.1,11.1,1.7,16.6c0.4,3.6,0.9,7.3,1.3,10.9c0.2,1.6,0.5,3.2,0.5,4.8c-0.1,5,1,9.8,1.5,14.7
		c0.1,0.6,0.3,1.3,0.3,1.9c-0.3,5.1,1,10.2,1.3,15.2c0.3,4.1,0.3,8.3,1.4,12.3c0.2,0.8,0.2,1.6,0.2,2.4c0,5.8,0.6,11.5,1.7,17.1
		c0.2,0.8,0.2,1.6,0.2,2.4c-0.1,5.9,0.9,11.8,1.7,17.6c0.2,1.1,0.2,2.2,0.2,3.3c0.1,2.4,0,4.8,0.8,7.1c0.3,1,0.3,2.2,0.3,3.3
		c0.1,4.6,0.7,9.2,1.6,13.8c0.2,0.9,0.3,1.9,0.3,2.9c-0.1,5.9,0.7,11.8,1.7,17.6c0.1,0.6,0.2,1.3,0.2,1.9c-0.1,5.9,1,11.7,1.8,17.6
		c0,0.3,0.1,0.6,0.1,1c0.1,6.2,1.4,12.4,1.8,18.5c0.3,5.1,1.5,10.1,1.4,15.3c-0.1,2.2,0.4,4.5,0.9,6.6c0.6,2.4,0.9,4.7,0.8,7.1
		c-0.2,4.7,0.9,9.2,1.4,13.8c0.2,2.1,0.4,4.1,0.6,6.2c0.4,4.4,0.9,8.9,1.3,13.3c0.5,5.2,1.5,10.4,1.7,15.7c0.1,3.5,0.8,7,1.2,10.4
		c0.2,1.4,0.5,2.9,0.5,4.3c-0.1,4.8,0.8,9.5,1.5,14.3c0.1,0.8,0.3,1.6,0.4,2.4c0.1,7.7,1.1,15.3,2.2,22.8c1,7.4,0.8,15,2.6,22.3
		c0.2,0.9,0.2,1.9,0.1,2.9c-0.2,4.8,0.9,9.5,1.4,14.3c0.2,1.9,0.4,3.8,0.5,5.7c0.4,4.9,0.9,9.8,1.4,14.8c0.5,5.2,1.7,10.4,1.6,15.7
		c-0.1,3.5,0.9,7,1.3,10.4c0.2,1.3,0.4,2.5,0.4,3.8c-0.1,5.5,0.8,10.8,1.7,16.2c0.1,0.6,0.2,1.3,0.2,1.9c0.1,7.7,1.5,15.2,2.2,22.8
		c0.3,4,0.7,7.9,1,11.9c0.1,1.9,0.4,3.8,0.8,5.7c0.7,3,1,6,0.9,9c0,4.2,1.1,8.2,1.4,12.3c0.1,0.8,0.3,1.6,0.3,2.4
		c-0.1,7.7,1.4,15.2,2.2,22.8c0.7,7.1,0.7,14.4,2.5,21.4c0.1,0.5,0.1,1,0.1,1.4c0,6.6,1.3,13,1.8,19.5c0.4,5.1,1.4,10.1,1.4,15.2
		c0,3.3,0.7,6.6,1.2,10c0.2,1.4,0.5,2.8,0.5,4.3c-0.1,4.7,0.9,9.2,1.4,13.8c0.2,1.7,0.5,3.5,0.5,5.2c-0.1,4.8,1.2,9.5,1.5,14.3
		c0.1,1.6,0.3,3.2,0.5,4.8c0.4,4.9,0.7,9.9,1.3,14.8c0.7,5.7,1.7,11.3,1.8,17.1c0.1,3.2,0.5,6.4,1.1,9.5c0.5,2.4,0.5,4.8,0.7,7.1
		c0.4,4.3,0.9,8.6,1.3,12.8c0.5,5.1,1.5,10.1,1.6,15.2c0.1,3.5,0.7,7,1.2,10.5c0.1,0.5,0.4,0.9,0.4,1.4c0,7,1.4,14,2,20.9
		c0.5,5.9,1.2,11.7,1.8,17.6c0.5,4.7,0.9,9.5,1.3,14.3c0.4,3.7,0.6,7.3,1.2,10.9c0.3,1.9,0.6,3.8,0.6,5.7c-0.1,4.3,0.7,8.6,1.4,12.8
		c0.3,1.7,0.6,3.5,0.5,5.2c-0.2,5,1,9.8,1.4,14.8c0.4,5.4,1.4,10.7,1.7,16.2c0.2,3.7,0.8,7.3,1.2,10.9c0.2,1.4,0.5,2.8,0.5,4.3
		c-0.1,4.3,0.4,8.6,1.2,12.9c0.5,2.7,0.5,5.4,0.8,8.1c0.4,4.3,1,8.5,1.4,12.8c0.2,1.4,0.3,2.9,0.3,4.3c0.1,1.8-0.9,3.1-2.5,3.7
		c-1.3,0.5-2.7,1-4.1,1.1c-3,0.1-6.1,0.3-9.1-0.1s-6-0.5-9.1-0.5c-7.7-0.1-15.4-0.1-23-0.1c-4,0-8,0.1-11.9-0.7
		c-2.3-0.4-4.8-0.2-7.2-0.2c-100-0.1-199.9-0.2-299.9-0.2c-99.6,0-199.3-0.1-298.9-0.1c-31.6-1.4-63.3-0.5-94.9-0.6
		c-31.8-0.2-63.7,0-95.5,0c-31.7,0-63.3,0-95,0c-62.7,0-125.4,0-188.1,0c-31.2,1.4-62.3,0.5-93.5,0.7c-31,0.2-62.1,0.1-93.1,0.1
		c-119.2,0.1-238.3,0.1-357.5,0.2c-1.8,0-3.5,0-5.3-0.1c-2-0.2-2.8-1-3-3.1c-0.1-0.5-0.1-1-0.1-1.4c0.3-4-0.9-7.9-1.3-11.9
		c-0.2-2.2-0.5-4.4-0.5-6.7c-0.1-3.3,0.1-6.7-0.8-10c-0.4-1.5-0.3-3.2-0.2-4.8c0.2-5.3-0.5-10.6-1.1-15.7c-0.5-4.3-0.6-8.6-0.9-12.9
		c-0.3-3.7-0.8-7.3-1.2-10.9c-0.2-1.4-0.5-2.8-0.5-4.3c0.1-6.1-0.9-12.1-1.7-18.1c0-0.3-0.1-0.6-0.1-1c0.3-5.9-1.1-11.7-1.3-17.7
		c-0.1-4.3-1-8.5-1.4-12.8s-0.8-8.6,0-12.9c0.5,0,1.1,0.1,1.6,0.1c0,1.6,0.1,3.2,0.1,4.7c0,1.3-0.1,2.5-0.1,3.8
		c0,0.8,0.2,1.5,0.9,2.1c0.1,1.6,0.1,3.1,0.2,4.7c0,2-0.8,4.1,0.8,5.8c0,1.3,0.1,2.5,0.1,3.8c0,1.6-0.1,3.1-0.1,4.7
		c0,0.8,0.2,1.5,0.9,2.1c0.1,1.6,0.1,3.1,0.2,4.7c0,2-0.8,4.1,0.8,5.8c0,1.6,0.1,3.2,0.1,4.7c0,1.7-0.7,3.4,0.8,4.9
		c0.1,2.2,0.1,4.4,0.2,6.6c0,2-0.8,4.1,0.8,5.8c0.1,1.6,0.1,3.1,0.2,4.7c0,1.7-0.7,3.4,0.8,4.9c0.1,2.2,0.1,4.4,0.2,6.6
		c0,2-0.8,4.1,0.8,5.8c0.1,1.6,0.1,3.1,0.2,4.7c0,2-0.8,4.1,0.8,5.8c0.1,2.2,0.1,4.4,0.1,6.7c0,1.6-0.1,3.1-0.1,4.7
		c0,0.8,0.2,1.5,0.9,2.1c0.1,1.6,0.1,3.2,0.2,4.7c-0.1,1.7-0.7,3.4,0.7,4.9c0.1,2.9,0.1,5.7,0.2,8.6c-0.1,1.4-0.5,2.8,0.8,3.9
		c0.1,2.2,0.1,4.4,0.2,6.7c0,1.1,0.6,1.8,1.7,2c1.9,0.4,3.6,1,5.6,0.9c8.4-0.1,16.8-0.1,25.2-0.1c1.8,0,3.5,0.1,5.3,0.1
		c110.2,0,220.3,0,330.5-0.1c1.3,0,2.6,0,3.8,0c0.8,0,1.6-0.2,2.1-0.9c319.9,0,639.8,0,959.6,0c1.8,1.6,4,0.8,6,0.8
		c79.1,0.1,158.2,0.1,237.4,0.1c1.8,0,3.5-0.1,5.3-0.1c16.9,0.1,33.9,0.1,50.8,0.2c0.6,0.7,1.3,0.9,2.1,0.9c4.4,0,8.9-0.1,13.3-0.2
		c10.5,0.1,21.1,0.2,31.6,0.3c1.6,1.2,3.2,1.3,4.8,0c1.2-0.2,1.9-0.9,1.9-2.2c0-2.5-0.1-4.9-0.1-7.4c0.1-1.4,0.6-2.8-0.8-3.9
		c-0.1-1.6-0.1-3.1-0.2-4.7c0.2-1.1,0.3-2.2-0.7-3c-0.1-2.2-0.2-4.4-0.2-6.6c0.1-0.8,0-1.5-0.7-2c-0.1-2.5-0.2-5.1-0.3-7.6
		c0.1-1.4,0.6-2.8-0.8-3.9c-0.1-1.3-0.1-2.5-0.2-3.8c0.1-1.1,0.3-2.2-0.8-2.9c-0.1-2.5-0.2-5.1-0.3-7.6c0.2-1.1,0.3-2.2-0.7-3
		c-0.1-1.9-0.2-3.8-0.2-5.7c0.1-1.4,0.6-2.8-0.7-3.9c-0.1-1.9-0.1-3.8-0.2-5.7c0.1-1.1,0.3-2.2-0.8-3c-0.1-1.9-0.2-3.8-0.2-5.7
		c0.2-1.1,0.3-2.2-0.7-3c-0.1-2.2-0.1-4.4-0.2-6.6c0.1-1.1,0.3-2.2-0.8-3c-0.1-2.2-0.1-4.4-0.2-6.6c0.1-1.1,0.3-2.2-0.7-3
		c-0.1-2.2-0.2-4.4-0.3-6.6c0.2-0.8,0-1.5-0.7-2c-0.1-2.5-0.2-5.1-0.2-7.6c0.1-1.4,0.6-2.8-0.8-3.9c-0.1-1.3-0.1-2.5-0.2-3.8
		c0-1.7,0.7-3.4-0.8-4.9c-0.1-1.9-0.1-3.8-0.2-5.7c0.2-1.1,0.3-2.2-0.7-3c-0.1-2.2-0.2-4.4-0.3-6.6c0.2-0.8,0.1-1.5-0.7-2
		c-0.1-1.9-0.1-3.8-0.2-5.7c0-1.4,0.5-2.8-0.8-3.9c-0.1-2.2-0.1-4.4-0.2-6.6c0.2-0.8,0-1.5-0.7-2c-0.1-2.5-0.2-5-0.3-7.6
		c0.2-0.8,0.1-1.5-0.7-2c-0.1-2.2-0.1-4.4-0.2-6.6c0.1-1.4,0.5-2.8-0.8-3.9c-0.1-1.9-0.2-3.8-0.2-5.7c0.2-1.1,0.4-2.2-0.7-3
		c-0.1-2.2-0.1-4.4-0.2-6.6c0.2-1.1,0.3-2.2-0.7-3c-0.1-1.9-0.1-3.8-0.2-5.7c0.1-1.4,0.5-2.8-0.8-3.9c-0.1-1.9-0.1-3.8-0.2-5.7
		c0.1-0.8,0-1.5-0.7-2c-0.1-2.5-0.2-5.1-0.3-7.6c0.2-1.1,0.3-2.2-0.7-3c-0.1-1.9-0.2-3.8-0.2-5.7c0.2-1.1,0.3-2.2-0.7-3
		c-0.1-1.9-0.1-3.8-0.2-5.7c0-1.7,0.7-3.4-0.8-4.9c-0.1-1.9-0.2-3.8-0.2-5.7c0.2-1.1,0.4-2.2-0.7-3c-0.1-2.2-0.1-4.4-0.2-6.6
		c0.1-1.4,0.6-2.8-0.8-3.9c-0.1-1.6-0.1-3.1-0.2-4.7c0.1-1.4,0.6-2.8-0.7-3.9c-0.1-2.2-0.2-4.4-0.2-6.6c0.2-1.1,0.3-2.2-0.8-3
		c-0.1-2.2-0.2-4.4-0.2-6.6c0.2-1.1,0.4-2.2-0.7-3c-0.1-1.9-0.2-3.8-0.2-5.7c0.2-1.1,0.4-2.2-0.7-3c-0.1-2.2-0.1-4.4-0.2-6.6
		c0.1-1.4,0.6-2.8-0.8-3.9c-0.1-1.9-0.2-3.8-0.2-5.7c0.2-1.1,0.4-2.2-0.7-3c-0.1-1.9-0.1-3.8-0.2-5.7c0.1-1.4,0.5-2.8-0.8-3.9
		c-0.1-1.9-0.1-3.8-0.2-5.7c0.1-1.4,0.6-2.8-0.8-3.9c-0.1-1.9-0.1-3.8-0.2-5.7c0.2-1.1,0.3-2.2-0.7-3c-0.1-2.2-0.1-4.4-0.2-6.6
		c0.1-1.4,0.6-2.8-0.8-3.9c-0.1-1.6-0.1-3.1-0.2-4.7c0.2-1.1,0.4-2.2-0.7-3c-0.1-2.5-0.2-5.1-0.2-7.6c0.2-0.8,0.1-1.5-0.7-2
		c-0.1-1.9-0.2-3.8-0.2-5.7c0.1-1.4,0.6-2.8-0.8-3.9c-0.1-2.2-0.1-4.4-0.2-6.6c0.2-0.8,0-1.5-0.7-2c-0.1-2.5-0.2-5.1-0.3-7.6
		c0.2-1.1,0.4-2.2-0.7-3c-0.1-1.6-0.1-3.1-0.2-4.7c0.1-1.4,0.6-2.8-0.8-3.9c-0.1-2.2-0.1-4.4-0.2-6.6c0.2-0.8,0.1-1.5-0.7-2
		c-0.1-2.5-0.2-5-0.3-7.6c0.2-0.8,0.1-1.5-0.6-2c-0.1-2.2-0.1-4.4-0.2-6.6c0.1-1.4,0.6-2.8-0.8-3.9c-0.1-1.6-0.1-3.1-0.2-4.7
		c0.1-1.4,0.6-2.8-0.7-3.9c-0.1-1.9-0.1-3.8-0.2-5.7c0.2-0.8,0-1.5-0.7-2c-0.1-2.5-0.2-5.1-0.3-7.6c0.2-1.1,0.4-2.2-0.7-3
		c-0.1-1.9-0.2-3.8-0.2-5.7c0.2-1.1,0.3-2.2-0.7-3c-0.1-2.5-0.2-5.1-0.3-7.6c0.2-1.1,0.4-2.2-0.7-3c-0.1-1.9-0.2-3.8-0.3-5.7
		c0.2-1.1,0.4-2.2-0.7-3c-0.1-2.2-0.1-4.4-0.2-6.6c0.2-0.8,0-1.5-0.7-2c-0.1-2.2-0.2-4.4-0.3-6.6c0.2-1.1,0.4-2.2-0.7-3
		c-0.1-2.2-0.1-4.4-0.2-6.6c0.2-0.8,0-1.5-0.7-2c-0.1-2.2-0.2-4.4-0.2-6.6c0.1-1.4,0.6-2.8-0.7-3.9c-0.1-1.9-0.2-3.8-0.2-5.7
		c0.2-0.8,0-1.5-0.7-2c-0.1-2.5-0.2-5.1-0.2-7.6c0.2-1.1,0.4-2.2-0.7-3c-0.1-1.6-0.1-3.1-0.2-4.7c0.1-1.4,0.5-2.8-0.8-3.9
		c-0.1-2.2-0.1-4.4-0.2-6.6c0.2-1.1,0.3-2.2-0.8-3c-0.1-2.2-0.2-4.4-0.3-6.6c0.2-1.1,0.4-2.2-0.7-3c-0.1-1.9-0.1-3.8-0.2-5.7
		c0.1-1.1,0.3-2.2-0.8-3c-0.1-1.9-0.1-3.8-0.2-5.7c0.2-1.1,0.3-2.2-0.7-3c-0.1-2.2-0.2-4.4-0.3-6.6c0.2-0.8,0.1-1.5-0.7-2
		c-0.1-2.2-0.1-4.4-0.2-6.6c0.1-1.4,0.6-2.8-0.8-3.9c-0.1-1.6-0.1-3.1-0.2-4.7c0.2-1.1,0.3-2.2-0.7-3c-0.1-2.5-0.2-5.1-0.2-7.6
		c0.2-1.1,0.4-2.2-0.7-3c-0.1-1.9-0.2-3.8-0.2-5.7c0.1-1.4,0.6-2.8-0.7-3.9c-0.1-1.9-0.1-3.8-0.2-5.7c0.2-0.8,0-1.5-0.7-2
		c-0.1-2.2-0.2-4.4-0.2-6.6c0.2-1.1,0.4-2.2-0.7-3c-0.1-1.9-0.1-3.8-0.2-5.7c0.1-1.1,0.3-2.2-0.8-3c-0.1-2.2-0.1-4.4-0.2-6.6
		c0.2-1.1,0.3-2.2-0.7-3c-0.1-2.2-0.2-4.4-0.3-6.6c0.2-0.8,0.1-1.5-0.7-2c-0.1-2.2-0.1-4.4-0.2-6.6c0.1-1.4,0.6-2.8-0.8-3.9
		c-0.1-1.9-0.2-3.8-0.2-5.7c0.2-1.1,0.4-2.2-0.7-3c-0.1-2.2-0.1-4.4-0.2-6.6c0.2-0.8,0-1.5-0.7-2c-0.1-2.2-0.2-4.4-0.2-6.6
		c0.1-1.4,0.6-2.8-0.7-3.9c-0.1-1.9-0.1-3.8-0.2-5.7c0.1-1.1,0.3-2.2-0.8-3c-0.1-2.2-0.1-4.4-0.2-6.6c0.2-1.1,0.4-2.2-0.7-3
		c-0.1-2.2-0.2-4.4-0.3-6.6c0.2-1.1,0.4-2.2-0.7-3c-0.1-2.2-0.1-4.4-0.2-6.6c0.1-1.4,0.6-2.8-0.8-3.9c-0.1-1.9-0.2-3.8-0.2-5.7
		c0.2-1.1,0.4-2.2-0.7-3c-0.1-2.5-0.2-5.1-0.2-7.6c0.2-1.1,0.4-2.2-0.7-3c-0.1-1.9-0.1-3.8-0.2-5.7c0-1.7,0.7-3.4-0.8-4.9
		c-0.1-1.9-0.1-3.8-0.2-5.7c0.2-0.8,0-1.5-0.7-2c-0.1-2.8-0.2-5.7-0.3-8.5c0.2-1.1,0.4-2.2-0.7-3c-0.1-1.9-0.2-3.8-0.2-5.7
		c0.1-1.4,0.6-2.8-0.7-3.9c-0.1-1.9-0.1-3.8-0.2-5.7c0.2-1.1,0.3-2.2-0.7-3c-0.1-2.5-0.2-5-0.3-7.6c0.2-1.1,0.4-2.2-0.7-3
		c-0.1-1.9-0.1-3.8-0.2-5.7c0.1-1.4,0.5-2.8-0.8-3.9c-0.1-1.9-0.1-3.8-0.2-5.7c0.1-1.4,0.6-2.8-0.8-3.9c-0.1-1.9-0.1-3.8-0.2-5.7
		c0.2-1.1,0.3-2.2-0.7-3c-0.1-2.2-0.1-4.4-0.2-6.6c0.1-1.4,0.6-2.8-0.8-3.9c-0.1-1.6-0.2-3.1-0.2-4.7c0.2-1.1,0.4-2.2-0.7-3
		c-0.1-2.5-0.1-5.1-0.2-7.6c0.2-1.1,0.3-2.2-0.8-3c-0.1-1.9-0.1-3.8-0.2-5.7c0.1-1.4,0.6-2.8-0.7-3.9c-0.1-1.6-0.1-3.2-0.2-4.7
		c0.1-1.1,0.3-2.2-0.8-3c-0.1-2.5-0.2-5.1-0.2-7.6c0.2-1.1,0.4-2.2-0.7-3c-0.1-1.9-0.2-3.8-0.3-5.7c0.2-1.1,0.4-2.2-0.7-3
		c-0.1-2.2-0.1-4.4-0.2-6.6c0.2-1.1,0.3-2.2-0.7-3c-0.1-2.2-0.2-4.4-0.3-6.6c0.2-0.8,0.1-1.5-0.7-2c-0.1-2.2-0.1-4.4-0.2-6.6
		c0.1-1.4,0.6-2.8-0.8-3.9c-0.1-1.9-0.1-3.8-0.2-5.7c0.1-1.4,0.6-2.8-0.7-3.9c-0.1-2.2-0.1-4.4-0.2-6.6c0.2-0.8,0-1.5-0.7-2
		c-0.1-2.5-0.2-5.1-0.2-7.6c0.1-1.4,0.6-2.8-0.7-3.9c-0.1-2.2-0.1-4.4-0.2-6.6c0.1-1.4,0.5-2.8-0.8-3.9c-0.1-3.2-0.2-6.3-0.2-9.5
		c0.2-1.1,0.4-2.2-0.7-3c-0.1-2.5-0.2-5-0.3-7.6c0.2-1.1,0.4-2.2-0.7-3c-0.1-2.2-0.1-4.4-0.2-6.6c0-1.7,0.7-3.4-0.8-4.9
		c-0.1-1.9-0.1-3.8-0.2-5.7c0.1-1.4,0.6-2.8-0.7-3.9c-0.1-2.5-0.2-5.1-0.3-7.6c0.2-0.8,0.1-1.5-0.7-2c-0.1-2.2-0.1-4.4-0.2-6.6
		c0.1-1.4,0.6-2.8-0.8-3.9c-0.1-2.2-0.2-4.4-0.3-6.6c0.2-1.1,0.4-2.2-0.7-3c-0.1-4.4-0.2-8.9-0.2-13.4c0.1-1.7,0.7-3.4-0.7-4.9
		c-0.6-3.4-0.9-3.7-3.6-3.8c-1.6-0.1-3.2,0-4.8,0c-11.6,0-23.2,0-34.8,0c-0.6-0.6-1.3-0.9-2.1-0.9c-1.3,0-2.6,0-3.8,0
		c-83.8,0-167.5,0-251.3,0c-1.6,0-3.2,0.1-4.8,0.2c-2.2,0-4.5-0.1-6.7-0.1c-209,0-418-0.1-627.1-0.1c-1.8,0-3.5,0-5.3,0
		c-1.6-1.5-3.7-0.8-5.5-0.8c-62.2-0.1-124.3-0.1-186.5-0.1c-1.6,0-3.2,0.1-4.8,0.1c-1,0-1.9-0.1-2.9-0.1c-34.2,0-68.4,0-102.6,0
		c-1.6-1.6-3.6-0.9-5.5-0.9c-33.2-0.1-66.5-0.1-99.7-0.1c-1.4,0-2.9,0.1-4.3,0.1s-2.9-0.2-4.3-0.1c-4.4,0.4-6.8-2.1-8.4-5.6
		c-1.1-2.3-1.8-4.7-1.7-7.3c0-0.8-0.1-1.6-0.1-2.4c0.2-1.4,0.7-2.8-0.7-3.9c-0.8-2.5-1-5-1.1-7.6c0.2-1.1,0.4-2.2-0.7-3
		c-0.1-1.2-0.2-2.5-0.2-3.7c0.2-1.1,0.4-2.2-0.7-3c-0.1-1.3-0.1-2.5-0.2-3.8c0.1-1.1,0.3-2.2-0.8-3c-0.1-1.6-0.1-3.1-0.2-4.7
		c0.2-1.1,0.3-2.2-0.7-3c-0.1-1.6-0.1-3.2-0.2-4.7c0.1-0.8,0-1.5-0.8-2c-0.1-2.2-0.2-4.4-0.3-6.6c0.1-1.4,0.6-2.8-0.7-3.9
		c-0.1-2.5-0.1-5.1-0.2-7.6c0.2-1.1,0.4-2.2-0.7-3c-0.1-2.5-0.2-5.1-0.2-7.6c0.1-1.7,0.7-3.4-0.7-4.9c0-1.9-0.1-3.8-0.1-5.7
		c0-1.7,0-3.4,0-5c0-1.1-0.7-1.6-1.6-1.9c-0.2-0.8-0.7-1.5-1.5-1.6c-1.4-0.1-2.9-0.1-4.3-0.1c-18.9,0-37.8,0-56.7,0
		c-1.5-1.4-3.3-0.8-5-0.8c-20.1-0.1-40.2-0.1-60.3-0.1C198,23.9,196.4,24,194.8,24.1z"/>
	<path class="st3" d="M121,1091.3c0,1.3,0.1,2.5,0.1,3.8c-0.4,1.3,0.4,2.7-0.8,3.8c-0.3-0.3-0.8-0.7-0.9-1c-0.3-3.3-1.4-6.6-1.2-10
		c0.2-5.5-0.8-10.8-1.5-16.2c-0.1-0.6-0.3-1.3-0.3-1.9c0.1-8.3-1.4-16.5-2.2-24.8c-0.7-7.4-0.5-15-2.5-22.3
		c-0.2-0.9-0.2-1.9-0.1-2.9c0.1-5.6-0.8-11.1-1.7-16.6c-0.2-1.1-0.2-2.2-0.2-3.3c-0.1-2.5,0-5.1-0.8-7.6c-0.4-1.2-0.2-2.5-0.3-3.8
		c0-4.6-0.7-9.2-1.5-13.8c-0.2-1.1-0.3-2.2-0.3-3.3c0.1-5.8-0.7-11.5-1.7-17.1c-0.1-0.6-0.2-1.3-0.2-1.9c0-6.7-1.3-13.3-1.8-20
		c-0.4-5.6-1.5-11.1-1.4-16.7c0-3.2-0.4-6.4-1-9.5c-0.5-2.4-0.7-4.7-0.7-7.1c0-4.5-0.6-8.9-1.4-13.3c-0.3-1.4-0.4-2.9-0.4-4.3
		c0.1-5.5-0.9-10.8-1.6-16.2c-0.1-0.8-0.3-1.6-0.3-2.4c0-5.9-1.3-11.7-1.7-17.6c-0.4-5.4-1.7-10.7-1.4-16.2c0.2-3.5-1-6.9-1.3-10.4
		c-0.1-1.1-0.4-2.2-0.4-3.3c0.1-6.1-1.3-12-1.7-18.1c-0.3-5.4-1.4-10.7-1.5-16.2c0-3.3-0.6-6.7-1.2-10c-0.3-1.7-0.6-3.5-0.5-5.2
		c0.1-5.3-0.8-10.5-1.6-15.7c-0.1-0.5-0.3-0.9-0.2-1.4c0.3-5.6-1.1-11.1-1.3-16.7c-0.1-3.3-0.4-6.7-1-10c-0.6-2.9-0.6-5.7-0.8-8.6
		c-0.3-3.8-0.6-7.6-1.2-11.4c-0.3-1.7-0.6-3.5-0.6-5.2c0.1-5.5-0.7-10.8-1.6-16.2c-0.2-0.9-0.3-1.9-0.2-2.9
		c0.1-5.9-0.9-11.8-1.8-17.6c0-0.3-0.1-0.6-0.1-1c0.3-5.5-1.3-10.8-1.3-16.2c0-2.8-0.4-5.8-1-8.5c-0.6-2.5-0.8-5.1-0.7-7.6
		c0.1-4.5-1-8.9-1.3-13.3c-0.1-1.6-0.6-3.2-0.5-4.7c0.2-4.8-1.1-9.5-1.4-14.3c-0.1-1.9-0.4-3.8-0.5-5.7c-0.4-4.9-0.9-9.8-1.4-14.7
		c-0.5-5.2-1.5-10.4-1.6-15.7c-0.1-3.8-0.8-7.6-1.3-11.4c-0.1-0.8-0.4-1.6-0.4-2.4c0.3-5.5-1.1-10.8-1.3-16.2
		c-0.1-3.6-0.9-7.3-1.4-10.9c-0.1-1.1-0.3-2.2-0.3-3.3c-0.1-5.4-0.8-10.8-1.7-16.2c-0.2-1.1-0.3-2.2-0.2-3.3
		c0.2-4.8-0.6-9.6-1.4-14.3c-0.4-2.2-0.4-4.4-0.6-6.7c-0.5-5.6-1.1-11.1-1.6-16.6c-0.5-4.9-0.9-9.8-1.4-14.7
		c-0.4-4.3-0.9-8.6-1.4-12.8c-0.1-1.3-0.4-2.5-0.4-3.8c0.1-5.3-0.8-10.5-1.6-15.7c-0.2-1.1-0.3-2.2-0.3-3.3
		c0.1-5.8-0.9-11.4-1.7-17.1c-0.1-0.5-0.1-1-0.1-1.4c-0.7-7.3-1-14.6-2.1-21.9c-0.7-4.6-0.8-9.2-1.1-13.8c-0.1-1.4-0.5-2.8-0.7-4.2
		c-0.6-4.1-1.2-8.2-1.1-12.4c0.1-3.5-1-6.9-1.2-10.4c-0.4-6-1.4-12-1.7-18.1c-0.2-3.2-0.6-6.4-1.2-9.5c-0.3-1.7-0.6-3.5-0.5-5.2
		c0.2-5-0.8-9.9-1.4-14.8c-0.2-1.7-0.6-3.5-0.5-5.2c0.2-5-1.1-9.8-1.4-14.8c-0.3-5.9-1.4-11.7-1.7-17.6c-0.2-3.2-0.6-6.4-1.2-9.5
		c-0.4-1.9-0.6-3.8-0.5-5.7c0.1-5.1-1.1-10.1-1.5-15.2c-0.1-0.6-0.3-1.3-0.3-1.9c0.3-5.6-1.2-11.1-1.3-16.7
		c-0.1-3.2-0.5-6.4-1.1-9.5c-0.3-1.7-0.6-3.4-0.6-5.2c0-5.1-0.7-10.2-1.6-15.2c-0.2-0.9-0.3-1.9-0.3-2.9c0-5.6-1-11.1-1.7-16.6
		c-0.1-0.6-0.1-1.3-0.2-1.9c-0.1-2.7-0.2-5.4-0.8-8.1c-0.8-3.4,0.8-5.2,4.2-5.4c0.8,0,1.6,0,2.4,0c16.8,0.1,33.6-0.3,50.4,0.3
		c12.1,0.5,24.3,0.2,36.4,0.7c4,0.1,8,0,11.9-1c3.1-0.8,4.9-2.6,4.7-5.7c-0.2-3.7-0.5-7.3-1.2-10.9c-0.7-3.7-0.6-7.3-0.6-11
		c0-0.4,0.4-0.8,0.6-1.2c1.1,0.4,1.2,1.4,1.2,2.4c0.1,2.1,0.2,4.1,0.3,6.2c-0.2,0.8-0.1,1.5,0.6,2c0.1,1.6,0.2,3.1,0.3,4.7
		c-0.1,1.4-0.6,2.8,0.7,3.9c0,1.4,0.1,2.9,0.1,4.3c0,4-1.9,6.2-5.8,7.4c-1.9,0.6-3.7,0.8-5.6,1c-2.6-0.3-5.2-0.3-7.9,0
		c-2.1,0-4.2-0.1-6.2-0.1c-21.9,0-43.8-0.1-65.7-0.1c-2.9,0-5.8-0.1-8.6-0.1c-0.6-0.9-1.3-0.9-1.9-0.1c-1.7,0-3.5,0-5.2,0.1
		c-1.9,0.1-2.4,0.7-2.4,2.7c0,0.8-0.1,1.6,0.1,2.4c1.2,3.7,0.7,7.5,1,11.3c-0.1,0.8,0,1.5,0.7,2c0.1,2.5,0.2,5.1,0.3,7.6
		c-0.2,0.8-0.1,1.5,0.7,2c0.1,2.3,0.4,4.6,0.8,6.9c0.5,3.4,0.4,6.8,0.5,10.3c-0.2,0.8-0.1,1.5,0.7,2c0.1,2.2,0.2,4.4,0.3,6.6
		c-0.2,0.8-0.1,1.5,0.7,2c0.1,2.5,0.2,5.1,0.3,7.6c-0.2,1.1-0.3,2.2,0.7,3c0.1,2.2,0.2,4.4,0.3,6.6c-0.2,0.8-0.1,1.5,0.7,2
		c0.1,2.5,0.2,5.1,0.2,7.6c-0.1,1.1-0.3,2.2,0.7,3c0.1,2.2,0.2,4.4,0.3,6.6c-0.2,1.1-0.3,2.2,0.7,3c0.1,2.2,0.1,4.4,0.2,6.6
		c-0.1,0.8,0,1.5,0.7,2c0.1,2.5,0.2,5.1,0.3,7.6c-0.2,1.1-0.3,2.2,0.7,3c0.1,1.9,0.2,3.8,0.2,5.7c-0.1,1.1-0.3,2.2,0.7,3
		c0.1,2.5,0.2,5.1,0.2,7.6c-0.1,0.8,0,1.5,0.7,2c0.1,2.5,0.2,5.1,0.3,7.6c-0.2,1.1-0.3,2.2,0.7,3c0.1,2.2,0.1,4.4,0.2,6.7
		c-0.1,1.1-0.3,2.2,0.8,2.9c0.1,2.2,0.2,4.4,0.2,6.6c-0.2,1.1-0.3,2.2,0.7,3c0.1,2.6,0.2,5.2,0.8,7.9c0.6,2.7,0.3,5.6,0.4,8.4
		c-0.1,1.4-0.5,2.8,0.8,3.9c0.1,1.9,0.2,3.8,0.2,5.7c-0.2,0.8-0.1,1.5,0.7,2c0.1,2.9,0.2,5.7,0.3,8.6c-0.1,0.8,0,1.5,0.7,2
		c0.1,1.9,0.1,3.8,0.2,5.7c-0.1,1.4-0.5,2.8,0.7,3.9c0.1,2.2,0.2,4.4,0.2,6.6c-0.1,0.8,0,1.5,0.7,2c0.1,2.8,0.2,5.7,0.3,8.5
		c-0.2,0.8-0.1,1.5,0.7,2c0.1,1.9,0.2,3.8,0.3,5.7c-0.1,1.1-0.3,2.2,0.7,3c0.1,2.8,0.2,5.7,0.3,8.5c-0.2,0.8,0,1.5,0.7,2
		c0.1,2.2,0.2,4.4,0.3,6.6c-0.2,0.8-0.1,1.5,0.6,2c0.1,2.5,0.2,5.1,0.2,7.6c-0.1,0.8,0,1.5,0.7,2c0.4,6.3,1,12.5,1.9,18.8
		c0.4,2.6,0.2,5.4,0.3,8c-0.2,1.1-0.3,2.2,0.7,3c0,1.1-0.1,2.2,0.2,3.3c1,3.2,0.8,6.5,0.9,9.7c0,1.4,0.1,2.8,0.2,4.2
		c-0.2,0.8-0.1,1.5,0.7,2c0.1,2.2,0.2,4.4,0.3,6.6c-0.2,0.8-0.1,1.5,0.7,2c0.1,2.5,0.2,5.1,0.2,7.6c-0.1,0.8,0,1.5,0.7,2
		c0.4,5.7,0.8,11.5,1.2,17.2c-0.1,1.1-0.3,2.2,0.7,3c0.1,2.2,0.2,4.4,0.2,6.6c-0.2,1.1-0.3,2.2,0.7,3c0.1,3.1,0.1,6.2,0.9,9.3
		c0.5,2.2,0.2,4.6,0.3,7c-0.1,1.4-0.5,2.8,0.7,3.9c0.1,1.9,0.1,3.8,0.2,5.7c-0.1,1.1-0.3,2.2,0.7,3c0.1,2.5,0.2,5.1,0.2,7.6
		c-0.1,0.8,0,1.5,0.7,2c0.1,2.5,0.2,5.1,0.3,7.6c-0.2,1.1-0.3,2.2,0.7,3c0.1,2.2,0.1,4.4,0.2,6.7c-0.1,1.1-0.3,2.2,0.8,2.9
		c0.1,2.2,0.2,4.4,0.2,6.6c-0.1,1.1-0.3,2.2,0.7,3c0.1,2.2,0.2,4.4,0.3,6.6c-0.2,0.8-0.1,1.5,0.7,2c0.1,2.5,0.2,5.1,0.2,7.6
		c-0.1,1.1-0.3,2.2,0.7,2.9c0.1,2.2,0.2,4.4,0.3,6.6c-0.2,0.8-0.1,1.5,0.7,2c0.1,2.9,0.2,5.7,0.3,8.6c-0.1,0.8,0,1.5,0.7,2
		c0.1,2.2,0.2,4.4,0.3,6.6c-0.1,1.1-0.3,2.2,0.7,3c-0.1,5.8,1.5,11.4,1.3,17.2c-0.2,0.8-0.1,1.5,0.7,2c0.1,2.2,0.2,4.4,0.3,6.6
		c-0.2,0.8-0.1,1.5,0.7,2c0.1,2.8,0.2,5.7,0.3,8.5c-0.2,0.8-0.1,1.5,0.7,2c0.2,5.7,1.4,11.4,1.2,17.2c-0.1,0.8,0,1.5,0.7,2
		c0.1,2.2,0.2,4.4,0.3,6.6c-0.2,1.1-0.3,2.2,0.7,3c0.1,2.3,0.4,4.6,0.7,6.9c0.5,3.4,0.4,6.8,0.5,10.3c-0.2,0.8-0.1,1.5,0.7,2
		c0,6.1,1.5,12,1.3,18.1c-0.2,0.8-0.1,1.5,0.7,2c0.1,2.3,0.4,4.6,0.7,6.9c0.5,3.4,0.3,6.8,0.5,10.3c-0.2,1.1-0.3,2.2,0.7,3
		c0.1,1.9,0.2,3.8,0.2,5.7c-0.2,1.1-0.3,2.2,0.7,3c0.1,2.5,0.2,5.1,0.2,7.6c-0.1,0.8,0,1.5,0.7,2c0.1,2.2,0.2,4.4,0.2,6.6
		c-0.1,1.4-0.5,2.8,0.8,3.9c0.1,2.6,0.3,5.2,0.7,7.9c0.6,3,0.3,6.2,0.5,9.3c-0.2,0.8,0,1.5,0.7,2c0.1,2.2,0.2,4.4,0.3,6.6
		c-0.1,1.4-0.5,2.8,0.7,3.9c0.1,2.2,0.1,4.4,0.2,6.6c-0.1,1.1-0.3,2.2,0.7,3c0.1,2.2,0.2,4.4,0.2,6.6c-0.2,0.8,0,1.5,0.7,2
		c0.1,2.2,0.1,4.4,0.2,6.7c-0.1,1.1-0.3,2.2,0.8,2.9c0.1,2.5,0.2,5.1,0.3,7.6c-0.2,1.1-0.3,2.2,0.7,3c0.1,2.3,0.4,4.6,0.8,6.9
		c0.5,3,0.3,6.2,0.4,9.3c-0.1,1.1-0.3,2.2,0.7,2.9c0.1,2.2,0.2,4.4,0.3,6.6c-0.2,0.8-0.1,1.5,0.7,2c0.1,2.5,0.2,5.1,0.2,7.6
		c-0.1,0.8,0,1.5,0.7,2c0.1,2.5,0.2,5.1,0.3,7.6c-0.1,1.4-0.5,2.8,0.7,3.9c1,5.4,1.1,10.8,1.2,16.2c-0.2,0.8-0.1,1.5,0.7,2
		c0.1,2.3,0.4,4.6,0.8,6.9c0.5,3.4,0.3,6.8,0.5,10.3c-0.1,0.8,0,1.5,0.7,2c-0.1,5.8,1.5,11.4,1.2,17.2c-0.1,1.1-0.3,2.2,0.7,3
		c0.1,2.2,0.2,4.4,0.3,6.6c-0.2,1.1-0.3,2.2,0.7,3c0.1,2.5,0.2,5.1,0.2,7.6c-0.1,0.8,0,1.5,0.7,2c0.1,2.5,0.2,5.1,0.3,7.6
		c0,1.3-0.1,2.5-0.1,3.8c0,0.8,0.2,1.5,0.9,2.1c0,1.3,0.1,2.5,0.1,3.8s-0.1,2.5-0.1,3.8c0,0.8,0.2,1.5,0.9,2.1
		c0,1.6,0.1,3.2,0.1,4.7c0,1.3-0.1,2.5-0.1,3.8c0,0.8,0.2,1.5,0.9,2.1c0.1,1.3,0.1,2.5,0.2,3.8c0,2-0.8,4.1,0.8,5.8
		c0,0.9,0.1,1.9,0.1,2.8c0,1.3-0.1,2.5-0.1,3.8c0,0.8,0.3,1.5,0.9,2c0,1.6,0.1,3.2,0.1,4.7c0,2-0.8,4.1,0.8,5.8
		c0,1.6,0.1,3.2,0.1,4.7c0,1.7-0.7,3.4,0.8,4.9c0,1.6,0.1,3.2,0.1,4.7c0,1.6-0.1,3.1-0.1,4.7c0,0.8,0.2,1.5,0.9,2.1
		c0,0.9,0.1,1.9,0.1,2.8c-0.1,1.7-0.7,3.4,0.8,4.9c0.1,1.9,0.1,3.8,0.2,5.7c-0.1,1.4-0.6,2.8,0.8,3.9c0.1,1.9,0.1,3.8,0.2,5.7
		c0,2-0.8,4.1,0.8,5.8c0,1.3,0.1,2.5,0.1,3.8c0,1.7-0.6,3.4,0.9,4.9c0.1,1.9,0.1,3.8,0.2,5.7C120.2,1087.4,119.4,1089.5,121,1091.3z
		"/>
	<path class="st4" d="M120.3,1098.9c1.2-1.1,0.5-2.6,0.8-3.8c0.6,0.2,1.3,0.3,1.5,1c0.4,1.7,0.8,3.4-0.6,4.8c-0.5,0-1.1-0.1-1.6-0.1
		C120.4,1100.1,120.3,1099.5,120.3,1098.9z"/>
	<path class="st4" d="M507.8,1242c-0.6,0.7-1.3,0.9-2.1,0.9c-1.3,0-2.6,0-3.8,0c-110.2,0-220.3,0-330.5,0.1c-1.8,0-3.5-0.1-5.3-0.1
		c0.2-0.8,0.6-1.6,1.5-1.7c1.4-0.1,2.9-0.1,4.3-0.1c110.2,0,220.3,0,330.5,0C504.1,1241,506.2,1240.3,507.8,1242z"/>
	<path class="st4" d="M1404,132.5c1.6-0.1,3.2-0.2,4.8-0.2c83.8,0,167.5,0,251.3,0c1.3,0,2.6,0,3.8,0c0.8,0,1.6,0.2,2.1,0.9
		c-0.5,0.7-1.2,1-2.1,1c-1.3,0-2.6,0-3.8,0c-83.3,0-166.6,0-249.9,0c-1.6,0-3.2,0-4.8-0.1C1404.6,134.1,1404.2,133.3,1404,132.5z"/>
	<path class="st4" d="M1716,1242.8c-1.8,0-3.5,0.1-5.3,0.1c-79.1,0-158.2,0-237.4-0.1c-2,0-4.2,0.7-6-0.8c0.5-0.7,1.2-1,2.1-1
		c1.3,0,2.6,0,3.8,0c78.8,0,157.6,0,236.4,0c1.6,0,3.2,0,4.8,0.1C1715.4,1241.2,1715.8,1242,1716,1242.8z"/>
	<path class="st4" d="M568.1,131.5c1.6,0,3.2-0.1,4.8-0.1c62.2,0,124.3,0,186.5,0.1c1.8,0,3.9-0.7,5.5,0.8c-0.4,0.5-0.9,0.9-1.6,0.9
		c-1.1,0-2.2,0.1-3.4,0.1c-62.2,0-124.4,0-186.5,0c-1.3,0-2.6,0-3.8-0.1C568.7,133.1,568.4,132.4,568.1,131.5z"/>
	<path class="st4" d="M353.2,130.6c1.4,0,2.9-0.1,4.3-0.1c33.2,0,66.5,0,99.7,0.1c1.8,0,3.9-0.7,5.5,0.9c-0.5,0.3-1.1,0.8-1.6,0.9
		c-1.1,0.1-2.2,0.1-3.3,0.1c-33.1,0-66.1,0-99.2,0c-1.3,0-2.6,0-3.8-0.1C353.8,132.2,353.4,131.4,353.2,130.6z"/>
	<path class="st4" d="M194.8,24.1c1.6-0.1,3.2-0.2,4.8-0.2c20.1,0,40.2,0,60.3,0.1c1.7,0,3.5-0.6,5,0.8c-0.4,0.5-0.9,0.9-1.6,0.9
		c-1.3,0-2.6,0.1-3.8,0.1c-19.8,0-39.6,0-59.4,0c-1.3,0-2.6,0-3.8-0.1C195.5,25.6,195.1,24.9,194.8,24.1z"/>
	<path class="st4" d="M1782.3,1243.7c-4.4,0.1-8.9,0.1-13.3,0.2c-0.8,0-1.6-0.2-2.1-0.9c0.5-0.3,1-0.9,1.6-0.9
		c4-0.1,7.9-0.1,11.9-0.1C1781.4,1242,1782,1242.7,1782.3,1243.7z"/>
	<path class="st4" d="M132.5,23.8c2.6-1.2,5.1-1.3,7.7,0.1C137.2,25.3,135.3,25.3,132.5,23.8z"/>
	<path class="st4" d="M116.1,129.7c2.6-0.3,5.2-0.3,7.9,0c-0.2,0.4-0.4,1.1-0.7,1.2c-2.1,0.7-4.3,0.8-6.5,0
		C116.5,130.8,116.3,130.1,116.1,129.7z"/>
	<path class="st4" d="M327.5,26.6c1,0.3,1.6,0.8,1.6,1.9c0,1.7,0,3.4,0,5c-1-0.2-1.7-0.7-1.7-1.8C327.4,30,327.5,28.3,327.5,26.6z"
		/>
	<path class="st4" d="M116.2,1042.3c-0.7-0.5-0.9-1.2-0.9-2.1c0-1.6,0-3.1,0.1-4.7c0.6,0.2,1.4,0.3,1.5,1
		C117.2,1038.5,117.9,1040.5,116.2,1042.3z"/>
	<path class="st4" d="M131.6,1211.2c-0.7-0.5-0.9-1.2-0.9-2.1c0-1.6,0.1-3.1,0.1-4.7c0.4,0.2,1.1,0.3,1.2,0.6
		C132.7,1207.2,133.1,1209.3,131.6,1211.2z"/>
	<path class="st4" d="M124.9,1132.5c-0.7-0.5-0.9-1.2-0.9-2.1c0-1.6,0-3.1,0.1-4.7c0.4,0.2,1.1,0.3,1.2,0.6
		C126,1128.4,126.4,1130.6,124.9,1132.5z"/>
	<path class="st4" d="M109.5,972.2c-0.7-0.5-0.9-1.2-0.9-2.1c0-1.3,0.1-2.5,0.1-3.8c0.6,0.2,1.3,0.3,1.5,1
		C110.5,969.1,110.9,970.8,109.5,972.2z"/>
	<path class="st4" d="M130.6,70.9c-1.5-1.8-0.8-3.9-0.7-5.9c0.4,0.2,1.1,0.3,1.2,0.7C131.7,67.5,132.2,69.3,130.6,70.9z"/>
	<path class="st4" d="M119.1,1071.1c-1.6-1.8-0.8-3.9-0.8-5.8c0.6,0.2,1.3,0.3,1.5,1C120.1,1068,120.5,1069.7,119.1,1071.1z"/>
	<path class="st4" d="M113.3,1010.6c-0.7-0.5-0.9-1.2-0.9-2c0-1.3,0-2.5,0.1-3.8c0.6,0.2,1.4,0.3,1.5,0.9
		C114.4,1007.5,114.8,1009.2,113.3,1010.6z"/>
	<path class="st4" d="M121,1091.3c-1.6-1.8-0.8-3.9-0.8-5.8c0.6,0.2,1.3,0.3,1.5,1C122,1088.1,122.5,1089.8,121,1091.3z"/>
	<path class="st4" d="M114.3,1021.2c-1.6-1.8-0.8-3.8-0.8-5.8c0.6,0.2,1.3,0.3,1.5,1C115.3,1018,115.7,1019.8,114.3,1021.2z"/>
	<path class="st4" d="M112.4,1002c-1.6-1.8-0.8-3.9-0.8-5.8c0.4,0.2,1.1,0.3,1.2,0.6C113.5,998.6,113.9,1000.4,112.4,1002z"/>
	<path class="st4" d="M111.4,992.4c-0.7-0.5-0.9-1.2-0.9-2.1c0-1.3,0.1-2.5,0.1-3.8c0.6,0.2,1.3,0.3,1.5,1
		C112.5,989.2,112.8,990.9,111.4,992.4z"/>
	<path class="st4" d="M110.5,981.8c-0.7-0.5-0.9-1.2-0.9-2.1c0-1.3,0-2.5,0.1-3.8c0.6,0.2,1.3,0.3,1.5,1
		C111.5,978.7,111.9,980.4,110.5,981.8z"/>
	<path class="st4" d="M123.9,1122c-1.6-1.8-0.8-3.9-0.8-5.8c0.6,0.2,1.3,0.4,1.5,1C124.9,1118.8,125.3,1120.5,123.9,1122z"/>
	<path class="st4" d="M125.8,1143.1c-1.6-1.8-0.8-3.9-0.8-5.8c0.6,0.2,1.3,0.3,1.5,1C126.8,1139.9,127.2,1141.7,125.8,1143.1z"/>
	<path class="st4" d="M127.7,1165.2c-1.6-1.8-0.8-3.9-0.8-5.8c0.6,0.2,1.3,0.3,1.5,1C128.8,1162,129.2,1163.7,127.7,1165.2z"/>
	<path class="st4" d="M129.6,1187.3c-1.6-1.8-0.8-3.9-0.8-5.8c0.4,0.2,1.1,0.3,1.2,0.6C130.7,1183.8,131.2,1185.6,129.6,1187.3z"/>
	<path class="st4" d="M130.6,1197.8c-1.6-1.8-0.8-3.9-0.8-5.8c0.4,0.2,1.1,0.3,1.2,0.6C131.7,1194.4,132.1,1196.2,130.6,1197.8z"/>
	<path class="st4" d="M127.7,35.4c-1.4-1.9-1.3-3.8-0.1-5.8C129.2,31.5,129.1,33.5,127.7,35.4z"/>
	<path class="st4" d="M122.9,1111.4c-0.7-0.5-0.9-1.2-0.9-2.1c0-1.3,0.1-2.5,0.1-3.8c0.6,0.2,1.3,0.3,1.5,1
		C124,1108.3,124.4,1110,122.9,1111.4z"/>
	<path class="st4" d="M329.3,39.3c1.4,1.4,0.8,3.2,0.7,4.9C327.9,42.8,327.7,41.8,329.3,39.3z"/>
	<path class="st4" d="M117.2,1050c-1.5-1.4-0.8-3.2-0.8-4.9C118.5,1046.5,118.7,1047.5,117.2,1050z"/>
	<path class="st4" d="M126.8,1152.7c-1.5-1.4-0.8-3.2-0.8-4.9C128.1,1149.1,128.3,1150.1,126.8,1152.7z"/>
	<path class="st4" d="M1714.1,194.8c1.5,1.4,0.8,3.2,0.8,4.9C1712.7,198.3,1712.5,197.3,1714.1,194.8z"/>
	<path class="st4" d="M128.7,1174.8c-1.5-1.4-0.8-3.2-0.8-4.9C130,1171.2,130.2,1172.2,128.7,1174.8z"/>
	<path class="st4" d="M1794.7,989.5c1.5,1.4,0.8,3.2,0.8,4.9C1793.3,993.1,1793.1,992.1,1794.7,989.5z"/>
	<path class="st4" d="M1738.1,439.5c1.5,1.4,0.8,3.2,0.8,4.9C1736.7,443.1,1736.5,442.1,1738.1,439.5z"/>
	<path class="st4" d="M1807.2,1110.5c1.4,1.4,0.8,3.2,0.8,4.9C1805.8,1114,1805.6,1113,1807.2,1110.5z"/>
	<path class="st4" d="M132.5,1220.9c-1.4-1.5-0.8-3.2-0.7-4.9C133.9,1217.3,134.1,1218.4,132.5,1220.9z"/>
	<path class="st4" d="M120.1,1079.7c-1.5-1.4-0.8-3.2-0.9-4.9C121.4,1076.1,121.6,1077.1,120.1,1079.7z"/>
	<path class="st4" d="M1709.3,137.2c1.4,1.5,0.8,3.2,0.7,4.9C1707.9,140.7,1707.7,139.6,1709.3,137.2z"/>
	<path class="st4" d="M115.2,1030.8c-1.5-1.4-0.8-3.2-0.8-4.9C116.6,1027.2,116.8,1028.2,115.2,1030.8z"/>
	<path class="st4" d="M1818.6,1243.9c-1.6,1.3-3.2,1.3-4.8,0C1815.4,1242.5,1817,1242.5,1818.6,1243.9z"/>
	<path class="st4" d="M1798.5,1026.9c1.3,1.1,0.8,2.5,0.8,3.9C1797.2,1029.7,1797.1,1029,1798.5,1026.9z"/>
	<path class="st4" d="M128.6,47.9c-1.3-1.1-0.8-2.5-0.7-3.9C130,45.1,130.1,45.8,128.6,47.9z"/>
	<path class="st4" d="M1719.8,260c1.3,1.1,0.9,2.5,0.7,3.9C1718.5,262.8,1718.4,262.1,1719.8,260z"/>
	<path class="st4" d="M100.8,882c-1.3-1.1-0.8-2.5-0.7-3.9C102.1,879.2,102.3,880,100.8,882z"/>
	<path class="st4" d="M1720.8,269.6c1.3,1.1,0.9,2.5,0.8,3.9C1719.5,272.4,1719.4,271.7,1720.8,269.6z"/>
	<path class="st4" d="M1740.9,469.3c1.3,1.1,0.9,2.5,0.8,3.9C1739.6,472.1,1739.5,471.4,1740.9,469.3z"/>
	<path class="st4" d="M331.2,62.3c1.3,1.1,0.8,2.6,0.7,3.9C329.9,65,329.8,64.4,331.2,62.3z"/>
	<path class="st4" d="M1774.5,792.7c1.4,1.1,0.9,2.5,0.8,3.9C1773.2,795.5,1773.1,794.9,1774.5,792.7z"/>
	<path class="st4" d="M1773.6,784.1c1.3,1.1,0.9,2.5,0.7,3.9C1772.3,786.9,1772.1,786.2,1773.6,784.1z"/>
	<path class="st4" d="M89.3,764.9c-1.3-1.1-0.8-2.5-0.8-3.9C90.6,762.1,90.8,762.9,89.3,764.9z"/>
	<path class="st4" d="M1785.1,895.5c1.3,1.1,0.9,2.5,0.8,3.9C1783.8,898.2,1783.7,897.5,1785.1,895.5z"/>
	<path class="st4" d="M44.2,311.9c-1.3-1.1-0.8-2.5-0.8-3.9C45.5,309.1,45.6,309.8,44.2,311.9z"/>
	<path class="st4" d="M92.1,794.7c-1.3-1.1-0.8-2.5-0.7-3.9C93.5,791.9,93.6,792.6,92.1,794.7z"/>
	<path class="st4" d="M1753.4,590.2c1.3,1.1,0.9,2.6,0.7,3.9C1752.1,593,1752,592.3,1753.4,590.2z"/>
	<path class="st4" d="M1726.5,325.3c1.3,1.1,0.9,2.5,0.7,3.9C1725.2,328.1,1725.1,327.4,1726.5,325.3z"/>
	<path class="st4" d="M1762.1,673.7c1.3,1.1,0.8,2.5,0.8,3.9C1760.8,676.5,1760.6,675.8,1762.1,673.7z"/>
	<path class="st4" d="M1764.9,700.6c1.3,1.1,0.8,2.5,0.7,3.9C1763.6,703.4,1763.5,702.7,1764.9,700.6z"/>
	<path class="st4" d="M47,339.7c-1.3-1.1-0.8-2.5-0.7-3.9C48.4,336.9,48.5,337.7,47,339.7z"/>
	<path class="st4" d="M1744.8,507.7c1.3,1.1,0.8,2.5,0.7,3.9C1743.5,510.4,1743.3,509.7,1744.8,507.7z"/>
	<path class="st4" d="M1735.2,410.7c1.3,1.1,0.9,2.6,0.7,3.9C1733.9,413.5,1733.8,412.8,1735.2,410.7z"/>
	<path class="st4" d="M1729.4,353.1c1.3,1.1,0.9,2.5,0.8,3.9C1728.1,355.9,1728,355.2,1729.4,353.1z"/>
	<path class="st4" d="M337.9,111.3c1.4,1.1,0.9,2.5,0.7,3.9C336.6,114,336.5,113.4,337.9,111.3z"/>
	<path class="st4" d="M64.3,513.4c-1.3-1.1-0.8-2.5-0.7-3.9C65.7,510.6,65.8,511.4,64.3,513.4z"/>
	<path class="st4" d="M1783.2,876.3c1.3,1.1,0.9,2.5,0.8,3.9C1781.9,879,1781.7,878.3,1783.2,876.3z"/>
	<path class="st4" d="M1731.3,372.3c1.3,1.1,0.9,2.5,0.8,3.9C1730.1,375.1,1729.9,374.4,1731.3,372.3z"/>
	<path class="st4" d="M1792.7,970.3c1.3,1.1,0.9,2.5,0.8,3.9C1791.5,973.1,1791.3,972.4,1792.7,970.3z"/>
	<path class="st4" d="M1732.3,381.9c1.3,1.1,0.9,2.5,0.8,3.9C1731,384.7,1730.9,384.1,1732.3,381.9z"/>
	<path class="st4" d="M135.4,117c-1.3-1.1-0.8-2.6-0.7-3.9C136.7,114.3,136.8,114.9,135.4,117z"/>
	<path class="st4" d="M1808.1,1119.1c1.3,1.1,0.9,2.5,0.8,3.9C1806.8,1121.9,1806.7,1121.2,1808.1,1119.1z"/>
	<path class="st4" d="M1804.3,1083.6c1.3,1.1,0.8,2.5,0.8,3.9C1803,1086.4,1802.8,1085.7,1804.3,1083.6z"/>
	<path class="st4" d="M1780.3,849.4c1.3,1.1,0.9,2.5,0.8,3.9C1779,852.1,1778.9,851.5,1780.3,849.4z"/>
	<path class="st4" d="M1711.2,165c1.3,1.1,0.9,2.5,0.8,3.9C1709.9,167.8,1709.8,167.1,1711.2,165z"/>
	<path class="st4" d="M118.1,1059.6c-1.3-1.1-0.9-2.5-0.8-3.9C119.4,1056.8,119.5,1057.5,118.1,1059.6z"/>
	<path class="st4" d="M1713.1,185.2c1.3,1.1,0.9,2.6,0.7,3.9C1711.8,187.9,1711.7,187.2,1713.1,185.2z"/>
	<path class="st4" d="M1813.9,1175.7c1.3,1.1,0.8,2.6,0.7,3.9C1812.6,1178.5,1812.4,1177.8,1813.9,1175.7z"/>
	<path class="st4" d="M1747.7,535.5c1.3,1.1,0.9,2.5,0.8,3.9C1746.4,538.3,1746.2,537.6,1747.7,535.5z"/>
	<path class="st4" d="M1788,923.3c1.3,1.1,0.9,2.5,0.8,3.9C1786.7,926.1,1786.5,925.4,1788,923.3z"/>
	<path class="st4" d="M1816.8,1202.6c1.3,1.1,0.9,2.5,0.8,3.9C1815.5,1205.4,1815.3,1204.7,1816.8,1202.6z"/>
	<path class="st4" d="M1786.1,905c1.3,1.1,0.9,2.5,0.8,3.9C1784.8,907.9,1784.6,907.1,1786.1,905z"/>
	<path class="st4" d="M1756.3,618.1c1.3,1.1,0.8,2.5,0.8,3.9C1755,620.8,1754.9,620.1,1756.3,618.1z"/>
	<path class="st4" d="M133.4,1233.3c-1.3-1.1-0.8-2.5-0.8-3.9C134.8,1230.5,134.9,1231.3,133.4,1233.3z"/>
	<path class="st4" d="M1819.6,1230.4c1.3,1.1,0.9,2.5,0.8,3.9C1818.3,1233.2,1818.2,1232.6,1819.6,1230.4z"/>
	<path class="st4" d="M1717,229.3c1.3,1.1,0.8,2.5,0.8,3.9C1715.7,232.1,1715.5,231.4,1717,229.3z"/>
	<path class="st4" d="M1717.9,239.9c1.3,1.1,0.8,2.6,0.7,3.9C1716.6,242.6,1716.5,241.9,1717.9,239.9z"/>
	<path class="st4" d="M1801.4,1054.8c1.3,1.1,0.9,2.5,0.8,3.9C1800.1,1057.6,1800,1056.9,1801.4,1054.8z"/>
	<path class="st4" d="M1777.4,821.5c1.3,1.1,0.8,2.5,0.8,3.9C1776.1,824.3,1776,823.6,1777.4,821.5z"/>
	<path class="st4" d="M1791.8,961.7c1.3,1.1,0.8,2.5,0.7,3.9C1790.5,964.5,1790.4,963.8,1791.8,961.7z"/>
	<path class="st4" d="M1728.5,345.5c1.1,0.8,0.9,1.9,0.7,3C1727.2,347.4,1727.1,347.1,1728.5,345.5z"/>
	<path class="st4" d="M1730.4,363.7c1.1,0.8,0.9,1.9,0.7,3C1729.1,365.7,1729.1,365.4,1730.4,363.7z"/>
	<path class="st4" d="M49.9,367.5c-1-0.8-0.9-1.9-0.7-3C51.2,365.5,51.3,365.8,49.9,367.5z"/>
	<path class="st4" d="M1733.3,391.5c1.1,0.8,0.9,1.9,0.7,3C1732,393.5,1731.9,393.2,1733.3,391.5z"/>
	<path class="st4" d="M1734.3,402.1c1.1,0.8,0.9,1.9,0.7,3C1733,404.1,1732.9,403.8,1734.3,402.1z"/>
	<path class="st4" d="M1736.1,420.3c1.1,0.8,0.9,1.9,0.7,3C1734.9,422.3,1734.8,422,1736.1,420.3z"/>
	<path class="st4" d="M55.7,426.1c-1-0.8-0.9-1.9-0.7-3C57,424.1,57.1,424.4,55.7,426.1z"/>
	<path class="st4" d="M1739,450.1c1.1,0.8,0.9,1.9,0.7,3C1737.8,452.1,1737.7,451.8,1739,450.1z"/>
	<path class="st4" d="M1740,460.6c1.1,0.8,0.9,1.9,0.7,3C1738.7,462.6,1738.7,462.3,1740,460.6z"/>
	<path class="st4" d="M61.4,483.7c-1-0.8-0.9-1.9-0.7-3C62.7,481.7,62.8,482,61.4,483.7z"/>
	<path class="st4" d="M1742.9,489.4c1.1,0.8,0.9,1.9,0.7,3C1741.6,491.4,1741.5,491.1,1742.9,489.4z"/>
	<path class="st4" d="M62.4,493.3c-1-0.8-0.9-1.9-0.7-3C63.7,491.3,63.8,491.6,62.4,493.3z"/>
	<path class="st4" d="M1743.8,499c1.1,0.8,0.9,1.9,0.8,3C1742.6,501.1,1742.5,500.8,1743.8,499z"/>
	<path class="st4" d="M65.3,522.1c-1-0.8-0.9-1.9-0.7-3C66.6,520.1,66.6,520.4,65.3,522.1z"/>
	<path class="st4" d="M1746.7,526.9c1.1,0.8,0.9,1.9,0.7,3C1745.4,528.9,1745.4,528.6,1746.7,526.9z"/>
	<path class="st4" d="M67.2,542.2c-1-0.8-0.9-1.9-0.7-3C68.5,540.2,68.6,540.6,67.2,542.2z"/>
	<path class="st4" d="M68.1,551.8c-1.1-0.8-0.9-1.9-0.8-2.9C69.4,549.8,69.5,550.1,68.1,551.8z"/>
	<path class="st4" d="M1749.6,554.7c1.1,0.8,0.9,1.9,0.7,3C1748.3,556.7,1748.2,556.4,1749.6,554.7z"/>
	<path class="st4" d="M69.1,561.4c-1-0.8-0.9-1.9-0.7-3C70.4,559.4,70.5,559.7,69.1,561.4z"/>
	<path class="st4" d="M1750.6,564.3c1.1,0.8,0.9,1.9,0.8,3C1749.3,566.3,1749.2,566,1750.6,564.3z"/>
	<path class="st4" d="M1751.5,572.9c1.1,0.8,0.9,1.9,0.7,3C1750.2,574.9,1750.2,574.6,1751.5,572.9z"/>
	<path class="st4" d="M71,580.6c-1-0.8-0.9-1.9-0.7-2.9C72.3,578.6,72.4,578.9,71,580.6z"/>
	<path class="st4" d="M1754.4,599.8c1.1,0.8,0.9,1.9,0.7,3C1753.1,601.8,1753,601.5,1754.4,599.8z"/>
	<path class="st4" d="M73.9,609.4c-1-0.8-0.8-1.9-0.7-3C75.2,607.4,75.3,607.7,73.9,609.4z"/>
	<path class="st4" d="M1755.4,610.4c1.1,0.8,0.9,1.9,0.7,3C1754.1,612.4,1754,612.1,1755.4,610.4z"/>
	<path class="st4" d="M1724.6,307.1c1.1,0.8,0.9,1.9,0.7,3C1723.4,309.1,1723.3,308.7,1724.6,307.1z"/>
	<path class="st4" d="M1758.2,637.2c1.1,0.8,0.9,1.9,0.7,3C1757,639.3,1756.9,638.9,1758.2,637.2z"/>
	<path class="st4" d="M1759.2,645.9c1.1,0.8,0.9,1.9,0.8,3C1757.9,647.9,1757.8,647.6,1759.2,645.9z"/>
	<path class="st4" d="M1760.1,654.5c1.1,0.8,0.9,1.9,0.7,3C1758.9,656.5,1758.8,656.2,1760.1,654.5z"/>
	<path class="st4" d="M1761.1,664.1c1.1,0.8,0.9,1.9,0.8,3C1759.8,666.2,1759.8,665.8,1761.1,664.1z"/>
	<path class="st4" d="M80.6,676.6c-1-0.8-0.9-1.9-0.7-3C81.9,674.6,82,674.9,80.6,676.6z"/>
	<path class="st4" d="M1763,682.4c1.1,0.8,0.9,1.9,0.7,3C1761.8,684.4,1761.7,684,1763,682.4z"/>
	<path class="st4" d="M1766.9,719.8c1.1,0.8,0.9,1.9,0.7,3C1765.6,721.8,1765.5,721.5,1766.9,719.8z"/>
	<path class="st4" d="M86.4,736.1c-1.1-0.8-0.9-1.9-0.7-3C87.7,734.1,87.8,734.4,86.4,736.1z"/>
	<path class="st4" d="M1768.8,738c1.1,0.8,0.9,1.9,0.7,3C1767.5,740,1767.4,739.7,1768.8,738z"/>
	<path class="st4" d="M87.3,744.8c-1-0.8-0.9-1.9-0.7-3C88.6,742.7,88.7,743.1,87.3,744.8z"/>
	<path class="st4" d="M1769.7,746.7c1.1,0.8,0.9,1.9,0.7,3C1768.5,748.7,1768.4,748.4,1769.7,746.7z"/>
	<path class="st4" d="M1770.7,757.2c1.1,0.8,0.9,1.9,0.7,3C1769.4,759.2,1769.4,758.9,1770.7,757.2z"/>
	<path class="st4" d="M1771.7,765.9c1.1,0.8,0.9,1.9,0.7,3C1770.4,767.9,1770.3,767.6,1771.7,765.9z"/>
	<path class="st4" d="M93.1,804.3c-1.1-0.8-0.9-1.9-0.7-3C94.4,802.2,94.5,802.6,93.1,804.3z"/>
	<path class="st4" d="M95,822.5c-1-0.8-0.9-1.9-0.8-2.9C96.3,820.5,96.4,820.8,95,822.5z"/>
	<path class="st4" d="M96,833.1c-1-0.8-0.9-1.9-0.7-3C97.3,831.1,97.3,831.4,96,833.1z"/>
	<path class="st4" d="M1778.4,830.2c1.1,0.8,0.9,1.9,0.7,3C1777.1,832.2,1777,831.9,1778.4,830.2z"/>
	<path class="st4" d="M97.9,852.3c-1-0.8-0.9-1.9-0.7-2.9C99.2,850.3,99.3,850.6,97.9,852.3z"/>
	<path class="st4" d="M1782.2,868.6c1.1,0.8,0.9,1.9,0.7,3C1781,870.6,1780.9,870.3,1782.2,868.6z"/>
	<path class="st4" d="M1784.1,886.8c1.1,0.8,0.9,1.9,0.7,3C1782.9,888.8,1782.8,888.5,1784.1,886.8z"/>
	<path class="st4" d="M1787,914.6c1.1,0.8,0.9,1.9,0.7,3C1785.7,916.6,1785.7,916.3,1787,914.6z"/>
	<path class="st4" d="M1788.9,933.8c1.1,0.8,0.9,1.9,0.7,3C1787.7,935.8,1787.6,935.5,1788.9,933.8z"/>
	<path class="st4" d="M106.5,939.6c-1-0.8-0.9-1.9-0.7-3C107.8,937.6,107.9,937.9,106.5,939.6z"/>
	<path class="st4" d="M1789.9,942.5c1.1,0.8,0.9,1.9,0.7,3C1788.6,944.5,1788.6,944.2,1789.9,942.5z"/>
	<path class="st4" d="M107.5,949.2c-1-0.8-0.9-1.9-0.7-3C108.8,947.2,108.9,947.5,107.5,949.2z"/>
	<path class="st4" d="M1790.8,952.1c1.1,0.8,0.9,1.9,0.8,3C1789.6,954.1,1789.5,953.8,1790.8,952.1z"/>
	<path class="st4" d="M1793.7,980.9c1.1,0.8,0.9,1.9,0.7,3C1792.5,982.9,1792.4,982.6,1793.7,980.9z"/>
	<path class="st4" d="M1795.7,1000.1c1.1,0.8,0.9,1.9,0.7,3C1794.4,1002.1,1794.3,1001.8,1795.7,1000.1z"/>
	<path class="st4" d="M1796.6,1008.7c1.1,0.8,0.9,1.9,0.7,3C1795.3,1010.7,1795.3,1010.4,1796.6,1008.7z"/>
	<path class="st4" d="M1799.5,1036.5c1.1,0.8,0.9,1.9,0.7,3C1798.2,1038.6,1798.2,1038.3,1799.5,1036.5z"/>
	<path class="st4" d="M1800.4,1046.1c1.1,0.8,0.9,1.9,0.7,3C1799.2,1048.2,1799.1,1047.8,1800.4,1046.1z"/>
	<path class="st4" d="M1806.2,1101.8c1.1,0.8,0.9,1.9,0.7,3C1804.9,1103.9,1804.9,1103.5,1806.2,1101.8z"/>
	<path class="st4" d="M1741.9,479.8c1.1,0.8,0.9,1.9,0.7,3C1740.6,481.8,1740.6,481.5,1741.9,479.8z"/>
	<path class="st4" d="M330.3,51.7c1.1,0.8,0.9,1.9,0.7,3C329,53.7,328.9,53.4,330.3,51.7z"/>
	<path class="st4" d="M333.1,79.6c1.1,0.8,0.9,1.9,0.7,3C331.9,81.6,331.8,81.3,333.1,79.6z"/>
	<path class="st4" d="M334.1,87.2c1.1,0.8,0.9,1.9,0.8,3C332.8,89.3,332.8,89,334.1,87.2z"/>
	<path class="st4" d="M335,94c1.1,0.8,0.9,1.9,0.7,3C333.8,96,333.7,95.7,335,94z"/>
	<path class="st4" d="M1810.1,1139.2c1.1,0.8,0.9,1.9,0.7,3C1808.8,1141.3,1808.7,1140.9,1810.1,1139.2z"/>
	<path class="st4" d="M336,100.7c1.1,0.8,0.9,1.9,0.7,3C334.8,102.7,334.7,102.4,336,100.7z"/>
	<path class="st4" d="M1811,1148.8c1.1,0.8,0.9,1.9,0.8,3C1809.7,1150.9,1809.7,1150.6,1811,1148.8z"/>
	<path class="st4" d="M1812,1158.4c1.1,0.8,0.9,1.9,0.7,3C1810.7,1160.5,1810.6,1160.1,1812,1158.4z"/>
	<path class="st4" d="M1710.2,155.4c1.1,0.8,0.9,1.9,0.7,3C1709,157.4,1708.9,157.1,1710.2,155.4z"/>
	<path class="st4" d="M1812.9,1167.1c1.1,0.8,0.9,1.9,0.8,3C1811.7,1169.1,1811.6,1168.8,1812.9,1167.1z"/>
	<path class="st4" d="M32.6,195.7c-1.1-0.8-0.9-1.9-0.7-3C33.9,193.7,34,194,32.6,195.7z"/>
	<path class="st4" d="M1715,206.3c1.1,0.8,0.9,1.9,0.7,3C1713.8,208.2,1713.7,207.9,1715,206.3z"/>
	<path class="st4" d="M34.5,214.9c-1-0.8-0.9-1.9-0.7-3C35.9,212.9,36,213.2,34.5,214.9z"/>
	<path class="st4" d="M1814.9,1185.3c1.1,0.8,0.9,1.9,0.7,3C1813.6,1187.3,1813.5,1187,1814.9,1185.3z"/>
	<path class="st4" d="M1716,216.8c1.1,0.8,0.9,1.9,0.7,3C1714.7,218.8,1714.7,218.5,1716,216.8z"/>
	<path class="st4" d="M1815.8,1195.9c1,0.8,0.9,1.9,0.8,2.9C1814.5,1197.9,1814.5,1197.6,1815.8,1195.9z"/>
	<path class="st4" d="M35.5,224.5c-1.1-0.8-0.9-1.9-0.7-3C36.8,222.5,36.9,222.8,35.5,224.5z"/>
	<path class="st4" d="M37.4,243.7c-1-0.8-0.9-1.9-0.7-3C38.7,241.7,38.8,242,37.4,243.7z"/>
	<path class="st4" d="M38.4,252.4c-1-0.8-0.9-1.9-0.7-3C39.7,250.4,39.8,250.6,38.4,252.4z"/>
	<path class="st4" d="M1818.7,1222.8c1,0.8,0.9,1.9,0.7,3C1817.4,1224.8,1817.3,1224.4,1818.7,1222.8z"/>
	<path class="st4" d="M40.3,272.5c-1-0.8-0.9-1.9-0.7-3C41.6,270.5,41.7,270.8,40.3,272.5z"/>
	<path class="st4" d="M41.3,282.1c-1.1-0.8-0.9-1.9-0.8-2.9C42.6,280.1,42.6,280.4,41.3,282.1z"/>
	<path class="st4" d="M42.2,291.7c-1-0.8-0.9-1.9-0.7-3C43.5,289.7,43.6,290,42.2,291.7z"/>
	<path class="st4" d="M1722.7,288.8c1.1,0.8,0.9,1.9,0.7,3C1721.5,290.8,1721.4,290.5,1722.7,288.8z"/>
	<path class="st4" d="M1723.7,298.4c1.1,0.8,0.9,1.9,0.7,3C1722.4,300.4,1722.3,300.1,1723.7,298.4z"/>
	<path class="st4" d="M1725.6,317.6c1.1,0.8,0.9,1.9,0.8,3C1724.3,319.7,1724.3,319.3,1725.6,317.6z"/>
	<path class="st4" d="M1727.5,334.9c1.1,0.8,0.9,1.9,0.8,3C1726.3,336.9,1726.2,336.6,1727.5,334.9z"/>
	<path class="st4" d="M52.7,396.3c-0.7-0.5-0.8-1.2-0.7-2C53.8,394.9,53.9,395.2,52.7,396.3z"/>
	<path class="st4" d="M51.8,386.7c-0.7-0.5-0.8-1.2-0.6-2C52.9,385.4,52.9,385.6,51.8,386.7z"/>
	<path class="st4" d="M50.9,378.1c-0.7-0.5-0.9-1.2-0.7-2C51.9,376.7,52,376.9,50.9,378.1z"/>
	<path class="st4" d="M48.9,358.9c-0.7-0.5-0.8-1.2-0.7-2C50,357.5,50,357.7,48.9,358.9z"/>
	<path class="st4" d="M91.1,784.1c-0.7-0.5-0.8-1.2-0.7-2C92.2,782.7,92.3,782.9,91.1,784.1z"/>
	<path class="st4" d="M48,348.3c-0.7-0.5-0.9-1.2-0.7-2C49,346.9,49.1,347.1,48,348.3z"/>
	<path class="st4" d="M46.1,330.1c-0.7-0.5-0.9-1.2-0.7-2C47.1,328.7,47.2,328.9,46.1,330.1z"/>
	<path class="st4" d="M45.1,319.6c-0.7-0.5-0.8-1.2-0.7-2C46.1,318.2,46.2,318.4,45.1,319.6z"/>
	<path class="st4" d="M1752.5,582.5c0.8,0.5,0.9,1.2,0.7,2C1751.5,583.9,1751.4,583.8,1752.5,582.5z"/>
	<path class="st4" d="M27.8,147.7c-0.7-0.5-0.9-1.2-0.7-2C28.8,146.3,28.9,146.5,27.8,147.7z"/>
	<path class="st4" d="M70,570.1c-0.7-0.5-0.8-1.2-0.7-2C71.1,568.7,71.1,568.9,70,570.1z"/>
	<path class="st4" d="M1721.8,280.2c0.8,0.5,0.9,1.2,0.7,2C1720.8,281.5,1720.7,281.4,1721.8,280.2z"/>
	<path class="st4" d="M1797.6,1019.3c0.8,0.5,0.9,1.2,0.7,2C1796.6,1020.7,1796.5,1020.5,1797.6,1019.3z"/>
	<path class="st4" d="M39.3,262c-0.7-0.5-0.8-1.2-0.7-2C40.4,260.6,40.4,260.8,39.3,262z"/>
	<path class="st4" d="M1718.9,251.4c0.8,0.5,0.9,1.2,0.7,2C1717.9,252.8,1717.8,252.6,1718.9,251.4z"/>
	<path class="st4" d="M36.4,233.2c-0.7-0.5-0.8-1.2-0.7-2C37.5,231.8,37.6,232,36.4,233.2z"/>
	<path class="st4" d="M1757.3,628.6c0.8,0.5,0.9,1.2,0.7,2C1756.3,630,1756.2,629.8,1757.3,628.6z"/>
	<path class="st4" d="M33.6,204.4c-0.7-0.5-0.8-1.2-0.7-2C34.6,203,34.7,203.2,33.6,204.4z"/>
	<path class="st4" d="M1765.9,711.2c0.8,0.5,0.9,1.2,0.7,2C1764.9,712.5,1764.9,712.4,1765.9,711.2z"/>
	<path class="st4" d="M31.6,185.2c-0.7-0.5-0.8-1.2-0.7-2C32.7,183.8,32.8,184,31.6,185.2z"/>
	<path class="st4" d="M1712.2,175.6c0.8,0.5,0.9,1.2,0.7,2C1711.2,176.9,1711.1,176.8,1712.2,175.6z"/>
	<path class="st4" d="M30.7,176.5c-0.7-0.5-0.8-1.2-0.7-2C31.7,175.2,31.8,175.3,30.7,176.5z"/>
	<path class="st4" d="M1802.4,1065.3c0.8,0.5,0.9,1.2,0.7,2C1801.4,1066.7,1801.3,1066.5,1802.4,1065.3z"/>
	<path class="st4" d="M28.8,157.3c-0.7-0.5-0.8-1.2-0.7-2C29.8,156,29.9,156.2,28.8,157.3z"/>
	<path class="st4" d="M1803.4,1074.9c0.7,0.5,0.9,1.2,0.7,2C1802.4,1076.3,1802.3,1076.1,1803.4,1074.9z"/>
	<path class="st4" d="M33.7,129.3c0.7-0.8,1.3-0.8,1.9,0.1C34.9,130.5,34.3,130.5,33.7,129.3z"/>
	<path class="st4" d="M134.4,108.4c-0.8-0.5-0.8-1.2-0.6-2C135.4,107,135.4,107.2,134.4,108.4z"/>
	<path class="st4" d="M1805.3,1093.2c0.7,0.5,0.8,1.2,0.7,2C1804.3,1094.5,1804.2,1094.4,1805.3,1093.2z"/>
	<path class="st4" d="M131.5,80.5c-0.7-0.5-0.9-1.2-0.7-2C132.5,79.2,132.6,79.3,131.5,80.5z"/>
	<path class="st4" d="M1775.5,803.3c0.8,0.5,0.9,1.2,0.6,2C1774.5,804.6,1774.5,804.5,1775.5,803.3z"/>
	<path class="st4" d="M94,812.9c-0.7-0.5-0.8-1.2-0.7-2C95.1,811.5,95.1,811.7,94,812.9z"/>
	<path class="st4" d="M332.2,72.9c0.8,0.5,0.9,1.2,0.8,2C331.2,74.3,331.2,74.1,332.2,72.9z"/>
	<path class="st4" d="M1776.5,812.9c0.8,0.5,0.9,1.2,0.7,2C1775.5,814.3,1775.4,814.1,1776.5,812.9z"/>
	<path class="st4" d="M84.4,716c-0.7-0.5-0.9-1.2-0.7-2C85.5,714.6,85.5,714.8,84.4,716z"/>
	<path class="st4" d="M1748.6,546.1c0.8,0.5,0.9,1.2,0.7,2C1747.6,547.4,1747.6,547.2,1748.6,546.1z"/>
	<path class="st4" d="M1809.1,1130.6c0.7,0.5,0.9,1.2,0.7,2C1808.1,1132,1808.1,1131.8,1809.1,1130.6z"/>
	<path class="st4" d="M79.6,667c-0.7-0.5-0.9-1.2-0.7-2C80.7,665.6,80.7,665.8,79.6,667z"/>
	<path class="st4" d="M1767.8,729.4c0.8,0.5,0.9,1.2,0.7,2C1766.9,730.8,1766.8,730.6,1767.8,729.4z"/>
	<path class="st4" d="M1779.3,840.7c0.8,0.5,0.9,1.2,0.7,2C1778.4,842.1,1778.3,842,1779.3,840.7z"/>
	<path class="st4" d="M77.7,647.8c-0.7-0.5-0.8-1.2-0.7-2C78.8,646.4,78.8,646.6,77.7,647.8z"/>
	<path class="st4" d="M66.2,531.7c-0.7-0.5-0.8-1.2-0.7-2C67.2,530.3,67.3,530.5,66.2,531.7z"/>
	<path class="st4" d="M98.8,860.9c-0.7-0.5-0.8-1.2-0.7-2C99.9,859.5,99.9,859.7,98.8,860.9z"/>
	<path class="st4" d="M1781.3,859c0.8,0.5,0.9,1.2,0.7,2C1780.3,860.3,1780.2,860.2,1781.3,859z"/>
	<path class="st4" d="M99.8,870.5c-0.7-0.5-0.8-1.2-0.7-2C100.8,869.1,100.9,869.3,99.8,870.5z"/>
	<path class="st4" d="M75.8,628.6c-0.7-0.5-0.8-1.2-0.7-2C76.8,627.3,76.9,627.4,75.8,628.6z"/>
	<path class="st4" d="M1745.8,518.2c0.8,0.5,0.9,1.2,0.7,2C1744.8,519.6,1744.7,519.4,1745.8,518.2z"/>
	<path class="st4" d="M59.5,463.5c-0.7-0.5-0.8-1.2-0.7-2C60.5,462.1,60.6,462.3,59.5,463.5z"/>
	<path class="st4" d="M76.8,637.3c-0.7-0.5-0.8-1.2-0.7-2C77.8,635.9,77.9,636.1,76.8,637.3z"/>
	<path class="st4" d="M58.5,453.9c-0.7-0.5-0.8-1.2-0.7-2C59.6,452.6,59.6,452.8,58.5,453.9z"/>
	<path class="st4" d="M102.7,900.3c-0.7-0.5-0.8-1.2-0.7-2C103.7,898.9,103.8,899.1,102.7,900.3z"/>
	<path class="st4" d="M57.6,445.3c-0.7-0.5-0.8-1.2-0.7-2C58.6,443.9,58.7,444.1,57.6,445.3z"/>
	<path class="st4" d="M1817.8,1214.1c0.7,0.5,0.9,1.2,0.7,2C1816.8,1215.5,1816.7,1215.3,1817.8,1214.1z"/>
	<path class="st4" d="M1764,692.9c0.8,0.5,0.9,1.2,0.7,2C1763,694.3,1763,694.1,1764,692.9z"/>
	<path class="st4" d="M104.6,919.5c-0.7-0.5-0.8-1.2-0.7-2C105.6,918.1,105.7,918.3,104.6,919.5z"/>
	<path class="st4" d="M1737.1,431.8c0.8,0.5,0.9,1.2,0.7,2C1736.1,433.2,1736.1,433,1737.1,431.8z"/>
	<path class="st4" d="M88.3,754.4c-0.7-0.5-0.9-1.2-0.7-2C89.3,753,89.4,753.2,88.3,754.4z"/>
	<path class="st4" d="M82.5,695.8c-0.7-0.5-0.8-1.2-0.7-2C83.6,694.4,83.6,694.6,82.5,695.8z"/>
	<path class="st4" d="M71.9,589.3c-0.7-0.5-0.8-1.2-0.7-2C73,587.9,73.1,588.1,71.9,589.3z"/>
	<path class="st4" d="M72.9,599.8c-0.7-0.5-0.8-1.2-0.7-2C74,598.4,74,598.6,72.9,599.8z"/>
	<path class="st4" d="M1772.6,776.4c0.8,0.5,0.9,1.2,0.7,2C1771.7,777.8,1771.6,777.6,1772.6,776.4z"/>
	<path class="st4" d="M108.4,958.8c-0.7-0.5-0.9-1.2-0.7-2C109.5,957.4,109.5,957.6,108.4,958.8z"/>
</g>
</svg>
