<?xml version="1.0" encoding="utf-8"?>
<!-- Generator: Adobe Illustrator 25.0.1, SVG Export Plug-In . SVG Version: 6.00 Build 0)  -->
<svg version="1.1" id="Capa_1" xmlns="http://www.w3.org/2000/svg" xmlns:xlink="http://www.w3.org/1999/xlink" x="0px" y="0px"
	 width="1592.2px" height="1628.5px" viewBox="0 0 1592.2 1628.5" style="enable-background:new 0 0 1592.2 1628.5;"
	 xml:space="preserve">
<style type="text/css">
	.st0{fill:#0B1116;}
	.st1{fill:#17314C;}
	.st2{fill:#2E6298;}
	.st3{fill:#E37770;}
	.st4{fill:#0E1E2F;}
</style>
<g>
	<path class="st0" d="M530.5,1568.2c-0.6,0.1-1.2,0.2-1.8,0.4c-3.4-1.6-6.6,0.1-9.7,1c-3.8,1.2-8.4,0.2-11.5,3.6
		c-0.6,0.1-1.2,0.3-1.8,0.4c-2.2-1.1-10.7,0.4-12.3,2.1c-0.1,0.1,0,0.3,0.1,0.5c-0.6,0.1-1.2,0.2-1.8,0.4c-4.5-1-8.6-0.2-12.2,2.6
		c-0.6,0.1-1.2,0.2-1.8,0.4c-6.1-0.5-11.9,0.2-17.2,3.6c-0.6,0.1-1.2,0.2-1.8,0.3c-1.3-1-2.6-1.5-3.2,0.7c-0.6,0.1-1.2,0.2-1.8,0.4
		c-1.3-1.1-2.6-1.6-3.2,0.7c-0.6,0.1-1.2,0.2-1.8,0.3c-2.9-1.6-5.2-0.6-7.2,1.5c-0.6,0.1-1.2,0.2-1.8,0.4c-1.3-1-2.6-1.5-3.2,0.7
		c-0.6,0.1-1.2,0.2-1.8,0.4c-2.8-1.5-5.2-0.7-7.2,1.6c-0.6,0.1-1.2,0.3-1.8,0.4c-2.9-1.5-5.2-0.5-7.2,1.6c-0.6,0.1-1.2,0.2-1.8,0.4
		c-1.3-1-2.6-1.5-3.2,0.7c-0.6,0.1-1.2,0.3-1.8,0.4c-2.9-1.6-5.2-0.6-7.2,1.6c-0.6,0.1-1.2,0.3-1.8,0.4c-1.3-1-2.6-1.5-3.2,0.7
		c-0.6,0.1-1.2,0.2-1.8,0.4c-2.9-1.6-5.2-0.7-7.2,1.6c-0.6,0.1-1.2,0.2-1.8,0.4c-4.5-1-8.6-0.2-12.2,2.6c-0.6,0.1-1.2,0.2-1.8,0.4
		c-2-3.2-4.3-0.2-6,0.2c-3.7,0.9-8.2,0-11.1,3.5c-0.6,0.1-1.2,0.2-1.8,0.3c-1.3-1-2.6-1.6-3.2,0.7c-0.6,0.1-1.2,0.2-1.8,0.4
		c-1.4-1.3-2.8-2.9-3.2,0.6c-0.6,0.1-1.2,0.2-1.8,0.3c-1.3-1.1-2.6-1.6-3.2,0.7c-0.6,0.1-1.2,0.2-1.8,0.4c-1.4-1.3-2.8-2.9-3.2,0.6
		c-0.6,0.1-1.2,0.2-1.8,0.3c-1.3-1.1-2.6-1.6-3.2,0.7c-0.6,0.1-1.2,0.2-1.8,0.3c-1.3-1.1-2.6-1.6-3.2,0.7c-0.6,0.1-1.2,0.2-1.8,0.3
		c-1.3-1.1-2.6-1.6-3.2,0.6c-0.6,0.1-1.2,0.2-1.8,0.3c-1.3-1-2.5-1.5-3.2,0.6c-0.6,0.1-1.2,0.2-1.8,0.3c-1.6-1-3.2-1.7-4.2,0.8
		c-0.6,0.1-1.2,0.2-1.8,0.3c-1.3-1.1-2.6-1.5-3.2,0.7c-0.6,0.1-1.2,0.2-1.8,0.3c-3.1-1.2-5.9-0.8-8.2,1.7c-0.6,0.1-1.2,0.2-1.8,0.3
		c-1.9-1.1-3.8-2.1-5.2,0.7c-0.9,0.1-1.9,0.2-2.8,0.3c-1.5-0.7-3.4-3.4-4.2,0.6c-1.3,0.1-2.5,0.2-3.8,0.3
		c-4.3-1.3-10.6,0.5-13.2,3.8c-0.8,0-1.6,0-2.4,0c-0.5-2.3-1.6-4-4.2-4c-1.9-2.5-4.6-4.2-6.1-7.1c0.5-3.6-1.5-5.1-4.7-5.5
		c-0.5-4.7-8.3-12.5-13-13c-1.3-4.4-7.3-9.4-11.6-9.6c-0.2,0-0.3-0.1-0.4-0.3c0.5-2.1-1-3-2.4-4c-16.3-12.7-33.9-23.4-52.4-32.6
		c-35.3-17.7-71.2-33.7-110.1-42c-2.9-0.6-6-2.7-9.1-0.2c-0.8,0.3-1.4,0.1-2-0.4c-2.7-3.2-10-4.1-14-1.7c-1.4,0.7-2.8,0.8-4.1-0.3
		c-1.6-3.8-5.2-2.9-8-3c-3.3-0.1-4.9-1.1-5.2-4.5c-0.9-9.3,0.8-18.5,1.7-27.6c1.3-13,2.3-26,3.6-39.1c1.2-11.7,2.1-23.4,3.2-35.1
		c1.2-12,2.5-24,3.8-36c1.1-11.4,2.1-22.8,3.3-34.1c1.2-11.9,2.5-23.7,3.7-35.5c1.1-11.7,2.1-23.4,3.2-35.1
		c1.2-12.2,2.6-24.4,3.8-36.5c1.1-11.2,2.1-22.4,3.3-33.6c1.2-11.4,2.6-22.7,3.7-34c1.1-11.2,2.1-22.4,3.2-33.6
		c1.2-11.9,2.6-23.7,3.8-35.5c1.1-10.5,2.1-21.1,3.2-31.6c1.6-15,3.3-29.9,4.8-44.9c1.2-11.4,2.1-22.8,3.2-34.1
		c1.5-15.3,3.2-30.6,4.8-45.9c1.1-11,2.1-22.1,3.2-33.1c1.2-12.3,2.6-24.7,3.8-37c0.8-8.2,1.4-16.5,2.2-24.7
		c1.6-15.6,3.2-31.3,4.8-46.9c1.1-11,2.1-22.1,3.2-33.1c1.2-11.7,2.6-23.4,3.8-35c1.2-11.5,2-23.1,3.2-34.6
		c1.5-14.5,3.3-28.9,4.8-43.4c1.5-15,2.6-30,4.2-45c2.1-20.7,4.6-41.4,6.8-62.2c0.2-1.6,1.1-3.8-1.4-4.8c-0.3-1-0.7-2-1-3
		c0.3-0.2,0.5-0.2,0.8,0.1c4.5-1.6,3.8-3.9,0.8-6.5c0-1.2,0.5-2.5-0.6-3.5c0.3-0.2,0.5-0.2,0.8,0.1c4.5-1.2,3.4-3.6,1.2-6.1
		c-0.5-0.9,0-2.2-1-3c0.3-0.2,0.5-0.2,0.8,0.1c4.5-1.2,3.4-3.6,1.2-6.1c-0.5-0.9,0-2.2-1.1-3c0.3-0.2,0.5-0.2,0.8,0.1
		c3.4-1.5,3.8-3.4,1.3-7.2c-0.4-0.6-0.7-1.2-1.1-1.8c0.3-0.4,0.6-0.7,0.9-1.1c4.4-1.2,3.3-3.5,1.2-6.1c-0.5-0.9,0-2.2-1-3
		c0.3-0.2,0.5-0.2,0.8,0.1c4.5-1.2,3.4-3.6,1.2-6.1c0-1,0.1-1.9,0.1-2.9c3.9-1.9,3.2-4.4,0.9-7.1c-0.5-0.9,0-2.1-1-2.8
		c0.3-0.4,0.6-0.7,0.9-1.1c4.4-1.3,3.2-3.6,1.2-6.1c0-0.6,0-1.2,0-1.8c3.9-1.9,3.4-4.1,0.5-6.5c0.2-0.8,0.3-1.6,0.5-2.4
		c4.5-2.2,2.8-5.2,1-8.1c0-0.6,0-1.3,0-1.9c3.9-1.9,3.3-4.4,0.9-7.1c0-1,0.1-1.9,0.1-2.9c3.9-1.9,3.2-4.4,1-7.1c0-0.6,0-1.3,0-1.9
		c3.9-1.9,3.3-4.4,0.9-7.1c0-0.6,0-1.3,0.1-1.9c4.2-1.5,3.1-3.4,0.5-5.5c0.1-0.9,0.2-1.9-0.6-2.6c0.3-0.2,0.6-0.2,0.8,0.1
		c4.5-1.2,3.4-3.5,1.3-6.1c0-0.6,0-1.3,0-1.9c4.1-1.4,2.9-3.7,0.9-6.1c0-0.6,0-1.3,0.1-1.9c3.9-1.9,3.2-4.4,1-7.1c0-0.6,0-1.3,0-1.9
		c4.2-1.5,2.8-3.7,0.9-6.1c-0.3-1-0.7-2-1-3c0.3-0.2,0.5-0.2,0.8,0.1c4-0.9,3.7-2.7,1.2-5.1c0-1,0.1-1.9,0.1-2.9
		c3.9-1.9,3.2-4.4,0.9-7.1c0-1,0-1.9,0.1-2.9c1.7,0.1,2.3-0.8,2.4-2.4c0.6-4.9,1.6-9.7,1.9-14.7c0.1-2.6,3.2-5.6-0.4-8.1
		c-0.3-0.7-0.7-1.3-1-2c0.3-0.2,0.6-0.2,0.8,0.1c2.8,0.2,2.8-1.7,2.8-3.6c-0.1-4.2,1.1-8.2,2-12.2c1-4.4,3.5-6.7,8.1-7.5
		c15.8-3,31.5-6.4,47.2-9.7c15.2-3.2,30.5-6.3,45.7-9.6c1.6-0.4,4.5,0.2,4-3.1c0.4-0.1,0.7-0.1,1.1-0.2c3.5,2.8,7.3,2,8.9-1.8
		c0.6-0.6,1.2-0.8,2-0.4c-0.1,1.1,0.3,2,1.6,1.9c1.5-0.1,1.6-1.4,1.5-2.6c-0.3-0.2-0.3-0.5-0.1-0.8c0.6,0.3,1.3,0.7,1.9,1
		c4.1,2.7,7.6-1,11.4-1c0.7,0,0.8-1.3,0.7-2.2c0.6-0.6,1.3-0.8,2.1-0.4c-0.1,1.1,0.3,2,1.5,1.9c1.5-0.1,1.6-1.3,1.4-2.5
		c0.6-0.6,1.3-0.8,2.1-0.4c-0.1,1.1,0.3,2,1.5,1.9c1.5-0.1,1.5-1.4,1.5-2.6c-0.3-0.2-0.3-0.5-0.1-0.8c0.6,0.3,1.3,0.7,1.9,1
		c4,2.3,7.6-0.7,11.5-1c0.8-0.1,0.8-1.3,0.7-2.2c0.4-0.1,0.7-0.2,1.1-0.2c0.8,0.9,1.4,2.3,3,1.6c1-0.4,1-1.5,0.9-2.4
		c0.6-0.6,1.3-0.8,2.1-0.4c-0.1,2,1.1,2.5,2.5,1.7c3-1.7,7.8,0.5,9.4-4.3c0.6-0.6,1.3-0.8,2.1-0.4c-0.1,1.1,0.3,2,1.5,1.9
		c1.5-0.1,1.6-1.3,1.4-2.5c0.4-0.1,0.7-0.1,1.1-0.2c0.3,1.3,1.3,1.9,2.5,1.8c1.5-0.2,1.6-1.4,1.5-2.6c-0.3-0.2-0.3-0.5-0.1-0.8
		c0.6,0.3,1.3,0.7,1.9,1c3,1.7,15.2-0.5,17.1-3.2c0.2-0.2,0-0.6,0-1c0.4-0.1,0.7-0.1,1.1-0.2c0.3,1.3,1.3,1.9,2.5,1.8
		c1.5-0.2,1.6-1.3,1.4-2.6c0.6-0.6,1.2-0.8,2-0.4c-0.1,1.1,0.3,2,1.5,1.9c1.5-0.1,1.6-1.3,1.4-2.6c0.4-0.1,0.7-0.1,1.1-0.2
		c0.5,1.6,1.6,2.1,3.1,1.7c5.8-1.2,11.6-2.5,17.4-3.7c1.7-0.3,2.8-0.8,2.5-2.8c0.6-0.6,1.3-0.8,2.1-0.4c-0.1,1.1,0.2,2,1.5,1.9
		c1.5-0.1,1.6-1.4,1.5-2.5c-0.3-0.2-0.3-0.5-0.1-0.8c0.6,0.3,1.3,0.7,1.9,1c2.8,1.6,15-0.7,17-3.1c0.1-0.2-0.1-0.6-0.1-1
		c0.2-0.2,0.4-0.2,0.6-0.1c1.9,1.1,4.1,3.8,4.7-1c0.4-0.1,0.7-0.1,1.1-0.2c0.3,1.3,1.3,1.9,2.5,1.8c1.5-0.2,1.6-1.3,1.4-2.6
		c0.4-0.1,0.7-0.1,1.1-0.2c0.3,1.3,1.3,1.9,2.5,1.8c1.5-0.2,1.6-1.4,1.5-2.6c-0.3-0.2-0.3-0.5-0.1-0.8c0.6,0.3,1.3,0.7,1.9,1
		c4,2.3,7.7-0.2,11.4-1c0.8-0.2,0.8-1.3,0.7-2.2c0.6-0.6,1.2-0.8,2-0.4c-0.1,1.1,0.3,2,1.5,1.9c1.5-0.1,1.6-1.3,1.4-2.5
		c0.6-0.6,1.3-0.8,2.1-0.4c-0.1,1.1,0.3,2,1.5,1.9c1.5-0.1,1.6-1.3,1.4-2.5c0.6-0.6,1.2-0.8,2-0.4c-0.1,1.1,0.3,2,1.6,1.9
		c1.5-0.1,1.6-1.4,1.5-2.6c-0.3-0.2-0.3-0.5-0.1-0.8c0.6,0.3,1.3,0.7,1.9,1c0.3,0.4,0.6,1.1,0.9,1.1c6.6-1.2,13.2-2.4,19.7-3.6
		c1.5-0.3,1.7-1.3,1.5-2.6c0.6-0.6,1.2-0.8,2-0.4c-0.1,1.1,0.3,2,1.5,1.9c1.5-0.1,1.6-1.3,1.4-2.5c0.6-0.6,1.2-0.8,2-0.4
		c-0.1,1.1,0.3,2,1.5,1.9c1.5-0.1,1.6-1.3,1.4-2.5c0.6-0.6,1.2-0.8,2-0.4c-0.1,1.1,0.3,2.1,1.6,1.9c1.5-0.1,1.6-1.4,1.5-2.6
		c-0.3-0.2-0.3-0.5-0.1-0.8c0.6,0.3,1.3,0.7,1.9,1c4.1,2.7,7.6-1,11.4-1c0.7,0,0.8-1.3,0.7-2.2c0.4-0.1,0.7-0.1,1.1-0.2
		c3.5,2.8,7.3,2,8.9-1.8c0.6-0.6,1.2-0.8,2-0.4c-0.1,1.1,0.3,2,1.5,1.9c1.5-0.1,1.6-1.3,1.4-2.5c0.4-0.1,0.7-0.1,1.1-0.2
		c0.3,1.3,1.3,1.9,2.5,1.8c1.5-0.2,1.6-1.4,1.4-2.6c0.4-0.2,0.8-0.3,1.2-0.5c0.2,0.2,0.4,0.5,0.7,0.7c4,2.7,7.6-1,11.4-1
		c0.7,0,0.8-1.3,0.7-2.2c0.4-0.1,0.7-0.1,1.1-0.2c3.5,2.8,7.3,2,8.9-1.8c0.6-0.6,1.2-0.8,2-0.4c-0.1,1.1,0.3,2,1.5,1.9
		c1.5-0.1,1.6-1.3,1.4-2.5c0.4-0.1,0.7-0.1,1.1-0.2c0.3,1.3,1.3,1.9,2.5,1.8c1.5-0.2,1.6-1.4,1.4-2.6c0.4-0.2,0.8-0.3,1.2-0.5
		c0.2,0.2,0.5,0.5,0.7,0.7c0.3,0.8,0.8,1.6,1.8,1.4c6.1-1.2,12.2-2.6,18.3-3.8c1.6-0.3,2.3-1.2,2-2.7c0.4-0.1,0.7-0.1,1.1-0.2
		c0.3,1.3,1.3,1.9,2.5,1.8c1.5-0.2,1.6-1.4,1.4-2.6c0.4-0.2,0.8-0.3,1.2-0.5c0.2,0.2,0.4,0.5,0.7,0.7c2.8,1.6,15.2-0.7,17.1-3.2
		c0.2-0.2,0-0.6,0-1c0.6-0.6,1.2-0.8,2-0.4c-0.1,1.1,0.3,2,1.5,1.9c1.5-0.1,1.6-1.3,1.4-2.5c0.4-0.1,0.7-0.1,1.1-0.2
		c0.3,1.3,1.3,1.9,2.5,1.7c1.5-0.2,1.6-1.3,1.4-2.6c0.4-0.1,0.7-0.1,1.1-0.2c0.3,1.3,1.3,1.9,2.5,1.8c1.5-0.2,1.6-1.3,1.4-2.6
		c0.6-0.6,1.2-0.8,2-0.4c0.2,0.6,0.5,1.6,0.6,1.6c3.9-0.6,8.3,0.1,11.4-3.2c0.6-0.1,1.3-0.2,1.9-0.3c1.4,1.5,2.4,1.3,3-0.7
		c0.7-0.1,1.3-0.2,2-0.3c1.4,1.5,2.5,1.3,3-0.7c0.7-0.1,1.3-0.2,2-0.3c0.8,1.3,1.9,0.8,3.1,0.6c6.2-1.3,12.4-2.2,18.5-3.7
		c1.8-0.5,4.6,0.3,5.4-2.5c0.7-0.1,1.3-0.2,2-0.3c6.1,0.5,11.8-0.2,17-3.7c0.7-0.1,1.3-0.2,2-0.3c1.4,1.6,2.5,1.3,3-0.7
		c0.7-0.1,1.3-0.2,2-0.3c4.7,1.6,8.8-0.9,13.2-1.7c3-0.5,6.7,0.3,8.8-3.1c0.7-0.1,1.3-0.2,2-0.3c4.4,0.9,8.5,0.2,12-2.7
		c0.7-0.1,1.3-0.2,2-0.3c0.8,1.2,2,1,3.1,0.8c5.1-1.2,10.3-2.3,15.4-3.5c1.3-0.3,3.2,0.1,3.5-2c0.7-0.1,1.3-0.2,2-0.3
		c1,1.4,2.3,1,3.6,0.7c6-1.3,12-2.3,18-3.9c1.8-0.5,4.6,0.2,5.5-2.5c0.7-0.1,1.3-0.2,2-0.3c1.4,1.6,2.5,1.3,3-0.7
		c0.7-0.1,1.3-0.2,2-0.3c0.8,1.3,1.9,0.8,3.1,0.6c6.2-1.3,12.4-2.2,18.5-3.7c1.8-0.5,4.6,0.3,5.5-2.5c0.7-0.1,1.3-0.2,2-0.3
		c4.7,1.6,8.8-0.9,13.2-1.7c3-0.5,6.7,0.2,8.8-3c0.7-0.1,1.3-0.2,2-0.3c1.4,1.5,2.5,1.3,3-0.7c0.7-0.1,1.3-0.2,2-0.3
		c1.4,1.6,2.5,1.3,3-0.7c0.7-0.1,1.3-0.2,2-0.3c2,2.3,4.2,0.3,5.9-0.1c3.7-1,8.3,0.1,11.2-3.5c0.7-0.1,1.3-0.2,2-0.3
		c1.4,1.5,2.5,1.3,3-0.7c0.7-0.1,1.3-0.2,2-0.3c1.4,1.6,2.5,1.3,3-0.7c0.7-0.1,1.3-0.2,2-0.3c4.5,1.7,8.5-0.8,12.7-1.5
		c3.2-0.5,7,0.1,9.3-3.1c0.7-0.1,1.3-0.2,2-0.3c1.4,1.5,2.5,1.3,3-0.7c0.7-0.1,1.3-0.2,2-0.3c1.4,1.6,2.5,1.3,3-0.7
		c0.7-0.1,1.3-0.2,2-0.3c4.5,1.4,8.4,0,12-2.6c0.7-0.1,1.3-0.2,2-0.3c3.2,1.6,5.8,0.7,8-1.7c0.7-0.1,1.3-0.2,2-0.3
		c3.2,1.7,5.8,0.8,8-1.7c0.7-0.1,1.3-0.2,2-0.3c1.4,1.6,2.5,1.3,3-0.7c0.7-0.1,1.3-0.2,2-0.3c6.1,0.5,11.8-0.2,17-3.7
		c0.7-0.1,1.3-0.2,2-0.3c3.2,1.7,5.8,0.8,8-1.7c0.7-0.1,1.3-0.2,2-0.3c4.5,1.8,8.5-0.8,12.7-1.5c3.2-0.5,7,0.2,9.3-3.2
		c0.7-0.1,1.3-0.2,2-0.3c1.4,1.5,2.5,1.3,3-0.7c0.7-0.1,1.3-0.2,2-0.3c3.2,1.7,5.8,0.8,8-1.7c0.7-0.1,1.3-0.2,2-0.3
		c0.8,1.3,1.9,0.8,3,0.6c7.9-1.6,15.8-2.9,23.6-4.8c1.8-0.4,4.5,0.3,5.4-2.5c0.7-0.1,1.3-0.2,2-0.3c1.4,1.6,2.4,1.3,3-0.7
		c0.7-0.1,1.3-0.2,2-0.3c2.8,1.5,5.1,0.6,7-1.6c0.7-0.1,1.3-0.2,2-0.3c4.8,2,9.2-0.9,13.7-1.6c3.1-0.5,7,0.2,9.3-3.2
		c0.7-0.1,1.3-0.2,2-0.3c1.4,1.6,2.5,1.4,3-0.7c0.7-0.1,1.3-0.2,2-0.3c6.1,0.5,11.8-0.2,17-3.7c0.7-0.1,1.3-0.2,2-0.3
		c1.4,1.5,2.4,1.3,3.1-0.7c0.6-0.1,1.3-0.2,1.9-0.3c1.4,1.5,2.4,1.3,3-0.7c0.7-0.1,1.3-0.2,2-0.3c1.4,1.5,2.4,1.3,3-0.7
		c0.7-0.1,1.3-0.2,2-0.3c1.2,1.5,2.6,0.8,4,0.5c7.5-1.6,15.1-2.9,22.6-4.7c1.8-0.4,4.5,0.2,5.4-2.5c0.7-0.1,1.3-0.2,2-0.3
		c3.2,1.7,5.8,0.8,8-1.7c0.7-0.1,1.3-0.2,2-0.3c2.1,2.3,4.5,0.3,6.4-0.2c5.3-1.3,11.1-0.7,15.6-4.5c0.7-0.1,1.3-0.2,2-0.3
		c1.4,1.5,2.5,1.3,3-0.7c0.7-0.1,1.3-0.2,2-0.3c1.4,1.5,2.5,1.3,3-0.7c0.7-0.1,1.3-0.2,2-0.3c1.4,1.5,2.5,1.3,3-0.7
		c0.7-0.1,1.3-0.2,2-0.3c1.4,1.6,2.4,1.4,3-0.7c0.7-0.1,1.3-0.2,2-0.3c0.8,1.3,1.9,0.8,3,0.6c7.9-1.6,15.8-2.9,23.6-4.8
		c1.8-0.4,4.5,0.3,5.4-2.5c0.7-0.1,1.3-0.2,2-0.3c1.4,1.6,2.5,1.3,3-0.7c0.7-0.1,1.3-0.2,2-0.3c4.4,1,8.5,0.2,12-2.6
		c0.7-0.1,1.3-0.2,2-0.3c1.4,1.5,2.5,1.3,3-0.7c0.7-0.1,1.3-0.2,2-0.3c4.8,1.1,9.1,0.4,13-2.8c0.7-0.1,1.3-0.2,2-0.3
		c1.4,1.5,2.5,1.3,3-0.7c0.7-0.1,1.3-0.2,2-0.3c1.4,1.6,2.4,1.3,3-0.7c0.7-0.1,1.3-0.2,2-0.3c1.4,1.6,2.4,1.4,3-0.7
		c0.7-0.1,1.3-0.2,2-0.3c4.7,1,9.1,0.1,13-2.7c0.7-0.1,1.3-0.2,2-0.3c1.5,1.6,2.5,1.3,3-0.7c0.7-0.1,1.3-0.2,2-0.3
		c1.4,1.6,2.4,1.4,3-0.7c0.7-0.1,1.3-0.2,2-0.2c4.5,1.2,8.5,0.1,12-2.8c0.7-0.1,1.3-0.2,2-0.3c4.4,0.9,8.5,0.3,12-2.7
		c0.7-0.1,1.3-0.2,2-0.3c1.4,1.5,2.5,1.3,3-0.7c0.7-0.1,1.3-0.2,2-0.3c1.4,1.5,2.4,1.3,3-0.7c0.7-0.1,1.3-0.2,2-0.3
		c4.5,1.8,8.5-0.8,12.7-1.5c3.2-0.5,7,0.2,9.3-3.1c0.7-0.1,1.3-0.2,2-0.3c1.4,1.5,2.5,1.3,3-0.7c0.7-0.1,1.3-0.2,2-0.3
		c4.8,1.2,9.1,0.4,13-2.7c0.7-0.1,1.3-0.2,2-0.3c4.5,1.8,8.5-0.8,12.7-1.5c3.2-0.5,7,0.2,9.3-3.2c0.7-0.1,1.3-0.2,2-0.3
		c1.4,1.6,2.5,1.3,3-0.7c0.7-0.1,1.3-0.2,2-0.3c3.1,1.2,5.8,0.9,8-1.7c0.7-0.1,1.3-0.2,2-0.2c3.4,1.1,6.9,2.1,9.9,4
		c0.8,0.8,1,2.4,2.7,2c1.2,1.7,2.4,3.4,3.6,5.1c-1,2.5,1,3.6,2.4,4.9c10.8,11,24.7,16.1,39.1,20c3,0.8,6,3.1,9.5,1.3
		c0.6,0.1,1.3,0.3,1.9,0.4c0.3,1.7,1.8,1.2,2.8,1.6c1.5,2.5,3.3,2.1,5.2,0.5c0.9-0.1,2.1,0.8,2.7-0.7c0.7,0.2,1.5,0.3,2.2,0.5
		c1,1.9,2.2,2,3.7,0.6c1.8,0,3.7,0,5.5,0c2.4,1.8,5.2,0.3,7.7,1.1c0.6,2,1.9,1.8,3.4,1.2c0.6,0.2,1.2,0.3,1.8,0.5
		c-0.1,1.4,0.5,2.1,1.9,1.9c0.2,0.6,0.3,1.2,0.5,1.8c-0.7,1.3-0.2,2.1,1.2,2.4c0.3,4.3,0.5,8.6,0,12.9c-1.4,0.4-2.1,1-0.5,2.1
		c0,2.6,0,5.3,0,7.9c-1.6,2.5-2.2,4.9,0.5,7.1c0.2,7.6,0.3,15.2,0.5,22.9c-1.6,2.5-2.2,4.9,0.5,7.1c0.2,7.6,0.3,15.2,0.5,22.9
		c-2.2,6.9-1.4,13.8-0.3,20.7c0,0.2,0.6,0.3,0.9,0.4c0.2,12,0.4,24,0.6,36c-1.9,2.8-2.5,5.5,0.4,8c0.1,2.8,0.2,5.7,0.2,8.5
		c0,204.3,0,408.6,0,612.9c0,32.2-0.1,64.3-0.2,96.5c-2.6,0.8-1.6,3-1.6,4.6c-0.1,19.2-0.1,38.4,0,57.6c0,1.7-0.7,3.7,1.3,5
		c0,0.5-0.1,1-0.1,1.5c-0.1,46.9-0.2,93.8-0.2,140.7c0,1.2-0.6,2.7,1.1,3.4c0,6.4,0.5,12.8-0.6,19.2c-4.4,1.3-2.7,3.8-1.1,6.2
		c-0.1,32.6-0.3,65.1-0.4,97.7c0,1.1-0.4,2.4,1.1,2.9c0,5.7,0.6,11.5-0.6,17.2c-1-0.1-2,0-2.3,1.2c-0.2,1,0.3,1.5,1.1,1.9
		c-0.1,3.1-0.5,6.3-0.2,9.4c0.3,3.4-1.5,7.1,1,10.3c-0.1,4.8-0.2,9.6-0.3,14.4c-2.3,0.3-1.4,2.2-1.7,3.5c-1.8,6.3-5,11.8-11.7,13.1
		c-8.7,1.7-17,4.6-25.6,6.5c-36.6,8.4-73.2,16.8-109.8,25c-60.6,13.5-121.3,26.7-182,40c-57.6,12.7-115.2,25.3-172.8,37.9
		c-41.4,9.1-82.8,18-124.1,27.1c-33.3,7.3-66.5,14.7-99.8,22c-37.6,8.3-75.3,16.5-112.9,24.8c-1.6,0.4-3.9-0.1-4.1,2.6
		c-0.6,0.1-1.2,0.2-1.8,0.4c-2-2-4.2-0.3-5.9,0.2c-5.1,1.4-10.9,0.7-15.3,4.5c-0.6,0.1-1.2,0.2-1.8,0.4c-0.5-0.7-1.3-1-2.2-0.8
		c-6.2,1.2-12.4,2.5-18.6,3.9c-3,0.7-7.3-0.1-9.5,3.5c-0.6,0.1-1.2,0.3-1.8,0.4c-0.9-1.1-2-0.9-3.1-0.6c-5.8,1.3-11.7,2.2-17.4,3.9
		c-3.3,1-7.3,0-9.7,3.4c-0.6,0.1-1.2,0.2-1.8,0.4c-2.9-1.6-5.2-0.6-7.2,1.6c-0.6,0.1-1.2,0.2-1.8,0.4c-2.9-1.6-5.2-0.6-7.2,1.6
		c-0.6,0.1-1.2,0.2-1.8,0.4c-4.5-1-8.6-0.2-12.2,2.7c-0.6,0.1-1.2,0.2-1.8,0.4c-2.9-1.6-5.2-0.6-7.2,1.6c-0.6,0.1-1.2,0.2-1.8,0.4
		c-4.5-1-8.6-0.2-12.2,2.7c-0.6,0.1-1.2,0.2-1.8,0.4c-2-2.1-4.1-0.3-5.9,0.1c-5.1,1.3-10.9,0.8-15.3,4.5c-0.6,0.1-1.2,0.2-1.8,0.4
		c-4.5-1-8.6-0.2-12.2,2.6c-0.6,0.1-1.2,0.2-1.8,0.4C538.2,1564.5,534.1,1565.4,530.5,1568.2z M280.3,1473.9h-0.1
		c0,38.8,0,77.7,0,116.5c0,6.2,0.8,6.8,6.7,5c4.6-1.4,9.2-2.8,13.9-4c35.1-8.7,70.3-17.1,105.7-25c63.6-14.3,127.3-28.7,190.9-43
		c40.6-9.1,81.3-18,122-27.1c32.4-7.2,64.8-14.6,97.2-21.8c62.4-13.8,124.8-27.5,187.2-41.3c42.5-9.4,84.9-18.7,127.4-28.1
		c30.8-6.8,61.5-13.8,92.3-20.6c50.2-11.1,100.5-22.1,150.8-33.2c25.9-5.7,51.9-11.5,77.8-17c28.4-6.1,56.7-12.6,85.3-17.5
		c4.6-0.8,6.1-3,5.9-7.5c-0.5-10.3-0.3-20.6-0.7-30.9c-1-22.8-0.7-45.6-0.9-68.4c-1-88.9-0.9-177.8-1-266.7
		c-0.3-256.3-1.7-512.5,0.7-768.8c0.1-5.8,0.4-11.6,0.7-17.4c0.9-22.1,1-44.2,2.2-66.3c0.3-5.1-1.3-6.2-6.3-5.1
		c-33,7.6-66.1,14.6-99.2,21.7c-41.2,8.8-82.2,18.6-123.4,27.7c-56.4,12.5-112.8,24.9-169.2,37.2c-50.7,11.1-101.5,22.1-152.3,33.1
		c-46.5,10.2-93,20.5-139.6,30.6c-54.8,11.9-109.7,23.7-164.5,35.6c-39.9,8.7-79.7,17.7-119.6,26.4
		c-61.3,13.4-122.5,27.1-183.9,40.1c-34.4,7.3-68.8,14.5-103.6,19.9c-4.3,0.7-5.6,2.7-5.4,6.7c0.2,5.8,0.7,11.6,0.9,17.4
		c0.7,18.3,0.4,36.6,0.9,54.9c1.2,40.9,0.8,81.9,0.9,122.9c1.2,247.3-0.9,494.5,1.2,741.8c0.2,19.6-0.2,39.3-0.5,58.9
		C279.9,1398.6,280.3,1436.3,280.3,1473.9z M260.3,376.8c0-1.7,0-3.3,0-5c0-5.7-0.6-6.2-6-4.4c-0.9,0.3-1.9,0.7-2.8,1
		c-15.9,5.7-32.2,7.6-48.8,3.9c-17.4-3.9-32.7-11.9-44.1-26c-2-2.4-4-4.8-6.2-7.2c-1.4-1.6-2.4-2-3.3,0.8c-1.2,4-0.6,7.9-0.9,11.9
		c-1.3,15.8-2.6,31.7-3.9,47.5c-1,11.4-2.1,22.7-3.2,34.1c-1.3,13.3-2.6,26.7-3.8,40c-0.8,8.4-1.4,16.8-2.3,25.2
		c-1.2,12.2-2.6,24.3-3.7,36.5c-1.1,11.7-2.1,23.4-3.2,35.1c-1.2,13-2.6,26-3.8,39c-0.8,7.7-1.4,15.5-2.2,23.2
		c-1.2,11.7-2.6,23.3-3.8,35c-1.2,11.9-2.1,23.7-3.2,35.6c-1.2,12.8-2.6,25.7-3.9,38.5c-0.8,7.7-1.5,15.5-2.3,23.2
		c-1.2,11.2-2.5,22.3-3.7,33.5c-1.1,11-2.1,22.1-3.2,33.1c-1.2,12.2-2.5,24.3-3.8,36.5c-1.1,10.9-2.1,21.7-3.2,32.6
		c-1.2,11.8-2.6,23.7-3.7,35.5c-1.1,11.7-2.1,23.4-3.2,35.1c-1.2,12.3-2.6,24.7-3.8,37c-0.8,8.1-1.4,16.2-2.2,24.2
		c-1.2,12.5-2.6,25-3.8,37.5c-1.1,12-2,24.1-3.2,36.1c-1.2,12.5-2.6,25-3.8,37.5c-0.8,7.9-1.4,15.8-2.2,23.7
		c-1.2,12.7-2.6,25.3-3.8,38c-1.1,11.4-2.1,22.7-3.2,34.1c-1.2,11.5-2.5,23-3.8,34.5c-0.8,7.9-1.5,15.8-2.3,23.7
		c-1.2,11.5-2.5,23-3.7,34.5c-1.1,11.4-2.1,22.7-3.2,34.1c-1.2,12.3-2.5,24.7-3.8,37c-1.1,10.9-2.2,21.7-3.4,32.6
		s-2.6,21.7-3.5,32.5c-0.5,5.5,1.1,6.2,6.4,5.6c14.6-1.8,29.2-3.3,43.9-4.7c12.7-1.2,25.4-1.9,38.1-3.2c15.3-1.6,30.7-2.8,46-3.9
		c9.4-0.7,18.8-1.6,28.2-2.2c15.2-1,30.3-2.7,45.5-3.7c9.2-0.6,10.7-1.7,10.7-10.8c0.6-310.9-1.2-621.8,1.1-932.7
		c0.2-25.1-0.7-50.2,0.8-75.4C260.3,417.4,258.4,397.1,260.3,376.8z M226.1,351.5c8.4,1.4,17.6-1,26.3-5c6.9-3.2,13.9-4.8,21.2-6.4
		c21.6-4.8,43.4-9.3,65-14.4c37.5-8.9,75.3-16.8,112.9-25.2c20.4-4.5,40.7-9.3,61-13.8c35.2-7.8,70.5-15.4,105.7-23.2
		c23.4-5.2,46.8-10.6,70.2-15.8c36.7-8.1,73.4-16.1,110.1-24.2c47.7-10.6,95.3-21.4,143-32c35.2-7.8,70.5-15.4,105.7-23.2
		c27.6-6.1,55.3-12.2,82.9-18.3c24.6-5.5,49.1-11.1,73.7-16.4c34.1-7.5,68.2-14.8,102.3-22.2c17.6-3.9,35.2-7.9,52.8-11.8
		c24.7-5.4,49.5-10.8,74.2-16.1c4.1-0.9,6.3-3.4,6.8-7.4c1.2-9.5,2-19.1,3.9-28.5c0.7-3.3-1.7-5.4-5.1-4.7
		c-15.2,3-30.5,5.9-45.7,9.3c-20.3,4.6-40.9,8.2-61.3,12.4c-28.5,5.9-57,11.7-85.5,17.9c-12.6,2.7-25.3,5-37.9,7.9
		c-21,4.8-42.2,8.4-63.2,12.7c-23,4.7-46,9.7-69,14.4c-32.1,6.6-64.2,13.1-96.3,19.7c-19.8,4-39.6,7.9-59.3,12.2
		c-27.8,6-55.8,11.2-83.7,16.8c-29.7,6-59.3,12.2-89,18.2c-29.5,6-59.1,11.6-88.6,17.6c-31.6,6.4-63.2,13-94.8,19.5
		c-33.6,6.8-67.1,13.5-100.7,20.3c-40.5,8.2-81,16.6-121.6,24.9c-30.1,6.1-60.1,13.1-90.5,18.2c-20.4,3.5-40.6,7.8-60.9,11.6
		c-9.1,1.7-18.3,2.7-27.5,4.1c-3.7,0.5-6.3,2.2-4.9,6.3c3.1,8.8,6.9,17.3,13.6,24.1C186.7,345.6,204.2,352.4,226.1,351.5z
		 M256.3,1486.7c0-2.3-0.2-4.7,0-7c0.3-3.8-1.1-5.4-5.1-5.4c-3.5,0.1-6.9,0.8-10.4,1.1c-13.2,1-26.4,1.9-39.6,3.1
		c-19.2,1.8-38.4,4.2-57.7,5.8c-16.6,1.4-33.2,3.4-49.9,4.3c-3.9,0.2-7.9,0.6-11.9,0.9c-1.2,0.1-2.9,0.4-3,2.1
		c-0.1,1.3,1.3,1.8,2.4,2.2c3.3,1.1,6.7,2,10,3.1c33.8,10.8,66.2,24.7,96.5,43.3c22.5,13.8,44.8,27.8,64,46.1
		c1.2,1.1,2.1,3.6,4.3,2.5c2-1,1.2-3.3,1.2-5c-0.1-19.9,0.3-39.9-0.8-59.8C255.8,1511.5,256.3,1499.1,256.3,1486.7z M1469.8,75.6
		c2.6-0.5,6.1-1.2,9.7-2c7.3-1.6,14.5-3.3,21.8-4.9c1.1-0.3,2.3-0.6,2.5-2c0.1-1-0.6-1.6-1.4-1.8c-11.3-3.3-21.4-8.8-31-15.4
		c-2.4-1.7-3.5-0.9-4.2,2.2c-1.5,6.5-0.1,13.3-1.7,19.8C1464.7,73.9,1465.9,75.6,1469.8,75.6z"/>
	<path class="st1" d="M110.8,522.5c2.5,1,1.6,3.2,1.4,4.8c-2.2,20.7-4.6,41.4-6.8,62.2c-1.6,15-2.6,30-4.2,45
		c-1.5,14.5-3.3,28.9-4.8,43.4c-1.2,11.5-2.1,23.1-3.2,34.6c-1.2,11.7-2.6,23.4-3.8,35c-1.1,11-2.1,22.1-3.2,33.1
		c-1.6,15.6-3.2,31.3-4.8,46.9c-0.8,8.2-1.4,16.5-2.2,24.7c-1.2,12.4-2.5,24.7-3.8,37c-1.1,11-2.1,22.1-3.2,33.1
		c-1.6,15.3-3.2,30.6-4.8,45.9c-1.1,11.4-2.1,22.8-3.2,34.1c-1.5,15-3.2,29.9-4.8,44.9c-1.1,10.5-2.1,21.1-3.2,31.6
		c-1.2,11.8-2.6,23.7-3.8,35.5c-1.1,11.2-2.1,22.4-3.2,33.6c-1.2,11.4-2.6,22.7-3.7,34c-1.2,11.2-2.1,22.4-3.3,33.6
		c-1.2,12.2-2.6,24.4-3.8,36.5c-1.1,11.7-2.1,23.4-3.2,35.1c-1.2,11.9-2.5,23.7-3.7,35.5c-1.1,11.4-2.1,22.8-3.3,34.1
		c-1.2,12-2.6,24-3.8,36c-1.2,11.7-2.1,23.4-3.2,35.1c-1.3,13-2.3,26-3.6,39.1c-0.9,9.2-2.6,18.3-1.7,27.6c0.3,3.4,1.9,4.4,5.2,4.5
		c2.8,0.1,6.4-0.8,8,3c-1.1,0.7-2.2,0.2-3.3,0.1c-12.7-1.5-12.7-1.5-12.7-14.5c0-0.7-0.1-1.3-0.1-2c1.4-1.4,1.5-2.9,0.1-4.4
		c0.3-3.2,0.6-6.3,0.8-9.5c1.3-0.4,1.4-0.9,0.1-1.5c0.3-2.8,0.5-5.7,0.8-8.5c1.3-0.4,1.5-0.9,0.2-1.5c0.3-3.2,0.6-6.3,0.9-9.5
		c1.3-0.5,1.1-1.2,0.1-1.9c0.4-1.2,0.6-2.5,0.2-3.7c1.7-1.9,1.5-4.3,1.7-6.6c1.1-11.1,2-22.2,3.1-33.3c3.1-32.1,6.2-64.2,9.4-96.3
		c3.8-38.2,7.9-76.4,11.5-114.7c0.4-4.7,2.3-9.4,0.6-14.2c0.1-1.1,0.2-2.2,0.4-3.3c1.9-1.7,1.5-3.7,0.6-5.7c0.1-1.4,0.3-2.8,0.4-4.3
		c2-1.7,1.5-3.7,0.6-5.7c0.2-1.4,0.3-2.8,0.5-4.3c2-1.7,1.5-3.7,0.5-5.7c0.1-1.4,0.3-2.8,0.4-4.3c2-1.7,1.5-3.7,0.6-5.7
		c0.1-1.1,0.2-2.2,0.4-3.3c2.1-2.1,1.5-4.4,0.7-6.7c0.1-1.1,0.2-2.2,0.3-3.3c2.1-2,1.6-4.4,0.7-6.7c0.1-1.1,0.3-2.2,0.4-3.3
		c2-1.7,1.5-3.7,0.6-5.8c0.2-1.4,0.3-2.8,0.5-4.3c2-1.7,1.5-3.7,0.6-5.7c0.1-1.1,0.2-2.2,0.4-3.3c2.1-2.1,1.6-4.4,0.7-6.7
		c0.1-1.1,0.3-2.2,0.4-3.3c1.9-1.4,1.5-3.1,0.5-4.8c0.2-1.4,0.3-2.8,0.5-4.2c2-1.7,1.5-3.7,0.6-5.7c0.1-1.1,0.2-2.2,0.4-3.3
		c2-1.7,1.5-3.7,0.6-5.7c0.2-1.4,0.3-2.8,0.5-4.2c1.9-1.7,1.5-3.7,0.6-5.7c0.2-1.4,0.3-2.8,0.5-4.3c1.8-1.4,1.5-3.1,0.5-4.8
		c0.2-1.4,0.3-2.8,0.5-4.2c2-1.7,1.5-3.7,0.6-5.7c0.2-1.4,0.3-2.8,0.5-4.2c1.8-1.4,1.4-3.1,0.5-4.8c0.1-1.4,0.3-2.8,0.4-4.2
		c2-1.7,1.5-3.7,0.6-5.7c0.1-1.4,0.3-2.8,0.4-4.2c2-1.7,1.5-3.7,0.6-5.7c0.2-1.4,0.3-2.8,0.5-4.3c1.9-1.7,1.5-3.7,0.5-5.7
		c0.1-1.4,0.3-2.8,0.4-4.3c1.9-1.7,1.5-3.7,0.6-5.7c0.1-1.4,0.3-2.8,0.4-4.3c2-1.7,1.5-3.7,0.5-5.7c0.2-1.4,0.3-2.8,0.5-4.3
		c1.9-1.7,1.5-3.7,0.6-5.7c0.1-1.4,0.3-2.9,0.4-4.3c2-1.7,1.5-3.7,0.5-5.7c0.2-1.4,0.3-2.8,0.5-4.3c1.9-1.7,1.5-3.7,0.6-5.7
		c0.1-1.4,0.3-2.9,0.4-4.3c1.9-1.7,1.5-3.7,0.6-5.7c0.2-1.4,0.3-2.8,0.5-4.3c1.8-1.4,1.4-3.1,0.5-4.8c0.2-1.7,0.4-3.5,0.5-5.2
		c2-1.7,1.5-3.7,0.6-5.7c0.1-1.1,0.2-2.2,0.3-3.3c2.1-2.1,1.6-4.4,0.6-6.7c0.1-1.4,0.3-2.8,0.4-4.3c1.9-1.7,1.5-3.7,0.5-5.7
		c0.1-1.1,0.2-2.2,0.4-3.3c2.1-2.1,1.6-4.4,0.7-6.7c0.1-1.4,0.3-2.9,0.4-4.3c1.9-1.7,1.5-3.7,0.5-5.7c0.1-1.4,0.3-2.8,0.4-4.3
		c1.9-1.7,1.5-3.7,0.5-5.7c0.1-1.4,0.3-2.9,0.4-4.3c2-1.7,1.5-3.7,0.6-5.7c0.1-1.4,0.3-2.8,0.4-4.3c2-2.1,1.5-4.4,0.6-6.7
		c0.1-1.1,0.2-2.2,0.3-3.3c2-2.1,1.5-4.4,0.7-6.7c0.1-1.1,0.2-2.2,0.3-3.3c2.1-2.1,1.5-4.4,0.6-6.7c0.1-1.1,0.2-2.2,0.3-3.3
		c2.1-2,1.6-4.4,0.7-6.7c0.1-1.4,0.3-2.9,0.4-4.3c2-1.7,1.5-3.7,0.6-5.7c0.2-1.4,0.3-2.8,0.5-4.3c1.9-1.8,1.5-3.7,0.5-5.7
		c0.1-1.4,0.3-2.8,0.4-4.3c2-1.7,1.5-3.7,0.6-5.7c0.2-2.7,0.5-5.5,0.7-8.2c1.6-0.7,1.2-1.7,0.4-2.8c0.2-2.4,0.4-4.8,0.7-7.2
		c1.5-0.7,1.2-1.7,0.4-2.8c0.2-2.4,0.4-4.8,0.6-7.2c1.6-0.7,1-1.7,0.3-2.7c0.2-2.4,0.4-4.8,0.6-7.2c1.2-0.4,1.1-1.1,0.3-1.8
		c0.2-2.7,0.5-5.5,0.7-8.2c1.2-0.4,1.1-1.1,0.3-1.8c0.2-2.7,0.5-5.5,0.7-8.2c1.2-0.4,1.1-1.1,0.3-1.8c0.2-2.7,0.5-5.5,0.7-8.2
		c1.2-0.4,1.1-1.1,0.3-1.8c0.2-2.7,0.5-5.5,0.7-8.2c1.2-0.4,1.1-1.1,0.3-1.8c0.2-2.7,0.5-5.5,0.7-8.2c1.6-0.7,1-1.7,0.3-2.8
		c0.2-2.4,0.4-4.8,0.7-7.2c1.6-0.7,1-1.7,0.4-2.7c0.2-2.4,0.4-4.8,0.7-7.3c1.6-0.7,1-1.7,0.3-2.7c0.2-2.4,0.4-4.8,0.6-7.3
		c1.6-0.7,1.1-1.7,0.4-2.7c0.2-2.4,0.4-4.8,0.6-7.2c1.2-0.4,1.1-1.1,0.3-1.8c0.2-2.7,0.5-5.5,0.7-8.2c1.2-0.4,1.1-1.1,0.3-1.8
		c0.2-2.7,0.5-5.5,0.7-8.2c1.2-0.4,1.1-1.1,0.3-1.8c0.3-2.7,0.5-5.5,0.8-8.2c1.2-0.4,1.1-1.1,0.3-1.8c0.2-2.7,0.5-5.5,0.7-8.2
		c1.1-0.4,1.1-1,0.3-1.8c0.2-2.4,0.4-4.8,0.6-7.2c1.6-0.7,1-1.7,0.4-2.8c0.6-5.7,1.1-11.5,1.7-17.2c1.2-0.4,1.1-1.1,0.3-1.8
		c0.2-2.7,0.5-5.5,0.7-8.2c1.2-0.4,1.1-1.1,0.3-1.8c0.2-2.4,0.5-4.8,0.7-7.2c1.6-0.7,1.2-1.7,0.3-2.8c0.2-2.4,0.4-4.8,0.7-7.2
		c1.6-0.7,1.1-1.7,0.4-2.7c0.2-2.4,0.4-4.8,0.7-7.2c1.2-0.4,1.1-1.1,0.3-1.8c0.2-2.7,0.5-5.5,0.7-8.2c1.2-0.4,1.1-1.1,0.3-1.8
		c0.2-2.4,0.4-4.8,0.7-7.2c1.5-0.7,1.3-1.7,0.4-2.8c0.2-2.1,0.4-4.1,0.7-6.2C109.8,522.4,110.3,522.4,110.8,522.5z"/>
	<path class="st2" d="M723.4,1526.2c0.1-2.7,2.5-2.3,4.1-2.6c37.6-8.3,75.3-16.5,112.9-24.8c33.3-7.3,66.5-14.7,99.8-22
		c41.4-9.1,82.8-18,124.1-27.1c57.6-12.6,115.2-25.3,172.8-37.9c60.7-13.3,121.4-26.6,182-40c36.7-8.1,73.2-16.6,109.8-25
		c8.6-2,16.9-4.8,25.6-6.5c6.6-1.3,9.9-6.8,11.7-13.1c0.4-1.3-0.6-3.2,1.7-3.5c1.2,8.5-4.6,17-12.9,19.1
		c-45.3,11.6-91,21.7-136.7,31.7c-103.7,22.9-207.5,45.6-311.2,68.4c-126.8,27.8-253.7,55.6-380.5,83.4
		C725.6,1526.5,724.5,1527.3,723.4,1526.2z"/>
	<path class="st2" d="M1569.9,930.5c0.1-32.2,0.2-64.3,0.2-96.5c0-204.3,0-408.6,0-612.9c0-2.8-0.1-5.7-0.2-8.5
		c0.3-2.7,0.9-5.4-0.4-8c-0.2-12-0.4-24-0.6-36c1.1-3.6-0.8-7.4,1.1-10.9c1.6,1.3,0.8,3.1,0.9,4.7c2.2,74.5,1.4,148.9,1.4,223.4
		c0.1,190.9-0.1,381.9-0.3,572.8c0,1.9,0.8,4-0.8,5.7c-1.8-1.4-0.9-3.4-1-5.1C1570.1,949.7,1570,940.1,1569.9,930.5z"/>
	<path class="st2" d="M1259.2,56.5c-0.7,0.1-1.3,0.2-2,0.3c-10.8,1.7-21.6,3.4-32,6.7c-0.7,0.1-1.3,0.2-2,0.3
		c-1.1-0.3-2.2-0.4-3,0.7c-0.7,0.1-1.3,0.2-2,0.3c-1.1-0.3-2.2-0.4-3,0.7c-0.7,0.1-1.3,0.2-2,0.3c-1.1-0.3-2.2-0.4-3,0.7
		c-0.7,0.1-1.3,0.2-2,0.3c-1.1-0.3-2.2-0.4-3,0.7c-0.7,0.1-1.3,0.2-2,0.3c-7.5,0.9-14.9,2.2-22,4.7c-0.7,0.1-1.3,0.2-2,0.3
		c-2.8,0-5.5,0.3-8,1.7c-0.7,0.1-1.3,0.2-2,0.3c-10.8,1.6-21.5,3.6-32,6.7c-0.7,0.1-1.3,0.2-2,0.3c-1.1-0.3-2.2-0.4-3,0.7
		c-0.7,0.1-1.3,0.2-2,0.3c-1.1-0.3-2.2-0.4-3,0.7c-0.6,0.1-1.3,0.2-1.9,0.3c-1.1-0.3-2.2-0.4-3.1,0.7c-0.7,0.1-1.3,0.2-2,0.3
		c-5.8,0.6-11.6,1.4-17,3.7c-0.7,0.1-1.3,0.2-2,0.3c-1.1-0.3-2.2-0.4-3,0.7c-0.7,0.1-1.3,0.2-2,0.3c-7.8,1-15.5,2.3-23,4.8
		c-0.7,0.1-1.3,0.2-2,0.3c-2.5-0.3-4.8,0.4-7,1.6c-0.7,0.1-1.3,0.2-2,0.3c-1.1-0.3-2.2-0.4-3,0.7c-0.7,0.1-1.3,0.2-2,0.3
		c-10.8,1.7-21.6,3.4-32,6.7c-0.7,0.1-1.3,0.2-2,0.3c-2.8,0-5.5,0.4-8,1.8c-0.7,0.1-1.3,0.2-2,0.3c-1.1-0.3-2.2-0.4-3,0.7
		c-0.7,0.1-1.3,0.2-2,0.3c-7.5,1-14.9,2.2-22,4.7c-0.7,0.1-1.3,0.2-2,0.3c-2.8,0-5.5,0.4-8,1.7c-0.7,0.1-1.3,0.2-2,0.3
		c-5.8,0.7-11.6,1.4-17,3.7c-0.7,0.1-1.3,0.2-2,0.3c-1.1-0.3-2.2-0.4-3,0.7c-0.7,0.1-1.3,0.2-2,0.3c-2.8,0-5.5,0.3-8,1.7
		c-0.7,0.1-1.3,0.2-2,0.3c-2.8,0-5.5,0.3-8,1.7c-0.7,0.1-1.3,0.2-2,0.3c-4.2,0.2-8.2,0.8-12,2.6c-0.7,0.1-1.3,0.2-2,0.3
		c-1.1-0.3-2.2-0.4-3,0.7c-0.7,0.1-1.3,0.2-2,0.3c-1.1-0.3-2.2-0.4-3,0.7c-0.7,0.1-1.3,0.2-2,0.3c-7.5,0.9-14.9,2.2-22,4.7
		c-0.7,0.1-1.3,0.2-2,0.3c-1.1-0.3-2.2-0.4-3,0.7c-0.7,0.1-1.3,0.2-2,0.3c-1.1-0.3-2.2-0.4-3,0.7c-0.7,0.1-1.3,0.2-2,0.3
		c-5.8,0.7-11.6,1.4-17,3.7c-0.7,0.1-1.3,0.2-2,0.3c-1.1-0.3-2.2-0.4-3,0.7c-0.7,0.1-1.3,0.2-2,0.3c-1.1-0.3-2.2-0.4-3,0.7
		c-0.7,0.1-1.3,0.2-2,0.3c-7.5,1-14.9,2.2-22,4.7c-0.7,0.1-1.3,0.2-2,0.3c-9.1,1.4-18.2,2.7-27,5.7c-0.7,0.1-1.3,0.2-2,0.3
		c-1.1-0.3-2.2-0.4-3,0.7c-0.7,0.1-1.3,0.2-2,0.3c-9.2,1.2-18.2,2.9-27,5.7c-0.7,0.1-1.3,0.2-2,0.3c-7.5,0.9-14.9,2.3-22,4.8
		c-0.7,0.1-1.3,0.2-2,0.3c-4.2,0.3-8.2,0.8-12,2.7c-0.7,0.1-1.3,0.2-2,0.3c-7.5,1-14.9,2.2-22,4.7c-0.7,0.1-1.3,0.2-2,0.3
		c-1.1-0.3-2.2-0.4-3,0.7c-0.7,0.1-1.3,0.2-2,0.3c-5.8,0.7-11.6,1.4-17,3.7c-0.7,0.1-1.3,0.2-2,0.3c-9.1,1.4-18.2,2.7-27,5.7
		c-0.7,0.1-1.3,0.2-2,0.3c-1.1-0.3-2.2-0.4-3,0.7c-0.7,0.1-1.3,0.2-2,0.3c-1.1-0.3-2.2-0.4-3,0.7c-0.6,0.1-1.3,0.2-1.9,0.3
		c0-0.5,0-1-0.1-1.4c7.5-3.4,15.7-4,23.6-5.7c110.6-23,221.3-46,332-68.8c103.5-21.3,207.1-42.4,310.6-63.6
		c52.2-10.7,104.3-21.5,156.5-32.2c2.4-0.5,4.9-1,7.4-1.2c6-0.4,9.3,2.3,10.5,8.6c-1.7,0.4-1.9-1.1-2.7-2c-2-4.5-4.9-5.6-9.9-4
		c-0.7,0.1-1.3,0.2-2,0.2c-2.9-0.4-5.5,0.4-8,1.7c-0.7,0.1-1.3,0.2-2,0.3c-1.1-0.3-2.2-0.4-3,0.7c-0.7,0.1-1.3,0.2-2,0.3
		c-7.5,1-14.9,2.2-22,4.7c-0.7,0.1-1.3,0.2-2,0.3c-4.5,0.3-8.8,1-13,2.7c-0.7,0.1-1.3,0.2-2,0.3c-1.1-0.3-2.2-0.4-3,0.7
		c-0.7,0.1-1.3,0.2-2,0.3c-7.5,0.9-14.9,2.2-22,4.7c-0.7,0.1-1.3,0.2-2,0.3c-1.1-0.3-2.2-0.4-3,0.7c-0.7,0.1-1.3,0.2-2,0.3
		c-1.1-0.3-2.2-0.4-3,0.7c-0.7,0.1-1.3,0.2-2,0.3c-4.1,0.3-8.2,0.8-12,2.7c-0.7,0.1-1.3,0.2-2,0.3c-4.2,0.2-8.1,1.3-12,2.8
		c-0.7,0.1-1.3,0.2-2,0.2c-1.1-0.3-2.2-0.4-3,0.7c-0.7,0.1-1.3,0.2-2,0.3c-1.1-0.3-2.2-0.4-3,0.7c-0.7,0.1-1.3,0.2-2,0.3
		c-4.5,0-8.9,0.9-13,2.7c-0.7,0.1-1.3,0.2-2,0.3c-1.1-0.3-2.2-0.4-3,0.7c-0.7,0.1-1.3,0.2-2,0.3c-1.1-0.3-2.2-0.4-3,0.7
		c-0.7,0.1-1.3,0.2-2,0.3c-1.1-0.3-2.2-0.4-3,0.7c-0.7,0.1-1.3,0.2-2,0.3c-4.5,0.3-8.9,1-13,2.8c-0.7,0.1-1.3,0.2-2,0.3
		c-1.1-0.3-2.2-0.4-3,0.7c-0.7,0.1-1.3,0.2-1.9,0.3c-4.2,0.2-8.2,0.8-12,2.6c-0.7,0.1-1.3,0.2-2,0.3
		C1261.1,55.5,1260,55.4,1259.2,56.5z"/>
	<path class="st3" d="M42.6,1180.5c1.7,4.8-0.1,9.6-0.6,14.2c-3.7,38.2-7.7,76.4-11.5,114.7c-3.2,32.1-6.3,64.2-9.4,96.3
		c-1.1,11.1-2,22.2-3.1,33.3c-0.2,2.2,0,4.7-1.7,6.6c-2-1.1-1-3-0.9-4.5c1.5-16.1,3.2-32.2,4.7-48.3c1.1-11.5,2.1-23,3.2-34.6
		c1.5-15.4,3.2-30.9,4.8-46.3c1.1-11,2.1-22,3.2-33.1c1.6-15.8,3.3-31.5,4.9-47.3c1.1-11.2,2.1-22.4,3.1-33.6
		c0.4-4.4,0.7-8.9,1.1-13.3C40.7,1183,41,1181.4,42.6,1180.5z"/>
	<path class="st1" d="M49.3,1504.9c3.1-2.5,6.2-0.5,9.1,0.2c38.8,8.3,74.8,24.3,110.1,42c18.5,9.2,36.1,19.9,52.4,32.6
		c1.3,1,2.8,1.9,2.4,4c-1.2,0.3-1.8-0.6-2.6-1.2c-29.4-23.3-62.9-39-97-53.7c-23.1-10-46.9-17.9-71.7-22.7
		C50.9,1505.9,49.8,1506,49.3,1504.9z"/>
	<path class="st2" d="M1570.3,1143.3c-1.8-0.7-1.1-2.2-1.1-3.4c0.1-46.9,0.1-93.8,0.2-140.7c0-0.5,0.1-1,0.1-1.5
		c0.5,0,1,0.1,1.6,0.2c0.9,1.4,0.6,2.9,0.6,4.4c-0.1,45.4-0.3,90.7-0.5,136.1C1571.2,1139.9,1572.1,1141.9,1570.3,1143.3z"/>
	<path class="st1" d="M244.3,264.9c0.4,3.3-2.4,2.8-4,3.1c-15.2,3.3-30.4,6.4-45.7,9.6c-15.7,3.3-31.4,6.7-47.2,9.7
		c-4.6,0.9-7,3.2-8.1,7.5c-1,4-2.1,8-2,12.2c0,1.9,0,3.8-2.8,3.6c-1.2-1.7-0.1-3.6-0.3-5.3c1.7-1.1,0.9-2.4,0.4-3.7
		c0.8-5.8,2.1-11.4,6.7-15.5c2.6-0.8,5.9,0.9,7.8-2.2c1.8-0.2,3.7-0.4,5.5-0.5c0.5,0.1,1,0.3,1.4,0.2c27.6-5.7,55.2-11.4,82.8-17.1
		c1-0.2,1.5-0.7,1.2-1.7C241.5,264.7,242.9,263.8,244.3,264.9z"/>
	<path class="st2" d="M1569.3,1269.3c-1.6-0.5-1.1-1.9-1.1-2.9c0.1-32.6,0.2-65.1,0.4-97.7c0.5,0,1,0.1,1.5,0.1
		c0.8,1.2,0.5,2.6,0.5,3.9c-0.1,30.9-0.2,61.7-0.4,92.6C1570.2,1266.6,1571,1268.2,1569.3,1269.3z"/>
	<path class="st3" d="M240,264.8c0.3,1-0.2,1.5-1.2,1.7c-27.6,5.7-55.2,11.4-82.8,17.1c-0.4,0.1-1-0.1-1.4-0.2
		c-0.3-1.9,1.2-1.7,2.2-1.9c26.9-5.6,53.9-11.3,80.8-16.9C238.4,264.4,239.2,264.7,240,264.8z"/>
	<path class="st1" d="M1571.1,997.8c-0.5-0.1-1-0.1-1.6-0.2c-2-1.2-1.3-3.2-1.3-5c0-19.2,0-38.4,0-57.6c0-1.6-0.9-3.8,1.6-4.6
		c0.1,9.6,0.2,19.2,0.3,28.8c0,1.7-0.8,3.7,1,5.1C1571.6,975.5,1571.7,986.7,1571.1,997.8z"/>
	<path class="st2" d="M1526.4,52.9c-3.5,1.8-6.4-0.5-9.5-1.3c-14.4-3.9-28.3-9-39.1-20c-1.3-1.3-3.3-2.4-2.4-4.9
		c2.5-0.2,4,1.6,5.2,3.2c4.9,7,12.5,9.6,19.7,13.3C1508.7,47.5,1517.8,49.5,1526.4,52.9z"/>
	<path class="st1" d="M134.8,312.5c3.5,2.5,0.5,5.4,0.4,8.1c-0.2,4.9-1.3,9.8-1.9,14.7c-0.2,1.6-0.8,2.5-2.4,2.4
		c-0.4-0.4-0.8-0.7-1.2-1.1c0.2-1.8,0.4-3.5,0.6-5.3c1.2-0.4,0.9-1.1,0.3-1.8c0.2-1.4,0.4-2.8,0.7-4.2c1.1-0.4,1-1,0.4-1.8
		c0.2-1.7,0.4-3.5,0.6-5.2c0.4-0.1,1-0.2,1.1-0.5c0.3-0.6,0-1.1-0.7-1.4c0.2-1.4,0.5-2.8,0.7-4.2
		C133.8,312.4,134.3,312.5,134.8,312.5z"/>
	<path class="st1" d="M578.3,195.8c0.2,1.6-0.4,2.4-2,2.7c-6.1,1.2-12.2,2.6-18.3,3.8c-1,0.2-1.5-0.5-1.8-1.4
		c2.3-1.8,6.2,0.2,7.9-3.2C568.8,197.3,573.3,194.8,578.3,195.8z"/>
	<path class="st2" d="M1566.9,77.5c0.6-4.3,0.4-8.6,0-12.9c0.4-1.2-0.1-1.9-1.2-2.4c-0.2-0.6-0.3-1.2-0.5-1.8
		c-0.1-0.6-0.1-1.2-0.2-1.7c0.2-0.2,0.4-0.4,0.6-0.5c3.2,1.4,3,4.6,3.3,7.2c0.8,7.4-0.2,14.8-1.1,22.1c-0.5,0-1,0-1.5,0
		c0-2.6,0-5.3,0-7.9C1567.1,79,1567.2,78.3,1566.9,77.5z"/>
	<path class="st2" d="M668.5,1538.2c2.2-3.6,6.4-2.9,9.5-3.5c6.1-1.4,12.4-2.8,18.6-3.9c0.8-0.2,1.6,0.1,2.2,0.8
		c-7.8,3.5-16.4,4-24.6,6.1C672.3,1538.1,670.4,1539.5,668.5,1538.2z"/>
	<path class="st1" d="M379.3,236.8c0.3,2-0.8,2.5-2.5,2.8c-5.8,1.1-11.6,2.5-17.4,3.7c-1.5,0.3-2.6-0.2-3.1-1.7
		c0.8-1.8,2.8-1,4.1-1.9c3.7,1.6,6.8,0.6,9.6-1.9C373.1,237.8,376,235.7,379.3,236.8z"/>
	<path class="st2" d="M1568.4,147.5c-0.2-7.6-0.3-15.2-0.5-22.9c0.7-1.2-0.4-2.9,1.1-3.9c1.9,8.9,1.6,17.8,0.8,26.7
		C1569.4,147.5,1568.9,147.5,1568.4,147.5z"/>
	<path class="st2" d="M1567.4,117.5c-0.2-7.6-0.3-15.2-0.5-22.9c0.7-1.2-0.4-2.9,1.2-3.9c2,3.7,0.9,7.7,1,11.5
		c0.1,5.1,0.9,10.2-0.2,15.2C1568.3,117.5,1567.9,117.5,1567.4,117.5z"/>
	<path class="st2" d="M636.5,1545.2c2.4-3.3,6.5-2.4,9.7-3.4c5.7-1.7,11.6-2.6,17.4-3.9c1.2-0.3,2.3-0.5,3.1,0.6
		c-8,3.5-16.7,4.1-25.1,6.2C640,1545.2,638.3,1546.5,636.5,1545.2z"/>
	<path class="st1" d="M1568.4,147.5c0.5,0,1,0,1.5,0c0.6,3.4,0.6,6.9,0.2,10.3c-2,3.5-0.1,7.3-1.1,10.9c-0.3-0.1-0.8-0.2-0.9-0.4
		C1567,161.3,1566.2,154.4,1568.4,147.5z"/>
	<path class="st1" d="M471.3,217.8c0.2,1.3-0.1,2.3-1.5,2.6c-6.6,1.2-13.1,2.5-19.7,3.6c-0.2,0-0.6-0.7-0.9-1.1
		c2.2-0.5,4.7-0.5,6.5-1.7c2-1.3,5.5,1,6.4-2.6C465.1,218.6,468.1,217.3,471.3,217.8z"/>
	<path class="st1" d="M345.3,243.8c0,0.3,0.2,0.8,0,1c-2,2.7-14.1,5-17.1,3.2c2.4-1.8,6.2,0.2,7.9-3.2
		C339.1,244.6,342.1,243.2,345.3,243.8z"/>
	<path class="st2" d="M1568.3,1309.3c-2.5-3.2-0.7-6.9-1-10.3c-0.3-3.1,0.1-6.2,0.2-9.4c0.5,0,1,0.1,1.5,0.1
		C1569.6,1296.3,1570,1302.8,1568.3,1309.3z"/>
	<path class="st2" d="M558.5,1562.2c4.4-3.7,10.2-3.1,15.3-4.5c1.8-0.5,3.9-2.3,5.9-0.1C572.9,1560.3,565.8,1562,558.5,1562.2z"/>
	<path class="st2" d="M700.4,1531.2c4.4-3.7,10.2-3.1,15.3-4.5c1.8-0.5,3.9-2.2,5.9-0.2C714.8,1529.3,707.8,1531,700.4,1531.2z"/>
	<path class="st2" d="M507.5,1573.2c3.1-3.4,7.7-2.4,11.5-3.6c3.1-0.9,6.3-2.6,9.7-1C521.9,1571.3,514.8,1573,507.5,1573.2z"/>
	<path class="st1" d="M602.3,190.9c0,0.3,0.2,0.8,0,1c-1.9,2.5-14.4,4.8-17.1,3.2c2.2-0.5,4.7-0.5,6.5-1.7c2-1.3,5.5,1,6.4-2.6
		C599.4,190.7,600.9,189.8,602.3,190.9z"/>
	<path class="st1" d="M235.1,1593.7c4.6,0.5,12.5,8.3,13,13C243.2,1602.8,238.9,1598.5,235.1,1593.7z"/>
	<path class="st1" d="M403,231.9c0,0.3,0.2,0.8,0.1,1c-1.9,2.5-14.2,4.7-17,3.1c2.2-0.5,4.6-0.6,6.6-1.6c2.4-1.2,5.9,0.6,7.3-2.8
		C401,231.6,402.1,230.9,403,231.9z"/>
	<path class="st3" d="M400,231.6c-1.4,3.4-4.9,1.6-7.3,2.8c-2,1-4.4,1.1-6.6,1.6c-0.6-0.3-1.3-0.7-1.9-1
		C389.2,232.3,394.5,231.5,400,231.6z"/>
	<path class="st2" d="M357.5,1605.2c3-3.5,7.4-2.6,11.1-3.5c1.8-0.4,4-3.4,6-0.2C369.2,1604.1,363.5,1605.2,357.5,1605.2z"/>
	<path class="st2" d="M1563.3,58.5c-0.6-0.2-1.2-0.3-1.8-0.5c-0.7-1.5-2-1.6-3.4-1.2c-2.5-0.8-5.3,0.8-7.7-1.1
		c5.5-2.3,12.1-1.3,15.3,2.3c-0.2,0.2-0.4,0.4-0.6,0.5C1564.5,58.6,1563.9,58.6,1563.3,58.5z"/>
	<path class="st2" d="M460.5,1583.2c5.3-3.4,11.1-4.2,17.2-3.6C472.2,1582.1,466.5,1583.1,460.5,1583.2z"/>
	<path class="st3" d="M462,218.8c-0.9,3.6-4.3,1.2-6.4,2.6c-1.8,1.2-4.3,1.2-6.5,1.7c-0.6-0.3-1.3-0.7-1.9-1
		C451.8,219.4,456.9,218.8,462,218.8z"/>
	<path class="st1" d="M631.3,184.4c0,0.5,0,1,0.1,1.4c-3.2,3.3-7.5,2.6-11.4,3.2c-0.1,0-0.4-1.1-0.6-1.6c0.5-1.5,2.1-1,3.1-1.7
		c1.9,1.3,3.6,2,4.7-0.9C628.4,184.7,629.9,184.5,631.3,184.4z"/>
	<path class="st1" d="M223.5,1584c4.2,0.2,10.2,5.2,11.5,9.6C230.6,1591.3,226.7,1588,223.5,1584z"/>
	<path class="st1" d="M316.3,249.9c-1.6,4.8-6.4,2.6-9.4,4.3c-1.4,0.8-2.6,0.2-2.5-1.7c0.6-1.3,2-1.1,3-1.6c1.9,1.2,3.6,2,4.6-0.9
		C313.5,249.8,314.9,248.8,316.3,249.9z"/>
	<path class="st1" d="M432.3,225.9c0.1,0.9,0.1,2-0.7,2.2c-3.8,0.8-7.4,3.3-11.4,1c2.3-1.8,6.2,0.2,7.9-3.3
		C429.4,225.7,430.9,224.8,432.3,225.9z"/>
	<path class="st1" d="M33.3,1502.8c3.9-2.4,11.3-1.6,14,1.7C42.5,1504.6,37.9,1503.9,33.3,1502.8z"/>
	<path class="st1" d="M273.3,258.9c0.1,0.9,0,2.1-0.7,2.2c-3.8,0-7.4,3.7-11.4,1c2.4-1.7,6.2,0.2,7.9-3.2
		C270.5,258.7,271.9,257.8,273.3,258.9z"/>
	<path class="st1" d="M500.3,211.9c0.1,0.9,0,2.2-0.7,2.2c-3.9,0-7.4,3.7-11.4,1c2.3-1.8,6.2,0.2,7.9-3.2
		C497.4,211.7,498.9,210.8,500.3,211.9z"/>
	<path class="st1" d="M534.3,204.9c0.1,0.9,0,2.1-0.7,2.2c-3.8,0-7.4,3.7-11.4,1c2.3-1.8,6.2,0.2,7.9-3.2
		C531.4,204.8,532.9,203.8,534.3,204.9z"/>
	<path class="st1" d="M510.3,209.8c-1.7,3.8-5.5,4.6-8.9,1.8C504,209.7,507,209,510.3,209.8z"/>
	<path class="st1" d="M297.3,253.9c0.1,0.9,0.1,2.1-0.7,2.2c-3.8,0.3-7.4,3.3-11.4,1c2.3-1.8,6.2,0.2,7.9-3.2
		C294.5,253.7,295.9,252.8,297.3,253.9z"/>
	<path class="st2" d="M493.5,1576.2c0-0.2-0.1-0.4-0.1-0.5c1.6-1.8,10.1-3.2,12.3-2.1C501.8,1575.6,497.8,1576.4,493.5,1576.2z"/>
	<path class="st3" d="M598,190.8c-0.9,3.6-4.3,1.3-6.4,2.6c-1.8,1.2-4.3,1.2-6.5,1.7c-0.2-0.2-0.4-0.5-0.7-0.7
		c-0.1-2.8,2.3-1.7,3.5-2C591.3,191.6,594.5,190.2,598,190.8z"/>
	<path class="st2" d="M265.5,1623.3c2.6-3.2,8.9-5,13.2-3.8C274.5,1621.3,270,1622.5,265.5,1623.3z"/>
	<path class="st1" d="M544.3,202.8c-1.7,3.8-5.5,4.6-8.9,1.8C538,202.6,541.1,202.4,544.3,202.8z"/>
	<path class="st1" d="M120.8,427.5c1.8,3,3.5,5.9-1,8.1c-0.4-0.7-0.8-1.4-1.2-2.1c0.2-2.1,0.4-4.1,0.7-6.2
		C119.8,427.4,120.3,427.5,120.8,427.5z"/>
	<path class="st1" d="M254.3,262.8c-1.7,3.8-5.4,4.6-8.9,1.8c1-1.7,2.7-0.7,4.1-1.2c0.3,0.3,0.6,0.7,0.9,0.7c0.7,0,1-0.5,0.9-1.2
		C252.2,262.4,253.2,261.9,254.3,262.8z"/>
	<path class="st2" d="M530.5,1568.2c3.6-2.9,7.7-3.7,12.2-2.7C538.9,1567.7,534.8,1568.4,530.5,1568.2z"/>
	<path class="st2" d="M479.5,1579.2c3.7-2.8,7.7-3.6,12.2-2.6C487.9,1578.7,483.8,1579.4,479.5,1579.2z"/>
	<path class="st2" d="M376.5,1601.2c3.7-2.8,7.7-3.6,12.2-2.6C384.9,1600.6,380.8,1601.4,376.5,1601.2z"/>
	<path class="st2" d="M604.5,1552.2c3.6-2.9,7.7-3.7,12.2-2.7C612.9,1551.7,608.8,1552.4,604.5,1552.2z"/>
	<path class="st2" d="M581.5,1557.2c3.6-2.9,7.7-3.6,12.2-2.7C589.9,1556.7,585.8,1557.4,581.5,1557.2z"/>
	<path class="st2" d="M544.5,1565.2c3.7-2.8,7.7-3.6,12.2-2.6C552.9,1564.6,548.8,1565.4,544.5,1565.2z"/>
	<path class="st1" d="M117.8,456.5c2.3,2.7,3,5.2-0.9,7.1c-0.4-0.4-0.8-0.7-1.3-1.1c0.2-2.1,0.4-4.1,0.7-6.2
		C116.7,456.4,117.3,456.4,117.8,456.5z"/>
	<path class="st1" d="M127.8,366.5c2.2,2.7,2.9,5.2-1,7.1c-0.4-0.4-0.9-0.7-1.3-1.1c0.3-2.1,0.5-4.1,0.8-6.2
		C126.8,366.4,127.3,366.5,127.8,366.5z"/>
	<path class="st1" d="M121.8,418.5c2.4,2.7,3,5.2-0.9,7.1c-0.4-0.7-0.8-1.4-1.2-2.1c0.2-1.7,0.4-3.5,0.6-5.2
		C120.7,418.4,121.2,418.4,121.8,418.5z"/>
	<path class="st1" d="M122.8,408.5c2.3,2.7,3,5.2-1,7.1c-0.4-0.4-0.9-0.7-1.3-1.1c0.2-2.1,0.4-4.1,0.6-6.2
		C121.7,408.4,122.3,408.5,122.8,408.5z"/>
	<path class="st1" d="M123.8,399.5c2.3,2.7,3,5.2-0.9,7.1c-0.4-0.7-0.8-1.4-1.2-2.1c0.2-1.7,0.4-3.5,0.6-5.2
		C122.7,399.4,123.2,399.5,123.8,399.5z"/>
	<path class="st1" d="M130.8,340.5c2.3,2.7,3,5.2-0.9,7.1c-0.4-0.4-0.8-0.7-1.2-1.1c0.2-2.1,0.4-4.1,0.6-6.2
		C129.7,340.4,130.3,340.5,130.8,340.5z"/>
	<path class="st3" d="M370,237.8c-2.8,2.6-6,3.6-9.6,1.9C363.3,237.8,366.6,237.3,370,237.8z"/>
	<path class="st1" d="M114.8,484.4c2.5,3.7,2.1,5.7-1.3,7.2c-1.3-2,0-4.2-0.3-6.3C113.7,485,114.3,484.7,114.8,484.4z"/>
	<path class="st3" d="M293,253.8c-1.6,3.5-5.5,1.5-7.9,3.2c-0.6-0.3-1.3-0.7-1.9-1C286.2,253.8,289.5,253.4,293,253.8z"/>
	<path class="st3" d="M269.1,258.8c-1.7,3.4-5.5,1.5-7.9,3.2c-0.6-0.3-1.3-0.7-1.9-1C262.2,258.8,265.6,258.4,269.1,258.8z"/>
	<path class="st3" d="M428,225.8c-1.6,3.5-5.5,1.5-7.9,3.3c-0.6-0.3-1.3-0.7-1.9-1C421.2,225.8,424.5,225.4,428,225.8z"/>
	<path class="st3" d="M496,211.8c-1.6,3.5-5.5,1.5-7.9,3.2c-0.6-0.3-1.3-0.7-1.9-1C489.2,211.8,492.5,211.4,496,211.8z"/>
	<path class="st3" d="M336,244.8c-1.7,3.4-5.5,1.5-7.9,3.2c-0.6-0.3-1.3-0.7-1.9-1C329.2,244.8,332.5,244.4,336,244.8z"/>
	<path class="st1" d="M111.4,513.1c3,2.6,3.6,4.9-0.8,6.5c-1.4-2.4,0-4.8-0.2-7.2C110.6,512.6,111,512.8,111.4,513.1z"/>
	<path class="st1" d="M119.4,438.1c2.9,2.4,3.4,4.7-0.5,6.5c-0.4-0.4-0.8-0.7-1.3-1.1c0.2-2.1,0.4-4.1,0.7-6.2
		C118.6,437.6,119,437.8,119.4,438.1z"/>
	<path class="st1" d="M113.8,494.5c2.1,2.6,3.2,4.9-1.2,6.1c-1.3-2-0.1-4.2-0.3-6.3C112.7,494.4,113.3,494.4,113.8,494.5z"/>
	<path class="st1" d="M115.8,475.5c2.1,2.5,3.2,4.8-1.2,6.1c-1.3-2-0.1-4.1-0.3-6.2C114.8,475.4,115.3,475.4,115.8,475.5z"/>
	<path class="st1" d="M116.8,466.5c2.2,2.6,3.3,4.9-1.2,6.1c-1.3-2-0.1-4.2-0.3-6.3C115.7,466.4,116.3,466.4,116.8,466.5z"/>
	<path class="st1" d="M126.8,375.5c1.9,2.4,3.2,4.7-0.9,6.1c-0.4-0.4-0.8-0.7-1.3-1.1c0.2-1.7,0.4-3.5,0.7-5.2
		C125.8,375.4,126.3,375.5,126.8,375.5z"/>
	<path class="st1" d="M128.8,358.5c1.9,2.4,3.2,4.7-0.9,6.1c-0.4-0.4-0.8-0.7-1.2-1.1c0.2-1.7,0.4-3.5,0.6-5.2
		C127.7,358.4,128.3,358.5,128.8,358.5z"/>
	<path class="st1" d="M125.8,383.5c2.1,2.6,3.2,4.9-1.3,6.1c-1.3-2,0-4.2-0.3-6.3C124.8,383.4,125.3,383.5,125.8,383.5z"/>
	<path class="st3" d="M564,197.8c-1.6,3.5-5.5,1.5-7.9,3.2c-0.2-0.2-0.5-0.5-0.7-0.7C557.6,197.1,560.8,197.6,564,197.8z"/>
	<path class="st1" d="M1570.1,1168.7c-0.5,0-1-0.1-1.5-0.1c-1.6-2.4-3.2-4.8,1.1-6.2C1571,1164.5,1570.4,1166.6,1570.1,1168.7z"/>
	<path class="st1" d="M112.8,503.5c2.1,2.6,3.2,4.9-1.2,6.1c-1.3-2-0.1-4.2-0.3-6.3C111.8,503.4,112.3,503.4,112.8,503.5z"/>
	<path class="st1" d="M1567.4,117.5c0.5,0,1,0,1.5,0c0.1,1.1,0.1,2.2,0.2,3.3c-1.5,1-0.5,2.7-1.1,3.9
		C1565.1,122.5,1565.8,120,1567.4,117.5z"/>
	<path class="st1" d="M1568.1,90.7c-1.5,1-0.5,2.7-1.2,3.9c-2.8-2.2-2.1-4.6-0.5-7.1c0.5,0,1,0,1.5,0
		C1567.9,88.6,1568,89.7,1568.1,90.7z"/>
	<path class="st3" d="M530,204.8c-1.6,3.5-5.5,1.5-7.9,3.2c-0.2-0.2-0.4-0.5-0.7-0.7C523.6,204.1,526.9,204.8,530,204.8z"/>
	<path class="st1" d="M118.8,446.5c2.1,2.5,3.2,4.8-1.2,6.1c-1.3-1.7-0.2-3.5-0.4-5.3C117.7,447,118.3,446.7,118.8,446.5z"/>
	<path class="st3" d="M149.1,283.9c-1.9,3.1-5.2,1.5-7.8,2.2C143.2,282.9,146.1,283.1,149.1,283.9z"/>
	<path class="st1" d="M124.4,392.1c2.5,2.1,3.7,4.1-0.5,5.5c-0.4-0.4-0.9-0.7-1.3-1.1c0.3-1.7,0.5-3.4,0.8-5.1
		C123.7,391.6,124,391.9,124.4,392.1z"/>
	<path class="st1" d="M1536.2,55.4c-1.9,1.7-3.7,2.1-5.2-0.5c0-0.4,0-0.8,0-1.2c1.8-0.2,3.5-0.3,5.2,0.3
		C1536.3,54.5,1536.2,54.9,1536.2,55.4z"/>
	<path class="st2" d="M296.5,1617.2c2.4-2.5,5.1-2.8,8.2-1.7C302.2,1617.2,299.5,1618.1,296.5,1617.2z"/>
	<path class="st1" d="M129.8,350.5c2.5,2.4,2.8,4.3-1.2,5.1c-1.3-1.7-0.1-3.5-0.4-5.3C128.7,350.4,129.2,350.5,129.8,350.5z"/>
	<path class="st3" d="M78.6,826.5c0.9,2.3,1.5,4.7-0.6,6.7C77.1,830.9,76.7,828.6,78.6,826.5z"/>
	<path class="st3" d="M77.6,836.5c0.8,2.3,1.4,4.6-0.7,6.7C76,840.9,75.6,838.6,77.6,836.5z"/>
	<path class="st3" d="M72.6,887.5c0.9,2.3,1.5,4.7-0.7,6.7C71.1,891.9,70.8,889.6,72.6,887.5z"/>
	<path class="st3" d="M76.6,846.5c0.8,2.3,1.3,4.6-0.6,6.7C75.1,850.9,74.7,848.6,76.6,846.5z"/>
	<path class="st3" d="M70.6,907.5c0.9,2.4,1.5,4.7-0.6,6.7C69.1,911.9,68.7,909.6,70.6,907.5z"/>
	<path class="st3" d="M47.6,1131.5c0.9,2.3,1.5,4.7-0.7,6.7C46.1,1135.8,45.7,1133.5,47.6,1131.5z"/>
	<path class="st3" d="M48.6,1121.5c0.9,2.4,1.5,4.7-0.7,6.7C47.1,1125.8,46.7,1123.5,48.6,1121.5z"/>
	<path class="st3" d="M79.6,816.5c0.9,2.3,1.4,4.7-0.7,6.7C78.1,820.9,77.7,818.6,79.6,816.5z"/>
	<path class="st3" d="M51.6,1092.5c0.9,2.4,1.4,4.7-0.7,6.7C50,1096.8,49.6,1094.5,51.6,1092.5z"/>
	<path class="st2" d="M427.5,1590.2c2-2.3,4.4-3.1,7.2-1.6C432.5,1590.2,430.2,1590.9,427.5,1590.2z"/>
	<path class="st2" d="M441.5,1587.1c2.1-2.1,4.4-3.1,7.2-1.5C446.5,1587.2,444.1,1587.9,441.5,1587.1z"/>
	<path class="st2" d="M404.5,1595.1c2.1-2.2,4.4-3.1,7.2-1.6C409.5,1595.2,407.2,1595.9,404.5,1595.1z"/>
	<path class="st2" d="M418.5,1592.1c2.1-2.1,4.4-3.1,7.2-1.6C423.5,1592.1,421.2,1592.9,418.5,1592.1z"/>
	<path class="st2" d="M595.5,1554.2c2-2.2,4.4-3.2,7.2-1.6C600.5,1554.3,598.2,1554.9,595.5,1554.2z"/>
	<path class="st2" d="M618.4,1549.2c2-2.2,4.4-3.2,7.2-1.6C623.5,1549.2,621.1,1549.9,618.4,1549.2z"/>
	<path class="st2" d="M627.5,1547.2c2-2.2,4.3-3.2,7.2-1.6C632.5,1547.3,630.2,1548,627.5,1547.2z"/>
	<path class="st1" d="M248.1,1606.7c3.2,0.4,5.2,1.9,4.7,5.5C250.5,1610.9,248.8,1609.2,248.1,1606.7z"/>
	<path class="st2" d="M390.5,1598.2c2-2.3,4.4-3.2,7.2-1.6C395.5,1598.2,393.2,1598.9,390.5,1598.2z"/>
	<path class="st3" d="M54.5,1065.4c0.9,2,1.4,4-0.6,5.7C52.9,1069.1,52.8,1067.2,54.5,1065.4z"/>
	<path class="st3" d="M73.6,877.5c0.9,2,1.4,4-0.5,5.7C71.9,881.2,71.8,879.2,73.6,877.5z"/>
	<path class="st3" d="M75.6,857.5c0.9,2,1.4,4-0.6,5.7C73.9,861.2,73.8,859.2,75.6,857.5z"/>
	<path class="st3" d="M53.6,1074.5c0.9,2,1.4,4-0.6,5.7C51.9,1078.1,51.8,1076.2,53.6,1074.5z"/>
	<path class="st3" d="M43.6,1171.4c0.9,2,1.4,4-0.6,5.7C41.9,1175.1,41.8,1173.2,43.6,1171.4z"/>
	<path class="st3" d="M63.5,977.5c0.9,2,1.4,4-0.5,5.7C61.9,981.2,61.8,979.2,63.5,977.5z"/>
	<path class="st3" d="M44.6,1161.4c0.9,2,1.4,4-0.6,5.7C42.9,1165.1,42.8,1163.2,44.6,1161.4z"/>
	<path class="st3" d="M45.6,1151.5c0.9,2,1.4,4-0.5,5.7C43.9,1155.1,43.9,1153.2,45.6,1151.5z"/>
	<path class="st3" d="M46.6,1141.5c0.9,2,1.4,4-0.6,5.7C45,1145.1,44.8,1143.2,46.6,1141.5z"/>
	<path class="st3" d="M49.6,1112.4c0.9,2,1.4,4-0.6,5.8C47.9,1116.2,47.8,1114.2,49.6,1112.4z"/>
	<path class="st3" d="M50.6,1102.4c0.9,2,1.4,4-0.6,5.7C48.9,1106.1,48.8,1104.2,50.6,1102.4z"/>
	<path class="st3" d="M62.6,987.5c0.9,2,1.4,4-0.6,5.7C61,991.2,60.8,989.2,62.6,987.5z"/>
	<path class="st3" d="M80.6,806.5c0.9,2,1.4,4-0.6,5.7C78.9,810.2,78.8,808.2,80.6,806.5z"/>
	<path class="st3" d="M57.6,1036.5c0.9,2,1.4,4-0.6,5.7C55.9,1040.2,55.8,1038.2,57.6,1036.5z"/>
	<path class="st3" d="M74.6,867.5c0.9,2,1.4,4-0.5,5.7C72.9,871.2,72.8,869.2,74.6,867.5z"/>
	<path class="st3" d="M64.6,967.5c0.9,2,1.4,4-0.6,5.7C62.9,971.2,62.9,969.2,64.6,967.5z"/>
	<path class="st3" d="M61.5,997.5c0.9,2,1.4,4-0.5,5.7C59.9,1001.2,59.8,999.2,61.5,997.5z"/>
	<path class="st3" d="M65.6,957.5c0.9,2,1.4,4-0.5,5.7C63.9,961.2,63.8,959.2,65.6,957.5z"/>
	<path class="st3" d="M69.6,917.5c0.9,2,1.4,4-0.6,5.7C67.9,921.2,67.8,919.2,69.6,917.5z"/>
	<path class="st3" d="M81.5,796.5c0.9,2,1.4,4-0.5,5.7C79.9,800.2,79.8,798.3,81.5,796.5z"/>
	<path class="st3" d="M60.6,1007.5c0.9,2,1.4,4-0.6,5.7C58.9,1011.2,58.8,1009.2,60.6,1007.5z"/>
	<path class="st3" d="M66.6,947.5c0.9,2,1.4,4-0.6,5.7C64.9,951.2,64.8,949.2,66.6,947.5z"/>
	<path class="st3" d="M59.5,1017.4c0.9,2,1.4,4-0.6,5.7C58,1021.2,57.7,1019.2,59.5,1017.4z"/>
	<path class="st3" d="M82.5,786.5c0.9,2,1.4,4-0.6,5.7C80.9,790.2,80.8,788.2,82.5,786.5z"/>
	<path class="st3" d="M67.6,937.5c0.9,2,1.4,4-0.6,5.7C65.9,941.2,65.8,939.2,67.6,937.5z"/>
	<path class="st3" d="M55.6,1055.5c0.9,2,1.4,4-0.6,5.7C53.9,1059.2,53.9,1057.2,55.6,1055.5z"/>
	<path class="st3" d="M71.6,897.5c0.9,2,1.4,4-0.5,5.7C69.9,901.2,69.9,899.2,71.6,897.5z"/>
	<path class="st3" d="M312,249.8c-1,2.9-2.8,2.2-4.6,0.9C308.6,248.9,310.3,249.4,312,249.8z"/>
	<path class="st1" d="M612.3,188.8c0.2,1.2,0.1,2.4-1.4,2.6c-1.2,0.1-2.2-0.4-2.5-1.7C609.3,187.9,610.7,188,612.3,188.8z"/>
	<path class="st1" d="M413.3,229.8c0.2,1.2,0,2.4-1.4,2.6c-1.2,0.1-2.2-0.5-2.5-1.8C410.3,228.9,411.7,229,413.3,229.8z"/>
	<path class="st1" d="M617.3,187.8c0.2,1.2,0.1,2.4-1.4,2.6c-1.2,0.1-2.2-0.4-2.5-1.8C614.3,186.9,615.7,187,617.3,187.8z"/>
	<path class="st1" d="M418.3,228.8c0.1,1.2,0,2.4-1.5,2.6c-1.2,0.1-2.2-0.5-2.5-1.8C415.4,227.9,416.8,228,418.3,228.8z"/>
	<path class="st1" d="M583.3,194.8c0.2,1.2,0.1,2.4-1.4,2.6c-1.2,0.1-2.2-0.4-2.5-1.8C580.3,193.9,581.7,194,583.3,194.8z"/>
	<path class="st1" d="M408.3,230.8c-0.6,4.9-2.8,2.1-4.7,1C404.9,230.2,406.4,229.9,408.3,230.8z"/>
	<path class="st3" d="M627,184.8c-1.1,2.9-2.8,2.2-4.7,0.9C623.6,183.9,625.3,184.4,627,184.8z"/>
	<path class="st1" d="M554.2,200.8c0.2,1.2,0.1,2.4-1.4,2.6c-1.2,0.2-2.2-0.5-2.5-1.8C551.3,199.9,552.7,199.9,554.2,200.8z"/>
	<path class="st1" d="M520.3,207.8c0.2,1.2,0.1,2.4-1.4,2.6c-1.2,0.1-2.2-0.5-2.5-1.8C517.3,206.9,518.7,207,520.3,207.8z"/>
	<path class="st1" d="M326.4,247.8c0.1,1.2,0,2.4-1.5,2.6c-1.2,0.1-2.2-0.5-2.5-1.8C323.4,246.9,324.8,247,326.4,247.8z"/>
	<path class="st2" d="M258.9,1619.2c2.7,0,3.8,1.7,4.2,4C260,1623.7,259.4,1621.5,258.9,1619.2z"/>
	<path class="st1" d="M350.3,242.8c0.2,1.2,0,2.4-1.4,2.6c-1.2,0.1-2.2-0.4-2.5-1.8C347.4,241.9,348.8,242,350.3,242.8z"/>
	<path class="st1" d="M302.3,252.8c0.2,1,0.1,2-0.9,2.4c-1.6,0.7-2.2-0.7-3-1.6C299.4,251.9,300.8,252,302.3,252.8z"/>
	<path class="st3" d="M58.5,1027.4c0.9,1.7,1.4,3.3-0.5,4.8C57,1030.5,56.9,1028.9,58.5,1027.4z"/>
	<path class="st3" d="M68.5,928.4c1,1.7,1.4,3.3-0.5,4.8C67,931.5,66.9,929.9,68.5,928.4z"/>
	<path class="st3" d="M56.5,1046.4c1,1.7,1.3,3.3-0.5,4.8C55,1049.5,54.9,1047.9,56.5,1046.4z"/>
	<path class="st3" d="M52.5,1084.4c0.9,1.7,1.4,3.4-0.5,4.8C50.9,1087.5,50.9,1085.9,52.5,1084.4z"/>
	<path class="st3" d="M13.2,1481.7c1.4,1.5,1.3,3-0.1,4.4C11.9,1484.6,11.8,1483.2,13.2,1481.7z"/>
	<path class="st2" d="M282.5,1619.2c0.9-4,2.7-1.3,4.2-0.6C285.5,1620.1,284.1,1620.2,282.5,1619.2z"/>
	<path class="st2" d="M289.5,1618.2c1.4-2.8,3.3-1.8,5.2-0.7C293.2,1619.1,291.4,1619.1,289.5,1618.2z"/>
	<path class="st1" d="M259.4,261.8c0.1,1.2,0,2.4-1.5,2.6c-1.2,0.1-1.6-0.8-1.6-1.9C257.1,260.9,258.1,261,259.4,261.8z"/>
	<path class="st1" d="M549.3,201.8c0.2,1.2,0.1,2.4-1.4,2.5c-1.2,0.1-1.6-0.8-1.5-1.9C547,200.9,548.1,201,549.3,201.8z"/>
	<path class="st1" d="M437.3,224.8c0.2,1.2,0.1,2.4-1.4,2.5c-1.2,0.1-1.6-0.8-1.5-1.9C435,224,436.1,224,437.3,224.8z"/>
	<path class="st1" d="M486.3,214.7c0.1,1.2,0.1,2.5-1.5,2.6c-1.3,0.1-1.6-0.8-1.6-1.9C484,213.9,485.1,214,486.3,214.7z"/>
	<path class="st1" d="M607.3,189.9c0.2,1.2,0.1,2.4-1.4,2.5c-1.2,0.1-1.6-0.8-1.5-1.9C605,189,606.1,189,607.3,189.9z"/>
	<path class="st1" d="M447.3,222.8c0.1,1.2,0,2.4-1.5,2.6c-1.2,0.1-1.6-0.8-1.6-1.9C445,221.9,446.1,222,447.3,222.8z"/>
	<path class="st1" d="M476.3,216.8c0.2,1.2,0.1,2.4-1.4,2.5c-1.2,0.1-1.6-0.8-1.5-1.9C474,215.9,475.1,216,476.3,216.8z"/>
	<path class="st1" d="M481.3,215.8c0.2,1.2,0.1,2.4-1.4,2.5c-1.2,0.1-1.6-0.8-1.5-1.9C479,214.9,480.1,215,481.3,215.8z"/>
	<path class="st1" d="M515.3,208.8c0.2,1.2,0.1,2.4-1.4,2.5c-1.2,0.1-1.6-0.8-1.5-1.9C513,207.9,514.1,208,515.3,208.8z"/>
	<path class="st1" d="M355.3,241.8c0.2,1.2,0.1,2.4-1.4,2.6c-1.2,0.1-1.6-0.8-1.5-1.9C353,240.9,354.1,241,355.3,241.8z"/>
	<path class="st1" d="M1569.1,1289.7c-0.5,0-1-0.1-1.5-0.1c-0.8-0.4-1.4-1-1.1-1.9c0.3-1.2,1.3-1.3,2.3-1.2
		C1569.8,1287.4,1569.4,1288.6,1569.1,1289.7z"/>
	<path class="st3" d="M134.6,301.6c0.5,1.3,1.3,2.6-0.4,3.7C132.9,303.9,133,302.7,134.6,301.6z"/>
	<path class="st1" d="M278.3,257.8c0.2,1.2,0.1,2.4-1.4,2.5c-1.2,0.1-1.6-0.8-1.5-1.9C276.1,257.3,277.1,256.9,278.3,257.8z"/>
	<path class="st1" d="M283.4,256.8c0.1,1.2,0,2.4-1.5,2.6c-1.2,0.1-1.6-0.8-1.5-1.9C281.2,256.2,282.1,255.9,283.4,256.8z"/>
	<path class="st1" d="M321.3,248.8c0.2,1.2,0.1,2.4-1.4,2.5c-1.2,0.1-1.6-0.7-1.5-1.9C319.1,248.3,320.1,247.9,321.3,248.8z"/>
	<path class="st2" d="M1544.9,55.8c-1.5,1.3-2.8,1.3-3.7-0.6C1542.6,54.4,1543.9,54.2,1544.9,55.8z"/>
	<path class="st1" d="M442.3,223.8c0.2,1.2,0.1,2.4-1.4,2.5c-1.2,0.1-1.6-0.8-1.5-1.9C440.1,223.2,441.1,222.9,442.3,223.8z"/>
	<path class="st1" d="M384.4,235.8c0.1,1.2,0,2.4-1.5,2.5c-1.2,0.1-1.6-0.8-1.5-1.9C382.1,235.2,383.1,234.9,384.4,235.8z"/>
	<path class="st3" d="M121.6,404.5c0.4,0.7,0.8,1.4,1.2,2.1c0,0.6,0,1.3,0,1.9c-0.5-0.1-1.1-0.1-1.6-0.2
		C119.9,406.9,120,405.6,121.6,404.5z"/>
	<path class="st3" d="M120.5,414.5c0.4,0.4,0.9,0.7,1.3,1.1c0,1-0.1,1.9-0.1,2.9c-0.5-0.1-1.1-0.1-1.6-0.2
		C118.9,416.9,119,415.7,120.5,414.5z"/>
	<path class="st2" d="M347.5,1607.2c0.4-3.5,1.8-1.9,3.2-0.6C349.8,1607.9,348.8,1608.2,347.5,1607.2z"/>
	<path class="st3" d="M119.6,423.5c0.4,0.7,0.8,1.4,1.2,2.1c0,0.6,0,1.3,0,1.9c-0.5-0.1-1-0.1-1.5-0.2
		C117.9,425.9,118,424.7,119.6,423.5z"/>
	<path class="st2" d="M337.5,1609.2c0.4-3.5,1.8-1.9,3.2-0.6C339.8,1609.9,338.8,1610.2,337.5,1609.2z"/>
	<path class="st2" d="M311.5,1614.2c1-2.5,2.6-1.7,4.2-0.8C314.5,1615,313.1,1615.2,311.5,1614.2z"/>
	<path class="st3" d="M118.8,446.5c-0.5,0.3-1.1,0.6-1.6,0.8c-1.3-1.4-1.2-2.7,0.4-3.8c0.4,0.4,0.8,0.7,1.3,1.1
		C118.8,445.2,118.8,445.8,118.8,446.5z"/>
	<path class="st3" d="M116.8,466.5c-0.5-0.1-1-0.1-1.5-0.2c-1.3-1.4-1.3-2.7,0.3-3.8c0.4,0.4,0.8,0.7,1.3,1.1
		C116.8,464.6,116.8,465.5,116.8,466.5z"/>
	<path class="st3" d="M119.4,438.1c-0.4-0.2-0.8-0.5-1.1-0.7c-1.3-1.4-1.3-2.7,0.4-3.8c0.4,0.7,0.8,1.4,1.2,2.1
		C119.7,436.4,119.5,437.3,119.4,438.1z"/>
	<path class="st3" d="M129.8,350.5c-0.5-0.1-1-0.1-1.6-0.2c-1.3-1.4-1.2-2.7,0.4-3.8c0.4,0.4,0.8,0.7,1.2,1.1
		C129.8,348.6,129.8,349.5,129.8,350.5z"/>
	<path class="st3" d="M130.8,340.5c-0.5-0.1-1-0.1-1.6-0.2c-1.3-1.4-1.2-2.7,0.4-3.8c0.4,0.4,0.8,0.7,1.2,1.1
		C130.8,338.6,130.8,339.5,130.8,340.5z"/>
	<path class="st3" d="M105.6,557.5c0.7,1,1.2,2-0.4,2.7C104,559.2,104.2,558.3,105.6,557.5z"/>
	<path class="st3" d="M91.6,695.5c0.7,1,1.3,2-0.3,2.8C90,697.2,90.3,696.3,91.6,695.5z"/>
	<path class="st2" d="M413.5,1593.2c0.6-2.2,1.9-1.7,3.2-0.7C415.9,1593.8,414.8,1594.1,413.5,1593.2z"/>
	<path class="st3" d="M108.6,528.5c0.9,1.1,1.2,2-0.4,2.8C107,530.2,107.3,529.3,108.6,528.5z"/>
	<path class="st3" d="M110.8,522.5c-0.5-0.1-1-0.1-1.5-0.2c-1.3-1.2-1.3-2.2,0.5-2.8C110.1,520.5,110.5,521.5,110.8,522.5z"/>
	<path class="st3" d="M111.4,513.1c-0.4-0.2-0.7-0.5-1.1-0.7c-1.3-1.2-1.3-2.2,0.5-2.8C111.9,510.6,111.4,511.9,111.4,513.1z"/>
	<path class="st3" d="M112.8,503.5c-0.5-0.1-1-0.1-1.5-0.2c-1.2-1.2-1.1-2.1,0.5-2.8C112.8,501.3,112.3,502.6,112.8,503.5z"/>
	<path class="st3" d="M113.8,494.5c-0.5-0.1-1-0.1-1.5-0.2c-1.2-1.2-1.1-2.1,0.5-2.8C113.8,492.3,113.3,493.5,113.8,494.5z"/>
	<path class="st2" d="M399.5,1596.2c0.6-2.2,1.9-1.7,3.2-0.7C401.9,1596.9,400.8,1597.1,399.5,1596.2z"/>
	<path class="st3" d="M114.8,484.4c-0.5,0.3-1.1,0.6-1.6,0.9c-1.1-1.1-1.2-2.1,0.5-2.7C114.1,483.3,114.4,483.9,114.8,484.4z"/>
	<path class="st3" d="M125.8,383.5c-0.5-0.1-1-0.1-1.6-0.2c-1.2-1.1-1-2,0.3-2.8c0.4,0.4,0.8,0.7,1.3,1.1
		C125.8,382.3,125.8,382.9,125.8,383.5z"/>
	<path class="st3" d="M115.8,475.5c-0.5-0.1-1-0.1-1.5-0.2c-1.3-1.2-1.2-2.2,0.5-2.8C115.8,473.3,115.3,474.6,115.8,475.5z"/>
	<path class="st3" d="M117.8,456.5c-0.5-0.1-1-0.1-1.5-0.2c-1.1-1.1-1.3-2.1,0.5-2.7C117.8,454.4,117.3,455.6,117.8,456.5z"/>
	<path class="st3" d="M128.8,358.5c-0.5-0.1-1-0.1-1.6-0.2c-1.3-1.2-1.2-2.2,0.5-2.8C128.1,356.5,128.4,357.5,128.8,358.5z"/>
	<path class="st3" d="M122.6,396.5c0.4,0.4,0.9,0.7,1.3,1.1c0,0.6,0,1.3-0.1,1.9c-0.5-0.1-1.1-0.1-1.6-0.2
		C121,398.2,121.2,397.3,122.6,396.5z"/>
	<path class="st2" d="M352.5,1606.2c0.6-2.2,1.9-1.7,3.2-0.7C354.9,1606.9,353.8,1607.2,352.5,1606.2z"/>
	<path class="st3" d="M85.6,755.5c0.7,1,1.2,2-0.3,2.7C84,757.2,84.3,756.3,85.6,755.5z"/>
	<path class="st3" d="M84.6,765.5c0.8,1,1.2,2-0.4,2.8C83,767.2,83.2,766.3,84.6,765.5z"/>
	<path class="st2" d="M342.5,1608.2c0.7-2.2,1.9-1.7,3.2-0.7C344.9,1608.9,343.8,1609.2,342.5,1608.2z"/>
	<path class="st2" d="M332.5,1610.2c0.7-2.3,1.9-1.7,3.2-0.7C334.9,1610.9,333.8,1611.2,332.5,1610.2z"/>
	<path class="st2" d="M327.5,1611.2c0.7-2.3,1.9-1.8,3.2-0.7C329.9,1611.9,328.8,1612.2,327.5,1611.2z"/>
	<path class="st2" d="M322.5,1612.2c0.7-2.2,1.9-1.7,3.2-0.6C324.9,1612.9,323.8,1613.2,322.5,1612.2z"/>
	<path class="st2" d="M317.5,1613.1c0.7-2.2,1.9-1.6,3.2-0.6C319.8,1613.8,318.8,1614.2,317.5,1613.1z"/>
	<path class="st3" d="M83.6,775.5c0.8,1,1.2,2-0.4,2.8C82.1,777.2,82.3,776.3,83.6,775.5z"/>
	<path class="st2" d="M306.5,1615.2c0.7-2.2,1.9-1.7,3.2-0.7C308.9,1615.9,307.8,1616.2,306.5,1615.2z"/>
	<path class="st3" d="M100.6,606.5c0.7,1,1.2,2-0.4,2.8C99.1,608.2,99.2,607.3,100.6,606.5z"/>
	<path class="st3" d="M104.6,567.5c0.9,1,1.2,2-0.3,2.8C103,569.2,103.2,568.3,104.6,567.5z"/>
	<path class="st2" d="M1536.2,55.4c0-0.5,0-0.9,0-1.4c1.1-0.7,2.1-0.8,2.7,0.6C1538.4,56.1,1537.2,55.3,1536.2,55.4z"/>
	<path class="st3" d="M94.6,665.5c0.7,1,1.2,2-0.4,2.7C93.1,667.2,93.2,666.3,94.6,665.5z"/>
	<path class="st2" d="M1531,53.7c0,0.4,0,0.8,0,1.2c-1-0.5-2.5,0.1-2.8-1.6C1529.4,52.3,1530.3,52.6,1531,53.7z"/>
	<path class="st3" d="M126.6,363.5c0.4,0.4,0.8,0.7,1.2,1.1c0,0.6,0,1.3,0,1.9c-0.5-0.1-1-0.1-1.5-0.2
		C125,365.3,125.2,364.4,126.6,363.5z"/>
	<path class="st3" d="M93.6,675.5c0.7,1,1.2,2-0.3,2.7C92,677.2,92.3,676.3,93.6,675.5z"/>
	<path class="st3" d="M126.8,375.5c-0.5-0.1-1-0.1-1.6-0.2c-1.2-1.1-1-2,0.3-2.8c0.4,0.4,0.9,0.7,1.3,1.1
		C126.8,374.3,126.8,374.9,126.8,375.5z"/>
	<path class="st2" d="M455.5,1584.2c0.7-2.2,1.9-1.7,3.2-0.7C457.9,1584.8,456.8,1585.2,455.5,1584.2z"/>
	<path class="st3" d="M92.6,685.5c0.7,1,1.2,2-0.4,2.7C91,687.2,91.3,686.3,92.6,685.5z"/>
	<path class="st2" d="M450.5,1585.2c0.7-2.2,1.9-1.7,3.2-0.7C452.9,1585.9,451.8,1586.2,450.5,1585.2z"/>
	<path class="st2" d="M436.5,1588.2c0.6-2.2,1.9-1.7,3.2-0.7C438.9,1588.8,437.8,1589.1,436.5,1588.2z"/>
	<path class="st3" d="M132.6,316.5c0.7,0.2,1,0.8,0.7,1.4c-0.1,0.3-0.7,0.3-1.1,0.5C131.1,317.5,131.4,316.9,132.6,316.5z"/>
	<path class="st3" d="M106.5,548.5c0.8,0.7,0.9,1.4-0.3,1.8C105,549.5,105.4,548.9,106.5,548.5z"/>
	<path class="st3" d="M107.5,538.5c0.8,0.7,0.9,1.4-0.3,1.8C106,539.5,106.4,538.9,107.5,538.5z"/>
	<path class="st3" d="M98.6,626.5c0.8,0.7,0.9,1.4-0.3,1.8C97,627.5,97.4,626.9,98.6,626.5z"/>
	<path class="st3" d="M97.5,636.5c0.8,0.7,0.9,1.4-0.3,1.8C96,637.5,96.4,636.9,97.5,636.5z"/>
	<path class="st3" d="M124.4,392.1c-0.3-0.2-0.7-0.5-1-0.7c-1.1-0.9-1-1.5,0.4-1.9C124.6,390.2,124.4,391.2,124.4,392.1z"/>
	<path class="st3" d="M96.5,646.5c0.8,0.7,0.9,1.4-0.3,1.8C95,647.5,95.4,646.9,96.5,646.5z"/>
	<path class="st3" d="M131.6,323.5c0.6,0.7,0.7,1.4-0.4,1.8C130,324.5,130.5,323.9,131.6,323.5z"/>
	<path class="st3" d="M134.8,312.5c-0.5,0-1-0.1-1.5-0.1c-1.2-1-0.9-1.5,0.5-1.8C134.1,311.2,134.4,311.9,134.8,312.5z"/>
	<path class="st3" d="M16.2,1449.3c0.9,0.7,1.1,1.4-0.1,1.9C14.8,1450.5,15.4,1449.9,16.2,1449.3z"/>
	<path class="st3" d="M15.2,1460.7c1.3,0.7,1.1,1.2-0.2,1.5C14,1461.6,14.1,1461.1,15.2,1460.7z"/>
	<path class="st3" d="M14.2,1470.7c1.3,0.6,1.2,1.1-0.1,1.5C13,1471.6,13.1,1471.1,14.2,1470.7z"/>
	<path class="st3" d="M95.5,656.5c0.8,0.8,0.9,1.4-0.3,1.8C94,657.5,94.5,656.9,95.5,656.5z"/>
	<path class="st3" d="M89.5,716.5c0.8,0.7,0.9,1.4-0.3,1.8C88,717.5,88.4,716.9,89.5,716.5z"/>
	<path class="st2" d="M251.2,262.9c0.2,0.7-0.2,1.2-0.9,1.2c-0.3,0-0.6-0.5-0.9-0.7C249.7,262.3,250.3,262.2,251.2,262.9z"/>
	<path class="st3" d="M88.5,726.4c0.8,0.7,0.9,1.4-0.3,1.8C87,727.5,87.4,726.9,88.5,726.4z"/>
	<path class="st3" d="M90.5,706.5c0.8,0.7,0.9,1.4-0.3,1.8C89,707.5,89.4,706.9,90.5,706.5z"/>
	<path class="st3" d="M99.6,616.5c0.8,0.7,0.8,1.4-0.3,1.8C98,617.5,98.4,616.9,99.6,616.5z"/>
	<path class="st3" d="M87.5,736.4c0.9,0.8,0.9,1.4-0.3,1.8C86,737.5,86.4,736.9,87.5,736.4z"/>
	<path class="st3" d="M102.5,587.5c0.8,0.7,0.9,1.4-0.3,1.8C101,588.5,101.5,587.9,102.5,587.5z"/>
	<path class="st3" d="M103.5,577.5c0.8,0.7,0.9,1.4-0.3,1.8C102,578.5,102.4,577.9,103.5,577.5z"/>
	<path class="st3" d="M86.5,746.4c0.9,0.8,0.9,1.4-0.3,1.8C85,747.4,85.4,746.9,86.5,746.4z"/>
	<path class="st3" d="M130.5,329.5c0.6,0.7,0.9,1.4-0.3,1.8C128.9,330.5,129.5,330,130.5,329.5z"/>
	<path class="st2" d="M280.3,1473.9c0-37.7-0.5-75.3,0.2-113c0.3-19.6,0.7-39.3,0.5-58.9c-2-247.3,0-494.5-1.2-741.8
		c-0.2-41,0.2-82-0.9-122.9c-0.5-18.3-0.3-36.6-0.9-54.9c-0.2-5.8-0.7-11.6-0.9-17.4c-0.1-4,1.1-6,5.4-6.7
		c34.7-5.5,69.2-12.7,103.6-19.9c61.4-13,122.6-26.6,183.9-40.1c39.9-8.7,79.7-17.7,119.6-26.4c54.8-11.9,109.7-23.7,164.5-35.6
		c46.5-10.1,93-20.5,139.6-30.6c50.7-11.1,101.5-22,152.3-33.1c56.4-12.3,112.8-24.7,169.2-37.2c41.2-9.1,82.2-18.9,123.4-27.7
		c33.1-7.1,66.2-14.1,99.2-21.7c5-1.2,6.6,0,6.3,5.1c-1.2,22.1-1.2,44.2-2.2,66.3c-0.2,5.8-0.6,11.6-0.7,17.4
		c-2.4,256.3-1,512.5-0.7,768.8c0.1,88.9-0.1,177.8,1,266.7c0.3,22.8-0.1,45.6,0.9,68.4c0.5,10.3,0.3,20.6,0.7,30.9
		c0.2,4.5-1.3,6.7-5.9,7.5c-28.6,4.9-56.9,11.4-85.3,17.5c-26,5.6-51.9,11.3-77.8,17c-50.3,11-100.5,22.1-150.8,33.2
		c-30.8,6.8-61.5,13.8-92.3,20.6c-42.5,9.4-84.9,18.8-127.4,28.1c-62.4,13.8-124.8,27.5-187.2,41.3c-32.4,7.2-64.8,14.6-97.2,21.8
		c-40.7,9.1-81.4,17.9-122,27.1c-63.7,14.3-127.3,28.7-190.9,43c-35.3,7.9-70.5,16.3-105.7,25c-4.7,1.2-9.3,2.6-13.9,4
		c-5.8,1.7-6.7,1.1-6.7-5c0-38.8,0-77.7,0-116.5C280.3,1473.9,280.3,1473.9,280.3,1473.9z M1192.2,502.2c0.4-28.4-1.7-54.7-4.8-81
		c-3.4-27.9-9.3-55.3-16.4-82.5c-1.6-6.1-4.8-11.6-11.8-13c-6.4-1.3-11.9,1-15.9,6.2c-3.9,5-5.2,10.7-3.5,16.9
		c4.6,16.8,8.8,33.7,12,50.9c4.7,25,7.9,50.2,9.1,75.5c0.8,17.2,1.6,34.5,0.5,51.8c-0.9,14.9-1.7,29.9-3.5,44.7
		c-3.4,27.3-8.2,54.4-15.5,81.1c-12.5,45.6-30.1,88.8-57.3,127.7c-17.2,24.6-37.5,46.1-62.5,62.9c-41.9,28.1-86.7,35.9-134.8,18.7
		c-39.3-14-69.7-40.3-95.2-72.5c-26.8-34-45.8-72.4-60.4-113.1c-17-47.2-25.7-96.2-30.7-145.8c-2.4-23.5-3.5-47.1-3.4-70.7
		c0-6.1-0.5-12.3-1-18.4c-0.5-5.9-4.1-10.7-8.2-11.3c-6.4-0.9-10.6,1.6-13.2,8.1c-0.7,1.7-1.2,3.5-1.6,5.2
		c-3.9,16.4-5.2,33.2-5.7,49.9c-0.6,18.1-0.6,36.2,0.6,54.4c1.1,16.6,2.9,33.1,5.6,49.4c5.1,31.5,13,62.4,23.6,92.6
		c11.8,33.6,26.9,65.6,46.7,95.2c18.7,27.9,40.6,53,67.3,73.7c30.7,23.9,64.9,39.1,103.8,42.3c33.7,2.8,65.9-3.7,96.3-18.8
		c30.1-14.9,55.2-36.2,77.2-61.4c20.4-23.5,36.9-49.6,50.8-77.4c12.1-24.2,21.5-49.4,29.3-75.2c10.6-35.3,17.3-71.3,20.5-107.9
		C1191.7,540.6,1193,520.5,1192.2,502.2z"/>
	<path class="st1" d="M260.3,376.8c-1.9,20.3,0,40.6-1.2,60.9c-1.4,25.1-0.6,50.3-0.8,75.4c-2.2,310.9-0.5,621.8-1.1,932.7
		c0,9.1-1.6,10.2-10.7,10.8c-15.2,1-30.3,2.7-45.5,3.7c-9.4,0.6-18.8,1.5-28.2,2.2c-15.4,1.1-30.7,2.3-46,3.9
		c-12.7,1.3-25.4,2-38.1,3.2c-14.6,1.4-29.3,3-43.9,4.7c-5.3,0.6-6.9-0.1-6.4-5.6c1-10.9,2.4-21.7,3.5-32.5
		c1.2-10.9,2.3-21.7,3.4-32.6c1.3-12.3,2.6-24.7,3.8-37c1.1-11.4,2.1-22.7,3.2-34.1c1.2-11.5,2.5-23,3.7-34.5
		c0.8-7.9,1.5-15.8,2.3-23.7c1.2-11.5,2.6-23,3.8-34.5c1.2-11.4,2.1-22.7,3.2-34.1c1.2-12.7,2.6-25.3,3.8-38
		c0.8-7.9,1.4-15.8,2.2-23.7c1.2-12.5,2.6-25,3.8-37.5c1.1-12,2.1-24.1,3.2-36.1c1.2-12.5,2.5-25,3.8-37.5
		c0.8-8.1,1.4-16.2,2.2-24.2c1.2-12.3,2.6-24.7,3.8-37c1.1-11.7,2.1-23.4,3.2-35.1c1.2-11.8,2.5-23.7,3.7-35.5
		c1.1-10.9,2.1-21.7,3.2-32.6c1.2-12.2,2.6-24.3,3.8-36.5c1.1-11,2.1-22.1,3.2-33.1c1.2-11.2,2.5-22.4,3.7-33.5
		c0.8-7.7,1.5-15.5,2.3-23.2c1.3-12.8,2.6-25.7,3.9-38.5c1.1-11.9,2-23.8,3.2-35.6c1.1-11.7,2.5-23.3,3.8-35
		c0.8-7.7,1.5-15.5,2.2-23.2c1.3-13,2.6-26,3.8-39c1.1-11.7,2.1-23.4,3.2-35.1c1.2-12.2,2.5-24.3,3.7-36.5
		c0.8-8.4,1.5-16.8,2.3-25.2c1.2-13.3,2.6-26.7,3.8-40c1.1-11.4,2.2-22.7,3.2-34.1c1.4-15.8,2.6-31.7,3.9-47.5
		c0.3-4-0.2-7.9,0.9-11.9c0.8-2.8,1.8-2.4,3.3-0.8c2.1,2.3,4.2,4.7,6.2,7.2c11.5,14.2,26.7,22.2,44.1,26c16.6,3.7,32.9,1.7,48.8-3.9
		c0.9-0.3,1.9-0.7,2.8-1c5.4-1.8,6-1.3,6,4.4C260.3,373.5,260.3,375.2,260.3,376.8z"/>
	<path class="st4" d="M226.1,351.5c-21.9,0.9-39.5-6-53.9-20.6c-6.7-6.8-10.6-15.2-13.6-24.1c-1.4-4.1,1.2-5.7,4.9-6.3
		c9.2-1.3,18.4-2.4,27.5-4.1c20.3-3.7,40.6-8.1,60.9-11.6c30.3-5.2,60.3-12.1,90.5-18.2c40.5-8.2,81-16.6,121.6-24.9
		c33.6-6.8,67.1-13.5,100.7-20.3c31.6-6.4,63.2-13.1,94.8-19.5c29.5-6,59.1-11.7,88.6-17.6c29.7-6,59.3-12.2,89-18.2
		c27.9-5.6,55.9-10.8,83.7-16.8c19.7-4.3,39.5-8.2,59.3-12.2c32.1-6.6,64.2-13,96.3-19.7c23-4.7,46-9.7,69-14.4
		c21.1-4.3,42.3-8,63.2-12.7c12.6-2.9,25.3-5.2,37.9-7.9c28.5-6.2,57-12,85.5-17.9c20.4-4.2,40.9-7.8,61.3-12.4
		c15.2-3.4,30.4-6.3,45.7-9.3c3.4-0.7,5.8,1.4,5.1,4.7c-1.9,9.4-2.7,19-3.9,28.5c-0.5,4.1-2.7,6.5-6.8,7.4
		c-24.8,5.3-49.5,10.7-74.2,16.1c-17.6,3.9-35.2,8-52.8,11.8c-34.1,7.5-68.2,14.8-102.3,22.2c-24.6,5.4-49.1,11-73.7,16.4
		c-27.6,6.1-55.3,12.2-82.9,18.3c-35.2,7.7-70.5,15.3-105.7,23.2c-47.7,10.6-95.3,21.4-143,32c-36.7,8.1-73.4,16.1-110.1,24.2
		c-23.4,5.2-46.8,10.7-70.2,15.8c-35.2,7.8-70.5,15.4-105.7,23.2c-20.4,4.5-40.7,9.3-61,13.8c-37.6,8.4-75.4,16.3-112.9,25.2
		c-21.6,5.1-43.3,9.6-65,14.4c-7.3,1.6-14.3,3.2-21.2,6.4C243.8,350.5,234.5,352.9,226.1,351.5z"/>
	<path class="st4" d="M256.3,1486.7c0,12.4-0.6,24.8,0.1,37.2c1.1,19.9,0.7,39.9,0.8,59.8c0,1.8,0.7,4-1.2,5
		c-2.2,1.1-3.1-1.3-4.3-2.5c-19.2-18.4-41.5-32.4-64-46.1c-30.3-18.6-62.7-32.5-96.5-43.3c-3.3-1.1-6.7-2-10-3.1
		c-1.1-0.4-2.5-0.8-2.4-2.2c0.1-1.6,1.7-2,3-2.1c4-0.3,7.9-0.7,11.9-0.9c16.7-0.9,33.3-2.9,49.9-4.3c19.3-1.6,38.5-4,57.7-5.8
		c13.2-1.2,26.4-2.1,39.6-3.1c3.5-0.3,6.8-1,10.4-1.1c4-0.1,5.4,1.6,5.1,5.4C256.2,1482,256.3,1484.4,256.3,1486.7z"/>
	<path class="st1" d="M1469.8,75.6c-3.9,0.1-5.2-1.6-4.5-4.1c1.7-6.5,0.3-13.2,1.7-19.8c0.7-3.1,1.9-3.9,4.2-2.2
		c9.6,6.7,19.7,12.2,31,15.4c0.8,0.2,1.5,0.8,1.4,1.8c-0.1,1.5-1.3,1.8-2.5,2c-7.3,1.6-14.5,3.3-21.8,4.9
		C1476,74.4,1472.4,75,1469.8,75.6z"/>
	<path class="st1" d="M1137.2,81.5c10.5-3.1,21.2-5.1,32-6.7c-0.9,2.7-3.6,2.1-5.4,2.5c-7.5,1.8-15.1,3.2-22.6,4.7
		C1139.8,82.4,1138.4,83.1,1137.2,81.5z"/>
	<path class="st1" d="M1025.2,104.5c10.5-3.2,21.2-5,32-6.7c-0.9,2.8-3.6,2.1-5.4,2.5c-7.8,1.8-15.7,3.2-23.6,4.8
		C1027.1,105.3,1026,105.8,1025.2,104.5z"/>
	<path class="st1" d="M1225.2,63.5c10.5-3.3,21.2-5,32-6.7c-0.9,2.8-3.6,2.1-5.4,2.5c-7.8,1.8-15.7,3.2-23.6,4.8
		C1227.1,64.3,1226,64.8,1225.2,63.5z"/>
	<path class="st1" d="M758.2,159.5c8.8-2.8,17.9-4.5,27-5.7c-0.9,2.8-3.6,2-5.5,2.5c-5.9,1.6-12,2.6-18,3.9
		C760.5,160.5,759.2,160.9,758.2,159.5z"/>
	<path class="st1" d="M792.2,152.5c8.8-3,17.9-4.3,27-5.7c-0.9,2.8-3.6,2.1-5.5,2.5c-6.1,1.5-12.3,2.5-18.5,3.7
		C794.1,153.3,793.1,153.8,792.2,152.5z"/>
	<path class="st1" d="M643.3,183.5c8.8-3,17.9-4.3,27-5.7c-0.9,2.8-3.6,2.1-5.4,2.5c-6.1,1.5-12.3,2.5-18.5,3.7
		C645.2,184.3,644.1,184.8,643.3,183.5z"/>
	<path class="st1" d="M1073.2,94.6c7.5-2.5,15.2-3.7,23-4.8c-2.3,3.4-6.2,2.7-9.3,3.2C1082.4,93.7,1078.1,96.6,1073.2,94.6z"/>
	<path class="st1" d="M1181.2,72.5c7.1-2.5,14.6-3.7,22-4.7c-4.5,3.9-10.4,3.3-15.6,4.5C1185.7,72.8,1183.3,74.8,1181.2,72.5z"/>
	<path class="st1" d="M696.3,172.5c7.1-2.5,14.6-3.7,22-4.7c-2.1,3.3-5.8,2.5-8.8,3.1C705.1,171.6,700.9,174.1,696.3,172.5z"/>
	<path class="st1" d="M1420.2,23.5c7.1-2.5,14.6-3.7,22-4.7c-2.3,3.3-6.2,2.6-9.3,3.2C1428.7,22.7,1424.7,25.3,1420.2,23.5z"/>
	<path class="st1" d="M821.2,146.5c7.1-2.5,14.6-3.7,22-4.7c-2.2,3.2-5.8,2.5-8.8,3C830.1,145.6,825.9,148.1,821.2,146.5z"/>
	<path class="st1" d="M986.2,112.5c7.1-2.5,14.6-3.7,22-4.7c-2.3,3.3-6.2,2.6-9.3,3.2C994.7,111.7,990.7,114.3,986.2,112.5z"/>
	<path class="st1" d="M1376.2,32.5c7.1-2.5,14.6-3.7,22-4.7c-2.3,3.3-6.2,2.6-9.3,3.1C1384.7,31.7,1380.7,34.3,1376.2,32.5z"/>
	<path class="st1" d="M734.3,164.6c7.2-2.5,14.5-3.9,22-4.8c-0.3,2.1-2.2,1.7-3.5,2c-5.1,1.2-10.3,2.4-15.4,3.5
		C736.2,165.6,735.1,165.7,734.3,164.6z"/>
	<path class="st1" d="M884.2,133.5c7.1-2.5,14.6-3.7,22-4.7c-2.3,3.3-6.2,2.6-9.3,3.1C892.8,132.7,888.7,135.3,884.2,133.5z"/>
	<path class="st1" d="M855.2,139.5c5.4-2.3,11.2-3,17-3.7c-2.9,3.6-7.4,2.5-11.2,3.5C859.4,139.8,857.2,141.8,855.2,139.5z"/>
	<path class="st1" d="M1103.2,88.5c5.5-2.3,11.2-3,17-3.7C1115,88.3,1109.3,89,1103.2,88.5z"/>
	<path class="st1" d="M957.2,118.5c5.5-2.3,11.2-3,17-3.7C969.1,118.3,963.3,119,957.2,118.5z"/>
	<path class="st1" d="M672.3,177.5c5.5-2.3,11.2-3,17-3.7C684.1,177.3,678.3,178,672.3,177.5z"/>
	<path class="st1" d="M1283.2,51.6c4.2-1.7,8.6-2.4,13-2.8C1292.3,51.9,1288,52.7,1283.2,51.6z"/>
	<path class="st1" d="M1313.2,45.5c4.2-1.8,8.5-2.7,13-2.7C1322.3,45.6,1317.9,46.5,1313.2,45.5z"/>
	<path class="st1" d="M1405.2,26.6c4.2-1.7,8.6-2.4,13-2.7C1414.3,26.9,1410,27.7,1405.2,26.6z"/>
	<path class="st1" d="M918.2,126.5c3.8-1.8,7.9-2.4,12-2.6C926.7,126.5,922.7,127.9,918.2,126.5z"/>
	<path class="st1" d="M1264.2,55.5c3.8-1.8,7.9-2.4,12-2.6C1272.7,55.7,1268.6,56.5,1264.2,55.5z"/>
	<path class="st1" d="M720.3,167.5c3.8-1.8,7.9-2.4,12-2.7C728.7,167.7,724.7,168.4,720.3,167.5z"/>
	<path class="st1" d="M1352.2,37.5c3.8-1.8,7.9-2.4,12-2.7C1360.6,37.8,1356.6,38.4,1352.2,37.5z"/>
	<path class="st1" d="M1338.2,40.6c3.9-1.4,7.8-2.6,12-2.8C1346.6,40.7,1342.7,41.8,1338.2,40.6z"/>
	<path class="st1" d="M1459.2,15.5c5.1-1.6,8-0.5,9.9,4C1466,17.6,1462.6,16.7,1459.2,15.5z"/>
	<path class="st1" d="M1569.5,204.6c1.3,2.6,0.7,5.3,0.4,8C1567,210.1,1567.7,207.4,1569.5,204.6z"/>
	<path class="st1" d="M1449.2,17.5c2.5-1.3,5.1-2.1,8-1.7C1454.9,18.4,1452.2,18.8,1449.2,17.5z"/>
	<path class="st1" d="M1171.2,74.6c2.5-1.4,5.2-1.7,8-1.7C1177,75.3,1174.4,76.2,1171.2,74.6z"/>
	<path class="st1" d="M1015.2,106.5c2.5-1.4,5.2-1.7,8-1.8C1021,107.3,1018.4,108.2,1015.2,106.5z"/>
	<path class="st1" d="M976.2,114.5c2.5-1.4,5.2-1.7,8-1.7C982,115.3,979.4,116.2,976.2,114.5z"/>
	<path class="st1" d="M942.2,121.5c2.5-1.4,5.2-1.7,8-1.7C948,122.3,945.4,123.2,942.2,121.5z"/>
	<path class="st1" d="M932.2,123.6c2.5-1.4,5.2-1.7,8-1.7C938,124.3,935.4,125.2,932.2,123.6z"/>
	<path class="st1" d="M1064.2,96.5c2.2-1.2,4.5-1.9,7-1.6C1069.3,97.1,1067,98,1064.2,96.5z"/>
	<path class="st1" d="M1098.2,89.5c0.8-1.1,1.9-1,3-0.7C1100.7,90.9,1099.6,91.1,1098.2,89.5z"/>
	<path class="st1" d="M633.3,185.5c0.8-1.1,1.9-1,3-0.7C635.7,186.8,634.7,187.1,633.3,185.5z"/>
	<path class="st1" d="M638.3,184.5c0.8-1.1,1.9-1,3-0.7C640.7,185.8,639.7,186.1,638.3,184.5z"/>
	<path class="st1" d="M691.2,173.5c0.8-1.1,1.9-1,3-0.7C693.7,174.8,692.7,175.1,691.2,173.5z"/>
	<path class="st1" d="M1205.2,67.6c0.8-1.1,1.9-1,3-0.7C1207.6,68.8,1206.6,69.1,1205.2,67.6z"/>
	<path class="st1" d="M787.2,153.5c0.8-1.1,1.9-1,3-0.7C789.7,154.9,788.7,155.1,787.2,153.5z"/>
	<path class="st1" d="M845.2,141.5c0.8-1.1,1.9-1,3-0.7C847.7,142.9,846.7,143.1,845.2,141.5z"/>
	<path class="st1" d="M850.2,140.5c0.8-1.1,1.9-1,3-0.7C852.7,141.9,851.7,142.1,850.2,140.5z"/>
	<path class="st1" d="M874.2,135.5c0.8-1.1,1.9-1,3-0.7C876.7,136.9,875.7,137.1,874.2,135.5z"/>
	<path class="st1" d="M879.2,134.5c0.8-1.1,1.9-1,3-0.7C881.7,135.8,880.7,136.1,879.2,134.5z"/>
	<path class="st1" d="M908.2,128.5c0.8-1.1,1.9-1,3-0.7C910.7,129.8,909.7,130.1,908.2,128.5z"/>
	<path class="st1" d="M913.2,127.5c0.8-1.1,1.9-1,3-0.7C915.7,128.8,914.7,129.1,913.2,127.5z"/>
	<path class="st1" d="M952.2,119.5c0.8-1.1,1.9-1,3-0.7C954.7,120.9,953.7,121.1,952.2,119.5z"/>
	<path class="st1" d="M1010.2,107.6c0.8-1.1,1.9-1,3-0.7C1012.7,108.8,1011.6,109.1,1010.2,107.6z"/>
	<path class="st1" d="M1059.2,97.5c0.8-1.1,1.9-1,3-0.7C1061.6,98.8,1060.6,99.1,1059.2,97.5z"/>
	<path class="st1" d="M1122.2,84.6c0.8-1.1,1.9-1,3.1-0.7C1124.6,85.8,1123.6,86.1,1122.2,84.6z"/>
	<path class="st1" d="M1127.2,83.5c0.8-1.1,1.9-1,3-0.7C1129.6,84.9,1128.6,85.1,1127.2,83.5z"/>
	<path class="st1" d="M1132.2,82.5c0.8-1.1,1.9-1,3-0.7C1134.6,83.8,1133.6,84.1,1132.2,82.5z"/>
	<path class="st1" d="M1210.2,66.6c0.8-1.1,1.9-1,3-0.7C1212.7,67.9,1211.6,68.1,1210.2,66.6z"/>
	<path class="st1" d="M1215.2,65.5c0.8-1.1,1.9-1,3-0.7C1217.6,66.8,1216.6,67.1,1215.2,65.5z"/>
	<path class="st1" d="M1220.2,64.5c0.8-1.1,1.9-1,3-0.7C1222.6,65.9,1221.6,66.1,1220.2,64.5z"/>
	<path class="st1" d="M1558.1,56.9c1.4-0.5,2.7-0.4,3.4,1.2C1560,58.7,1558.7,58.9,1558.1,56.9z"/>
	<path class="st1" d="M1259.2,56.5c0.8-1.1,1.9-1,3-0.7C1261.6,57.8,1260.6,58.1,1259.2,56.5z"/>
	<path class="st1" d="M1278.2,52.6c0.8-1.1,1.9-1,3-0.7C1280.6,53.9,1279.6,54.1,1278.2,52.6z"/>
	<path class="st1" d="M1298.2,48.5c0.8-1.1,1.9-1,3-0.7C1300.6,49.9,1299.6,50.1,1298.2,48.5z"/>
	<path class="st1" d="M1303.2,47.5c0.8-1.1,1.9-1,3-0.7C1305.6,48.9,1304.6,49.1,1303.2,47.5z"/>
	<path class="st1" d="M1308.2,46.5c0.8-1.1,1.9-1,3-0.7C1310.6,47.9,1309.6,48.1,1308.2,46.5z"/>
	<path class="st1" d="M1328.2,42.5c0.8-1.1,1.9-1,3-0.7C1330.6,43.9,1329.6,44.1,1328.2,42.5z"/>
	<path class="st1" d="M1333.2,41.5c0.8-1.1,1.9-1,3-0.7C1335.6,42.9,1334.6,43.1,1333.2,41.5z"/>
	<path class="st1" d="M1366.2,34.6c0.8-1.1,1.9-1,3-0.7C1368.6,35.9,1367.6,36.1,1366.2,34.6z"/>
	<path class="st1" d="M1371.2,33.6c0.8-1.1,1.9-1,3-0.7C1373.6,34.8,1372.6,35.1,1371.2,33.6z"/>
	<path class="st1" d="M1400.2,27.6c0.8-1.1,1.9-1,3-0.7C1402.6,28.8,1401.6,29.1,1400.2,27.6z"/>
	<path class="st1" d="M1444.2,18.5c0.8-1.1,1.9-1,3-0.7C1446.6,19.9,1445.6,20.1,1444.2,18.5z"/>
	<path class="st1" d="M1566.9,77.5c0.3,0.8,0.2,1.5-0.5,2.1C1564.7,78.5,1565.5,77.9,1566.9,77.5z"/>
	<path class="st1" d="M1565.7,62.3c1,0.5,1.5,1.2,1.2,2.4C1565.5,64.3,1565.1,63.6,1565.7,62.3z"/>
	<path class="st1" d="M1563.3,58.5c0.6,0.1,1.2,0.1,1.7,0.2c0.1,0.6,0.1,1.2,0.2,1.7C1563.8,60.6,1563.2,59.9,1563.3,58.5z"/>
	<path class="st3" d="M1192.2,502.2c0.8,18.2-0.5,38.3-2.3,58.4c-3.3,36.6-9.9,72.7-20.5,107.9c-7.8,25.9-17.3,51-29.3,75.2
		c-13.9,27.8-30.3,53.9-50.8,77.4c-22,25.2-47,46.5-77.2,61.4c-30.4,15.1-62.6,21.6-96.3,18.8c-38.9-3.2-73.1-18.4-103.8-42.3
		c-26.7-20.8-48.6-45.8-67.3-73.7c-19.8-29.6-34.9-61.6-46.7-95.2c-10.6-30.2-18.5-61-23.6-92.6c-2.7-16.4-4.5-32.8-5.6-49.4
		c-1.2-18.2-1.1-36.3-0.6-54.4c0.5-16.7,1.8-33.5,5.7-49.9c0.4-1.8,0.9-3.6,1.6-5.2c2.7-6.5,6.8-9,13.2-8.1
		c4.1,0.6,7.7,5.4,8.2,11.3c0.5,6.1,1,12.3,1,18.4c-0.1,23.6,1,47.2,3.4,70.7c5,49.7,13.8,98.6,30.7,145.8
		c14.6,40.6,33.5,79,60.4,113.1c25.4,32.3,55.9,58.5,95.2,72.5c48,17.1,92.9,9.4,134.8-18.7c25-16.8,45.4-38.3,62.5-62.9
		c27.2-38.9,44.8-82.2,57.3-127.7c7.3-26.6,12.1-53.8,15.5-81.1c1.8-14.8,2.6-29.8,3.5-44.7c1-17.3,0.3-34.6-0.5-51.8
		c-1.2-25.4-4.4-50.6-9.1-75.5c-3.2-17.2-7.5-34.1-12-50.9c-1.7-6.2-0.3-11.9,3.5-16.9c4-5.2,9.5-7.5,15.9-6.2
		c6.9,1.4,10.2,6.9,11.8,13c7.1,27.1,13,54.5,16.4,82.5C1190.6,447.5,1192.7,473.8,1192.2,502.2z"/>
</g>
</svg>
